<svg width="32" height="33" viewBox="0 0 32 33" fill="none" xmlns="http://www.w3.org/2000/svg">
<g id="Frame 1707484644">
<g id="Group 1000011764">
<g id="Group 1000011767">
<path id="Vector" d="M24.6547 5.52412C23.7322 5.45162 22.8373 5.53412 21.9973 5.75161C20.8223 6.0566 19.5924 5.60412 18.8549 4.63666C16.88 2.04926 13.7301 0.404321 10.2003 0.504317C4.71798 0.659311 0.220652 5.10914 0.0131606 10.5889C-0.214331 16.5737 4.57048 21.4985 10.5052 21.4985H24.0047C28.6045 21.4985 32.2994 17.6136 31.9869 12.9463C31.7244 9.02648 28.572 5.83661 24.6572 5.52412H24.6547Z" fill="#8E939A"/>
<path id="Vector_2" d="M6.75533 11.4999C7.3076 11.4999 7.75529 11.0522 7.75529 10.5C7.75529 9.9477 7.3076 9.5 6.75533 9.5C6.20307 9.5 5.75537 9.9477 5.75537 10.5C5.75537 11.0522 6.20307 11.4999 6.75533 11.4999Z" fill="#23282E"/>
<path id="Vector_3" d="M14.2553 11.4999C14.8076 11.4999 15.2553 11.0522 15.2553 10.5C15.2553 9.9477 14.8076 9.5 14.2553 9.5C13.7031 9.5 13.2554 9.9477 13.2554 10.5C13.2554 11.0522 13.7031 11.4999 14.2553 11.4999Z" fill="#23282E"/>
<path id="Vector (Stroke)" fill-rule="evenodd" clip-rule="evenodd" d="M10.4507 11.5664C11.0834 11.5664 11.686 11.8055 12.2506 12.2289C12.4715 12.3946 12.5163 12.708 12.3506 12.9289C12.1849 13.1498 11.8715 13.1946 11.6506 13.0289C11.2152 12.7023 10.8179 12.5664 10.4507 12.5664C10.0834 12.5664 9.68611 12.7023 9.25071 13.0289C9.0298 13.1946 8.7164 13.1498 8.55071 12.9289C8.38503 12.708 8.4298 12.3946 8.65071 12.2289C9.21528 11.8055 9.81792 11.5664 10.4507 11.5664Z" fill="#23282E"/>
</g>
<path id="Vector_4" d="M16.0036 24.5C15.0516 25.452 13.3369 27.9293 13.3369 29.8333C13.3369 31.3053 14.5316 32.5 16.0036 32.5C17.4756 32.5 18.6702 31.3053 18.6702 29.8333C18.6702 27.9293 16.9556 25.452 16.0036 24.5Z" fill="#D4F7FF"/>
<path id="Vector_5" d="M8.00488 24.5C7.29124 25.214 6.00488 27.071 6.00488 28.499C6.00488 29.603 6.89844 30.5 8.00488 30.5C9.11133 30.5 10.0049 29.606 10.0049 28.499C10.0049 27.071 8.71852 25.214 8.00488 24.5Z" fill="#D4F7FF"/>
<path id="Vector_6" d="M24.001 24.5C23.2873 25.214 22.001 27.071 22.001 28.499C22.001 29.603 22.8945 30.5 24.001 30.5C25.1074 30.5 26.001 29.606 26.001 28.499C26.001 27.071 24.7146 25.214 24.001 24.5Z" fill="#D4F7FF"/>
</g>
</g>
</svg>
