<svg width="32" height="33" viewBox="0 0 32 33" fill="none" xmlns="http://www.w3.org/2000/svg">
<g id="Frame 1707484641">
<g id="Group 1000011761">
<g id="Group 1000011762">
<path id="Vector" d="M23.7254 4.52406L27.8051 3.80389C28.3176 3.71387 28.7651 4.15898 28.6751 4.6741L27.9551 8.75505C27.9051 9.04262 28.0251 9.33268 28.2626 9.50022L31.6574 11.8758C32.0848 12.1733 32.0848 12.806 31.6574 13.1061L28.2626 15.4816C28.0226 15.6492 27.9026 15.9392 27.9551 16.2268L28.6751 20.3077C28.7651 20.8204 28.3201 21.268 27.8051 21.1779L23.7254 20.4578C23.4379 20.4078 23.148 20.5278 22.9805 20.7653L20.6056 24.1611C20.3082 24.5887 19.6757 24.5887 19.3757 24.1611L17.0009 20.7653C16.8334 20.5253 16.5434 20.4053 16.256 20.4578L12.1762 21.1779C11.6638 21.268 11.2163 20.8229 11.3063 20.3077L12.0263 16.2268C12.0763 15.9392 11.9563 15.6492 11.7188 15.4816L8.32402 13.1061C7.89655 12.8085 7.89655 12.1758 8.32402 11.8758L11.7188 9.50022C11.9588 9.33268 12.0788 9.04262 12.0263 8.75505L11.3063 4.6741C11.2163 4.16148 11.6613 3.71387 12.1762 3.80389L16.256 4.52406C16.5434 4.57407 16.8334 4.45405 17.0009 4.21649L19.3757 0.8207C19.6732 0.3931 20.3057 0.3931 20.6056 0.8207L22.9805 4.21649C23.148 4.45655 23.4379 4.57657 23.7254 4.52406Z" fill="#FFD34C"/>
<path id="Vector_2" d="M17.1635 11.8192C17.7157 11.8192 18.1634 11.3715 18.1634 10.8193C18.1634 10.267 17.7157 9.81934 17.1635 9.81934C16.6113 9.81934 16.1636 10.267 16.1636 10.8193C16.1636 11.3715 16.6113 11.8192 17.1635 11.8192Z" fill="#23282E"/>
<path id="Vector_3" d="M22.6635 11.8192C23.2157 11.8192 23.6634 11.3715 23.6634 10.8193C23.6634 10.267 23.2157 9.81934 22.6635 9.81934C22.1113 9.81934 21.6636 10.267 21.6636 10.8193C21.6636 11.3715 22.1113 11.8192 22.6635 11.8192Z" fill="#23282E"/>
<path id="Vector (Stroke)" fill-rule="evenodd" clip-rule="evenodd" d="M17.9136 12.8198C17.9136 12.5437 18.1374 12.3198 18.4136 12.3198H21.4134C21.6895 12.3198 21.9134 12.5437 21.9134 12.8198C21.9134 13.096 21.6895 13.3198 21.4134 13.3198H18.4136C18.1374 13.3198 17.9136 13.096 17.9136 12.8198Z" fill="#23282E"/>
</g>
<g id="Group 1000011766">
<path id="Vector_4" d="M24.6545 16.5236C23.732 16.4511 22.8371 16.5336 21.9971 16.7511C20.8222 17.0562 19.5923 16.6036 18.8549 15.6359C16.88 13.0453 13.7302 11.3999 10.198 11.4999C4.71587 11.655 0.218692 16.106 0.0112072 21.5873C-0.216277 27.5737 4.56838 32.4998 10.503 32.4998H24.002C28.6017 32.4998 32.2964 28.6139 31.9839 23.9453C31.7215 20.0244 28.5692 16.8337 24.6545 16.5211V16.5236Z" fill="white"/>
<path id="Vector_5" d="M24.6545 16.5197C23.732 16.4472 22.8371 16.5297 21.9971 16.7472C20.8222 17.0523 19.5923 16.5997 18.8549 15.632C16.88 13.0414 13.7302 11.396 10.198 11.496C4.71587 11.6511 0.218692 16.1021 0.0112072 21.5834C-0.216277 27.5698 4.56838 32.4959 10.503 32.4959H24.002C28.6017 32.4959 32.2964 28.61 31.9839 23.9414C31.7215 20.0205 28.5692 16.8298 24.6545 16.5172V16.5197Z" fill="#D4F7FF"/>
<path id="Vector_6" d="M6.75335 23.0023C7.30559 23.0023 7.75328 22.5546 7.75328 22.0024C7.75328 21.4501 7.30559 21.0024 6.75335 21.0024C6.2011 21.0024 5.75342 21.4501 5.75342 22.0024C5.75342 22.5546 6.2011 23.0023 6.75335 23.0023Z" fill="#23282E"/>
<path id="Vector_7" d="M14.2533 23.0023C14.8056 23.0023 15.2533 22.5546 15.2533 22.0024C15.2533 21.4501 14.8056 21.0024 14.2533 21.0024C13.7011 21.0024 13.2534 21.4501 13.2534 22.0024C13.2534 22.5546 13.7011 23.0023 14.2533 23.0023Z" fill="#23282E"/>
<path id="Vector (Stroke)_2" fill-rule="evenodd" clip-rule="evenodd" d="M8.50732 24.0029C8.50732 23.7268 8.73118 23.5029 9.00732 23.5029H12.0071C12.2833 23.5029 12.5071 23.7268 12.5071 24.0029C12.5071 24.2791 12.2833 24.5029 12.0071 24.5029H9.00732C8.73118 24.5029 8.50732 24.2791 8.50732 24.0029Z" fill="#23282E"/>
</g>
</g>
</g>
</svg>
