<svg width="32" height="33" viewBox="0 0 32 33" fill="none" xmlns="http://www.w3.org/2000/svg">
<g id="Frame 1707484642">
<g id="Group 1000011760">
<path id="Vector" d="M20.5634 6.18281L26.8459 5.07281C27.1884 5.01281 27.4859 5.31031 27.4259 5.65281L26.3184 11.9353C26.2834 12.1278 26.3659 12.3203 26.5234 12.4328L31.7484 16.0903C32.0334 16.2903 32.0334 16.7103 31.7484 16.9103L26.5234 20.5678C26.3634 20.6803 26.2834 20.8728 26.3184 21.0653L27.4284 27.3478C27.4884 27.6903 27.1909 27.9878 26.8484 27.9278L20.5659 26.8203C20.3734 26.7853 20.1809 26.8678 20.0684 27.0253L16.4109 32.2503C16.2109 32.5353 15.7909 32.5353 15.5909 32.2503L11.9334 27.0253C11.8209 26.8653 11.6284 26.7853 11.4359 26.8203L5.15336 27.9303C4.81086 27.9903 4.51336 27.6928 4.57336 27.3503L5.68086 21.0678C5.71586 20.8753 5.63336 20.6828 5.47586 20.5703L0.250859 16.9128C-0.0341406 16.7128 -0.0341406 16.2928 0.250859 16.0928L5.47586 12.4353C5.63586 12.3228 5.71586 12.1303 5.68086 11.9378L4.57086 5.65531C4.51086 5.31281 4.80836 5.01531 5.15086 5.07531L11.4334 6.18281C11.6259 6.21781 11.8184 6.13531 11.9309 5.97781L15.5884 0.752812C15.7884 0.467813 16.2084 0.467813 16.4084 0.752812L20.0659 5.97781C20.1784 6.13781 20.3709 6.21781 20.5634 6.18281Z" fill="#FFD34C"/>
<g id="Group">
<path id="Vector_2" d="M12.252 17.5C12.8042 17.5 13.252 17.0523 13.252 16.5C13.252 15.9477 12.8042 15.5 12.252 15.5C11.6997 15.5 11.252 15.9477 11.252 16.5C11.252 17.0523 11.6997 17.5 12.252 17.5Z" fill="#23282E"/>
<path id="Vector_3" d="M19.752 17.5C20.3042 17.5 20.752 17.0523 20.752 16.5C20.752 15.9477 20.3042 15.5 19.752 15.5C19.1997 15.5 18.752 15.9477 18.752 16.5C18.752 17.0523 19.1997 17.5 19.752 17.5Z" fill="#23282E"/>
</g>
<path id="Vector (Stroke)" fill-rule="evenodd" clip-rule="evenodd" d="M14.102 18.2C14.2677 17.9791 14.5811 17.9343 14.802 18.1C15.2374 18.4266 15.6347 18.5625 16.002 18.5625C16.3692 18.5625 16.7666 18.4266 17.202 18.1C17.4229 17.9343 17.7363 17.9791 17.902 18.2C18.0677 18.4209 18.0229 18.7343 17.802 18.9C17.2374 19.3235 16.6347 19.5625 16.002 19.5625C15.3692 19.5625 14.7666 19.3235 14.202 18.9C13.9811 18.7343 13.9363 18.4209 14.102 18.2Z" fill="#23282E"/>
</g>
</g>
</svg>
