<svg width="44" height="44" viewBox="0 0 44 44" fill="none" xmlns="http://www.w3.org/2000/svg">
<path d="M29.926 11.9375C29.0804 11.871 28.2601 11.9466 27.4902 12.146C26.4133 12.4256 25.286 12.0108 24.61 11.124C22.7999 8.75218 19.9128 7.24433 16.6774 7.33599C11.6525 7.47807 7.53033 11.5571 7.34015 16.5802C7.13163 22.0662 11.5173 26.5806 16.9569 26.5806H29.3302C33.5463 26.5806 36.9329 23.0195 36.6465 18.7412C36.4059 15.148 33.5165 12.2239 29.9282 11.9375H29.926Z" fill="#8E939A"/>
<path fill-rule="evenodd" clip-rule="evenodd" d="M16.9071 17.9629C17.487 17.9629 18.0394 18.182 18.5569 18.5702C18.7594 18.722 18.8004 19.0093 18.6485 19.2118C18.4967 19.4143 18.2094 19.4554 18.0069 19.3035C17.6079 19.0042 17.2437 18.8796 16.9071 18.8796C16.5705 18.8796 16.2063 19.0042 15.8073 19.3035C15.6048 19.4554 15.3175 19.4143 15.1657 19.2118C15.0138 19.0093 15.0548 18.722 15.2573 18.5702C15.7748 18.182 16.3272 17.9629 16.9071 17.9629Z" fill="#23282E"/>
<path d="M12.553 16.9835C12.553 17.49 12.9631 17.9002 13.4695 17.9002C13.9759 17.9002 14.3861 17.49 14.3861 16.9835C14.3861 16.9377 14.3792 16.8942 14.3723 16.8483L12.6927 16.5C12.6057 16.6398 12.553 16.8048 12.553 16.9835Z" fill="#23282E"/>
<path d="M21.2606 16.9835C21.2606 17.49 20.8504 17.9002 20.344 17.9002C19.8376 17.9002 19.4275 17.49 19.4275 16.9835C19.4275 16.9377 19.4344 16.8942 19.4412 16.8483L21.1208 16.5C21.2079 16.6398 21.2606 16.8048 21.2606 16.9835Z" fill="#23282E"/>
<path d="M19.5501 36.4498L23.5081 30.7725C23.7609 30.412 23.5279 29.8864 23.1165 29.8864H21.8971L24.6778 24.6631C24.8736 24.2971 24.6357 23.832 24.2516 23.832H20.0086C19.8029 23.832 19.6195 23.9724 19.5452 24.1843L17.4485 30.2386C17.3246 30.5991 17.5625 30.9872 17.9119 30.9872H19.7013L18.6778 35.9902C18.5613 36.5654 19.228 36.9149 19.5526 36.4498H19.5501Z" fill="#FFD34C"/>
<path d="M12.8324 29.332C12.1783 29.9865 10.9993 31.6888 10.9993 32.9978C10.9993 34.0098 11.8183 34.832 12.8324 34.832C13.8466 34.832 14.6656 34.0125 14.6656 32.9978C14.6656 31.6888 13.4865 29.9865 12.8324 29.332Z" fill="#D4F7FF"/>
<path d="M29.3302 29.332C28.6761 29.9865 27.4971 31.6888 27.4971 32.9978C27.4971 34.0098 28.3161 34.832 29.3302 34.832C30.3444 34.832 31.1634 34.0125 31.1634 32.9978C31.1634 31.6888 29.9843 29.9865 29.3302 29.332Z" fill="#D4F7FF"/>
</svg>
