<svg width="44" height="44" viewBox="0 0 44 44" fill="none" xmlns="http://www.w3.org/2000/svg">
<path d="M26.1824 12.5406L31.9414 11.5231C32.2553 11.4681 32.5281 11.7408 32.4731 12.0548L31.4578 17.8137C31.4258 17.9902 31.5014 18.1667 31.6458 18.2698L36.4353 21.6225C36.6966 21.8058 36.6966 22.1908 36.4353 22.3742L31.6458 25.7269C31.4991 25.83 31.4258 26.0065 31.4578 26.1829L32.4753 31.9419C32.5303 32.2558 32.2576 32.5285 31.9437 32.4735L26.1847 31.4583C26.0083 31.4262 25.8318 31.5019 25.7287 31.6462L22.376 36.4358C22.1926 36.6971 21.8076 36.6971 21.6243 36.4358L18.2716 31.6462C18.1685 31.4996 17.992 31.4262 17.8156 31.4583L12.0566 32.4758C11.7426 32.5308 11.4699 32.2581 11.5249 31.9442L12.5401 26.1852C12.5722 26.0087 12.4966 25.8323 12.3522 25.7292L7.56264 22.3765C7.30139 22.1931 7.30139 21.8081 7.56264 21.6248L12.3522 18.2721C12.4989 18.169 12.5722 17.9925 12.5401 17.816L11.5226 12.0571C11.4676 11.7431 11.7403 11.4704 12.0543 11.5254L17.8133 12.5406C17.9897 12.5727 18.1662 12.4971 18.2693 12.3527L21.622 7.56312C21.8053 7.30188 22.1903 7.30188 22.3737 7.56312L25.7264 12.3527C25.8295 12.4994 26.006 12.5727 26.1824 12.5406Z" fill="#FFD34C"/>
<path d="M18.5622 22.9154C19.0684 22.9154 19.4788 22.505 19.4788 21.9987C19.4788 21.4924 19.0684 21.082 18.5622 21.082C18.0559 21.082 17.6455 21.4924 17.6455 21.9987C17.6455 22.505 18.0559 22.9154 18.5622 22.9154Z" fill="#23282E"/>
<path d="M25.4374 22.9154C25.9437 22.9154 26.3541 22.505 26.3541 21.9987C26.3541 21.4924 25.9437 21.082 25.4374 21.082C24.9312 21.082 24.5208 21.4924 24.5208 21.9987C24.5208 22.505 24.9312 22.9154 25.4374 22.9154Z" fill="#23282E"/>
<path fill-rule="evenodd" clip-rule="evenodd" d="M20.2582 23.5564C20.4101 23.3539 20.6974 23.3129 20.8999 23.4647C21.299 23.7641 21.6632 23.8887 21.9999 23.8887C22.3365 23.8887 22.7007 23.7641 23.0999 23.4647C23.3024 23.3129 23.5897 23.3539 23.7415 23.5564C23.8934 23.7589 23.8524 24.0462 23.6499 24.1981C23.1323 24.5862 22.5799 24.8054 21.9999 24.8054C21.4198 24.8054 20.8674 24.5862 20.3499 24.1981C20.1474 24.0462 20.1063 23.7589 20.2582 23.5564Z" fill="#23282E"/>
</svg>
