<svg width="44" height="44" viewBox="0 0 44 44" fill="none" xmlns="http://www.w3.org/2000/svg">
<path d="M29.0743 11.0196L32.8136 10.3597C33.2834 10.2772 33.6935 10.6851 33.611 11.1571L32.9511 14.8969C32.9053 15.1604 33.0153 15.4262 33.233 15.5797L36.3445 17.7567C36.7363 18.0293 36.7363 18.6091 36.3445 18.8841L33.233 21.061C33.013 21.2145 32.903 21.4803 32.9511 21.7439L33.611 25.4836C33.6935 25.9534 33.2857 26.3635 32.8136 26.281L29.0743 25.6211C28.8108 25.5753 28.545 25.6853 28.3915 25.9029L26.2147 29.0148C25.9421 29.4067 25.3624 29.4067 25.0874 29.0148L22.9107 25.9029C22.7572 25.683 22.4914 25.573 22.2279 25.6211L18.4885 26.281C18.0188 26.3635 17.6087 25.9557 17.6912 25.4836L18.3511 21.7439C18.3969 21.4803 18.2869 21.2145 18.0692 21.061L14.9577 18.8841C14.5659 18.6114 14.5659 18.0316 14.9577 17.7567L18.0692 15.5797C18.2892 15.4262 18.3992 15.1604 18.3511 14.8969L17.6912 11.1571C17.6087 10.6874 18.0165 10.2772 18.4885 10.3597L22.2279 11.0196C22.4914 11.0655 22.7572 10.9555 22.9107 10.7378L25.0874 7.62592C25.3601 7.23407 25.9398 7.23407 26.2147 7.62592L28.3915 10.7378C28.545 10.9578 28.8108 11.0678 29.0743 11.0196Z" fill="#FFD34C"/>
<path d="M23.0591 17.7062C23.5653 17.7062 23.9756 17.2959 23.9756 16.7896C23.9756 16.2834 23.5653 15.873 23.0591 15.873C22.5529 15.873 22.1426 16.2834 22.1426 16.7896C22.1426 17.2959 22.5529 17.7062 23.0591 17.7062Z" fill="#23282E"/>
<path d="M28.0996 17.7062C28.6058 17.7062 29.0161 17.2959 29.0161 16.7896C29.0161 16.2834 28.6058 15.873 28.0996 15.873C27.5934 15.873 27.1831 16.2834 27.1831 16.7896C27.1831 17.2959 27.5934 17.7062 28.0996 17.7062Z" fill="#23282E"/>
<path fill-rule="evenodd" clip-rule="evenodd" d="M23.7473 18.6224C23.7473 18.3693 23.9525 18.1641 24.2056 18.1641H26.9551C27.2083 18.1641 27.4134 18.3693 27.4134 18.6224C27.4134 18.8755 27.2083 19.0807 26.9551 19.0807H24.2056C23.9525 19.0807 23.7473 18.8755 23.7473 18.6224Z" fill="#23282E"/>
<path d="M29.9276 22.0158C29.0821 21.9493 28.2619 22.025 27.492 22.2243C26.4151 22.5039 25.2878 22.0891 24.6118 21.2023C22.8017 18.8283 19.9147 17.3205 16.6771 17.4122C11.6523 17.5542 7.53032 21.6331 7.34015 26.6561C7.13164 32.1419 11.5172 36.6562 16.9567 36.6562H29.3296C33.5456 36.6562 36.9321 33.0952 36.6457 28.817C36.4051 25.2239 33.5158 22.2999 29.9276 22.0135V22.0158Z" fill="white"/>
<path d="M29.9276 22.0119C29.0821 21.9454 28.2619 22.0211 27.492 22.2204C26.4151 22.5 25.2878 22.0852 24.6118 21.1984C22.8017 18.8244 19.9147 17.3166 16.6771 17.4083C11.6523 17.5503 7.53032 21.6292 7.34015 26.6522C7.13164 32.138 11.5172 36.6523 16.9567 36.6523H29.3296C33.5456 36.6523 36.9321 33.0913 36.6457 28.8131C36.4051 25.22 33.5158 22.296 29.9276 22.0096V22.0119Z" fill="#D4F7FF"/>
<path d="M13.52 27.9543C14.0262 27.9543 14.4365 27.5439 14.4365 27.0377C14.4365 26.5315 14.0262 26.1211 13.52 26.1211C13.0139 26.1211 12.6035 26.5315 12.6035 27.0377C12.6035 27.5439 13.0139 27.9543 13.52 27.9543Z" fill="#23282E"/>
<path d="M20.3945 27.9543C20.9007 27.9543 21.3111 27.5439 21.3111 27.0377C21.3111 26.5315 20.9007 26.1211 20.3945 26.1211C19.8884 26.1211 19.478 26.5315 19.478 27.0377C19.478 27.5439 19.8884 27.9543 20.3945 27.9543Z" fill="#23282E"/>
<path fill-rule="evenodd" clip-rule="evenodd" d="M15.1274 28.8704C15.1274 28.6173 15.3326 28.4121 15.5857 28.4121H18.3353C18.5884 28.4121 18.7936 28.6173 18.7936 28.8704C18.7936 29.1236 18.5884 29.3288 18.3353 29.3288H15.5857C15.3326 29.3288 15.1274 29.1236 15.1274 28.8704Z" fill="#23282E"/>
</svg>
