<svg width="32" height="33" viewBox="0 0 32 33" fill="none" xmlns="http://www.w3.org/2000/svg">
<g id="Frame 1707484645">
<g id="Group 1000011765">
<g id="Group 1000011768">
<path id="Vector" d="M24.6566 5.52412C23.7342 5.45162 22.8392 5.53412 21.9992 5.75161C20.8243 6.0566 19.5943 5.60412 18.8569 4.63665C16.8819 2.04926 13.7321 0.404321 10.2022 0.504317C4.71993 0.659311 0.222606 5.10914 0.0151137 10.5889C-0.212377 16.5737 4.57244 21.4985 10.5072 21.4985H24.0067C28.6065 21.4985 32.3013 17.6136 31.9889 12.9463C31.7264 9.02648 28.574 5.83661 24.6591 5.52412H24.6566Z" fill="#8E939A"/>
<path id="Vector (Stroke)" fill-rule="evenodd" clip-rule="evenodd" d="M10.4526 12.0977C11.0853 12.0977 11.688 12.3367 12.2525 12.7601C12.4735 12.9258 12.5182 13.2392 12.3525 13.4601C12.1869 13.681 11.8735 13.7258 11.6525 13.5601C11.2172 13.2336 10.8198 13.0977 10.4526 13.0977C10.0854 13.0977 9.68806 13.2336 9.25267 13.5601C9.03175 13.7258 8.71835 13.681 8.55267 13.4601C8.38698 13.2392 8.43175 12.9258 8.65267 12.7601C9.21723 12.3367 9.81988 12.0977 10.4526 12.0977Z" fill="#23282E"/>
<path id="Vector_2" d="M5.70264 11.0275C5.70264 11.58 6.15012 12.0274 6.7026 12.0274C7.25508 12.0274 7.70256 11.58 7.70256 11.0275C7.70256 10.9775 7.69506 10.93 7.68756 10.88L5.85513 10.5C5.76013 10.6525 5.70264 10.8325 5.70264 11.0275Z" fill="#23282E"/>
<path id="Vector_3" d="M15.2026 11.0275C15.2026 11.58 14.7551 12.0274 14.2026 12.0274C13.6501 12.0274 13.2026 11.58 13.2026 11.0275C13.2026 10.9775 13.2101 10.93 13.2176 10.88L15.0501 10.5C15.1451 10.6525 15.2026 10.8325 15.2026 11.0275Z" fill="#23282E"/>
</g>
<path id="Vector_4" d="M13.336 32.2648L17.6542 26.0714C17.93 25.6781 17.6758 25.1047 17.2269 25.1047H15.8966L18.9304 19.4066C19.144 19.0074 18.8845 18.5 18.4653 18.5H13.8362C13.6118 18.5 13.4117 18.6531 13.3306 18.8843L11.0431 25.489C10.9079 25.8823 11.1675 26.3056 11.5487 26.3056H13.5009L12.3842 31.7635C12.2571 32.3909 12.9845 32.7722 13.3387 32.2648H13.336Z" fill="#FFD34C"/>
<path id="Vector_5" d="M6.00684 24.5C5.29319 25.214 4.00684 27.071 4.00684 28.499C4.00684 29.603 4.90039 30.5 6.00684 30.5C7.11329 30.5 8.00684 29.606 8.00684 28.499C8.00684 27.071 6.72048 25.214 6.00684 24.5Z" fill="#D4F7FF"/>
<path id="Vector_6" d="M24.0068 24.5C23.2932 25.214 22.0068 27.071 22.0068 28.499C22.0068 29.603 22.9004 30.5 24.0068 30.5C25.1133 30.5 26.0068 29.606 26.0068 28.499C26.0068 27.071 24.7205 25.214 24.0068 24.5Z" fill="#D4F7FF"/>
</g>
</g>
</svg>
