<svg width="44" height="44" viewBox="0 0 44 44" fill="none" xmlns="http://www.w3.org/2000/svg">
<path d="M29.926 11.9375C29.0805 11.871 28.2601 11.9466 27.4903 12.146C26.4133 12.4256 25.286 12.0108 24.61 11.124C22.7999 8.75218 19.9128 7.24433 16.6774 7.33599C11.6525 7.47807 7.53033 11.5571 7.34015 16.5802C7.13163 22.0662 11.5173 26.5807 16.9569 26.5807H29.3302C33.5463 26.5807 36.9329 23.0195 36.6465 18.7412C36.4059 15.148 33.5165 12.2239 29.9283 11.9375H29.926Z" fill="#8E939A"/>
<path d="M13.5201 17.4153C14.0262 17.4153 14.4366 17.0049 14.4366 16.4987C14.4366 15.9924 14.0262 15.582 13.5201 15.582C13.0139 15.582 12.6035 15.9924 12.6035 16.4987C12.6035 17.0049 13.0139 17.4153 13.5201 17.4153Z" fill="#23282E"/>
<path d="M20.3938 17.4153C20.9 17.4153 21.3104 17.0049 21.3104 16.4987C21.3104 15.9924 20.9 15.582 20.3938 15.582C19.8876 15.582 19.4773 15.9924 19.4773 16.4987C19.4773 17.0049 19.8876 17.4153 20.3938 17.4153Z" fill="#23282E"/>
<path fill-rule="evenodd" clip-rule="evenodd" d="M16.9071 17.4766C17.487 17.4766 18.0394 17.6957 18.5569 18.0838C18.7594 18.2357 18.8004 18.523 18.6485 18.7255C18.4967 18.928 18.2094 18.969 18.0069 18.8172C17.6079 18.5178 17.2437 18.3932 16.9071 18.3932C16.5705 18.3932 16.2063 18.5178 15.8073 18.8172C15.6048 18.969 15.3175 18.928 15.1657 18.7255C15.0138 18.523 15.0548 18.2357 15.2573 18.0838C15.7748 17.6957 16.3272 17.4766 16.9071 17.4766Z" fill="#23282E"/>
<path d="M21.9982 29.332C21.1256 30.2047 19.554 32.4756 19.554 34.2209C19.554 35.5703 20.649 36.6654 21.9982 36.6654C23.3474 36.6654 24.4424 35.5703 24.4424 34.2209C24.4424 32.4756 22.8707 30.2047 21.9982 29.332Z" fill="#D4F7FF"/>
<path d="M14.6657 29.332C14.0116 29.9865 12.8325 31.6888 12.8325 32.9978C12.8325 34.0098 13.6515 34.832 14.6657 34.832C15.6798 34.832 16.4988 34.0125 16.4988 32.9978C16.4988 31.6888 15.3198 29.9865 14.6657 29.332Z" fill="#D4F7FF"/>
<path d="M29.3273 29.332C28.6732 29.9865 27.4941 31.6888 27.4941 32.9978C27.4941 34.0098 28.3131 34.832 29.3273 34.832C30.3414 34.832 31.1604 34.0125 31.1604 32.9978C31.1604 31.6888 29.9814 29.9865 29.3273 29.332Z" fill="#D4F7FF"/>
</svg>
