<svg width="32" height="33" viewBox="0 0 32 33" fill="none" xmlns="http://www.w3.org/2000/svg">
<g id="Frame 1707484643">
<g id="Group 1000011759">
<g id="Group">
<path id="Vector" d="M15.998 28.5075C23.73 28.5075 29.998 22.2378 29.998 14.5038C29.998 6.7697 23.73 0.5 15.998 0.5C8.26606 0.5 1.99805 6.7697 1.99805 14.5038C1.99805 22.2378 8.26606 28.5075 15.998 28.5075Z" fill="#FF5C46"/>
<path id="Vector_2" d="M15.998 3.50098C9.92305 3.50098 4.99805 8.4273 4.99805 14.5039C4.99805 20.5806 9.92305 25.5069 15.998 25.5069C22.073 25.5069 26.998 20.5806 26.998 14.5039C26.998 8.4273 22.073 3.50098 15.998 3.50098ZM15.998 22.006C11.8555 22.006 8.49805 18.6476 8.49805 14.5039C8.49805 10.3603 11.8555 7.00192 15.998 7.00192C20.1405 7.00192 23.498 10.3603 23.498 14.5039C23.498 18.6476 20.1405 22.006 15.998 22.006Z" fill="#FFD34C"/>
<path id="Vector_3" d="M15.9985 7.00195C11.856 7.00195 8.49854 10.3604 8.49854 14.504C8.49854 18.6476 11.856 22.006 15.9985 22.006C20.141 22.006 23.4985 18.6476 23.4985 14.504C23.4985 10.3604 20.141 7.00195 15.9985 7.00195ZM15.9985 18.505C13.7885 18.505 11.9985 16.7146 11.9985 14.504C11.9985 12.2934 13.7885 10.5029 15.9985 10.5029C18.2085 10.5029 19.9985 12.2934 19.9985 14.504C19.9985 16.7146 18.2085 18.505 15.9985 18.505Z" fill="#8DD248"/>
<path id="Vector_4" d="M15.9985 18.5051C18.2077 18.5051 19.9985 16.7137 19.9985 14.504C19.9985 12.2943 18.2077 10.5029 15.9985 10.5029C13.7894 10.5029 11.9985 12.2943 11.9985 14.504C11.9985 16.7137 13.7894 18.5051 15.9985 18.5051Z" fill="#5A7EFF"/>
</g>
<path id="Vector_5" d="M24.6499 16.5229C23.7274 16.4503 22.8324 16.5329 21.9925 16.7504C20.8175 17.0554 19.5876 16.6029 18.8501 15.6352C16.8752 13.0447 13.7253 11.3994 10.1929 11.4994C4.71065 11.657 0.215828 16.1053 0.00583639 21.5888C-0.221655 27.5749 4.56316 32.5008 10.4979 32.5008H23.9974C28.5972 32.5008 32.2921 28.6176 31.9796 23.9467C31.7171 20.026 28.5647 16.8354 24.6499 16.5229Z" fill="#D4F7FF"/>
<path id="Vector (Stroke)" fill-rule="evenodd" clip-rule="evenodd" d="M8.60198 23.7064C8.76767 23.4855 9.08107 23.4407 9.30198 23.6064C9.7374 23.9329 10.1347 24.0689 10.502 24.0689C10.8692 24.0689 11.2666 23.9329 11.702 23.6064C11.9229 23.4407 12.2363 23.4855 12.402 23.7064C12.5677 23.9273 12.5229 24.2407 12.302 24.4064C11.7374 24.8298 11.1347 25.0689 10.502 25.0689C9.86923 25.0689 9.26657 24.8298 8.70198 24.4064C8.48107 24.2407 8.4363 23.9273 8.60198 23.7064Z" fill="#23282E"/>
<g id="Vector_6">
<path fill-rule="evenodd" clip-rule="evenodd" d="M5.49407 20.1716C5.68059 19.9679 5.99687 19.954 6.2005 20.1406L7.83799 21.641C7.94139 21.7358 8.00026 21.8696 8.00026 22.0098C8.00026 22.1501 7.94139 22.2839 7.83799 22.3786L6.2005 23.879C5.99687 24.0656 5.68059 24.0517 5.49407 23.848C5.30754 23.6444 5.3214 23.328 5.52503 23.1414L6.76003 22.0098L5.52503 20.8782C5.3214 20.6916 5.30754 20.3753 5.49407 20.1716Z" fill="#23282E"/>
<path fill-rule="evenodd" clip-rule="evenodd" d="M4.75195 22.0098C4.75195 21.7336 4.97581 21.5097 5.25195 21.5097H7.50195C7.7781 21.5097 8.00026 21.7336 8.00026 22.0098C8.00026 22.286 7.7781 22.51 7.50195 22.51H5.25195C4.97581 22.51 4.75195 22.2861 4.75195 22.0098Z" fill="#23282E"/>
</g>
<path id="Vector (Stroke)_2" fill-rule="evenodd" clip-rule="evenodd" d="M15.5042 20.5817C15.6908 20.7854 15.6769 21.1018 15.4733 21.2884L14.2383 22.42L15.4733 23.5516C15.6769 23.7382 15.6908 24.0545 15.5042 24.2582C15.3177 24.4619 15.0014 24.4757 14.7978 24.2892L13.1603 22.7888C13.0569 22.694 12.998 22.5602 12.998 22.42C12.998 22.2797 13.0569 22.1459 13.1603 22.0512L14.7978 20.5508C15.0014 20.3642 15.3177 20.3781 15.5042 20.5817Z" fill="#23282E"/>
<path id="Vector (Stroke)_3" fill-rule="evenodd" clip-rule="evenodd" d="M12.998 22.4199C12.998 22.1438 13.2219 21.9199 13.498 21.9199H15.748C16.0242 21.9199 16.248 22.1438 16.248 22.4199C16.248 22.6961 16.0242 22.9199 15.748 22.9199H13.498C13.2219 22.9199 12.998 22.6961 12.998 22.4199Z" fill="#23282E"/>
</g>
</g>
</svg>
