<svg width="44" height="44" viewBox="0 0 44 44" fill="none" xmlns="http://www.w3.org/2000/svg">
<path d="M21.9991 32.9987C29.0864 32.9987 34.8317 27.253 34.8317 20.1654C34.8317 13.0777 29.0864 7.33203 21.9991 7.33203C14.9119 7.33203 9.1665 13.0777 9.1665 20.1654C9.1665 27.253 14.9119 32.9987 21.9991 32.9987Z" fill="#FF5C46"/>
<path d="M21.9995 10.082C16.4311 10.082 11.9167 14.5966 11.9167 20.1654C11.9167 25.7341 16.4311 30.2487 21.9995 30.2487C27.5679 30.2487 32.0823 25.7341 32.0823 20.1654C32.0823 14.5966 27.5679 10.082 21.9995 10.082ZM21.9995 27.0404C18.2024 27.0404 15.1249 23.9627 15.1249 20.1654C15.1249 16.3681 18.2024 13.2904 21.9995 13.2904C25.7966 13.2904 28.8741 16.3681 28.8741 20.1654C28.8741 23.9627 25.7966 27.0404 21.9995 27.0404Z" fill="#FFD34C"/>
<path d="M21.9994 13.291C18.2023 13.291 15.1248 16.3687 15.1248 20.166C15.1248 23.9633 18.2023 27.041 21.9994 27.041C25.7964 27.041 28.874 23.9633 28.874 20.166C28.874 16.3687 25.7964 13.291 21.9994 13.291ZM21.9994 23.8327C19.9736 23.8327 18.3329 22.1918 18.3329 20.166C18.3329 18.1402 19.9736 16.4993 21.9994 16.4993C24.0251 16.4993 25.6658 18.1402 25.6658 20.166C25.6658 22.1918 24.0251 23.8327 21.9994 23.8327Z" fill="#8DD248"/>
<path d="M21.9992 23.8333C24.0242 23.8333 25.6657 22.1917 25.6657 20.1667C25.6657 18.1416 24.0242 16.5 21.9992 16.5C19.9743 16.5 18.3328 18.1416 18.3328 20.1667C18.3328 22.1917 19.9743 23.8333 21.9992 23.8333Z" fill="#5A7EFF"/>
<path d="M29.9292 22.0138C29.0837 21.9473 28.2633 22.0229 27.4934 22.2223C26.4164 22.5019 25.289 22.0871 24.6131 21.2003C22.8028 18.8263 19.9156 17.3185 16.6778 17.4102C11.6526 17.5546 7.53263 21.6311 7.34015 26.6563C7.13163 32.1421 11.5175 36.6562 16.9573 36.6562H29.3312C33.5474 36.6562 36.9342 33.0976 36.6477 28.8171C36.4071 25.2241 33.5176 22.3002 29.9292 22.0138Z" fill="#D4F7FF"/>
<path fill-rule="evenodd" clip-rule="evenodd" d="M15.2184 28.5994C15.3703 28.3969 15.6575 28.3558 15.86 28.5077C16.2591 28.8071 16.6233 28.9317 16.96 28.9317C17.2966 28.9317 17.6608 28.8071 18.0599 28.5077C18.2624 28.3558 18.5497 28.3969 18.7015 28.5994C18.8534 28.8019 18.8124 29.0892 18.6099 29.241C18.0924 29.6292 17.54 29.8483 16.96 29.8483C16.38 29.8483 15.8276 29.6292 15.3101 29.241C15.1076 29.0892 15.0665 28.8019 15.2184 28.5994Z" fill="#23282E"/>
<path fill-rule="evenodd" clip-rule="evenodd" d="M12.369 25.3577C12.5399 25.1711 12.8298 25.1584 13.0165 25.3294L14.5174 26.7044C14.6122 26.7912 14.6662 26.9138 14.6662 27.0423C14.6662 27.1708 14.6122 27.2935 14.5174 27.3803L13.0165 28.7553C12.8298 28.9263 12.5399 28.9136 12.369 28.7269C12.198 28.5403 12.2107 28.2503 12.3973 28.0794L13.5294 27.0423L12.3973 26.0053C12.2107 25.8343 12.198 25.5444 12.369 25.3577Z" fill="#23282E"/>
<path fill-rule="evenodd" clip-rule="evenodd" d="M11.6887 27.0423C11.6887 26.7892 11.8939 26.584 12.147 26.584H14.2094C14.4625 26.584 14.6662 26.7892 14.6662 27.0423C14.6662 27.2955 14.4625 27.5007 14.2094 27.5007H12.147C11.8939 27.5007 11.6887 27.2955 11.6887 27.0423Z" fill="#23282E"/>
<path fill-rule="evenodd" clip-rule="evenodd" d="M21.546 25.7347C21.717 25.9213 21.7043 26.2113 21.5176 26.3822L20.3856 27.4193L21.5176 28.4563C21.7043 28.6273 21.717 28.9172 21.546 29.1039C21.375 29.2905 21.0851 29.3032 20.8985 29.1322L19.3975 27.7572C19.3027 27.6704 19.2488 27.5478 19.2488 27.4193C19.2488 27.2907 19.3027 27.1681 19.3975 27.0813L20.8985 25.7063C21.0851 25.5353 21.375 25.548 21.546 25.7347Z" fill="#23282E"/>
<path fill-rule="evenodd" clip-rule="evenodd" d="M19.2488 27.4193C19.2488 27.1661 19.454 26.9609 19.7071 26.9609H21.7695C22.0226 26.9609 22.2278 27.1661 22.2278 27.4193C22.2278 27.6724 22.0226 27.8776 21.7695 27.8776H19.7071C19.454 27.8776 19.2488 27.6724 19.2488 27.4193Z" fill="#23282E"/>
</svg>
