<svg width="24" height="24" viewBox="0 0 24 24" fill="none" xmlns="http://www.w3.org/2000/svg">
<g id="Group">
<path id="Vector" d="M12 24C18.6274 24 24 18.6274 24 12C24 5.37258 18.6274 0 12 0C5.37258 0 0 5.37258 0 12C0 18.6274 5.37258 24 12 24Z" fill="#E4E9EF"/>
<path id="Vector_2" d="M16.4999 12C17.3284 12 17.9999 11.3284 17.9999 10.5C17.9999 9.67157 17.3284 9 16.4999 9C15.6715 9 14.9999 9.67157 14.9999 10.5C14.9999 11.3284 15.6715 12 16.4999 12Z" fill="#B8BEC4"/>
<path id="Vector_3" d="M7.49994 12C8.32837 12 8.99994 11.3284 8.99994 10.5C8.99994 9.67157 8.32837 9 7.49994 9C6.67151 9 5.99994 9.67157 5.99994 10.5C5.99994 11.3284 6.67151 12 7.49994 12Z" fill="#B8BEC4"/>
<path id="Vector_4" d="M8.99882 13.5022C8.99882 13.5022 9.13382 13.5022 9.20882 13.5322C11.0238 14.0722 12.9738 14.0722 14.7738 13.5322C15.1788 13.4122 15.5838 13.6372 15.7038 14.0422C15.8238 14.4472 15.5988 14.8522 15.1938 14.9722C13.0938 15.5872 10.8588 15.5872 8.75882 14.9722C8.36882 14.8522 8.12882 14.4322 8.24882 14.0422C8.33882 13.7122 8.63882 13.5022 8.96882 13.5022H8.99882Z" fill="#B8BEC4"/>
</g>
</svg>
