<svg width="68" height="101" viewBox="0 0 68 101" fill="none" xmlns="http://www.w3.org/2000/svg">
<g id="Group 1000011728">
<path id="Vector" d="M36 0.500977H32C14.33 0.500977 0 14.831 0 32.501V88.501C0 95.131 5.37 100.501 12 100.501H56C62.63 100.501 68 95.131 68 88.501V32.501C68 14.831 53.67 0.500977 36 0.500977Z" fill="#B6F2FF"/>
<path id="Vector_2" d="M53.44 80.1203C27.75 83.3903 30.44 67.2103 21.96 68.1903C18.71 68.5603 17.32 72.7803 15.69 69.6803C7.96 54.9903 3.32 59.6203 0 68.2403V89.5803H64.12V79.9703L53.44 80.1203Z" fill="#55B58E"/>
<path id="Vector_3" d="M41.95 73.7119C28.23 77.7919 14.51 82.6619 0 82.0019V88.5019C0 95.1319 5.37 100.502 12 100.502H56C62.63 100.502 68 95.1319 68 88.5019V70.8619C59.34 69.6819 50.42 71.3519 41.95 73.7119Z" fill="#7AD7A9"/>
<g id="Group">
<path id="Vector_4" d="M39.7001 27.1303L47.5501 25.7403C47.9801 25.6603 48.3501 26.0403 48.2701 26.4603L46.8801 34.3103C46.8401 34.5503 46.9401 34.7903 47.1401 34.9303L53.6701 39.5003C54.0301 39.7503 54.0301 40.2803 53.6701 40.5203L47.1401 45.0903C46.9401 45.2303 46.8401 45.4703 46.8801 45.7103L48.2701 53.5603C48.3501 53.9903 47.9701 54.3603 47.5501 54.2803L39.7001 52.8903C39.4601 52.8503 39.2201 52.9503 39.0801 53.1503L34.5101 59.6803C34.2601 60.0403 33.7301 60.0403 33.4901 59.6803L28.9201 53.1503C28.7801 52.9503 28.5401 52.8503 28.3001 52.8903L20.4501 54.2803C20.0201 54.3603 19.6501 53.9803 19.7301 53.5603L21.1201 45.7103C21.1601 45.4703 21.0601 45.2303 20.8601 45.0903L14.3301 40.5203C13.9701 40.2703 13.9701 39.7403 14.3301 39.5003L20.8601 34.9303C21.0601 34.7903 21.1601 34.5503 21.1201 34.3103L19.7301 26.4603C19.6501 26.0303 20.0301 25.6603 20.4501 25.7403L28.3001 27.1303C28.5401 27.1703 28.7801 27.0703 28.9201 26.8703L33.4901 20.3403C33.7401 19.9803 34.2701 19.9803 34.5101 20.3403L39.0801 26.8703C39.2201 27.0703 39.4601 27.1703 39.7001 27.1303Z" fill="#FFD34C"/>
<g id="Group_2">
<path id="Vector_5" d="M29.3101 41.2803C30.0004 41.2803 30.5601 40.7206 30.5601 40.0303C30.5601 39.3399 30.0004 38.7803 29.3101 38.7803C28.6197 38.7803 28.0601 39.3399 28.0601 40.0303C28.0601 40.7206 28.6197 41.2803 29.3101 41.2803Z" fill="#23282E"/>
<path id="Vector_6" d="M38.6901 41.2803C39.3804 41.2803 39.9401 40.7206 39.9401 40.0303C39.9401 39.3399 39.3804 38.7803 38.6901 38.7803C37.9997 38.7803 37.4401 39.3399 37.4401 40.0303C37.4401 40.7206 37.9997 41.2803 38.6901 41.2803Z" fill="#23282E"/>
</g>
<path id="Vector_7" d="M32.12 42.5303C33.37 43.4703 34.62 43.4703 35.87 42.5303" stroke="#23282E" stroke-width="1.25" stroke-miterlimit="10" stroke-linecap="round"/>
</g>
<g id="Group_3" opacity="0.3">
<path id="Vector_8" d="M58.41 18.8112C53.63 23.0712 62.49 23.7212 66.7 23.4712C65.45 19.2312 63.36 15.3512 60.6 12.0412C53.02 11.7712 46.04 17.6912 58.41 18.8112Z" fill="white"/>
<path id="Vector_9" d="M0.240005 28.6709C0.0900055 29.9309 0 31.2009 0 32.5009V36.4109C9 35.7409 9.83001 29.1709 0.240005 28.6809V28.6709Z" fill="white"/>
</g>
</g>
</svg>
