<svg width="68" height="101" viewBox="0 0 68 101" fill="none" xmlns="http://www.w3.org/2000/svg">
<g id="Group 1000011731">
<path id="Vector" d="M36 0.50293H32C14.33 0.50293 0 14.8329 0 32.5029V88.5029C0 95.1329 5.37 100.503 12 100.503H56C62.63 100.503 68 95.1329 68 88.5029V32.5029C68 14.8329 53.67 0.50293 36 0.50293Z" fill="#747A81"/>
<path id="Vector_2" d="M53.44 80.1222C27.75 83.3923 30.44 67.2123 21.96 68.1923C18.71 68.5623 17.32 72.7822 15.69 69.6822C7.96 54.9922 3.32 59.6222 0 68.2422V89.5822H64.12V79.9722L53.44 80.1222Z" fill="#53A581"/>
<path id="Vector_3" d="M41.95 73.7139C28.23 77.7939 14.51 82.6639 0 82.0039V88.5039C0 95.1339 5.37 100.504 12 100.504H56C62.63 100.504 68 95.1339 68 88.5039V70.8639C59.34 69.6839 50.42 71.3539 41.95 73.7139Z" fill="#6CC496"/>
<g id="Group">
<path id="Vector_4" d="M44.8097 26.3121C43.6597 26.2221 42.5397 26.3221 41.4897 26.6021C40.0197 26.9821 38.4797 26.4121 37.5597 25.2121C35.0897 21.9721 31.1497 19.9221 26.7397 20.0421C19.8897 20.2321 14.2697 25.7921 13.9997 32.6521C13.7197 40.1321 19.6997 46.2921 27.1197 46.2921H43.9997C49.7497 46.2921 54.3697 41.4421 53.9797 35.6021C53.6497 30.7021 49.7097 26.7121 44.8197 26.3221L44.8097 26.3121Z" fill="#B8BEC4"/>
<g id="Group_2">
<path id="Vector_5" d="M28.9297 35.1923C27.6797 34.2523 26.4297 34.2523 25.1797 35.1923" stroke="#23282E" stroke-width="1.25" stroke-miterlimit="10" stroke-linecap="round"/>
<path id="Vector_6" d="M21.1897 32.5321C21.1897 33.2221 21.7497 33.7821 22.4397 33.7821C23.1297 33.7821 23.6897 33.2221 23.6897 32.5321C23.6897 32.4721 23.6897 32.4121 23.6697 32.3521L21.3797 31.8721C21.2597 32.0621 21.1897 32.2921 21.1897 32.5321Z" fill="#23282E"/>
<path id="Vector_7" d="M33.0597 32.5321C33.0597 33.2221 32.4997 33.7821 31.8097 33.7821C31.1197 33.7821 30.5597 33.2221 30.5597 32.5321C30.5597 32.4721 30.5597 32.4121 30.5797 32.3521L32.8697 31.8721C32.9897 32.0621 33.0597 32.2921 33.0597 32.5321Z" fill="#23282E"/>
</g>
<g id="Group_3">
<path id="Vector_8" d="M31.5497 59.7225L37.8897 51.5325C38.2897 51.0125 37.9197 50.2525 37.2597 50.2525H35.3097L39.7597 42.7225C40.0697 42.1925 39.6897 41.5225 39.0797 41.5225H32.2798C31.9498 41.5225 31.6597 41.7225 31.5397 42.0325L28.1797 50.7625C27.9797 51.2825 28.3597 51.8425 28.9197 51.8425H31.7897L30.1497 59.0625C29.9597 59.8925 31.0297 60.3925 31.5497 59.7225Z" fill="#FFD34C"/>
<path id="Vector_9" d="M21.2996 48.9521C20.3596 49.8921 18.6497 52.3521 18.6497 54.2421C18.6497 55.7021 19.8296 56.8921 21.2996 56.8921C22.7696 56.8921 23.9496 55.7121 23.9496 54.2421C23.9496 52.3521 22.2496 49.8921 21.2996 48.9521Z" fill="#B6F2FF"/>
<path id="Vector_10" d="M46.6996 48.9521C45.7596 49.8921 44.0496 52.3521 44.0496 54.2421C44.0496 55.7021 45.2296 56.8921 46.6996 56.8921C48.1696 56.8921 49.3495 55.7121 49.3495 54.2421C49.3495 52.3521 47.6496 49.8921 46.6996 48.9521Z" fill="#B6F2FF"/>
</g>
</g>
<g id="Group_4" opacity="0.1">
<path id="Vector_11" d="M58.41 18.8131C53.63 23.0731 62.49 23.7231 66.7 23.4731C65.45 19.2331 63.36 15.3531 60.6 12.0431C53.02 11.7731 46.04 17.6931 58.41 18.8131Z" fill="white"/>
<path id="Vector_12" d="M0.23999 28.6729C0.0899902 29.9329 0 31.2029 0 32.5029V36.4129C9 35.7429 9.82999 29.1729 0.23999 28.6829V28.6729Z" fill="white"/>
</g>
</g>
</svg>
