<svg width="68" height="101" viewBox="0 0 68 101" fill="none" xmlns="http://www.w3.org/2000/svg">
<g id="Group 1000011729">
<path id="Vector" d="M36 0.5H32C14.33 0.5 0 14.83 0 32.5V88.5C0 95.13 5.37 100.5 12 100.5H56C62.63 100.5 68 95.13 68 88.5V32.5C68 14.83 53.67 0.5 36 0.5Z" fill="#B6F2FF"/>
<path id="Vector_2" d="M53.44 80.1193C27.75 83.3893 30.44 67.2093 21.96 68.1893C18.71 68.5593 17.32 72.7793 15.69 69.6793C7.96 54.9893 3.32 59.6193 0 68.2393V89.5793H64.12V79.9693L53.44 80.1193Z" fill="#55B58E"/>
<path id="Vector_3" d="M41.95 73.7109C28.23 77.7909 14.51 82.6609 0 82.0009V88.5009C0 95.1309 5.37 100.501 12 100.501H56C62.63 100.501 68 95.1309 68 88.5009V70.8609C59.34 69.6809 50.42 71.3509 41.95 73.7109Z" fill="#7AD7A9"/>
<g id="Group">
<path id="Vector_4" d="M43.4497 25.2892L48.5497 24.3892C49.1897 24.2792 49.7497 24.8392 49.6397 25.4792L48.7397 30.5792C48.6797 30.9392 48.8297 31.2992 49.1297 31.5092L53.3697 34.4792C53.8997 34.8492 53.8997 35.6392 53.3697 36.0192L49.1297 38.9892C48.8297 39.1992 48.6797 39.5592 48.7397 39.9192L49.6397 45.0192C49.7497 45.6592 49.1897 46.2192 48.5497 46.1092L43.4497 45.2092C43.0897 45.1492 42.7297 45.2992 42.5197 45.5992L39.5497 49.8392C39.1797 50.3692 38.3897 50.3692 38.0097 49.8392L35.0397 45.5992C34.8297 45.2992 34.4697 45.1492 34.1097 45.2092L29.0097 46.1092C28.3697 46.2192 27.8097 45.6592 27.9197 45.0192L28.8197 39.9192C28.8797 39.5592 28.7297 39.1992 28.4297 38.9892L24.1897 36.0192C23.6597 35.6492 23.6597 34.8592 24.1897 34.4792L28.4297 31.5092C28.7297 31.2992 28.8797 30.9392 28.8197 30.5792L27.9197 25.4792C27.8097 24.8392 28.3697 24.2792 29.0097 24.3892L34.1097 25.2892C34.4697 25.3492 34.8297 25.1992 35.0397 24.8992L38.0097 20.6592C38.3797 20.1292 39.1697 20.1292 39.5497 20.6592L42.5197 24.8992C42.7297 25.1992 43.0897 25.3492 43.4497 25.2892Z" fill="#FFD34C"/>
<path id="Vector_5" d="M44.8097 40.0592C43.6597 39.9692 42.5397 40.0692 41.4897 40.3492C40.0197 40.7292 38.4797 40.1592 37.5597 38.9592C35.0897 35.7192 31.1497 33.6692 26.7397 33.7892C19.8897 33.9792 14.2697 39.5392 13.9997 46.3992C13.7197 53.8792 19.6997 60.0392 27.1197 60.0392H43.9997C49.7497 60.0392 54.3697 55.1892 53.9797 49.3492C53.6497 44.4492 49.7097 40.4592 44.8197 40.0692L44.8097 40.0592Z" fill="white"/>
<g id="Group_2">
<path id="Vector_6" d="M35.2498 34.3994C35.9401 34.3994 36.4998 33.8398 36.4998 33.1494C36.4998 32.4591 35.9401 31.8994 35.2498 31.8994C34.5594 31.8994 33.9998 32.4591 33.9998 33.1494C33.9998 33.8398 34.5594 34.3994 35.2498 34.3994Z" fill="#23282E"/>
<path id="Vector_7" d="M42.1198 34.3994C42.8101 34.3994 43.3698 33.8398 43.3698 33.1494C43.3698 32.4591 42.8101 31.8994 42.1198 31.8994C41.4294 31.8994 40.8698 32.4591 40.8698 33.1494C40.8698 33.8398 41.4294 34.3994 42.1198 34.3994Z" fill="#23282E"/>
</g>
<g id="Group_3">
<path id="Vector_8" d="M22.4397 48.1494C23.1301 48.1494 23.6897 47.5898 23.6897 46.8994C23.6897 46.2091 23.1301 45.6494 22.4397 45.6494C21.7493 45.6494 21.1897 46.2091 21.1897 46.8994C21.1897 47.5898 21.7493 48.1494 22.4397 48.1494Z" fill="#23282E"/>
<path id="Vector_9" d="M31.8097 48.1494C32.5 48.1494 33.0597 47.5898 33.0597 46.8994C33.0597 46.2091 32.5 45.6494 31.8097 45.6494C31.1193 45.6494 30.5597 46.2091 30.5597 46.8994C30.5597 47.5898 31.1193 48.1494 31.8097 48.1494Z" fill="#23282E"/>
</g>
<path id="Vector_10" d="M25.2498 49.3994H28.9998" stroke="#23282E" stroke-width="1.25" stroke-miterlimit="10" stroke-linecap="round"/>
<path id="Vector_11" d="M36.8097 35.6494H40.5597" stroke="#23282E" stroke-width="1.25" stroke-miterlimit="10" stroke-linecap="round"/>
</g>
<g id="Group_4" opacity="0.3">
<path id="Vector_12" d="M58.41 18.8102C53.63 23.0702 62.49 23.7202 66.7 23.4702C65.45 19.2302 63.36 15.3502 60.6 12.0402C53.02 11.7702 46.04 17.6902 58.41 18.8102Z" fill="white"/>
<path id="Vector_13" d="M0.23999 28.6699C0.0899902 29.9299 0 31.1999 0 32.4999V36.4099C9 35.7399 9.82999 29.1699 0.23999 28.6799V28.6699Z" fill="white"/>
</g>
</g>
</svg>
