<svg width="68" height="101" viewBox="0 0 68 101" fill="none" xmlns="http://www.w3.org/2000/svg">
<g id="Group 1000011727">
<path id="Vector" d="M36 0.5H32C14.33 0.5 0 14.83 0 32.5V88.5C0 95.13 5.37 100.5 12 100.5H56C62.63 100.5 68 95.13 68 88.5V32.5C68 14.83 53.67 0.5 36 0.5Z" fill="#B6F2FF"/>
<path id="Vector_2" d="M53.44 80.1193C27.75 83.3893 30.44 67.2093 21.96 68.1893C18.71 68.5593 17.32 72.7793 15.69 69.6793C7.96 54.9893 3.32 59.6193 0 68.2393V89.5793H64.12V79.9693L53.44 80.1193Z" fill="#55B58E"/>
<path id="Vector_3" d="M41.95 73.7109C28.23 77.7909 14.51 82.6609 0 82.0009V88.5009C0 95.1309 5.37 100.501 12 100.501H56C62.63 100.501 68 95.1309 68 88.5009V70.8609C59.34 69.6809 50.42 71.3509 41.95 73.7109Z" fill="#7AD7A9"/>
<g id="Group" opacity="0.3">
<path id="Vector_4" d="M58.41 18.8102C53.63 23.0702 62.49 23.7202 66.7 23.4702C65.45 19.2302 63.36 15.3502 60.6 12.0402C53.02 11.7702 46.04 17.6902 58.41 18.8102Z" fill="white"/>
<path id="Vector_5" d="M0.24 28.6699C0.0899998 29.9299 0 31.1999 0 32.4999V36.4099C9 35.7399 9.83 29.1699 0.24 28.6799V28.6699Z" fill="white"/>
</g>
<g id="Group_2">
<g id="Group_3">
<path id="Vector_6" d="M33.9996 53.6211C43.6646 53.6211 51.4996 45.7861 51.4996 36.1211C51.4996 26.4561 43.6646 18.6211 33.9996 18.6211C24.3347 18.6211 16.4996 26.4561 16.4996 36.1211C16.4996 45.7861 24.3347 53.6211 33.9996 53.6211Z" fill="#FF5C46"/>
<g id="Group_4">
<path id="Vector_7" d="M33.9996 22.3711C26.4096 22.3711 20.2496 28.5311 20.2496 36.1211C20.2496 43.7111 26.4096 49.8711 33.9996 49.8711C41.5896 49.8711 47.7496 43.7111 47.7496 36.1211C47.7496 28.5311 41.5896 22.3711 33.9996 22.3711ZM33.9996 45.5011C28.8196 45.5011 24.6196 41.3011 24.6196 36.1211C24.6196 30.9411 28.8196 26.7411 33.9996 26.7411C39.1796 26.7411 43.3796 30.9411 43.3796 36.1211C43.3796 41.3011 39.1796 45.5011 33.9996 45.5011Z" fill="#FFD34C"/>
<path id="Vector_8" d="M33.9996 26.751C28.8196 26.751 24.6196 30.951 24.6196 36.131C24.6196 41.311 28.8196 45.511 33.9996 45.511C39.1796 45.511 43.3796 41.311 43.3796 36.131C43.3796 30.951 39.1796 26.751 33.9996 26.751ZM33.9996 41.121C31.2396 41.121 28.9996 38.881 28.9996 36.121C28.9996 33.361 31.2396 31.121 33.9996 31.121C36.7596 31.121 38.9996 33.361 38.9996 36.121C38.9996 38.881 36.7596 41.121 33.9996 41.121Z" fill="#7AD7A9"/>
<path id="Vector_9" d="M33.9996 41.1211C36.7611 41.1211 38.9996 38.8825 38.9996 36.1211C38.9996 33.3597 36.7611 31.1211 33.9996 31.1211C31.2382 31.1211 28.9996 33.3597 28.9996 36.1211C28.9996 38.8825 31.2382 41.1211 33.9996 41.1211Z" fill="#5A7EFF"/>
</g>
</g>
<path id="Vector_10" d="M44.8097 38.6607C43.6597 38.5707 42.5397 38.6707 41.4897 38.9507C40.0197 39.3307 38.4797 38.7607 37.5597 37.5607C35.0897 34.3207 31.1497 32.2707 26.7397 32.3907C19.8897 32.5807 14.2597 38.1407 13.9997 45.0007C13.7197 52.4807 19.6997 58.6407 27.1197 58.6407H43.9997C49.7497 58.6407 54.3697 53.7907 53.9797 47.9507C53.6497 43.0507 49.7097 39.0607 44.8197 38.6707L44.8097 38.6607Z" fill="white"/>
<path id="Vector_11" d="M25.2496 48.001C26.4996 48.941 27.7496 48.941 28.9996 48.001" stroke="#23282E" stroke-width="1.25" stroke-miterlimit="10" stroke-linecap="round"/>
<g id="Group_5">
<path id="Vector_12" d="M21.3297 43.6211L23.3697 45.5011L21.3297 47.3711" stroke="#23282E" stroke-width="1.25" stroke-linecap="round" stroke-linejoin="round"/>
<path id="Vector_13" d="M20.5597 45.501H23.3697" stroke="#23282E" stroke-width="1.25" stroke-linecap="round" stroke-linejoin="round"/>
</g>
<g id="Group_6">
<path id="Vector_14" d="M32.9196 43.6211L30.8696 45.5011L32.9196 47.3711" stroke="#23282E" stroke-width="1.25" stroke-linecap="round" stroke-linejoin="round"/>
<path id="Vector_15" d="M33.6896 45.501H30.8696" stroke="#23282E" stroke-width="1.25" stroke-linecap="round" stroke-linejoin="round"/>
</g>
</g>
</g>
</svg>
