<svg width="68" height="101" viewBox="0 0 68 101" fill="none" xmlns="http://www.w3.org/2000/svg">
<g id="Group 1000011730">
<path id="Vector" d="M36 0.501953H32C14.33 0.501953 0 14.832 0 32.502V88.502C0 95.132 5.37 100.502 12 100.502H56C62.63 100.502 68 95.132 68 88.502V32.502C68 14.832 53.67 0.501953 36 0.501953Z" fill="#747A81"/>
<path id="Vector_2" d="M53.44 80.1213C27.75 83.3913 30.44 67.2113 21.96 68.1913C18.71 68.5613 17.32 72.7813 15.69 69.6813C7.96 54.9913 3.32 59.6213 0 68.2413V89.5813H64.12V79.9713L53.44 80.1213Z" fill="#53A581"/>
<path id="Vector_3" d="M41.95 73.7129C28.23 77.7929 14.51 82.6629 0 82.0029V88.5029C0 95.1329 5.37 100.503 12 100.503H56C62.63 100.503 68 95.1329 68 88.5029V70.8629C59.34 69.6829 50.42 71.3529 41.95 73.7129Z" fill="#6CC496"/>
<g id="Group">
<path id="Vector_4" d="M44.8097 26.3111C43.6597 26.2211 42.5397 26.3211 41.4897 26.6011C40.0197 26.9811 38.4797 26.4111 37.5597 25.2111C35.0897 21.9711 31.1497 19.9211 26.7397 20.0411C19.8897 20.2311 14.2697 25.7911 13.9997 32.6511C13.7197 40.1311 19.6997 46.2911 27.1197 46.2911H43.9997C49.7497 46.2911 54.3697 41.4411 53.9797 35.6011C53.6497 30.7011 49.7097 26.7111 44.8197 26.3211L44.8097 26.3111Z" fill="#B8BEC4"/>
<g id="Group_2">
<g id="Group_3">
<path id="Vector_5" d="M22.4397 33.7812C23.1301 33.7812 23.6897 33.2216 23.6897 32.5312C23.6897 31.8409 23.1301 31.2812 22.4397 31.2812C21.7493 31.2812 21.1897 31.8409 21.1897 32.5312C21.1897 33.2216 21.7493 33.7812 22.4397 33.7812Z" fill="#23282E"/>
<path id="Vector_6" d="M31.8097 33.7812C32.5 33.7812 33.0597 33.2216 33.0597 32.5312C33.0597 31.8409 32.5 31.2812 31.8097 31.2812C31.1193 31.2812 30.5597 31.8409 30.5597 32.5312C30.5597 33.2216 31.1193 33.7812 31.8097 33.7812Z" fill="#23282E"/>
</g>
<path id="Vector_7" d="M28.9297 35.1913C27.6797 34.2513 26.4297 34.2513 25.1797 35.1913" stroke="#23282E" stroke-width="1.25" stroke-miterlimit="10" stroke-linecap="round"/>
</g>
<g id="Group_4">
<path id="Vector_8" d="M33.9998 48.7412C32.6998 50.0812 30.3597 53.5812 30.3597 56.2712C30.3597 58.3512 31.9898 60.0312 33.9998 60.0312C36.0098 60.0312 37.6398 58.3512 37.6398 56.2712C37.6398 53.5812 35.2998 50.0912 33.9998 48.7412Z" fill="#B6F2FF"/>
<path id="Vector_9" d="M23.9097 48.7412C23.0397 49.6412 21.4797 51.9712 21.4797 53.7612C21.4797 55.1512 22.5697 56.2712 23.9097 56.2712C25.2497 56.2712 26.3397 55.1512 26.3397 53.7612C26.3397 51.9712 24.7797 49.6412 23.9097 48.7412Z" fill="#B6F2FF"/>
<path id="Vector_10" d="M44.0897 48.7412C43.2197 49.6412 41.6597 51.9712 41.6597 53.7612C41.6597 55.1512 42.7497 56.2712 44.0897 56.2712C45.4297 56.2712 46.5197 55.1512 46.5197 53.7612C46.5197 51.9712 44.9597 49.6412 44.0897 48.7412Z" fill="#B6F2FF"/>
</g>
</g>
<g id="Group_5" opacity="0.1">
<path id="Vector_11" d="M58.41 18.8122C53.63 23.0722 62.49 23.7222 66.7 23.4722C65.45 19.2322 63.36 15.3522 60.6 12.0422C53.02 11.7722 46.04 17.6922 58.41 18.8122Z" fill="white"/>
<path id="Vector_12" d="M0.23999 28.6719C0.0899902 29.9319 0 31.2019 0 32.5019V36.4119C9 35.7419 9.82999 29.1719 0.23999 28.6819V28.6719Z" fill="white"/>
</g>
</g>
</svg>
