<svg xmlns="http://www.w3.org/2000/svg" width="102" height="111" viewBox="0 0 102 111" fill="none">
  <g clip-path="url(#clip0_1839_32021)">
    <path d="M8.01532 102.417C6.8207 102.663 6.10869 104.092 6.41993 105.27C6.73117 106.449 7.85392 107.297 9.04898 107.54C10.2441 107.781 11.4924 107.502 12.6181 107.029C13.489 106.662 14.3389 106.156 14.8724 105.375C15.4058 104.594 15.5467 103.492 15.0137 102.711C14.3087 101.676 12.6538 101.638 11.6887 102.434C10.7236 103.23 10.3917 104.601 10.5352 105.844C10.791 108.061 12.4782 110.043 14.6252 110.65C16.7722 111.257 19.2474 110.452 20.6266 108.7" stroke="#FFD0BD" stroke-width="2.74199" stroke-linecap="round" stroke-linejoin="round"/>
    <path d="M32.8755 76.2679L34.466 87.5791L25.0152 92.4368C8.82004 90.9945 3.0675 82.7425 3.34807 71.6576C3.51819 64.9513 10.3428 58.495 14.4532 59.2627C17.5799 59.8457 20.3794 57.6573 23.0756 59.3428C25.5251 60.874 25.1157 66.7703 24.6936 71.9413L32.8756 76.2665L32.8755 76.2679Z" fill="#FFD0BD"/>
    <path d="M46.1998 135.774C46.1998 135.774 61.075 135.363 64.9953 118.922C71.4413 91.8971 61.4464 81.9174 61.4464 81.9174L51.7624 80.0925L40.2268 77.9187L28.4297 79.7459C28.4297 79.7459 16.2542 86.2493 14.8722 105.373C13.2612 123.529 20.9142 126.225 20.9142 126.225L46.1998 135.774Z" fill="#FFD0BD"/>
    <path d="M50.005 3.51917C43.1122 8.79464 17.5759 30.4599 44.4528 43.4239C49.4725 45.8455 55.5036 46.0142 60.266 43.119C82.1279 29.8336 60.3118 8.48469 53.2564 3.46153C52.2775 2.76509 50.9589 2.78703 50.0051 3.5178L50.005 3.51917Z" fill="#FFD0BD"/>
    <path d="M50.088 3.53221C50.7357 3.03689 51.5493 2.86776 52.3132 3.02708C52.7472 3.25603 61.2332 11.8132 60.5085 20.6305C50.8261 18.6547 41.6149 19.0123 33.8806 22.2705C37.3476 13.8919 46.394 6.35804 50.0881 3.53084L50.088 3.53221Z" fill="#F6A284"/>
    <path d="M90.5474 18.0816C92.893 24.8495 100.619 51.3823 76.2169 48.0828C71.6589 47.4657 67.6659 44.7203 65.4671 40.6795C53.7592 19.1591 81.1901 16.8128 88.3333 16.5642C89.3245 16.5296 90.2221 17.1454 90.546 18.0815L90.5474 18.0816Z" fill="#FFD0BD"/>
    <path d="M90.5475 18.0819C90.3274 17.4471 89.8425 16.9591 89.2455 16.7225C88.8425 16.683 79.1069 18.7138 75.5953 25.1139C83.1607 28.1585 89.3391 32.5943 93.1825 38.3564C94.6068 31.0102 91.805 21.7079 90.5488 18.0819L90.5475 18.0819Z" fill="#F6A284"/>
    <path d="M98.0861 67.6926C97.7881 68.9262 97.4408 70.0999 97.0481 71.2152C94.2008 79.3154 88.9447 84.3698 82.1196 87.0887C72.8777 90.7676 60.758 90.1641 47.8438 87.0363C24.0769 81.2795 6.6158 69.1561 12.0187 46.8495C17.9595 22.3185 39.8878 15.9935 63.6547 21.7503C87.4217 27.5057 104.027 43.1616 98.0861 67.6926Z" fill="#FFD0BD"/>
    <path d="M73.1731 67.5139C74.3779 62.5388 72.133 57.7245 61.1378 55.0614C50.1426 52.3982 45.944 55.652 44.7391 60.6271C43.5343 65.6022 45.7792 70.4165 56.7744 73.0796C67.7697 75.7428 71.9683 72.489 73.1745 67.514L73.1731 67.5139Z" fill="#FFB399"/>
    <path d="M54.8489 63.5805C54.4489 65.2321 54.124 66.5716 52.8837 66.2705C51.6433 65.9695 51.9668 64.6313 52.3667 62.9797C52.7666 61.3281 53.0915 59.9887 54.3319 60.2898C55.5722 60.5908 55.2488 61.9289 54.8489 63.5805Z" fill="#DD624E"/>
    <path d="M65.0178 66.0434C64.6179 67.695 64.293 69.0345 63.0526 68.7334C61.8122 68.4323 62.1357 67.0942 62.5356 65.4426C62.9356 63.791 63.2605 62.4516 64.5008 62.7526C65.7412 63.0537 65.4177 64.3918 65.0178 66.0434Z" fill="#DD624E"/>
    <path d="M45.3963 49.0119C47.1404 49.0937 48.6206 47.746 48.7023 46.0019C48.784 44.2577 47.4364 42.7775 45.6922 42.6958C43.9481 42.6141 42.4679 43.9618 42.3862 45.7059C42.3045 47.4501 43.6521 48.9302 45.3963 49.0119Z" fill="#25282D"/>
    <path d="M28.9691 68.2365C34.8406 68.5116 39.8235 63.9748 40.0986 58.1033C40.3737 52.2317 35.8369 47.2488 29.9654 46.9737C24.0938 46.6986 19.111 51.2354 18.8358 57.107C18.5607 62.9785 23.0975 67.9614 28.9691 68.2365Z" fill="#FFB399"/>
    <path d="M97.0483 71.2158C94.201 79.316 88.9449 84.3704 82.1197 87.0893C77.0136 84.9024 74.0814 79.2888 75.4312 73.7097C76.9388 67.4874 83.205 63.6649 89.4273 65.1711C92.8649 66.0033 95.5687 68.2876 97.0483 71.2158Z" fill="#FFB399"/>
    <path d="M43.666 85.2871C45.3549 86.6482 47.4078 87.6516 49.714 88.1412C52.0202 88.6308 54.304 88.5443 56.3999 87.9851" stroke="#F29373" stroke-width="1.6452" stroke-miterlimit="10" stroke-linecap="round"/>
    <path d="M74.7697 54.8464C77.1194 54.6711 78.5485 54.6063 81.2597 54.36" stroke="#25282D" stroke-width="2.19359" stroke-miterlimit="10" stroke-linecap="round"/>
    <path d="M74.7402 54.9766C76.3275 56.7199 77.2581 57.8039 79.1209 59.7879" stroke="#25282D" stroke-width="2.19359" stroke-miterlimit="10" stroke-linecap="round"/>
    <path d="M42.2194 123.193C53.6851 126.417 56.8757 119.662 59.1951 111.931C59.3512 111.411 59.1991 110.79 58.7644 110.664C54.603 109.463 50.853 108.533 46.6641 107.304C41.6004 105.821 38.0479 104.776 34.1545 103.742C33.7167 103.626 33.2647 104.074 33.1262 104.599C31.0764 112.405 30.7536 119.968 42.2194 123.193Z" fill="#FFB399"/>
    <path d="M11.6183 80.0432C11.6183 80.0432 24.6843 81.0727 25.5266 70.7401C25.9472 65.5732 23.6061 62.7514 21.1593 61.2204C18.4658 59.535 15.1577 59.1933 12.1158 60.109C8.71205 61.134 4.36879 63.7551 4.199 70.4545C4.199 70.4545 4.63847 78.8556 11.6183 80.0418L11.6183 80.0432Z" fill="#FFD0BD"/>
    <path d="M68.5541 111.232C68.5518 111.692 68.5591 112.15 68.6202 112.605C69.3092 117.73 76.0728 119.812 80.4153 118.495C82.157 117.967 83.6813 116.897 84.7852 115.451C91.9543 106.067 79.4191 94.324 79.4191 94.324C79.4191 94.324 71.008 84.3745 67.6905 82.9715C64.3716 81.5697 53.4609 92.803 53.4609 92.803C56.0175 94.6261 58.4489 96.6629 60.7465 98.8005C62.426 100.363 64.0424 102.01 65.4678 103.81C66.8038 105.499 68.4477 107.645 68.5486 109.856C68.5697 110.313 68.5564 110.772 68.5542 111.231L68.5541 111.232Z" fill="#FFD0BD"/>
    <path d="M11.7924 79.4535C11.7924 79.4535 24.8707 80.4835 25.7121 70.1413C26.1329 64.9702 23.7892 62.1456 21.341 60.6145C18.6449 58.9276 17.4998 58.9997 13.9999 58.9997" stroke="#F29373" stroke-width="1.6452" stroke-miterlimit="10" stroke-linecap="round"/>
    <path d="M61.7017 113.61C69.4415 113.972 76.0098 107.992 76.3724 100.252C76.7351 92.5124 70.7548 85.9441 63.015 85.5814C55.2753 85.2188 48.707 91.1991 48.3443 98.9388C47.9817 106.679 53.962 113.247 61.7017 113.61Z" fill="#FFD34C" stroke="#FFB72C" stroke-width="2.0565" stroke-miterlimit="10"/>
    <path d="M74.517 118.353C74.517 118.353 86.2043 119.252 86.9319 110.548C87.2964 106.196 85.1943 103.812 83.0027 102.517C80.5894 101.09 77.6305 100.794 74.9128 101.559C71.871 102.414 67.995 104.612 67.8596 110.257C67.8596 110.257 68.2731 117.336 74.517 118.353Z" fill="#FFD0BD"/>
    <path d="M83.4333 103.092C80.4493 99.6978 75.1513 100.435 72.3514 102.367C72.3514 102.367 66.749 105.644 68.6216 112.606" stroke="#F29373" stroke-width="1.6452" stroke-miterlimit="10" stroke-linecap="round"/>
    <path d="M70.2432 100.779C70.2315 101.028 70.1181 101.25 69.9475 101.406C69.7769 101.561 69.5475 101.653 69.2983 101.642L66.9236 101.53L65.7458 105.225C65.7424 105.238 65.7337 105.249 65.7304 105.26C65.7208 105.289 65.7086 105.316 65.6935 105.344C65.6843 105.366 65.6722 105.39 65.6601 105.413C65.6391 105.45 65.6129 105.483 65.5852 105.518C65.5793 105.526 65.5706 105.536 65.5647 105.544C65.4413 105.688 65.2729 105.797 65.0732 105.841C64.5878 105.949 64.1028 105.638 63.9979 105.152L63.167 101.356L62.767 99.5238L62.7581 99.4794L62.745 99.5227L62.1755 101.309L60.9976 105.006C60.9942 105.02 60.9855 105.03 60.9822 105.041C60.9726 105.071 60.9576 105.098 60.9453 105.126C60.9332 105.15 60.9239 105.172 60.9119 105.194C60.8882 105.232 60.8647 105.265 60.837 105.299C60.8311 105.307 60.8224 105.318 60.8165 105.326C60.6931 105.47 60.5247 105.578 60.325 105.623C59.8396 105.73 59.3545 105.419 59.2496 104.934L58.4203 101.135L56.0483 101.023C55.5525 101 55.1635 100.574 55.1869 100.074C55.2103 99.5746 55.636 99.1896 56.1331 99.2129L58.0203 99.3014L57.2958 95.9871C57.191 95.4991 57.5018 95.0168 57.9873 94.9092C58.4753 94.8044 58.9576 95.1152 59.0652 95.6007L59.8924 99.3891L60.2924 101.221L60.2967 101.246L60.3034 101.221L60.8729 99.435L62.0538 95.7325C62.1938 95.2943 62.6394 95.0407 63.0789 95.1217C63.0926 95.1223 63.1034 95.1256 63.1142 95.1288C63.1386 95.1355 63.1633 95.1366 63.1891 95.1433C63.2052 95.1496 63.2185 95.1584 63.2321 95.1618C63.259 95.174 63.2872 95.1863 63.3141 95.1986C63.3356 95.2078 63.3572 95.2171 63.3772 95.229C63.591 95.3529 63.7557 95.5583 63.8135 95.819L64.6405 99.6102L65.0405 101.442L65.0451 101.461L65.0515 101.443L65.621 99.6561L66.8034 95.9509C66.9533 95.4775 67.4652 95.2133 67.9386 95.3631C68.4146 95.5158 68.6802 96.0278 68.5262 96.501L67.4945 99.7439L69.3844 99.8325C69.8802 99.8557 70.2692 100.282 70.2459 100.779L70.2432 100.779Z" fill="#FFB72C"/>
    <path d="M42.5556 60.5942C42.808 59.5712 43.154 58.6019 43.6065 57.7036C45.2862 54.3702 48.4516 52.0179 53.9654 51.5968C55.0122 51.5182 56.1436 51.5081 57.3648 51.5749C53.9922 56.4444 48.6543 59.8177 42.5556 60.5942Z" fill="#FFB399"/>
    <path d="M45.332 49.7227C47.9588 49.8457 50.1881 47.8161 50.3111 45.1893C50.4342 42.5625 48.4045 40.3332 45.7777 40.2102C43.1509 40.0871 40.9217 42.1168 40.7986 44.7436C40.6755 47.3704 42.7052 49.5996 45.332 49.7227Z" fill="#25282D"/>
    <path d="M42.2219 58.4363C42.1691 59.0075 42.0722 59.5822 41.9341 60.1563C41.8986 60.3001 41.8602 60.4438 41.8206 60.586C38.8469 60.1667 36.129 59.0017 33.8526 57.2906C32.0932 55.9702 30.5974 54.3245 29.4486 52.4493C28.1762 50.3721 27.3316 48.0103 27.0281 45.4954C27.7297 45.3128 28.4505 45.1915 29.1845 45.138C30.42 45.0449 31.6906 45.1401 32.9595 45.448C38.9267 46.8929 42.7925 52.4995 42.2205 58.4376L42.2219 58.4363Z" fill="#FFB399"/>
    <path opacity="0.4" d="M40.6877 59.0616C48.0077 59.4046 54.2197 53.7486 54.5627 46.4286C54.9057 39.1087 49.2497 32.8966 41.9297 32.5536C34.6098 32.2107 28.3977 37.8666 28.0548 45.1866C27.7118 52.5065 33.3677 58.7186 40.6877 59.0616Z" fill="#E2E2E2"/>
    <path d="M29.4399 60.3331L25.7285 56.2568L18.5684 62.776L22.2798 66.8523L29.4399 60.3331Z" fill="#D6D6D6"/>
    <path d="M31.8956 57.3993L28.8487 54.0529C28.3104 53.4617 27.3947 53.4188 26.8035 53.9571L24.3076 56.2296C23.7164 56.7679 23.6735 57.6835 24.2118 58.2748L27.2586 61.6212C27.797 62.2124 28.7126 62.2553 29.3039 61.717L31.7997 59.4446C32.391 58.9063 32.4339 57.9906 31.8956 57.3993Z" fill="#978D85"/>
    <path d="M40.5968 60.9432C48.9688 61.3355 56.0737 54.8666 56.466 46.4945C56.8583 38.1225 50.3894 31.0176 42.0173 30.6253C33.6453 30.233 26.5404 36.7019 26.1481 45.074C25.7558 53.446 32.2247 60.5509 40.5968 60.9432Z" stroke="#666465" stroke-width="3.97589" stroke-miterlimit="10"/>
  </g>
  <defs>
    <clipPath id="clip0_1839_32021">
      <rect width="95.25" height="132.932" fill="white" transform="translate(6.66309 0.84375) rotate(2.68267)"/>
    </clipPath>
  </defs>
</svg>