<svg width="130" height="147" viewBox="0 0 130 147" fill="none" xmlns="http://www.w3.org/2000/svg">
<g id="Layer_2" clip-path="url(#clip0_1885_32717)">
<g id="Group 1000011847">
<g id="Group 1000011848">
<path id="Vector" d="M5.33236 137.303C3.71941 137.711 2.83995 139.688 3.33956 141.263C3.83916 142.837 5.42405 143.914 7.06881 144.166C8.71358 144.417 10.3976 143.96 11.9021 143.249C13.0659 142.698 14.1924 141.959 14.8697 140.869C15.5471 139.779 15.6687 138.279 14.8922 137.256C13.8649 135.901 11.6064 135.955 10.3415 137.093C9.07659 138.231 8.71171 140.106 8.98677 141.779C9.47702 144.76 11.9039 147.335 14.8697 148.02C17.8356 148.705 21.1588 147.459 22.927 145.001" stroke="#F6A284" stroke-width="2" stroke-linecap="round" stroke-linejoin="round"/>
<path id="Vector_2" d="M40.554 100.358L43.4449 115.557L30.8706 122.726C8.69905 121.802 0.329274 111.005 0.00368959 95.9936C-0.192784 86.9119 8.69905 77.7467 14.3519 78.5245C18.6518 79.1149 22.3287 75.9775 26.1122 78.0864C29.5496 80.0023 29.3681 88.0035 29.1229 95.0245L40.554 100.356V100.358Z" fill="#FFD0BD"/>
<path id="Vector_3" d="M62.5218 180.001C62.5218 180.001 82.7754 178.502 87.0698 156.015C94.1316 119.054 79.8676 106.189 79.8676 106.189L66.5486 104.334L50.6829 102.125L34.7161 105.344C34.7161 105.344 18.5323 114.912 17.8699 140.867C16.8333 165.526 27.4391 168.688 27.4391 168.688L62.5218 180.001Z" fill="#FFD0BD"/>
<path id="Vector_4" d="M59.2602 0.873851C50.2 8.44625 16.7695 39.3689 54.2399 55.2006C61.2381 58.1579 69.4712 58.0038 75.779 53.786C104.735 34.4308 73.629 6.93697 63.6893 0.589817C62.3102 -0.290134 60.5139 -0.176891 59.2602 0.871995V0.873851Z" fill="#FFD0BD"/>
<path id="Vector_5" d="M59.3743 0.884835C60.2257 0.17382 61.324 -0.106502 62.3756 0.0605773C62.9819 0.342755 75.0978 11.3793 74.673 23.3514C61.3465 21.2926 48.8115 22.3601 38.4751 27.2574C42.6665 15.7048 54.5186 4.94115 59.3743 0.882978V0.884835Z" fill="#F6A284"/>
<g id="Group">
<path id="Vector_6" d="M115.463 18.0015C119.093 27.0071 131.321 62.4056 97.842 59.4891C91.5885 58.9433 85.9694 55.4829 82.7135 50.1568C65.3771 21.7905 102.625 16.8783 112.347 16.0894C113.696 15.9798 114.959 16.7558 115.461 18.0015H115.463Z" fill="#FFD0BD"/>
<path id="Vector_7" d="M115.463 18.0015C115.122 17.1568 114.43 16.5275 113.601 16.2453C113.049 16.2174 99.9059 19.5813 95.5273 28.4606C106.036 32.0993 114.742 37.7075 120.35 45.2577C121.823 35.2311 117.409 22.8264 115.465 18.0015H115.463Z" fill="#F6A284"/>
</g>
<path id="Vector_8" d="M128.911 84.6266C128.583 86.3141 128.185 87.9236 127.721 89.457C124.356 100.594 117.514 107.763 108.382 111.874C96.0175 117.435 79.4557 117.387 61.6496 113.975C28.8797 107.695 4.29992 92.4032 10.2409 61.889C16.7732 28.332 46.2648 18.3871 79.0347 24.6674C111.805 30.9459 135.443 51.0697 128.911 84.6266Z" fill="#FFD0BD"/>
<g id="Group_2">
<path id="Vector_9" d="M94.9341 85.9633C96.2589 79.1577 92.8908 72.7882 77.7305 69.8829C62.5703 66.9776 57.054 71.6447 55.7292 78.4503C54.4044 85.256 57.7726 91.6255 72.9328 94.5308C88.0931 97.4361 93.6093 92.769 94.936 85.9633H94.9341Z" fill="#FFB399"/>
<g id="Group_3">
<path id="Vector_10" d="M69.7011 81.8052C69.2614 84.0645 68.904 85.8968 67.1938 85.5682C65.4835 85.2396 65.839 83.4092 66.2788 81.1499C66.7185 78.8906 67.0759 77.0583 68.7861 77.3869C70.4964 77.7155 70.1409 79.5459 69.7011 81.8052Z" fill="#DD624E"/>
<path id="Vector_11" d="M83.7219 84.4917C83.2822 86.751 82.9248 88.5833 81.2145 88.2547C79.5043 87.9262 79.8598 86.0957 80.2995 83.8364C80.7392 81.5771 81.0966 79.7448 82.8069 80.0734C84.5171 80.402 84.1616 82.2325 83.7219 84.4917Z" fill="#DD624E"/>
</g>
</g>
<path id="Vector_12" d="M55.8828 62.6986C58.2659 62.6986 60.1977 60.782 60.1977 58.4177C60.1977 56.0534 58.2659 54.1367 55.8828 54.1367C53.4997 54.1367 51.5679 56.0534 51.5679 58.4177C51.5679 60.782 53.4997 62.6986 55.8828 62.6986Z" fill="#25282D"/>
<path id="Vector_13" d="M34.7159 89.7429C42.7383 89.7429 49.2418 83.2907 49.2418 75.3314C49.2418 67.3722 42.7383 60.9199 34.7159 60.9199C26.6934 60.9199 20.1899 67.3722 20.1899 75.3314C20.1899 83.2907 26.6934 89.7429 34.7159 89.7429Z" fill="#FFB399"/>
<path id="Vector_14" d="M127.721 89.4571C124.357 100.594 117.514 107.763 108.382 111.874C101.281 109.239 96.9252 101.832 98.4091 94.2002C100.067 85.6885 108.366 80.121 116.945 81.764C121.685 82.6718 125.517 85.5901 127.721 89.4571Z" fill="#FFB399"/>
<path id="Vector_15" d="M55.8416 111.874C58.231 113.608 61.0939 114.835 64.2693 115.351C67.4447 115.867 70.5527 115.605 73.3745 114.716" stroke="#F29373" stroke-width="2.12019" stroke-miterlimit="10" stroke-linecap="round"/>
<path id="Vector_16" d="M96.302 68.7275C99.4942 68.3414 101.438 68.1632 105.119 67.6582" stroke="#25282D" stroke-width="2.82692" stroke-miterlimit="10" stroke-linecap="round"/>
<path id="Vector_17" d="M96.2703 68.9062C98.5456 71.1637 99.8835 72.5709 102.55 75.1364" stroke="#25282D" stroke-width="2.82692" stroke-miterlimit="10" stroke-linecap="round"/>
<path id="Vector_18" d="M56.2907 163.236C72.1284 166.871 76.0466 157.531 78.7149 146.927C78.8945 146.214 78.6475 145.384 78.0469 145.241C72.2968 143.881 67.1248 142.86 61.3354 141.464C54.3372 139.778 49.4272 138.59 44.0532 137.439C43.4488 137.309 42.8613 137.944 42.706 138.662C40.41 149.352 40.4531 159.601 56.2907 163.236Z" fill="#FFB399"/>
<path id="Vector_19" d="M11.8146 106.811C11.8146 106.811 29.6937 107.375 30.1821 93.3464C30.4254 86.3309 27.0535 82.6626 23.6199 80.7467C19.8401 78.6378 15.3081 78.3854 11.2196 79.8167C6.64457 81.4188 0.8907 85.2393 1.08717 94.3117C1.08717 94.3117 2.22298 105.647 11.8146 106.809V106.811Z" fill="#FFD0BD"/>
<path id="Vector_20" d="M91.4293 145.39C91.4555 146.012 91.4948 146.632 91.6071 147.243C92.8739 154.132 102.228 156.519 108.064 154.463C110.405 153.638 112.415 152.094 113.827 150.068C123.002 136.921 105.162 121.832 105.162 121.832C105.162 121.832 93.0591 108.907 88.4467 107.22C83.8324 105.534 69.675 121.42 69.675 121.42C73.2771 123.724 76.7219 126.325 79.9908 129.07C82.3803 131.077 84.6894 133.203 86.7477 135.547C88.6769 137.747 91.0551 140.545 91.3339 143.53C91.3919 144.146 91.4032 144.768 91.4293 145.388V145.39Z" fill="#FFD0BD"/>
<path id="Vector_21" d="M12.0149 106.004C12.0149 106.004 29.9108 106.568 30.3973 92.526C30.6406 85.5049 27.265 81.8329 23.8295 79.917C20.046 77.8063 15.5102 77.5538 11.418 78.987" stroke="#F29373" stroke-width="2.12019" stroke-miterlimit="10" stroke-linecap="round"/>
<path id="Vector_22" d="M82.24 149.04C92.8151 149.04 101.388 140.535 101.388 130.043C101.388 119.551 92.8151 111.046 82.24 111.046C71.665 111.046 63.0923 119.551 63.0923 130.043C63.0923 140.535 71.665 149.04 82.24 149.04Z" fill="#FFD34C" stroke="#FFB72C" stroke-width="2.65023" stroke-miterlimit="10"/>
<path id="Vector_23" d="M100.014 154.643C100.014 154.643 116.005 155.118 116.441 143.299C116.66 137.39 113.642 134.299 110.572 132.685C107.19 130.909 103.137 130.695 99.4811 131.902C95.3889 133.252 90.245 136.471 90.4209 144.114C90.4209 144.114 91.4369 153.663 100.014 154.643Z" fill="#FFD0BD"/>
<path id="Vector_24" d="M111.195 133.436C106.91 129.035 99.7338 130.368 96.0401 133.158C96.0401 133.158 88.6115 137.946 91.6091 147.245" stroke="#F29373" stroke-width="2.12019" stroke-miterlimit="10" stroke-linecap="round"/>
<path id="Vector_25" d="M93.0649 131.144C93.0649 131.481 92.9245 131.79 92.7019 132.011C92.4792 132.231 92.1723 132.371 91.8318 132.371H88.5872L87.2174 137.442C87.2137 137.461 87.2025 137.476 87.1987 137.491C87.1875 137.532 87.1725 137.569 87.1538 137.608C87.1426 137.637 87.1276 137.671 87.1127 137.702C87.0865 137.754 87.0528 137.801 87.0172 137.849C87.0098 137.86 86.9985 137.875 86.991 137.886C86.832 138.089 86.6093 138.246 86.3399 138.319C85.685 138.495 85.0039 138.105 84.8298 137.455L83.4545 132.373L82.7921 129.92L82.7772 129.861L82.7622 129.92L82.0998 132.373L80.7301 137.448C80.7263 137.467 80.7151 137.481 80.7114 137.496C80.7001 137.537 80.6814 137.574 80.6665 137.613C80.6515 137.647 80.6403 137.676 80.6253 137.708C80.5954 137.76 80.5654 137.806 80.5299 137.855C80.5224 137.866 80.5112 137.881 80.5037 137.892C80.3446 138.094 80.1219 138.252 79.8525 138.324C79.1976 138.501 78.5165 138.111 78.3425 137.461L76.969 132.374H73.7281C73.0508 132.374 72.4932 131.823 72.4932 131.145C72.4932 130.468 73.0489 129.92 73.7281 129.92H76.3066L75.1072 125.483C74.9332 124.83 75.3261 124.158 75.981 123.981C76.6397 123.809 77.3171 124.199 77.4948 124.848L78.8645 129.92L79.5269 132.373L79.5344 132.406L79.5419 132.373L80.2043 129.92L81.5777 124.837C81.7405 124.236 82.3318 123.864 82.9362 123.946C82.9549 123.946 82.9699 123.95 82.9848 123.954C83.0185 123.961 83.0522 123.961 83.0878 123.968C83.1102 123.976 83.1289 123.987 83.1476 123.991C83.1851 124.006 83.2244 124.02 83.2618 124.035C83.2917 124.046 83.3217 124.058 83.3497 124.072C83.6491 124.226 83.8868 124.494 83.9822 124.843L85.3519 129.918L86.0143 132.371L86.0218 132.397L86.0293 132.371L86.6916 129.918L88.067 124.832C88.241 124.182 88.9221 123.792 89.577 123.965C90.2357 124.141 90.6305 124.817 90.4508 125.467L89.2514 129.918H91.8336C92.511 129.918 93.0686 130.47 93.0686 131.144H93.0649Z" fill="#FFB72C"/>
<path id="Vector_26" d="M52.7502 78.5446C53.029 77.1448 53.4388 75.8119 53.9983 74.5681C56.0753 69.953 60.2406 66.5706 67.7309 65.6516C69.153 65.479 70.6948 65.3936 72.3639 65.4066C68.0771 72.2067 61.0152 77.1077 52.7502 78.5446Z" fill="#FFB399"/>
<path id="Vector_27" d="M55.8414 63.6634C59.4304 63.6634 62.34 60.7768 62.34 57.216C62.34 53.6552 59.4304 50.7686 55.8414 50.7686C52.2523 50.7686 49.3428 53.6552 49.3428 57.216C49.3428 60.7768 52.2523 63.6634 55.8414 63.6634Z" fill="#25282D"/>
<path id="Vector_28" d="M52.1572 75.6468C52.1216 76.4228 52.0262 77.2062 51.8747 77.9915C51.8354 78.1882 51.7923 78.385 51.7474 78.58C47.6664 78.2012 43.8866 76.7978 40.6738 74.6276C38.1907 72.9531 36.0464 70.8219 34.3604 68.3584C32.493 65.6295 31.1907 62.4884 30.6162 59.1059C31.5612 58.8145 32.536 58.6047 33.5334 58.4859C35.2118 58.2817 36.9501 58.33 38.6997 58.666C46.9273 60.2421 52.5558 67.5806 52.1553 75.6486L52.1572 75.6468Z" fill="#FFB399"/>
<path id="Vector_29" opacity="0.4" d="M50.1063 76.5904C60.1078 76.5904 68.2156 68.5465 68.2156 58.6238C68.2156 48.7011 60.1078 40.6572 50.1063 40.6572C40.1049 40.6572 31.9971 48.7011 31.9971 58.6238C31.9971 68.5465 40.1049 76.5904 50.1063 76.5904Z" fill="#E2E2E2"/>
</g>
<g id="Group_4">
<path id="Vector_30" d="M34.8535 79.0225L29.5332 73.7441L20.188 83.0157L25.5083 88.2941L34.8535 79.0225Z" fill="#D6D6D6"/>
<path id="Vector_31" d="M38.0141 74.8991L33.6465 70.5659C32.8748 69.8003 31.6237 69.8003 30.852 70.5659L27.5945 73.7978C26.8229 74.5633 26.8229 75.8046 27.5945 76.5702L31.9621 80.9034C32.7338 81.669 33.9849 81.669 34.7566 80.9034L38.0141 77.6715C38.7858 76.906 38.7858 75.6647 38.0141 74.8991Z" fill="#978D85"/>
<path id="Vector_32" d="M50.1029 79.1407C61.5419 79.1407 70.815 69.9407 70.815 58.5919C70.815 47.243 61.5419 38.043 50.1029 38.043C38.664 38.043 29.3909 47.243 29.3909 58.5919C29.3909 69.9407 38.664 79.1407 50.1029 79.1407Z" stroke="#666465" stroke-width="5.12379" stroke-miterlimit="10"/>
</g>
<g id="&#237;&#131;&#144;&#236;&#160;&#149;&#235;&#170;&#168;&#236;&#158;&#144;">
<g id="&#235;&#170;&#168;&#236;&#158;&#144;&#236;&#186;&#161;">
<g id="Group_5">
<path id="Vector_33" d="M105.852 36.8529C105.991 36.3792 106.019 35.8996 105.962 35.4298C105.958 35.3869 105.952 35.3421 105.948 35.2992C105.948 35.2875 105.944 35.2758 105.942 35.2641C105.82 34.2953 105.38 33.3245 104.707 32.3752C104.078 31.4882 103.674 30.4648 103.607 29.3829L103.415 26.3283C103.387 25.88 103.271 25.4355 103.036 25.0495C102.341 23.9111 101.082 22.8429 99.5717 21.8779L98.7273 38.4825C99.2143 38.8821 99.7956 39.2038 100.459 39.3948C102.568 40.003 104.711 39.1628 105.587 37.4942C105.655 37.3909 105.716 37.2759 105.761 37.1433C105.777 37.0965 105.783 37.0497 105.797 37.003C105.814 36.9523 105.836 36.9035 105.852 36.8509V36.8529Z" fill="#824B2C"/>
<path id="Vector_34" d="M73.2207 17.0918L70.9703 19.971C70.2771 20.858 69.3266 21.4974 68.2603 21.8756C66.4674 22.513 65.1832 23.474 64.7904 24.8581C64.7747 24.901 64.757 24.9438 64.7453 24.9867C64.1326 27.0745 65.5563 29.3221 67.9206 30.0044C68.5824 30.1954 69.2461 30.2363 69.8745 30.1603L78.1811 15.6045C76.0367 15.622 74.2045 16.0236 73.2207 17.0918Z" fill="#824B2C"/>
<g id="Group_6">
<path id="Vector_35" d="M89.5587 15.8486C90.0595 18.028 89.272 18.644 88.1821 18.8896C87.0923 19.1352 86.0829 18.7824 85.6156 16.7395C85.2876 15.3067 85.9023 13.9441 86.9921 13.6985C88.082 13.4528 89.2308 14.4139 89.5587 15.8486Z" fill="#824B2C"/>
<path id="Vector_36" d="M90.0272 15.9849C88.4268 17.558 88.7606 18.4976 89.5461 19.2852C90.3316 20.0727 91.3744 20.3125 92.8746 18.8368C93.9272 17.8017 94.1413 16.3241 93.3558 15.5365C92.5703 14.749 91.0798 14.9498 90.0272 15.9849Z" fill="#824B2C"/>
</g>
<path id="Vector_37" d="M89.2959 19.2719C90.2166 19.2719 90.9631 18.5309 90.9631 17.6169C90.9631 16.7029 90.2166 15.9619 89.2959 15.9619C88.3751 15.9619 87.6287 16.7029 87.6287 17.6169C87.6287 18.5309 88.3751 19.2719 89.2959 19.2719Z" fill="#AC7147"/>
<g id="Clip path group">
<mask id="mask0_1885_32717" style="mask-type:luminance" maskUnits="userSpaceOnUse" x="67" y="15" width="35" height="28">
<g id="clippath">
<path id="Vector_38" d="M101.1 38.1241C101.577 36.282 101.877 34.0032 101.96 31.202C102.011 29.4846 101.964 25.0342 99.6366 21.9055V21.9016C99.6366 21.9016 99.6326 21.8997 99.6307 21.8977C98.6645 20.6014 97.3095 19.5312 95.4008 18.9796C94.5643 18.7378 93.7218 18.6443 92.8892 18.6657C91.6363 18.1979 90.4719 17.8197 89.5352 17.5487C88.4394 17.2329 87.0471 16.8645 85.5351 16.5351C84.8517 16.0809 84.0956 15.7163 83.2709 15.4785C81.4328 14.9483 79.7656 15.0945 78.2909 15.6247C78.2771 15.6247 78.2614 15.6247 78.2457 15.6247L78.232 15.6481C74.5127 17.0146 72.0266 20.8119 71.1331 22.3052C69.6819 24.7262 68.702 26.814 68.1109 28.6308C67.7673 29.6873 67.5571 30.6503 67.4629 31.5295C69.7526 33.165 78.7543 32.7712 86.293 35.2976C90.3599 36.6602 95.6031 40.8396 99.0278 42.5765C99.8899 41.5141 100.593 40.0638 101.096 38.1261L101.1 38.1241Z" fill="white"/>
</g>
</mask>
<g mask="url(#mask0_1885_32717)">
<g id="Group_7">
<path id="Vector_39" d="M101.1 38.1241C101.577 36.282 101.877 34.0032 101.96 31.202C102.011 29.4846 101.964 25.0342 99.6368 21.9055V21.9016C99.6368 21.9016 99.6329 21.8997 99.6309 21.8977C98.6648 20.6014 97.3098 19.5312 95.401 18.9796C94.5645 18.7378 93.7221 18.6443 92.8894 18.6657C91.6366 18.1979 90.4721 17.8197 89.5354 17.5487C88.4396 17.2329 87.0474 16.8645 85.5353 16.5351C84.8519 16.0809 84.0959 15.7163 83.2711 15.4785C81.4331 14.9483 79.7659 15.0945 78.2911 15.6247C78.2774 15.6247 78.2617 15.6247 78.2459 15.6247L78.2322 15.6481C74.5129 17.0146 72.0268 20.8119 71.1333 22.3051C69.6821 24.7262 68.7022 26.814 68.1112 28.6308C67.7675 29.6873 67.5249 30.0102 67.4307 30.8894C69.7204 32.5249 78.7546 32.7712 86.2933 35.2976C90.3602 36.6602 95.6527 39.7931 99.0775 41.53C99.9395 40.4676 100.593 40.0637 101.096 38.1261L101.1 38.1241Z" fill="#995E38"/>
<path id="Vector_40" d="M65.9277 29.3417L73.5627 17.1973C79.3557 17.8445 85.944 19.6223 88.8071 20.4488C92.5637 21.5326 98.0523 23.4664 102.616 25.7237L102.5 39.8994L65.9277 29.3417Z" stroke="#824B2C" stroke-width="0.884054" stroke-linecap="round" stroke-linejoin="round"/>
<path id="Vector_41" d="M61.3149 33.7768L69.7059 21.3711C76.4297 22.2542 84.1157 24.3439 87.456 25.3068C91.8391 26.572 98.2585 28.7864 103.619 31.303L103.996 46.0967L61.3149 33.7768Z" stroke="#824B2C" stroke-width="0.884054" stroke-linecap="round" stroke-linejoin="round"/>
<path id="Vector_42" d="M96.0355 31.0036C94.1268 37.5203 88.108 41.5106 82.5919 39.9199C77.0758 38.3273 74.1518 31.7541 76.0605 25.2374C77.9673 18.7207 81.176 13.9195 89.5022 16.323C97.039 18.4985 97.9423 24.4888 96.0336 31.0055L96.0355 31.0036Z" stroke="#824B2C" stroke-width="0.884054" stroke-linecap="round" stroke-linejoin="round"/>
<path id="Vector_43" d="M90.3088 28.2006C88.6141 33.9863 85.4702 38.1657 83.2885 37.5361C81.1068 36.9064 80.7101 31.7056 82.4048 25.9199C84.0995 20.1342 86.1319 15.6331 89.4251 16.5844C92.408 17.446 92.0035 22.4149 90.3088 28.2006Z" stroke="#824B2C" stroke-width="0.884054" stroke-linecap="round" stroke-linejoin="round"/>
</g>
</g>
</g>
<path id="Vector_44" d="M101.629 41.5301C99.428 44.1727 91.9372 37.4031 85.726 35.3231C76.8657 32.3542 65.9768 33.4205 66.3499 30.4829C66.9606 25.6738 81.1701 26.9877 86.4584 28.514C92.0826 30.1378 103.511 37.0789 101.629 41.5301Z" fill="#AC7147"/>
</g>
</g>
</g>
</g>
</g>
<defs>
<clipPath id="clip0_1885_32717">
<rect width="130" height="180" fill="white" transform="translate(0 0.000976562)"/>
</clipPath>
</defs>
</svg>
