<svg xmlns="http://www.w3.org/2000/svg" width="171" height="142" viewBox="0 0 171 142" fill="none">
  <g clip-path="url(#clip0_1652_21290)">
    <path d="M44.7973 0H21.6689C12.4204 0 4.85181 7.56859 4.85181 16.8171C4.85181 16.8171 3.1472 31.2077 19.4431 40.2942C21.4858 41.2029 23.5215 41.0303 23.5215 37.85V35.036C23.5215 34.2612 24.1484 33.6343 24.9232 33.6343H44.7973C54.0459 33.6343 61.6145 26.0657 61.6145 16.8171C61.6145 7.56859 54.0459 0 44.7973 0Z" fill="#F0F1F5"/>
    <path d="M41.1918 19.1257C42.3588 19.1257 43.3049 18.1796 43.3049 17.0126C43.3049 15.8455 42.3588 14.8994 41.1918 14.8994C40.0247 14.8994 39.0786 15.8455 39.0786 17.0126C39.0786 18.1796 40.0247 19.1257 41.1918 19.1257Z" fill="#929496"/>
    <path d="M33.2074 19.1257C34.3744 19.1257 35.3205 18.1796 35.3205 17.0126C35.3205 15.8455 34.3744 14.8994 33.2074 14.8994C32.0403 14.8994 31.0942 15.8455 31.0942 17.0126C31.0942 18.1796 32.0403 19.1257 33.2074 19.1257Z" fill="#929496"/>
    <path d="M25.2274 19.1257C26.3945 19.1257 27.3406 18.1796 27.3406 17.0126C27.3406 15.8455 26.3945 14.8994 25.2274 14.8994C24.0603 14.8994 23.1143 15.8455 23.1143 17.0126C23.1143 18.1796 24.0603 19.1257 25.2274 19.1257Z" fill="#929496"/>
    <path d="M101.787 72.0918H62.1299C46.2707 72.0918 33.296 85.0665 33.296 100.926C33.296 100.926 30.3728 125.597 58.3157 141.178C61.82 142.738 65.3067 142.442 65.3067 136.987V132.162C65.3067 130.834 66.3809 129.76 67.7086 129.76H101.783C117.642 129.76 130.617 116.785 130.617 100.926C130.617 85.0665 117.642 72.0918 101.783 72.0918H101.787Z" fill="#5B95F6"/>
    <path d="M76.3441 16.46H116.001C131.86 16.46 144.835 29.4347 144.835 45.2939C144.835 45.2939 147.758 69.9649 119.815 85.5458C116.311 87.106 112.824 86.8102 112.824 81.3547V76.5297C112.824 75.2019 111.75 74.1278 110.422 74.1278H76.3476C60.4884 74.1278 47.5137 61.153 47.5137 45.2939C47.5137 29.4347 60.4884 16.46 76.3476 16.46H76.3441Z" fill="#FFDD77"/>
    <path d="M129.766 106.044H148.986C156.67 106.044 162.96 112.33 162.96 120.019C162.96 120.019 164.376 131.975 150.835 139.526C149.137 140.284 147.446 140.139 147.446 137.494V135.156C147.446 134.511 146.925 133.99 146.281 133.99H129.766C122.082 133.99 115.792 127.703 115.792 120.015C115.792 112.33 122.078 106.04 129.766 106.04V106.044Z" fill="#F0F1F5"/>
    <path d="M132.764 121.934C133.732 121.934 134.518 121.148 134.518 120.18C134.518 119.211 133.732 118.426 132.764 118.426C131.795 118.426 131.01 119.211 131.01 120.18C131.01 121.148 131.795 121.934 132.764 121.934Z" fill="#929496"/>
    <path d="M139.396 121.934C140.364 121.934 141.149 121.148 141.149 120.18C141.149 119.211 140.364 118.426 139.396 118.426C138.427 118.426 137.642 119.211 137.642 120.18C137.642 121.148 138.427 121.934 139.396 121.934Z" fill="#929496"/>
    <path d="M146.026 121.934C146.995 121.934 147.78 121.148 147.78 120.18C147.78 119.211 146.995 118.426 146.026 118.426C145.057 118.426 144.272 119.211 144.272 120.18C144.272 121.148 145.057 121.934 146.026 121.934Z" fill="#929496"/>
    <path d="M27.6423 41.469C25.4976 47.7342 19.0684 52.9276 12.7359 51.2309C6.40344 49.5341 3.46467 41.8979 4.7048 35.3229C5.94493 28.7479 12.9124 25.2314 19.2449 26.9282C25.5774 28.625 29.7647 35.2652 27.6396 41.4683L27.6423 41.469Z" fill="#FFC84E"/>
    <path d="M8.26423 48.1604L18.1403 50.8067C18.4247 50.8829 18.5928 51.1741 18.5166 51.4585L17.9473 53.583C17.222 56.2899 14.4347 57.8992 11.7278 57.1739L10.6368 56.8815C7.92991 56.1562 6.32063 53.3689 7.04594 50.662L7.61519 48.5375C7.69139 48.2531 7.98261 48.085 8.26697 48.1612L8.26423 48.1604Z" fill="#A5ADB6"/>
    <path d="M8.09549 48.1138L18.3079 50.8502C18.4993 50.9015 18.6106 51.0984 18.5601 51.287L18.245 52.4627L7.34363 49.5417L7.65866 48.366C7.70995 48.1746 7.90683 48.0632 8.09549 48.1138Z" fill="#373C42"/>
    <path d="M9.90479 37.3076L11.7658 40.1507L14.7991 38.619L16.6601 41.4621L19.6934 39.9305L21.5544 42.7736" stroke="white" stroke-width="1.13228" stroke-linecap="round" stroke-linejoin="round"/>
    <path d="M104.405 36.3112H104.461L105.859 31.7186C106.081 30.9896 105.535 30.25 104.771 30.25H89.3311C88.5668 30.25 88.0209 30.9896 88.2428 31.7186L89.641 36.3112H89.6974C84.742 39.2943 81.5547 43.8235 81.5547 50.2052C81.5547 57.735 88.3344 60.5701 97.0476 60.5701C105.761 60.5701 112.54 57.735 112.54 50.2052C112.54 43.8235 109.353 39.2978 104.398 36.3112H104.405Z" fill="#CEA242"/>
    <path d="M103.331 48.9014C103.331 49.1092 103.247 49.2994 103.11 49.4332C102.972 49.5706 102.786 49.6551 102.578 49.6551H100.598L99.7638 52.772C99.7638 52.772 99.7532 52.7931 99.7532 52.8037C99.7462 52.8284 99.7356 52.853 99.7251 52.8741C99.718 52.8918 99.7074 52.9129 99.7004 52.9305C99.6828 52.9622 99.6617 52.9904 99.6441 53.0221C99.6405 53.0291 99.6335 53.0397 99.6264 53.0467C99.5278 53.17 99.394 53.2686 99.2285 53.3109C98.8305 53.42 98.4149 53.1805 98.3057 52.7791L97.4675 49.6551L97.0625 48.1477L97.0519 48.1125L97.0414 48.1477L96.6363 49.6551L95.8016 52.7755C95.8016 52.7755 95.7911 52.7967 95.7911 52.8072C95.784 52.8319 95.7735 52.8565 95.7629 52.8777C95.7523 52.8988 95.7453 52.9164 95.7383 52.934C95.7206 52.9657 95.703 52.9939 95.6819 53.0256C95.6784 53.0326 95.6713 53.0432 95.6643 53.0502C95.5657 53.1735 95.4318 53.2721 95.2663 53.3144C94.8683 53.4236 94.4528 53.1841 94.3436 52.7826L93.5054 49.6551H91.5296C91.1175 49.6551 90.7759 49.317 90.7759 48.9014C90.7759 48.4858 91.114 48.1477 91.5296 48.1477H93.1039L92.3713 45.4218C92.2656 45.0203 92.5051 44.6082 92.9031 44.499C93.3046 44.3934 93.7167 44.6329 93.8259 45.0308L94.6605 48.1477L95.0656 49.6551V49.6762L95.0761 49.6551L95.4811 48.1477L96.3194 45.0238C96.418 44.654 96.7772 44.4251 97.147 44.4779C97.1576 44.4779 97.1681 44.4779 97.1787 44.4814C97.1998 44.4849 97.221 44.4849 97.2421 44.492C97.2562 44.4955 97.2668 44.5026 97.2773 44.5061C97.302 44.5166 97.3231 44.5237 97.3478 44.5343C97.3654 44.5413 97.3865 44.5483 97.4006 44.5589C97.5837 44.654 97.7281 44.816 97.7845 45.0308L98.6192 48.1513L99.0242 49.6586V49.6762L99.0348 49.6586L99.4398 48.1513L100.278 45.0238C100.384 44.6258 100.799 44.3828 101.201 44.492C101.602 44.6012 101.842 45.0168 101.733 45.4147L101 48.1513H102.574C102.986 48.1513 103.328 48.4894 103.328 48.9049L103.331 48.9014Z" fill="white"/>
    <path d="M104.933 35.8936H89.172C88.9503 35.8936 88.7705 36.0725 88.7705 36.2933C88.7705 36.5141 88.9503 36.693 89.172 36.693H104.933C105.154 36.693 105.334 36.5141 105.334 36.2933C105.334 36.0725 105.154 35.8936 104.933 35.8936Z" fill="white"/>
    <path d="M67.6057 105.449H67.6022C65.836 105.449 64.4043 106.881 64.4043 108.647V110.901C64.4043 112.667 65.836 114.099 67.6022 114.099H67.6057C69.3719 114.099 70.8036 112.667 70.8036 110.901V108.647C70.8036 106.881 69.3719 105.449 67.6057 105.449Z" fill="#38609B"/>
    <path d="M76.7307 97.6689H76.7272C74.961 97.6689 73.5293 99.1007 73.5293 100.867V110.901C73.5293 112.667 74.961 114.099 76.7272 114.099H76.7307C78.4969 114.099 79.9286 112.667 79.9286 110.901V100.867C79.9286 99.1007 78.4969 97.6689 76.7307 97.6689Z" fill="#38609B"/>
    <path d="M85.8523 85.2676H85.8488C84.0826 85.2676 82.6509 86.6993 82.6509 88.4655V110.904C82.6509 112.67 84.0826 114.101 85.8488 114.101H85.8523C87.6184 114.101 89.0502 112.67 89.0502 110.904V88.4655C89.0502 86.6993 87.6184 85.2676 85.8523 85.2676Z" fill="white"/>
    <path d="M96.2351 89.8486H96.2316C94.4654 89.8486 93.0337 91.2804 93.0337 93.0465V110.903C93.0337 112.669 94.4654 114.101 96.2316 114.101H96.2351C98.0013 114.101 99.433 112.669 99.433 110.903V93.0465C99.433 91.2804 98.0013 89.8486 96.2351 89.8486Z" fill="#38609B"/>
    <path d="M153.024 64.7042C151.862 63.542 149.978 63.542 148.815 64.7042C147.653 65.8664 147.653 67.7507 148.815 68.913L165.289 85.3867C166.451 86.5489 168.336 86.549 169.498 85.3867C170.66 84.2245 170.66 82.3402 169.498 81.178L153.024 64.7042Z" fill="#373C42"/>
    <path d="M141.626 74.2668C150.875 74.2668 158.373 66.7691 158.373 57.5201C158.373 48.2712 150.875 40.7734 141.626 40.7734C132.377 40.7734 124.879 48.2712 124.879 57.5201C124.879 66.7691 132.377 74.2668 141.626 74.2668Z" fill="#F0F3F6" stroke="#A5ADB6" stroke-width="4.2263" stroke-miterlimit="10"/>
  </g>
  <defs>
    <clipPath id="clip0_1652_21290">
      <rect width="169.728" height="142" fill="white" transform="translate(0.635742)"/>
    </clipPath>
  </defs>
</svg>