<svg xmlns="http://www.w3.org/2000/svg" width="217" height="152" viewBox="0 0 217 152" fill="none">
  <path d="M203.365 28.4427C204.54 38.085 196.324 46.6118 185.072 47.9826C173.82 49.3534 163.797 43.0486 162.623 33.4063C161.448 23.764 168.91 14.5188 180.819 13.068C192.066 11.6977 202.191 18.8004 203.365 28.4427Z" fill="#FFA7AC"/>
  <path d="M176.683 52.201L175.92 52.2939C174.806 52.4296 173.769 51.7097 173.505 50.6166L172.476 46.3039C172.171 45.0222 173.048 43.7586 174.356 43.5992L175.913 43.4095C177.182 43.255 178.315 44.2062 178.384 45.4805L178.62 49.8899C178.68 51.0484 177.835 52.0561 176.682 52.1966L176.683 52.201Z" fill="#FFA5AA"/>
  <path d="M195.014 49.9676L194.251 50.0605C193.138 50.1962 192.1 49.4763 191.836 48.3832L190.807 44.0705C190.502 42.7888 191.379 41.5252 192.687 41.3658L194.244 41.1761C195.513 41.0216 196.646 41.9728 196.716 43.2471L196.951 47.6565C197.011 48.815 196.166 49.8227 195.013 49.9632L195.014 49.9676Z" fill="#FFA5AA"/>
  <path d="M161.302 37.7933C160.29 37.6511 159.504 36.8467 159.38 35.831L158.795 31.032C158.672 30.0208 159.247 29.0505 160.19 28.6655C161.563 28.1112 163.091 29.0143 163.271 30.4868L163.855 35.2858C164.035 36.7583 162.768 37.9974 161.302 37.7933Z" fill="#FF656E"/>
  <path d="M198.736 27.5034C200.373 27.1239 202.053 26.7257 203.464 25.8157C204.874 24.9057 206 23.3552 205.934 21.6708C205.906 20.999 205.668 20.3033 205.144 19.881C204.62 19.4588 203.785 19.3985 203.297 19.8675C202.677 20.4652 202.905 21.5222 203.362 22.2497C203.837 23.0065 204.576 23.6728 205.469 23.762C206.822 23.8987 207.991 22.595 208.142 21.2443C208.292 19.8936 207.677 18.5777 206.927 17.4448" stroke="#FFA5AA" stroke-width="1.40744" stroke-linecap="round" stroke-linejoin="round"/>
  <path d="M174.686 17.9338L171.707 20.0792C170.283 21.1033 168.296 20.0896 168.294 18.3344L168.29 14.0499C168.287 12.2948 170.27 11.2746 171.7 12.2977L174.683 14.4368C175.882 15.2945 175.882 17.0724 174.686 17.9338Z" fill="#FFA5AA"/>
  <path d="M170.649 28.2424C171.441 28.146 172.004 27.4265 171.907 26.6353C171.811 25.8441 171.091 25.2808 170.3 25.3772C169.509 25.4736 168.946 26.1932 169.042 26.9844C169.139 27.7756 169.858 28.3388 170.649 28.2424Z" fill="#282828"/>
  <path d="M178.403 15.4062C178.403 15.4062 184.196 14.0072 188.695 15.6872" stroke="#7F4949" stroke-width="1.60851" stroke-linecap="round" stroke-linejoin="round"/>
  <path d="M60.9881 38.2038L44.3788 34.5751C42.9324 34.2591 41.5036 35.1755 41.1876 36.622L35.374 63.2318C35.058 64.6782 35.9744 66.107 37.4209 66.423L54.0302 70.0517C55.4766 70.3677 56.9054 69.4513 57.2214 68.0049L63.035 41.3951C63.351 39.9486 62.4346 38.5199 60.9881 38.2038Z" fill="#464748"/>
  <path d="M60.0077 37.9915L56.1445 37.1475L49.1866 68.9954L53.0497 69.8393L60.0077 37.9915Z" fill="#D8D8D8"/>
  <path d="M48.9525 41.8551C48.8479 42.3269 48.6238 42.7413 48.3213 43.0662C47.7146 43.7388 46.7653 44.075 45.8172 43.8664C44.869 43.6578 44.1447 42.9584 43.873 42.0958C43.7308 41.6675 43.7013 41.203 43.8058 40.7311C44.1184 39.3067 45.5211 38.4066 46.9455 38.7192C48.37 39.0318 49.27 40.4345 48.9574 41.8589L48.9525 41.8551Z" fill="#F75F57"/>
  <path d="M48.3895 44.43C48.0769 45.8545 46.6747 46.759 45.2503 46.4464C43.8259 46.1338 42.9297 44.7261 43.2379 43.3022C43.2907 43.0707 43.3717 42.8493 43.4782 42.6518C43.8817 43.5253 44.6798 44.2023 45.6878 44.4216C46.6958 44.6409 47.7058 44.3603 48.4355 43.7358C48.4492 43.9591 48.4329 44.1952 48.3851 44.4306L48.3895 44.43Z" fill="#F9D45F"/>
  <path d="M10.2287 31.0615C12.7419 30.7553 14.5311 28.4697 14.2249 25.9565C13.9188 23.4432 11.6332 21.6541 9.11994 21.9603C6.60671 22.2664 4.81754 24.552 5.12372 27.0653C5.4299 29.5785 7.71549 31.3676 10.2287 31.0615Z" fill="#F9BF30"/>
  <path d="M190.005 9.15912C192.518 8.85294 194.307 6.56736 194.001 4.05413C193.695 1.5409 191.41 -0.248263 188.896 0.0579172C186.383 0.364098 184.594 2.64968 184.9 5.16291C185.206 7.67614 187.492 9.4653 190.005 9.15912Z" fill="#F9BF30"/>
  <path d="M23.5769 42.2722C26.6437 41.8986 28.827 39.1096 28.4534 36.0427C28.0797 32.9759 25.2907 30.7926 22.2239 31.1663C19.1571 31.5399 16.9738 34.3289 17.3474 37.3958C17.721 40.4626 20.5101 42.6458 23.5769 42.2722Z" fill="#F9BF30"/>
  <path d="M32.2016 42.4531L32.2726 42.4445L33.252 36.8878C33.4602 35.7147 32.4737 34.6736 31.2894 34.8178L12.7366 37.0781C11.5524 37.2224 10.8447 38.4699 11.3284 39.5587L13.6133 44.7177L13.6843 44.7091C7.90153 49.226 4.58247 55.4188 5.56157 63.4555C6.71681 72.9382 15.6897 75.4684 26.6626 74.1316C37.6355 72.7948 45.7385 68.1843 44.5832 58.7016C43.6041 50.6649 38.8958 45.4545 32.1972 42.4537L32.2016 42.4531Z" fill="#00B683"/>
  <path d="M32.7794 58.4751C32.8113 58.7367 32.734 58.9892 32.5816 59.1788C32.4297 59.3729 32.2076 59.508 31.9459 59.5398L29.4533 59.8435L28.8803 63.8968C28.8803 63.8968 28.8702 63.925 28.8719 63.9383C28.8668 63.9705 28.8573 64.0031 28.8472 64.0314C28.841 64.0546 28.831 64.0829 28.8248 64.1061C28.8075 64.1487 28.7852 64.1875 28.7679 64.2301C28.7645 64.2395 28.7573 64.2539 28.7495 64.2638C28.6442 64.4342 28.4908 64.5789 28.2888 64.6575C27.8044 64.8561 27.2443 64.6182 27.0452 64.1294L25.5103 60.3239L24.769 58.4877L24.7503 58.445L24.7424 58.4909L24.4636 60.4514L23.8912 64.5091C23.8912 64.5091 23.8811 64.5373 23.8827 64.5507C23.8776 64.5828 23.8681 64.6154 23.858 64.6437C23.848 64.6719 23.8418 64.6952 23.8356 64.7184C23.8183 64.761 23.8005 64.7992 23.7787 64.8424C23.7754 64.8518 23.7681 64.8662 23.7603 64.8761C23.655 65.0465 23.5016 65.1912 23.2997 65.2698C22.8152 65.4684 22.2551 65.2306 22.056 64.7417L20.5206 60.9318L18.0324 61.2349C17.5135 61.2981 17.0314 60.9247 16.9676 60.4014C16.9039 59.878 17.2778 59.4003 17.8011 59.3366L19.7837 59.095L18.443 55.7745C18.2483 55.2851 18.4867 54.7294 18.9711 54.5309C19.4605 54.3362 20.0162 54.5746 20.2148 55.0591L21.7441 58.8562L22.4854 60.6924L22.4887 60.719L22.4987 60.6908L22.7775 58.7303L23.3539 54.6676C23.4213 54.1868 23.8386 53.8434 24.3124 53.8532C24.3257 53.8516 24.339 53.8499 24.3529 53.8527C24.38 53.8539 24.4066 53.8507 24.4343 53.8563C24.4526 53.8586 24.467 53.8658 24.4808 53.8687C24.5135 53.8782 24.5412 53.8838 24.5739 53.8933C24.5971 53.8995 24.6248 53.9051 24.6442 53.9163C24.8894 54.0079 25.0961 54.1898 25.2 54.4517L26.7299 58.2533L27.4712 60.0895L27.4739 60.1117L27.4845 60.0879L27.7633 58.1274L28.3391 54.0603C28.4111 53.5429 28.8972 53.1731 29.4196 53.249C29.9419 53.3249 30.3073 53.8115 30.2309 54.3294L29.7282 57.888L31.7107 57.6465C32.2297 57.5833 32.7118 57.9567 32.7755 58.48L32.7794 58.4751Z" fill="white"/>
  <path d="M32.8018 41.8456L12.9539 44.2636C12.6746 44.2976 12.4757 44.5506 12.5096 44.8286C12.5434 45.1066 12.7973 45.3044 13.0765 45.2704L32.9244 42.8524C33.2037 42.8184 33.4026 42.5654 33.3687 42.2874C33.3348 42.0094 33.081 41.8116 32.8018 41.8456Z" fill="#0B7F7C"/>
  <path d="M118.975 122.661L146.896 124.823C147.289 118.796 145.784 112.599 142.174 107.188C133.447 94.1008 115.758 90.5666 102.671 99.2928C89.5842 108.019 86.05 125.708 94.7762 138.795C102.859 150.912 118.618 154.835 131.298 148.419L118.971 122.661H118.975Z" fill="#5796FF"/>
  <path d="M102.666 83.4518C103.303 84.2998 103.992 85.1219 104.749 85.9096C110.724 92.1295 118.988 94.8112 126.943 93.9159L124.335 67.874L102.666 83.4561V83.4518Z" fill="#175CCF"/>
  <path d="M198.727 52.5727L25.5644 73.6686C24.2172 73.8328 23.2581 75.058 23.4222 76.4052L23.4762 76.8488C23.6404 78.196 24.8656 79.1551 26.2128 78.991L199.375 57.895C200.722 57.7309 201.682 56.5057 201.517 55.1584L201.463 54.7149C201.299 53.3677 200.074 52.4086 198.727 52.5727Z" fill="#E8E8E8"/>
  <path d="M158.691 51.6722L209.799 45.4459C212.952 45.0617 215.781 46.9271 216.108 49.606C216.905 56.1525 211.297 62.2236 203.595 63.1619L168.972 67.38C161.265 68.3189 154.367 63.7668 153.57 57.2248C153.244 54.5459 155.542 52.0558 158.696 51.6716L158.691 51.6722Z" fill="#BEBEBE"/>
  <path d="M8.69081 70.6722L59.7986 64.4459C62.9524 64.0617 65.7814 65.9271 66.1078 68.606C66.9054 75.1525 61.2968 81.2236 53.5951 82.1619L18.9715 86.38C11.2646 87.3189 4.36719 82.7668 3.57019 76.2248C3.24382 73.5459 5.54227 71.0558 8.69604 70.6716L8.69081 70.6722Z" fill="#BEBEBE"/>
</svg>