<svg width="85" height="20" viewBox="0 0 85 20" fill="none" xmlns="http://www.w3.org/2000/svg">
<g id="Frame 1707485090" opacity="0.7">
<path id="Ellipse 1072" d="M82 10C82 13.9752 78.9837 17 75.5 17C72.0163 17 69 13.9752 69 10C69 6.02476 72.0163 3 75.5 3C78.9837 3 82 6.02476 82 10Z" stroke="#8E939A" stroke-width="4"/>
<g id="Group 1000011804">
<path id="Vector" d="M3.984 7.43855C3.968 8.35055 3.96 9.23855 3.96 10.1026C4.216 10.1346 4.512 10.1586 4.848 10.1746C5.184 10.1906 5.52 10.1986 5.856 10.1986C6.208 10.1986 6.536 10.1906 6.84 10.1746C7.16 10.1586 7.44 10.1346 7.68 10.1026C8.528 10.0066 9.184 9.75855 9.648 9.35855C10.128 8.94255 10.384 8.30255 10.416 7.43855C10.448 6.49455 10.208 5.79855 9.696 5.35055C9.2 4.90255 8.52 4.66255 7.656 4.63055C7.112 4.59855 6.512 4.59855 5.856 4.63055C5.216 4.64655 4.624 4.69455 4.08 4.77455C4.048 5.63855 4.016 6.52655 3.984 7.43855ZM13.872 9.93455C13.568 10.7346 13.128 11.4066 12.552 11.9506C11.976 12.4786 11.28 12.8786 10.464 13.1506C9.664 13.4226 8.776 13.5746 7.8 13.6066C7.16 13.6386 6.504 13.6386 5.832 13.6066C5.176 13.5746 4.528 13.5346 3.888 13.4866C3.872 14.2066 3.848 14.8386 3.816 15.3826C3.8 15.9106 3.768 16.3746 3.72 16.7746C3.64 17.4466 3.472 17.9666 3.216 18.3346C2.96 18.7186 2.504 18.9106 1.848 18.9106C1.288 18.9106 0.864 18.7666 0.576 18.4786C0.288 18.2066 0.128 17.7106 0.096 16.9906C0.064 15.8386 0.04 14.6466 0.0239999 13.4146C0.00799996 12.1666 0 10.9106 0 9.64655C0 8.38255 0.00799996 7.13455 0.0239999 5.90255C0.04 4.67055 1.468 4.25454 1.5 3.10254C1.516 2.76654 1.888 2.74654 2 2.60254C2.112 2.45854 1.728 3.13454 2 3.10254C2.432 3.03854 1.39761 1.10256 2 1.10256C2.5 1.10255 3.5 1.10252 4 1.10255C4.62295 1.10261 5.416 1.10255 6.024 1.10255C6.632 1.10255 7.192 1.10255 7.704 1.10255C8.712 1.10255 9.616 1.23055 10.416 1.48655C11.232 1.72655 11.92 2.09455 12.48 2.59055C13.056 3.08655 13.504 3.70255 13.824 4.43855C14.144 5.17455 14.312 6.03055 14.328 7.00655C14.344 8.14255 14.192 9.11855 13.872 9.93455Z" fill="#8E939A"/>
<path id="Rectangle 43150" d="M0 3.10254C0 1.99797 0.895431 1.10254 2 1.10254C3.10457 1.10254 4 1.99797 4 3.10254V17.1025C4 18.2071 3.10457 19.1025 2 19.1025C0.895431 19.1025 0 18.2071 0 17.1025V3.10254Z" fill="#8E939A"/>
</g>
<g id="Group 1000011803">
<path id="Vector_2" d="M38.984 7.33797C38.968 8.24997 38.96 9.13797 38.96 10.002C39.216 10.034 39.512 10.058 39.848 10.074C40.184 10.09 40.52 10.098 40.856 10.098C41.208 10.098 41.536 10.09 41.84 10.074C42.16 10.058 42.44 10.034 42.68 10.002C43.528 9.90597 44.184 9.65797 44.648 9.25797C45.128 8.84197 45.384 8.20197 45.416 7.33797C45.448 6.39397 45.208 5.69797 44.696 5.24997C44.2 4.80197 43.52 4.56197 42.656 4.52997C42.112 4.49797 41.512 4.49797 40.856 4.52997C40.216 4.54597 39.624 4.59397 39.08 4.67397C39.048 5.53797 39.016 6.42597 38.984 7.33797ZM48.872 9.83397C48.568 10.634 48.128 11.306 47.552 11.85C46.976 12.378 46.28 12.778 45.464 13.05C44.664 13.322 43.776 13.474 42.8 13.506C42.16 13.538 41.504 13.538 40.832 13.506C40.176 13.474 39.528 13.434 38.888 13.386C38.872 14.106 38.848 14.738 38.816 15.282C38.8 15.81 38.768 16.274 38.72 16.674C38.64 17.346 38.472 17.866 38.216 18.234C37.96 18.618 37.504 18.81 36.848 18.81C36.288 18.81 35.864 18.666 35.576 18.378C35.288 18.106 35.128 17.61 35.096 16.89C35.064 15.738 35.04 14.546 35.024 13.314C35.008 12.066 35 10.81 35 9.54597C35 8.28197 35.008 7.03397 35.024 5.80197C35.04 4.56997 36.468 4.15395 36.5 3.00195C36.516 2.66595 36.888 2.64595 37 2.50195C37.112 2.35795 36.728 3.03395 37 3.00195C37.432 2.93795 36.3976 1.00197 37 1.00197C37.5 1.00197 38.5 1.00194 39 1.00197C39.6229 1.00202 40.416 1.00197 41.024 1.00197C41.632 1.00197 42.192 1.00197 42.704 1.00197C43.712 1.00197 44.616 1.12997 45.416 1.38597C46.232 1.62597 46.92 1.99397 47.48 2.48997C48.056 2.98597 48.504 3.60197 48.824 4.33797C49.144 5.07397 49.312 5.92997 49.328 6.90597C49.344 8.04197 49.192 9.01797 48.872 9.83397Z" fill="#8E939A"/>
<path id="Rectangle 43148" d="M35 3.00195C35 1.89738 35.8954 1.00195 37 1.00195C38.1046 1.00195 39 1.89738 39 3.00195V17.002C39 18.1065 38.1046 19.002 37 19.002C35.8954 19.002 35 18.1065 35 17.002V3.00195Z" fill="#8E939A"/>
<rect id="Rectangle 43149" x="41" y="11.502" width="4" height="9.57838" rx="2" transform="rotate(-30 41 11.502)" fill="#8E939A"/>
</g>
<g id="Group 1000011806">
<path id="Rectangle 43146" d="M52 3.00195C52 1.89738 52.8954 1.00195 54 1.00195C55.1046 1.00195 56 1.89738 56 3.00195V17.002C56 18.1065 55.1046 19.002 54 19.002C52.8954 19.002 52 18.1065 52 17.002V3.00195Z" fill="#8E939A"/>
<path id="Rectangle 43148_2" d="M62.9588 1.97085C63.7399 1.1898 65.0062 1.18981 65.7873 1.97085C66.5683 2.7519 66.5683 4.01823 65.7873 4.79928L56.2426 14.3439C55.4616 15.125 54.1952 15.125 53.4142 14.3439C52.6331 13.5629 52.6331 12.2965 53.4142 11.5155L62.9588 1.97085Z" fill="#8E939A"/>
<rect id="Rectangle 43147" x="57.5464" y="8.98438" width="4" height="12.4859" rx="2" transform="rotate(-30 57.5464 8.98438)" fill="#8E939A"/>
</g>
<g id="Group 1000011833">
<path id="Ellipse 1072_2" d="M31 10C31 13.9752 27.9837 17 24.5 17C21.0163 17 18 13.9752 18 10C18 6.02476 21.0163 3 24.5 3C27.9837 3 31 6.02476 31 10Z" stroke="#8E939A" stroke-width="4"/>
</g>
</g>
</svg>
