<svg xmlns="http://www.w3.org/2000/svg" width="184" height="142" viewBox="0 0 184 142" fill="none">
  <path d="M152.406 60.0305C168.957 60.0305 182.374 46.6434 182.374 30.1295C182.374 13.6156 168.957 0.228516 152.406 0.228516C135.855 0.228516 122.438 13.6156 122.438 30.1295C122.438 46.6434 135.855 60.0305 152.406 60.0305Z" fill="#E8F5FF" stroke="#F5FAFF" stroke-width="0.45809" stroke-miterlimit="10"/>
  <path d="M99.0421 113.009C123.413 113.009 143.17 93.2964 143.17 68.9799C143.17 44.6635 123.413 24.9512 99.0421 24.9512C74.671 24.9512 54.9143 44.6635 54.9143 68.9799C54.9143 93.2964 74.671 113.009 99.0421 113.009Z" fill="#D2ECFF" fill-opacity="0.5" stroke="#F5FEFF" stroke-width="0.45809" stroke-miterlimit="10"/>
  <path d="M73.4342 45.3105C73.4342 45.3105 80.8323 32.9569 96.2371 33.9344L73.4342 45.3105Z" fill="#EAEFF4"/>
  <path d="M73.4342 45.3105C73.4342 45.3105 80.8323 32.9569 96.2371 33.9344" stroke="white" stroke-width="6.41326" stroke-linecap="round" stroke-linejoin="round"/>
  <path d="M27.7378 141.766C42.555 141.766 54.5667 129.781 54.5667 114.997C54.5667 100.213 42.555 88.2285 27.7378 88.2285C12.9206 88.2285 0.908936 100.213 0.908936 114.997C0.908936 129.781 12.9206 141.766 27.7378 141.766Z" fill="#E8F5FF" stroke="#F5FAFF" stroke-width="0.45809" stroke-miterlimit="10"/>
  <path d="M37.5698 104.565L26.5908 100.735C24.9326 100.156 23.1184 101.029 22.5387 102.683L15.9834 121.392C15.4037 123.046 16.278 124.856 17.9362 125.435L28.9152 129.264C30.5734 129.843 32.3876 128.97 32.9674 127.316L39.5226 108.608C40.1023 106.953 39.2281 105.143 37.5698 104.565Z" fill="#5FACFF"/>
  <path d="M37.7705 104.636L34.7681 103.589L26.1134 128.289L29.1159 129.336L37.7705 104.636Z" fill="#0B61AF"/>
  <path d="M28.5592 106.636C28.432 107.001 28.2094 107.308 27.9337 107.541C27.3824 108.017 26.5925 108.191 25.8557 107.932C25.1188 107.673 24.6099 107.049 24.4774 106.335C24.4085 105.98 24.4297 105.605 24.5569 105.24C24.9439 104.134 26.1525 103.553 27.2605 103.939C28.3684 104.325 28.9515 105.531 28.5645 106.636H28.5592Z" fill="#0B61AF"/>
  <path d="M27.8598 108.63C27.4728 109.735 26.2642 110.317 25.1563 109.931C24.0483 109.545 23.4705 108.334 23.8575 107.234C23.9211 107.054 24.0112 106.884 24.1119 106.736C24.3505 107.472 24.9177 108.09 25.7076 108.36C26.4974 108.63 27.3244 108.508 27.9711 108.08C27.9605 108.26 27.9234 108.445 27.8598 108.63Z" fill="#0B61AF"/>
  <path d="M106.785 93.9027C106.785 93.4079 106.383 93.0068 105.887 93.0068C105.391 93.0068 104.989 93.4079 104.989 93.9027V96.188C104.989 96.6827 105.391 97.0838 105.887 97.0838C106.383 97.0838 106.785 96.6827 106.785 96.188V93.9027Z" fill="#F25536"/>
  <path d="M103.894 97.9795C103.894 96.9831 104.787 96.1787 105.886 96.1787C106.986 96.1787 107.879 96.9831 107.879 97.9795" fill="#F25536"/>
  <path d="M93.0096 93.9027C93.0096 93.4079 92.6076 93.0068 92.1117 93.0068C91.6159 93.0068 91.2139 93.4079 91.2139 93.9027V96.188C91.2139 96.6827 91.6159 97.0838 92.1117 97.0838C92.6076 97.0838 93.0096 96.6827 93.0096 96.188V93.9027Z" fill="#F25536"/>
  <path d="M116.909 72.6224C116.524 70.0171 116.212 67.4119 115.608 64.8432C114.609 60.5971 112.937 56.0905 109.653 53.1972C106.689 50.5874 103.335 49.9658 99.0432 49.9658C94.7509 49.9658 91.3977 50.5874 88.4338 53.1972C85.1493 56.0905 83.4773 60.5971 82.4786 64.8432C81.874 67.4119 81.5625 70.0171 81.1777 72.6224C80.7654 75.415 80.463 78.2625 80.8387 81.078C81.9885 89.7302 90.1379 93.4278 97.6872 93.7386C98.1407 93.7569 98.5942 93.7661 99.0478 93.7661C99.5013 93.7661 99.9548 93.7569 100.408 93.7386C107.958 93.4278 116.102 89.7348 117.257 81.078C117.632 78.2625 117.33 75.415 116.918 72.6224H116.909Z" fill="#FADD59"/>
  <path d="M119.572 75.7408C119.573 75.7408 119.574 75.7418 119.574 75.7431C119.573 87.0587 110.384 95.0425 99.0429 95.0425C87.7006 95.0425 78.5159 87.0531 78.5159 75.7408C78.5159 74.6572 78.6002 73.5926 78.763 72.5537C78.9695 71.2357 80.4426 70.634 81.6055 71.2878L84.2739 72.7881C84.9779 73.1839 85.8477 73.1348 86.5026 72.6623L91.1786 69.289C91.9028 68.7666 92.8801 68.7666 93.6042 69.289L98.1416 72.5622C98.8657 73.0847 99.843 73.0847 100.567 72.5622L105.105 69.289C105.829 68.7666 106.806 68.7666 107.53 69.289L112.237 72.6842C112.876 73.1453 113.721 73.204 114.418 72.8356L116.584 71.6908C117.761 71.0686 119.215 71.7043 119.391 73.024C119.509 73.9125 119.57 74.819 119.57 75.7385C119.57 75.7397 119.571 75.7408 119.572 75.7408Z" fill="#F1BD6E"/>
  <path d="M93.1246 61.4095C93.7723 61.4095 94.2973 60.8856 94.2973 60.2394C94.2973 59.5932 93.7723 59.0693 93.1246 59.0693C92.477 59.0693 91.9519 59.5932 91.9519 60.2394C91.9519 60.8856 92.477 61.4095 93.1246 61.4095Z" fill="black"/>
  <path d="M103.894 61.4095C104.542 61.4095 105.067 60.8856 105.067 60.2394C105.067 59.5932 104.542 59.0693 103.894 59.0693C103.247 59.0693 102.722 59.5932 102.722 60.2394C102.722 60.8856 103.247 61.4095 103.894 61.4095Z" fill="black"/>
  <path d="M99.6339 63.8369H97.3435C96.8299 63.8369 96.4136 64.2523 96.4136 64.7647C96.4136 65.2772 96.8299 65.6926 97.3435 65.6926H99.6339C100.148 65.6926 100.564 65.2772 100.564 64.7647C100.564 64.2523 100.148 63.8369 99.6339 63.8369Z" fill="#D64932"/>
  <path d="M100.229 62.6162H96.7434C96.2298 62.6162 95.8135 63.0316 95.8135 63.544C95.8135 64.0565 96.2298 64.4719 96.7434 64.4719H100.229C100.743 64.4719 101.159 64.0565 101.159 63.544C101.159 63.0316 100.743 62.6162 100.229 62.6162Z" fill="#F25536"/>
  <path d="M90.1199 97.9795C90.1199 96.9831 91.0132 96.1787 92.1126 96.1787C93.212 96.1787 94.1053 96.9831 94.1053 97.9795" fill="#F25536"/>
  <path d="M36.6401 45.8323C46.0863 45.8323 53.744 38.1918 53.744 28.7667C53.744 19.3417 46.0863 11.7012 36.6401 11.7012C27.1938 11.7012 19.5361 19.3417 19.5361 28.7667C19.5361 38.1918 27.1938 45.8323 36.6401 45.8323Z" fill="#E8F5FF" stroke="#F5FAFF" stroke-width="0.45809" stroke-miterlimit="10"/>
  <path d="M33.0395 33.3585C33.0395 32.5888 32.4141 31.9648 31.6427 31.9648C30.8712 31.9648 30.2458 32.5888 30.2458 33.3585V35.4115C30.2458 36.1812 30.8712 36.8052 31.6427 36.8052C32.4141 36.8052 33.0395 36.1812 33.0395 35.4115V33.3585Z" fill="#66676C"/>
  <path d="M43.038 33.3585C43.038 32.5888 42.4127 31.9648 41.6412 31.9648C40.8698 31.9648 40.2444 32.5888 40.2444 33.3585V35.4115C40.2444 36.1812 40.8698 36.8052 41.6412 36.8052C42.4127 36.8052 43.038 36.1812 43.038 35.4115V33.3585Z" fill="#66676C"/>
  <path d="M42.8182 27.6777H30.467C28.6007 27.6777 27.0879 29.1872 27.0879 31.0492V31.055C27.0879 32.917 28.6007 34.4265 30.467 34.4265H42.8182C44.6844 34.4265 46.1973 32.917 46.1973 31.055V31.0492C46.1973 29.1872 44.6844 27.6777 42.8182 27.6777Z" fill="#F95746"/>
  <path d="M44.4063 31.7834H28.873L29.7135 24.8322C29.9801 22.6058 31.8754 20.9287 34.1242 20.9287H39.1551C41.404 20.9287 43.2993 22.6058 43.5659 24.8322L44.4063 31.7834Z" fill="#F95746"/>
  <path d="M31.3359 27.8153L31.8808 24.3918C32.0199 23.2641 32.982 22.4082 34.1238 22.4082H39.1547C40.2965 22.4082 41.2587 23.2583 41.3978 24.3918L41.9426 27.8153H31.3359Z" fill="#E2EEE4"/>
  <path d="M30.1008 32.3675C30.8306 32.3675 31.4223 31.7772 31.4223 31.049C31.4223 30.3208 30.8306 29.7305 30.1008 29.7305C29.3709 29.7305 28.7793 30.3208 28.7793 31.049C28.7793 31.7772 29.3709 32.3675 30.1008 32.3675Z" fill="#F9DB28"/>
  <path d="M42.9699 32.3675C43.6998 32.3675 44.2914 31.7772 44.2914 31.049C44.2914 30.3208 43.6998 29.7305 42.9699 29.7305C42.2401 29.7305 41.6484 30.3208 41.6484 31.049C41.6484 31.7772 42.2401 32.3675 42.9699 32.3675Z" fill="#F9DB28"/>
  <path d="M38.7377 31.541H34.5414C34.3493 31.541 34.1936 31.6964 34.1936 31.888V33.1892C34.1936 33.3808 34.3493 33.5361 34.5414 33.5361H38.7377C38.9297 33.5361 39.0854 33.3808 39.0854 33.1892V31.888C39.0854 31.6964 38.9297 31.541 38.7377 31.541Z" fill="#E2EEE4"/>
  <path d="M163.956 35.9892L156.127 32.0539C155.435 31.7065 155.156 30.8655 155.504 30.1753L157.51 26.1989C157.914 25.399 158.963 25.1796 159.654 25.751L166.585 31.4643C167.089 31.8802 167.24 32.5886 166.943 33.1737L165.834 35.3721C165.486 36.0623 164.643 36.3411 163.951 35.9937L163.956 35.9892Z" fill="#6FC17D"/>
  <path d="M153.273 43.8206L147.487 40.9137C146.974 40.6578 146.8 39.9767 147.093 39.3917L148.788 36.0277C149.132 35.3513 149.933 35.1227 150.437 35.5661L155.462 39.9767C155.829 40.2967 155.911 40.8772 155.664 41.3662L154.725 43.2265C154.432 43.8115 153.777 44.0766 153.268 43.8161L153.273 43.8206Z" fill="#6FC17D"/>
  <path d="M140.602 37.455L146.388 40.3619C146.901 40.6178 147.551 40.3527 147.844 39.7723L149.539 36.4083C149.883 35.7318 149.585 34.9503 148.93 34.8086L142.389 33.4054C141.912 33.3048 141.399 33.5791 141.147 34.0727L140.208 35.9329C139.915 36.518 140.089 37.199 140.602 37.455Z" fill="#6FC17D"/>
  <path d="M140.555 24.232L148.384 28.1673C149.076 28.5146 149.919 28.2358 150.267 27.5457L152.273 23.5692C152.676 22.7694 152.232 21.7958 151.357 21.581L142.63 19.4282C141.994 19.2728 141.334 19.5745 141.041 20.155L139.932 22.3534C139.584 23.0436 139.864 23.8846 140.555 24.232Z" fill="#6FC17D"/>
  <path d="M146.956 40.6501C144.785 39.5577 144.73 37.5832 145.948 35.1699L153.333 18.1946C154.551 15.7859 157.323 14.7027 159.494 15.7951C161.665 16.8874 162.449 19.7532 161.235 22.1619L151.967 38.1911C150.749 40.5998 149.127 41.7379 146.956 40.6455V40.6501Z" fill="white"/>
  <path d="M149.763 35.2052L149.62 35.1332C149.353 34.9992 149.028 35.1063 148.894 35.3723L146.617 39.8831C146.483 40.1492 146.59 40.4734 146.857 40.6074L147 40.6794C147.267 40.8133 147.592 40.7063 147.726 40.4403L150.003 35.9294C150.137 35.6634 150.03 35.3391 149.763 35.2052Z" fill="#54AD6E"/>
  <path d="M166.27 137.194C177.821 134.717 185.173 123.366 182.69 111.84C180.207 100.315 168.831 92.9802 157.279 95.4572C145.728 97.9343 138.377 109.285 140.859 120.811C143.342 132.336 154.719 139.671 166.27 137.194Z" fill="#E8F5FF" stroke="#F5FAFF" stroke-width="0.45809" stroke-miterlimit="10"/>
  <path d="M160.347 115.982L160.385 106.937L164.981 103.02" stroke="#33BACC" stroke-width="1.83236" stroke-linecap="round" stroke-linejoin="round"/>
  <path d="M168.198 128.915L160.593 130.546C159.514 130.777 158.422 130.081 158.073 128.94L153.688 114.519C153.62 114.29 153.746 114.048 153.965 114.001L167.423 111.115C167.643 111.068 167.856 111.233 167.889 111.473L169.83 126.419C169.981 127.602 169.273 128.684 168.193 128.916L168.198 128.915Z" fill="#D1D5DA"/>
  <path d="M167.148 109.381L153.515 112.304C152.562 112.508 151.956 113.444 152.161 114.394L152.162 114.399C152.367 115.349 153.304 115.954 154.257 115.749L167.89 112.826C168.842 112.622 169.448 111.686 169.243 110.736L169.242 110.731C169.038 109.781 168.1 109.176 167.148 109.381Z" fill="white"/>
  <path d="M169.441 122.989L157.026 125.651C156.69 125.723 156.344 125.489 156.236 125.115L154.615 119.591C154.491 119.169 154.712 118.738 155.088 118.657L168.327 115.818C168.708 115.736 169.082 116.04 169.143 116.475L169.94 122.176C169.995 122.562 169.777 122.917 169.441 122.989Z" fill="#5EB5C9"/>
  <circle cx="68.2521" cy="54.2237" r="3.10949" fill="white"/>
</svg>