<svg width="34" height="34" viewBox="0 0 34 34" fill="none" xmlns="http://www.w3.org/2000/svg">
<rect width="34" height="34" rx="17" fill="#0060A9"/>
<path d="M11.314 15.6816V17.094H10.4761V13.3545H11.314V14.8123H12.0384V15.6816H11.314ZM9.53491 16.9579C9.29804 16.837 9.05865 16.6694 8.81422 16.4552C8.56979 16.241 8.36064 15.9878 8.18803 15.6955C8.05573 15.9878 7.87304 16.2549 7.63995 16.4968C7.40686 16.7387 7.16369 16.9428 6.91044 17.1091L6.30566 16.4212C6.67357 16.2297 7.0062 15.9349 7.30354 15.5367C7.59963 15.1386 7.74831 14.7329 7.74831 14.3209V13.512H8.63783V14.3209C8.63783 14.7341 8.78902 15.1222 9.09141 15.4838C9.3938 15.8467 9.70879 16.0911 10.0376 16.2171L9.53617 16.9579H9.53491ZM7.35772 17.4115H11.314V19.9264H7.35772V17.4115ZM10.4849 18.2809H8.19559V19.0583H10.4849V18.2809Z" fill="white"/>
<path d="M16.0818 17.2304V15.3795H15.0021V14.495H16.0818V13.3535H16.9197V17.2291H16.0818V17.2304ZM14.9844 16.9733C14.7538 16.8524 14.5144 16.6848 14.2675 16.4706C14.0193 16.2564 13.8101 16.0032 13.6375 15.7109C13.5052 16.0032 13.3238 16.2703 13.0932 16.5122C12.8627 16.7541 12.6182 16.9582 12.3587 17.1233L11.7539 16.4353C12.1218 16.2438 12.4544 15.949 12.7518 15.5521C13.0479 15.154 13.1965 14.7483 13.1965 14.335V13.4883H14.0949V14.335C14.0949 14.7483 14.2461 15.1363 14.5485 15.4992C14.8509 15.8621 15.1658 16.1065 15.4947 16.2325L14.9844 16.9733ZM16.4661 19.6974C16.078 19.9569 15.5463 20.0867 14.8723 20.0867C14.1982 20.0867 13.6753 19.9582 13.2873 19.7011C12.8979 19.4441 12.7039 19.109 12.7039 18.697C12.7039 18.2849 12.8979 17.9536 13.2873 17.6928C13.6753 17.4307 14.2045 17.2997 14.8723 17.2997C15.54 17.2997 16.0692 17.4294 16.4611 17.689C16.8529 17.9485 17.0482 18.2849 17.0482 18.697C17.0482 19.109 16.8542 19.4391 16.4648 19.6974M15.7744 18.2585C15.5363 18.1476 15.2377 18.0922 14.8811 18.0922C14.5245 18.0922 14.241 18.1438 14.0004 18.2472C13.7585 18.3505 13.6375 18.4928 13.6375 18.6743C13.6375 18.8456 13.7585 18.993 14.0004 19.1165C14.2423 19.24 14.5359 19.3017 14.8811 19.3017C15.2263 19.3017 15.5363 19.245 15.7744 19.1316C16.0138 19.0182 16.1335 18.8759 16.1335 18.7045C16.1335 18.518 16.0138 18.3694 15.7744 18.2585Z" fill="white"/>
<path d="M20.0242 17.1129C19.5404 17.9218 18.9268 18.5455 18.1847 18.9827L17.5371 18.3792C17.8483 18.2179 18.1986 17.9483 18.5904 17.5703C18.9823 17.1923 19.2443 16.8118 19.3766 16.4288C19.175 16.4792 18.9407 16.5195 18.6723 16.5497C18.4052 16.58 18.0978 16.5951 17.7526 16.5951V15.7938C18.1268 15.7938 18.4984 15.7761 18.8664 15.7408C19.2355 15.7056 19.5026 15.6652 19.6702 15.6199C19.6929 15.509 19.713 15.3868 19.7307 15.2532C19.7483 15.1197 19.7622 15 19.7735 14.8941H17.9416V14.0323H20.7487C20.7487 15.2759 20.5068 16.3028 20.023 17.1117M22.3312 16.8975V20.0032H21.5022V13.3545H22.3312V15.9764H23.1086V16.8987H22.3312V16.8975Z" fill="white"/>
<path d="M27.7024 17.2842H23.479V13.9365H27.6684V14.8059H24.3169V16.4148H27.7024V17.2842ZM28.3059 19.2938H22.8037V18.4333H28.3059V19.2938Z" fill="white"/>
</svg>
