<svg width="40" height="40" viewBox="0 0 40 40" fill="none" xmlns="http://www.w3.org/2000/svg">
<g id="Group 1000011850">
<g id="Group 1000011815">
<rect id="Rectangle 43240" width="40" height="40" rx="20" fill="#FF7822"/>
</g>
<path id="Vector" d="M23.9005 24.8133L23.9005 24.9701C23.9005 28.6057 20.9587 31.5518 17.3284 31.5518C13.698 31.5518 10.7562 28.6057 10.7562 24.9701L10.7562 16.6646C10.7562 12.1639 14.3991 8.5158 18.8932 8.5158L21.0839 8.5158C25.578 8.5158 29.2209 12.1639 29.2209 16.6646C29.2209 21.1652 25.578 24.8133 21.0839 24.8133L20.0668 24.8133C18.0357 24.8133 16.3895 23.1648 16.3895 21.1307C16.3895 19.0967 18.0357 17.4481 20.0668 17.4481L20.2233 17.4481C22.2544 17.4481 23.9005 19.0967 23.9005 21.1307L23.9005 24.8133Z" fill="#FF7822" stroke="white" stroke-width="3.22682" stroke-miterlimit="10"/>
</g>
</svg>
