<svg width="40" height="40" viewBox="0 0 40 40" fill="none" xmlns="http://www.w3.org/2000/svg">
<g id="Group 1000011849">
<g id="Group 1000011815">
<rect id="Rectangle 43240" width="40" height="40" rx="20" fill="white"/>
</g>
<path id="Vector" d="M24.2591 24.9921L24.2591 25.1488C24.2591 28.7844 21.3172 31.7305 17.6869 31.7305C14.0566 31.7305 11.1147 28.7844 11.1147 25.1488L11.1147 16.8433C11.1147 12.3427 14.7576 8.69451 19.2517 8.69451L21.4424 8.69451C25.9365 8.69451 29.5794 12.3427 29.5794 16.8433C29.5794 21.3439 25.9365 24.9921 21.4424 24.9921L20.4253 24.9921C18.3942 24.9921 16.748 23.3435 16.748 21.3094C16.748 19.2754 18.3942 17.6268 20.4253 17.6268L20.5818 17.6268C22.6129 17.6268 24.2591 19.2754 24.2591 21.3094L24.2591 24.9921Z" stroke="#FF7822" stroke-width="2.68902" stroke-miterlimit="10"/>
</g>
</svg>
