<svg width="34" height="34" viewBox="0 0 34 34" fill="none" xmlns="http://www.w3.org/2000/svg">
<rect width="34" height="34" rx="17" fill="#01A0A3"/>
<g clip-path="url(#clip0_2161_24247)">
<path d="M20.7736 19.2278C20.7203 18.9214 20.6404 18.6283 20.5139 18.3552C20.1276 17.5227 19.588 16.8233 18.7821 16.3504C17.5299 15.6177 16.0113 15.6244 14.7724 16.377C14.2129 16.7167 13.7467 17.2029 13.4536 17.7891C13.3537 17.9889 13.2738 18.1954 13.2005 18.4085C12.8741 19.4476 12.8875 20.8463 13.4736 21.7921C13.6668 22.1052 13.9465 22.3649 14.2862 22.4981C14.6259 22.6313 15.0255 22.618 15.3319 22.4182C15.7249 22.1651 15.7982 21.6789 15.7249 21.2459C15.6316 20.6931 15.565 20.1469 15.7649 19.6074C15.8315 19.4342 15.9247 19.2677 16.0513 19.1412C16.1312 19.0613 16.2244 19.0013 16.3243 18.948C16.5375 18.8415 16.7839 18.7948 17.017 18.8348C17.43 18.9014 17.763 19.2211 17.9495 19.5941C18.1294 19.9671 18.1827 20.3934 18.2026 20.8063C18.2892 22.618 17.8563 24.4896 17.3967 26.2347C17.3501 26.4146 17.3035 26.5944 17.2502 26.7676C17.2102 26.9075 17.1436 27.0806 17.2302 27.2138C17.2702 27.2738 17.3234 27.3137 17.39 27.3404C17.6565 27.447 17.8763 27.2871 18.0561 27.1006C19.1151 26.0349 19.8012 24.6562 20.2608 23.2375C20.4339 22.7113 20.5871 22.1718 20.687 21.6189C20.8269 20.8729 20.9068 20.0137 20.7736 19.2278Z" fill="white"/>
<path d="M28.3736 10.8546C28.3736 10.5816 28.1338 10.4017 27.8741 10.4084C27.6143 10.4217 27.3678 10.5549 27.1281 10.6482C22.459 12.4199 17.1904 12.7596 12.2682 12.0536C11.4223 11.927 10.5764 11.7605 9.72389 11.6273C9.1977 11.5473 8.67151 11.4275 8.13866 11.3808C7.68574 11.3475 7.11293 11.3342 6.74659 11.6473C6.26037 12.0669 6.30033 12.8661 6.57342 13.3923C6.90645 14.0184 7.48592 14.4913 8.08538 14.851C8.67151 15.1974 9.37087 15.5704 10.0636 15.5304C11.9419 15.4105 13.8202 15.2307 15.6918 14.9842C18.8822 14.5713 22.2259 14.1783 25.2165 12.9394C26.1956 12.5331 27.1614 12.0336 28.0006 11.3808C28.1538 11.2676 28.3736 11.0744 28.3736 10.8546Z" fill="white"/>
<path d="M14.9785 9.2572C14.9785 10.2696 15.7978 11.0955 16.8168 11.0955C17.8359 11.0955 18.6552 10.2763 18.6552 9.2572C18.6552 9.104 18.6219 8.95747 18.5553 8.8176C18.4021 8.48457 18.2222 8.31805 18.2422 7.92508C18.2622 7.38557 17.5762 7.37891 17.1965 7.37891C16.7902 7.37891 16.3639 7.43219 15.9976 7.61869C15.6979 7.75856 15.4448 7.98502 15.2716 8.25811C15.0917 8.53785 14.9852 8.87088 14.9785 9.21057C14.9785 9.2239 14.9785 9.24388 14.9785 9.2572Z" fill="white"/>
</g>
<defs>
<clipPath id="clip0_2161_24247">
<rect width="22" height="20.0018" fill="white" transform="translate(6.37305 7.37207)"/>
</clipPath>
</defs>
</svg>
