<svg width="24" height="24" viewBox="0 0 24 24" fill="none" xmlns="http://www.w3.org/2000/svg">
<g id="_&#236;&#155;&#148;&#236;&#132;&#184;">
<g id="Group 1000011853">
<path id="Vector" d="M14.2715 0.857422H9.72864C8.61618 0.857422 7.71436 1.75925 7.71436 2.87171V4.55742C7.71436 5.66988 8.61618 6.57171 9.72864 6.57171H14.2715C15.384 6.57171 16.2858 5.66988 16.2858 4.55742V2.87171C16.2858 1.75925 15.384 0.857422 14.2715 0.857422Z" fill="#4B5158"/>
<g id="Group">
<path id="Vector_2" d="M7.71432 19.4287H6.28575C5.49677 19.4287 4.85718 20.0683 4.85718 20.8573V22.2859C4.85718 23.0748 5.49677 23.7144 6.28575 23.7144H7.71432C8.5033 23.7144 9.14289 23.0748 9.14289 22.2859V20.8573C9.14289 20.0683 8.5033 19.4287 7.71432 19.4287Z" fill="#4B5158"/>
<path id="Vector_3" d="M17.7143 19.4287H16.2857C15.4968 19.4287 14.8572 20.0683 14.8572 20.8573V22.2859C14.8572 23.0748 15.4968 23.7144 16.2857 23.7144H17.7143C18.5033 23.7144 19.1429 23.0748 19.1429 22.2859V20.8573C19.1429 20.0683 18.5033 19.4287 17.7143 19.4287Z" fill="#4B5158"/>
<path id="Vector_4" d="M19.1429 3.71484H4.85714C3.27919 3.71484 2 4.99403 2 6.57199V18.0006C2 19.5785 3.27919 20.8577 4.85714 20.8577H19.1429C20.7208 20.8577 22 19.5785 22 18.0006V6.57199C22 4.99403 20.7208 3.71484 19.1429 3.71484Z" fill="#5A7EFF"/>
<path id="Vector_5" d="M18.0715 6.57227H5.92861C5.33687 6.57227 4.85718 7.05196 4.85718 7.64369V11.2151C4.85718 11.8069 5.33687 12.2866 5.92861 12.2866H18.0715C18.6632 12.2866 19.1429 11.8069 19.1429 11.2151V7.64369C19.1429 7.05196 18.6632 6.57227 18.0715 6.57227Z" fill="white"/>
<path id="Vector_6" d="M6.28575 18.0007C7.07473 18.0007 7.71432 17.3611 7.71432 16.5721C7.71432 15.7831 7.07473 15.1436 6.28575 15.1436C5.49677 15.1436 4.85718 15.7831 4.85718 16.5721C4.85718 17.3611 5.49677 18.0007 6.28575 18.0007Z" fill="white"/>
<path id="Vector_7" d="M17.7142 18.0007C18.5032 18.0007 19.1428 17.3611 19.1428 16.5721C19.1428 15.7831 18.5032 15.1436 17.7142 15.1436C16.9252 15.1436 16.2856 15.7831 16.2856 16.5721C16.2856 17.3611 16.9252 18.0007 17.7142 18.0007Z" fill="white"/>
</g>
</g>
</g>
</svg>
