<svg width="24" height="24" viewBox="0 0 24 24" fill="none" xmlns="http://www.w3.org/2000/svg">
<g id="Layer_2">
<g id="Group">
<path id="Vector" d="M21.1285 11.7635V20.389C21.1285 21.7265 20.0367 22.8183 18.6992 22.8183H5.65175C4.31425 22.8183 3.22241 21.7265 3.22241 20.389V11.7635C3.22241 11.2449 3.42713 10.7399 3.79563 10.3715L10.7834 3.38376C11.1519 3.01526 11.6568 2.81055 12.1755 2.81055C12.6941 2.81055 13.199 3.01526 13.5675 3.38376L20.5553 10.3715C20.9238 10.7399 21.1285 11.2449 21.1285 11.7635Z" fill="#DAD0FF"/>
<path id="Vector_2" d="M12.16 13.5664C13.8251 13.5664 15.1762 14.9175 15.1762 16.5826V19.4896C15.1762 20.1037 14.6712 20.6087 14.0571 20.6087H10.2766C9.66244 20.6087 9.15747 20.1037 9.15747 19.4896V16.5826C9.15747 14.9175 10.5086 13.5664 12.1737 13.5664H12.16Z" fill="#4B5158"/>
<path id="Vector_3" d="M2.33325 12.1731L3.20672 11.2997L11.3545 3.16555L12.1598 2.34668L12.9786 3.16555L21.1265 11.2997L21.9999 12.1731" stroke="#886AFF" stroke-width="3.58408" stroke-linecap="round" stroke-linejoin="round"/>
</g>
</g>
</svg>
