<svg width="21" height="21" viewBox="0 0 21 21" fill="none" xmlns="http://www.w3.org/2000/svg">
<g id="_?&#235;&#141;&#137;&#236;&#148;&#160;??1" clip-path="url(#clip0_1984_26656)">
<path id="Vector" d="M18.375 7.875H2.625C1.17525 7.875 0 9.05025 0 10.5V18.375C0 19.8247 1.17525 21 2.625 21H18.375C19.8247 21 21 19.8247 21 18.375V10.5C21 9.05025 19.8247 7.875 18.375 7.875Z" fill="#FF5C46"/>
<path id="Vector_2" d="M18.4538 3.9375H2.54625C1.86487 3.9375 1.3125 4.48987 1.3125 5.17125V5.32875C1.3125 6.01013 1.86487 6.5625 2.54625 6.5625H18.4538C19.1351 6.5625 19.6875 6.01013 19.6875 5.32875V5.17125C19.6875 4.48987 19.1351 3.9375 18.4538 3.9375Z" fill="#4B5158"/>
<path id="Vector_3" d="M17.0625 0H3.9375C3.21263 0 2.625 0.587626 2.625 1.3125C2.625 2.03737 3.21263 2.625 3.9375 2.625H17.0625C17.7874 2.625 18.375 2.03737 18.375 1.3125C18.375 0.587626 17.7874 0 17.0625 0Z" fill="#B8BEC4"/>
<path id="Vector_4" d="M12.7444 13.7156L9.39749 11.7862C8.88562 11.4975 8.25562 11.865 8.25562 12.4425V16.3012C8.25562 16.8918 8.88562 17.2462 9.39749 16.9575L12.7444 15.0281C13.2562 14.7393 13.2562 14.0043 12.7444 13.7156Z" fill="white"/>
</g>
<defs>
<clipPath id="clip0_1984_26656">
<rect width="21" height="21" fill="white"/>
</clipPath>
</defs>
</svg>
