<svg xmlns="http://www.w3.org/2000/svg" width="16" height="16" viewBox="0 0 16 16" fill="none">
  <path d="M11.7338 4.87338C11.9015 4.70583 11.9015 4.43405 11.7339 4.26643C11.5663 4.09881 11.2945 4.09886 11.127 4.26654L8.00145 7.39438L4.87344 4.26637C4.70583 4.09876 4.43409 4.09876 4.26648 4.26637C4.09883 4.43402 4.09888 4.70585 4.2666 4.87344L7.39438 7.99888L4.26648 11.1268C4.09892 11.2943 4.09921 11.5661 4.26713 11.7333C4.4345 11.9 4.70519 11.8998 4.87227 11.7328L8.00145 8.60595L11.1281 11.7326C11.2952 11.8997 11.5659 11.8999 11.7333 11.7333C11.9012 11.5661 11.9014 11.2944 11.7339 11.1268L8.60595 7.99888L11.7338 4.87338Z" fill="white"/>
</svg>