<svg width="57" height="57" viewBox="0 0 57 57" fill="none" xmlns="http://www.w3.org/2000/svg">
<g id="Frame 1707484505">
<rect x="0.5" y="0.473633" width="56" height="56" rx="28" fill="#F2F4F6"/>
<g id="Group 1000011739">
<g id="Group">
<path id="Vector" d="M44.1191 36.3533V20.3028C44.1191 18.9032 42.9845 17.7686 41.5848 17.7686H15.8672C14.4675 17.7686 13.3328 18.9032 13.3328 20.3028V36.3533C13.3328 37.753 14.4675 38.8876 15.8672 38.8876H41.5848C42.9845 38.8876 44.1191 37.753 44.1191 36.3533Z" fill="#C9CCCF"/>
<path id="Vector_2" d="M40.2197 25.6312V25.5662C40.2197 25.2163 39.9361 24.9326 39.5861 24.9326H28.2464C27.8964 24.9326 27.6128 25.2163 27.6128 25.5662V25.6312C27.6128 25.9811 27.8964 26.2647 28.2464 26.2647H39.5861C39.9361 26.2647 40.2197 25.9811 40.2197 25.6312Z" fill="white"/>
<path id="Vector_3" d="M40.2197 28.4241V28.3592C40.2197 28.0092 39.9361 27.7256 39.5861 27.7256H28.2464C27.8964 27.7256 27.6128 28.0092 27.6128 28.3592V28.4241C27.6128 28.774 27.8964 29.0577 28.2464 29.0577H39.5861C39.9361 29.0577 40.2197 28.774 40.2197 28.4241Z" fill="white"/>
<path id="Vector_4" d="M36.4834 31.2197V31.1222C36.4834 30.7813 36.207 30.5049 35.866 30.5049H28.2304C27.8894 30.5049 27.613 30.7813 27.613 31.1222V31.2197C27.613 31.5606 27.8894 31.837 28.2304 31.837H35.866C36.207 31.837 36.4834 31.5606 36.4834 31.2197Z" fill="white"/>
<g id="Group_2">
<path id="Vector_5" d="M25.0133 28.3954C25.0133 29.7925 24.3634 31.0596 23.3724 31.8719C22.6901 32.4405 21.8453 32.7979 20.9193 32.8954C20.7893 32.8954 20.6593 32.8954 20.5131 32.8954C20.3019 32.8954 20.0907 32.8954 19.8958 32.8629C19.2947 32.7817 18.7423 32.5867 18.2387 32.2943C18.0275 32.1643 17.8325 32.0344 17.6376 31.8719C16.6303 31.0434 15.9805 29.7763 15.9805 28.3791C15.9805 26.7059 16.8902 25.2438 18.2387 24.464C18.9048 24.0741 19.6683 23.8467 20.5131 23.8467C23.015 23.8467 25.0295 25.8774 25.0295 28.3791L25.0133 28.3954Z" fill="#676767"/>
<path id="Vector_6" d="M20.4965 28.6892C20.2203 28.6892 19.9441 28.6079 19.7167 28.478C19.2618 28.2181 18.9531 27.7144 18.9531 27.1459C18.9531 26.5773 19.2618 26.0737 19.7167 25.8137C19.9441 25.6838 20.2041 25.6025 20.4965 25.6025C21.3413 25.6025 22.0399 26.2848 22.0399 27.1459C22.0399 28.0069 21.3575 28.6892 20.4965 28.6892Z" fill="white"/>
<path id="Vector_7" d="M23.355 31.8876C22.6727 32.44 21.8279 32.8136 20.9018 32.8948C20.7719 32.8948 20.6419 32.8948 20.4957 32.8948C20.2845 32.8948 20.0733 32.8948 19.8783 32.8624C19.2772 32.7811 18.7249 32.5862 18.2212 32.2938C18.01 32.1638 17.8151 32.0338 17.6201 31.8714C17.6851 30.9779 18.2375 30.2143 19.0498 29.8082C19.4722 29.5808 19.9596 29.4346 20.4794 29.4346C22.0066 29.4346 23.2575 30.5068 23.3387 31.8714L23.355 31.8876Z" fill="white"/>
</g>
</g>
<g id="Group_3">
<path id="Vector_8" d="M42.3776 45.0075C46.3108 45.0075 49.4993 41.8192 49.4993 37.8861C49.4993 33.953 46.3108 30.7646 42.3776 30.7646C38.4444 30.7646 35.2559 33.953 35.2559 37.8861C35.2559 41.8192 38.4444 45.0075 42.3776 45.0075Z" fill="#FFDA64"/>
<path id="Vector_9" d="M42.3788 43.7717C45.6304 43.7717 48.2663 41.1359 48.2663 37.8844C48.2663 34.6329 45.6304 31.9971 42.3788 31.9971C39.1272 31.9971 36.4912 34.6329 36.4912 37.8844C36.4912 41.1359 39.1272 43.7717 42.3788 43.7717Z" fill="#F4BC39"/>
<path id="Vector_10" d="M45.23 38.2687C45.23 38.2687 45.1896 38.4508 45.1289 38.5115C45.0682 38.5722 44.9872 38.6127 44.8861 38.6127H43.9959L43.6114 40.0289C43.6114 40.0289 43.6114 40.0491 43.6114 40.0693C43.6114 40.0693 43.6114 40.0693 43.6114 40.0896C43.6114 40.0896 43.6114 40.1098 43.5912 40.13C43.5507 40.1907 43.49 40.2312 43.4091 40.2514C43.227 40.2919 43.0449 40.1907 42.9842 40.0086L42.5998 38.5924L42.4177 37.9046L42.2357 38.5924L41.8512 40.0086C41.8512 40.0086 41.8512 40.0289 41.8512 40.0491C41.8512 40.0491 41.8512 40.0491 41.8512 40.0693C41.8512 40.0693 41.8512 40.0896 41.831 40.1098C41.7905 40.1705 41.7298 40.211 41.6489 40.2312C41.4668 40.2716 41.2847 40.1705 41.224 39.9884L40.8396 38.5722H39.9494C39.7673 38.5722 39.6055 38.4104 39.6055 38.2283C39.6055 38.0462 39.7673 37.8843 39.9494 37.8843H40.6575L40.3338 36.6502C40.2934 36.4681 40.3945 36.2861 40.5766 36.2254C40.7587 36.1849 40.9408 36.2861 41.0015 36.4681L41.3859 37.8843L41.568 38.5722L41.7501 37.8843L42.1345 36.4681C42.175 36.3063 42.3368 36.2051 42.5189 36.2254C42.5189 36.2254 42.5189 36.2254 42.5391 36.2254C42.5391 36.2254 42.5594 36.2254 42.5796 36.2254C42.5796 36.2254 42.5796 36.2254 42.5998 36.2254C42.6808 36.2658 42.7415 36.3468 42.7819 36.4479L43.1663 37.8641L43.3484 38.552L43.5305 37.8641L43.9149 36.4479C43.9554 36.2658 44.1577 36.1647 44.3398 36.2051C44.5219 36.2456 44.6231 36.4479 44.5826 36.63L44.2589 37.8641H44.967C45.1491 37.8641 45.3109 38.026 45.3109 38.208L45.23 38.2687Z" fill="white"/>
</g>
</g>
</g>
</svg>
