<svg width="57" height="57" viewBox="0 0 57 57" fill="none" xmlns="http://www.w3.org/2000/svg">
<g id="Frame 1707484505">
<rect x="0.5" y="0.473633" width="56" height="56" rx="28" fill="#F2F4F6"/>
<g id="Group">
<path id="Vector" d="M37.0135 12.1396H19.986C18.4976 12.1396 17.291 13.3462 17.291 14.8346V42.1113C17.291 43.5997 18.4976 44.8063 19.986 44.8063H37.0135C38.5019 44.8063 39.7085 43.5997 39.7085 42.1113V14.8346C39.7085 13.3462 38.5019 12.1396 37.0135 12.1396Z" fill="#464748"/>
<path id="Vector_2" d="M32.1938 35.9854H29.8051C29.2526 35.9854 28.8047 36.4333 28.8047 36.9858V40.5179C28.8047 41.0704 29.2526 41.5183 29.8051 41.5183H32.1938C32.7464 41.5183 33.1943 41.0704 33.1943 40.5179V36.9858C33.1943 36.4333 32.7464 35.9854 32.1938 35.9854Z" fill="#ADADAD"/>
<path id="Vector_3" d="M26.0085 17.7949C26.0085 18.2849 25.886 18.734 25.641 19.122C25.1919 19.9182 24.3344 20.449 23.3544 20.449C22.3744 20.449 21.5169 19.9182 21.0677 19.122C20.8431 18.734 20.7002 18.2849 20.7002 17.7949C20.7002 16.3249 21.8844 15.1611 23.3339 15.1611C24.7835 15.1611 25.9677 16.3453 25.9677 17.7949H26.0085Z" fill="#F75F57"/>
<path id="Vector_4" d="M26.0087 20.449C26.0087 21.919 24.8245 23.1032 23.375 23.1032C21.9254 23.1032 20.7412 21.919 20.7412 20.449C20.7412 20.204 20.7821 19.9795 20.8433 19.7549C21.415 20.5307 22.3541 21.0207 23.3954 21.0207C24.4366 21.0207 25.3554 20.5307 25.9475 19.7549C26.0087 19.9795 26.0496 20.204 26.0496 20.449H26.0087Z" fill="#F9D45F"/>
</g>
</g>
</svg>
