<svg width="57" height="57" viewBox="0 0 57 57" fill="none" xmlns="http://www.w3.org/2000/svg">
<g id="Frame 1707484505">
<rect x="0.5" y="0.473633" width="56" height="56" rx="28" fill="#F2F4F6"/>
<g id="Group 1000011738">
<path id="Vector" d="M35.7192 20.257H35.7705L36.8316 16.7998C37.1397 15.7901 36.3867 14.7803 35.3426 14.7803H22.8316C21.7876 14.7803 21.0346 15.7901 21.3426 16.7998L22.4038 20.257H22.4551C17.9881 22.9441 15.0957 27.0346 15.0957 32.8023C15.0957 39.5969 21.2228 42.1641 29.0957 42.1641C36.9686 42.1641 43.0957 39.5969 43.0957 32.8023C43.0957 27.0346 40.2204 22.9441 35.7363 20.257H35.7192Z" fill="#EF95C2"/>
<path id="Vector_2" d="M34.744 31.6213C34.744 31.8096 34.6584 31.9807 34.5386 32.1005C34.4188 32.2203 34.2477 32.3059 34.0594 32.3059H32.2794L31.5264 35.1299C31.5264 35.1299 31.5264 35.147 31.5264 35.1641C31.5264 35.1812 31.5264 35.2154 31.5093 35.2325C31.5093 35.2325 31.5093 35.2668 31.4922 35.2839C31.4922 35.3181 31.4579 35.3352 31.4408 35.3695C31.4408 35.3695 31.4408 35.3695 31.4408 35.3866C31.3552 35.5064 31.2354 35.592 31.0814 35.6262C30.722 35.7289 30.3455 35.5064 30.2428 35.147L29.4897 32.323L29.1303 30.9538L28.7709 32.323L28.0178 35.147C28.0178 35.147 28.0178 35.1641 28.0178 35.1812C28.0178 35.1983 28.0178 35.2325 28.0007 35.2497C28.0007 35.2668 28.0007 35.2839 27.9836 35.301C27.9836 35.3352 27.9494 35.3523 27.9323 35.3866C27.9323 35.3866 27.9323 35.3866 27.9323 35.4037C27.8467 35.5235 27.7269 35.6091 27.5728 35.6433C27.2134 35.746 26.8369 35.5235 26.7342 35.1641L25.9811 32.3401H24.2012C23.8247 32.3401 23.5166 32.032 23.5166 31.6555C23.5166 31.279 23.8247 30.9709 24.2012 30.9709H25.6217L24.9543 28.5064C24.8516 28.147 25.0741 27.7704 25.4335 27.6677C25.7929 27.5651 26.1694 27.7876 26.2721 28.147L27.0252 30.9709L27.3846 32.3401L27.744 30.9709L28.497 28.147C28.5826 27.8218 28.9078 27.5993 29.2501 27.6506C29.2501 27.6506 29.2672 27.6506 29.2843 27.6506C29.3014 27.6506 29.3186 27.6506 29.3357 27.6506C29.3357 27.6506 29.3528 27.6506 29.3699 27.6506C29.387 27.6506 29.4041 27.6506 29.4384 27.6677C29.4384 27.6677 29.4726 27.6677 29.4897 27.6849C29.6609 27.7704 29.7807 27.9245 29.832 28.1127L30.5851 30.9367L30.9445 32.3059L31.3039 30.9367L32.0569 28.1127C32.1596 27.7533 32.5362 27.5308 32.8956 27.6335C33.255 27.7362 33.4775 28.1127 33.3748 28.4721L32.7073 30.9367H34.1278C34.5044 30.9367 34.8124 31.2448 34.8124 31.6213H34.744Z" fill="white"/>
<path id="Vector_3" d="M36.1467 19.5752H22.0097C21.6505 19.5752 21.3594 19.8664 21.3594 20.2256C21.3594 20.5847 21.6505 20.8759 22.0097 20.8759H36.1467C36.5058 20.8759 36.797 20.5847 36.797 20.2256C36.797 19.8664 36.5058 19.5752 36.1467 19.5752Z" fill="#774D64"/>
</g>
</g>
</svg>
