<svg width="45" height="49" viewBox="0 0 45 49" fill="none" xmlns="http://www.w3.org/2000/svg">
<path d="M33.5883 12.2859L35.3338 9.6676C36.6071 7.7577 36.0506 5.17336 34.1041 3.95679L30.5071 1.70869C29.8601 1.30428 29.1124 1.08984 28.3493 1.08984H15.4172C14.6542 1.08984 13.9065 1.30428 13.2594 1.70869L9.24623 4.21693C7.46629 5.32939 6.82384 7.61273 7.76253 9.49013L9.04491 12.0549C10.3719 14.7089 13.0375 16.4309 16.0024 16.5495L33.413 17.2459C35.39 17.325 37.1505 18.5199 37.9541 20.3279L41.4357 28.1614C43.5031 32.8132 42.8916 38.2196 39.8373 42.2921V42.2921C37.1849 45.8285 33.0223 47.9098 28.6017 47.9098H16.2408C11.7836 47.9098 7.58653 45.8113 4.91221 42.2455V42.2455C1.87308 38.1934 1.22974 32.8265 3.22502 28.1709L6.10696 21.4464" stroke="white" stroke-width="2" stroke-linecap="round"/>
<circle cx="22.3926" cy="33" r="7" stroke="white" stroke-width="2"/>
</svg>
