<svg width="16" height="12" viewBox="0 0 16 12" fill="none" xmlns="http://www.w3.org/2000/svg">
<path d="M0.404322 4.95583L1.51372 10.8726C1.6024 11.3456 2.01538 11.6883 2.49659 11.6883H13.5034C13.9846 11.6883 14.3976 11.3456 14.4863 10.8726L15.5957 4.95583C15.7537 4.11295 14.847 3.47518 14.1072 3.9088L12.451 4.87945C12.0063 5.1401 11.4363 5.01997 11.1346 4.60201L8.81081 1.38297C8.41167 0.830044 7.58833 0.830042 7.18919 1.38297L4.86545 4.60201C4.56373 5.01997 3.99373 5.1401 3.54899 4.87944L1.89283 3.9088C1.15296 3.47518 0.246281 4.11295 0.404322 4.95583Z" fill="url(#paint0_linear_1910_23090)"/>
<defs>
<linearGradient id="paint0_linear_1910_23090" x1="16" y1="7.24389" x2="0.666666" y2="7.24389" gradientUnits="userSpaceOnUse">
<stop stop-color="#616568"/>
<stop offset="1" stop-color="#87919B"/>
</linearGradient>
</defs>
</svg>
