<svg width="20" height="20" viewBox="0 0 20 20" fill="none" xmlns="http://www.w3.org/2000/svg">
<g id="_?&#235;&#141;&#137;&#236;&#148;&#160;??1">
<g id="Group">
<path id="Vector" d="M4.71829 6.66602H4.45163C3.83491 6.66602 3.33496 7.16596 3.33496 7.78268L3.33496 12.216C3.33496 12.8327 3.83491 13.3327 4.45163 13.3327H4.71829C5.33501 13.3327 5.83496 12.8327 5.83496 12.216V7.78268C5.83496 7.16596 5.33501 6.66602 4.71829 6.66602Z" fill="#E79A2A"/>
<path id="Vector_2" d="M14.2183 15.2656L5.83496 12.499V7.49897L14.2183 4.7323C15.4683 4.44064 16.6683 5.39897 16.6683 6.6823V13.324C16.6683 14.6073 15.4683 15.5656 14.2183 15.274V15.2656Z" fill="#FCBC54"/>
<path id="Vector_3" d="M8.56445 11.2822L12.499 12.7753L11.4643 15.5022C11.2189 16.1489 10.4988 16.4728 9.85209 16.2274L8.25489 15.6213C7.60821 15.3759 7.28429 14.6558 7.52968 14.0092L8.56445 11.2822Z" stroke="#FCBC54" stroke-width="0.833333" stroke-miterlimit="10"/>
</g>
</g>
</svg>
