<svg width="57" height="57" viewBox="0 0 57 57" fill="none" xmlns="http://www.w3.org/2000/svg">
<g id="Frame 1707484505">
<rect x="0.5" y="0.473633" width="56" height="56" rx="28" fill="#F2F4F6"/>
<g id="Group">
<path id="Vector" d="M20.875 35.0986C20.875 33.7524 19.7837 32.6611 18.4375 32.6611C17.0913 32.6611 16 33.7524 16 35.0986V36.7236C16 38.0698 17.0913 39.1611 18.4375 39.1611C19.7837 39.1611 20.875 38.0698 20.875 36.7236V35.0986Z" fill="#4584F6"/>
<path id="Vector_2" d="M27.9111 17.2236C27.9111 15.8774 26.8198 14.7861 25.4736 14.7861C24.1274 14.7861 23.0361 15.8774 23.0361 17.2236V36.7236C23.0361 38.0698 24.1274 39.1611 25.4736 39.1611C26.8198 39.1611 27.9111 38.0698 27.9111 36.7236V17.2236Z" fill="#F45858"/>
<path id="Vector_3" d="M34.9639 30.2236C34.9639 28.8774 33.8726 27.7861 32.5264 27.7861C31.1802 27.7861 30.0889 28.8774 30.0889 30.2236V36.7236C30.0889 38.0698 31.1802 39.1611 32.5264 39.1611C33.8726 39.1611 34.9639 38.0698 34.9639 36.7236V30.2236Z" fill="#4584F6"/>
<path id="Vector_4" d="M42 22.0986C42 20.7524 40.9087 19.6611 39.5625 19.6611C38.2163 19.6611 37.125 20.7524 37.125 22.0986V36.7236C37.125 38.0698 38.2163 39.1611 39.5625 39.1611C40.9087 39.1611 42 38.0698 42 36.7236V22.0986Z" fill="#4584F6"/>
</g>
</g>
</svg>
