<svg width="57" height="57" viewBox="0 0 57 57" fill="none" xmlns="http://www.w3.org/2000/svg">
<g id="Frame 1707484505">
<rect x="0.5" y="0.473633" width="56" height="56" rx="28" fill="#F2F4F6"/>
<g id="Group">
<path id="Vector" d="M28.5241 43.637C36.9004 43.637 43.6908 36.8467 43.6908 28.4704C43.6908 20.0941 36.9004 13.3037 28.5241 13.3037C20.1478 13.3037 13.3574 20.0941 13.3574 28.4704C13.3574 36.8467 20.1478 43.637 28.5241 43.637Z" fill="#FFDA64"/>
<path id="Vector_2" d="M28.5284 41.044C35.4702 41.044 41.0977 35.4165 41.0977 28.4746C41.0977 21.5328 35.4702 15.9053 28.5284 15.9053C21.5865 15.9053 15.959 21.5328 15.959 28.4746C15.959 35.4165 21.5865 41.044 28.5284 41.044Z" fill="#F4BC39"/>
<g id="Group_2">
<g id="Group_3">
<path id="Vector_3" d="M29.6878 22.8478L29.6476 22.888C29.3663 23.1694 29.3663 23.6255 29.6476 23.9069L33.1599 27.4191C33.4412 27.7005 33.8973 27.7005 34.1787 27.4191L34.2189 27.3789C34.5002 27.0976 34.5002 26.6414 34.2189 26.3601L30.7066 22.8478C30.4253 22.5665 29.9692 22.5665 29.6878 22.8478Z" fill="white"/>
<path id="Vector_4" d="M34.4155 26.9666V26.8339C34.4155 26.4569 34.11 26.1514 33.733 26.1514H23.3059C22.929 26.1514 22.6234 26.4569 22.6234 26.8339V26.9666C22.6234 27.3435 22.929 27.6491 23.3059 27.6491H33.733C34.11 27.6491 34.4155 27.3435 34.4155 26.9666Z" fill="white"/>
</g>
<g id="Group_4">
<path id="Vector_5" d="M27.3556 34.1004L27.3959 34.0602C27.6772 33.7789 27.6772 33.3227 27.3959 33.0414L23.8836 29.5291C23.6023 29.2478 23.1461 29.2478 22.8648 29.5291L22.8246 29.5693C22.5432 29.8507 22.5432 30.3068 22.8246 30.5882L26.3368 34.1004C26.6182 34.3817 27.0743 34.3817 27.3556 34.1004Z" fill="white"/>
<path id="Vector_6" d="M22.6289 29.9953V30.128C22.6289 30.505 22.9345 30.8105 23.3114 30.8105H33.7385C34.1154 30.8105 34.421 30.505 34.421 30.128V29.9953C34.421 29.6184 34.1154 29.3128 33.7385 29.3128H23.3114C22.9345 29.3128 22.6289 29.6184 22.6289 29.9953Z" fill="white"/>
</g>
</g>
</g>
</g>
</svg>
