<svg width="24" height="23" viewBox="0 0 24 23" fill="none" xmlns="http://www.w3.org/2000/svg">
<g id="Group 1000011791">
<path id="Rectangle 43243" d="M11.9996 5.04132L13.1378 3.91454C13.7708 3.28785 13.7708 2.26507 13.1378 1.63838V1.63838C12.5092 1.01609 11.4952 1.02119 10.8729 1.64979V1.64979C10.2551 2.27387 10.2551 3.27905 10.8729 3.90313L11.9996 5.04132ZM11.9996 5.04132L12.9536 5.20496C13.3843 5.27882 13.8064 5.39552 14.2139 5.5533V5.5533C16.7404 6.53174 18.4057 8.96247 18.4057 11.6718L18.4057 16.2673C18.4057 17.0001 17.8116 17.5942 17.0788 17.5942L6.92066 17.5943C6.18784 17.5943 5.59377 17.0002 5.59376 16.2674L5.59372 11.6719C5.5937 8.9625 7.25901 6.53173 9.78555 5.55329V5.55329C10.193 5.39551 10.6151 5.27882 11.0457 5.20495L11.9996 5.04132Z" stroke="#23282E" stroke-width="1.5"/>
<path id="Line 118" d="M9.86426 20.7969H14.1349" stroke="#23282E" stroke-width="1.5" stroke-linecap="round"/>
<circle id="Ellipse 1080" cx="17" cy="7" r="3.75" fill="#FF5C46" stroke="white" stroke-width="1.5"/>
</g>
</svg>
