<svg xmlns="http://www.w3.org/2000/svg" width="120" height="94" viewBox="0 0 120 94" fill="none">
  <g clip-path="url(#clip0_1742_52780)">
    <mask id="mask0_1742_52780" style="mask-type:luminance" maskUnits="userSpaceOnUse" x="25" y="33" width="81" height="45">
      <path d="M98.0439 39.8773C96.9489 35.9747 93.4112 33.2793 89.3401 33.2793H42.0869C38.0439 33.2793 34.4781 35.9747 33.3831 39.8773L25.9989 66.2695C24.3986 72.0252 28.7224 77.7248 34.7027 77.7248H96.7243C102.705 77.7248 107.028 72.0252 105.428 66.2695L98.0439 39.8773Z" fill="white"/>
    </mask>
    <g mask="url(#mask0_1742_52780)">
      <path d="M105.765 29.7412H65.7274V61.8329H105.765V29.7412Z" fill="#B0D493"/>
      <path d="M65.6993 55.123H25.6619V87.2148H65.6993V55.123Z" fill="#B0D493"/>
      <path d="M65.6993 29.7412H25.6619V61.8329H65.6993V29.7412Z" fill="#C6C5CC"/>
      <path d="M105.765 55.123H65.7274V87.2148H105.765V55.123Z" fill="#C6C5CC"/>
      <path d="M97.426 29.7412H91.951V87.2143H97.426V29.7412Z" fill="white"/>
      <path d="M39.223 29.7412H33.748V87.2143H39.223V29.7412Z" fill="white"/>
      <path d="M25.6899 55.0946V61.833L105.765 61.833V55.0946L25.6899 55.0946Z" fill="white"/>
      <path d="M65.587 70.7329C75.0149 70.7329 82.6577 65.2522 82.6577 58.4915C82.6577 51.7307 75.0149 46.25 65.587 46.25C56.1592 46.25 48.5164 51.7307 48.5164 58.4915C48.5164 65.2522 56.1592 70.7329 65.587 70.7329Z" fill="white"/>
      <path d="M65.5869 67.1678C72.2547 67.1678 77.6599 63.2836 77.6599 58.4921C77.6599 53.7007 72.2547 49.8164 65.5869 49.8164C58.9192 49.8164 53.5139 53.7007 53.5139 58.4921C53.5139 63.2836 58.9192 67.1678 65.5869 67.1678Z" fill="#6CD305"/>
    </g>
    <path d="M83.0791 24.3795C83.0791 37.149 74.1072 49.7881 69.0559 55.8921C67.2813 58.0364 64.1227 58.0317 62.3523 55.8839C57.3027 49.7578 48.3201 37.0759 48.3201 24.3795C48.3201 14.7773 56.0973 7 65.6996 7C75.3018 7 83.0791 14.7773 83.0791 24.3795Z" fill="#FC5656"/>
    <path d="M65.7277 33.1678C60.9827 33.1678 57.1082 29.2932 57.1082 24.5483C57.1082 19.8033 60.9827 15.9287 65.7277 15.9287C70.4727 15.9287 74.3473 19.8033 74.3473 24.5483C74.3473 29.2932 70.4727 33.1678 65.7277 33.1678Z" fill="#F7F9FA"/>
    <path d="M47.0847 68.6847H43.9401C42.7609 68.6847 41.694 69.162 40.9078 69.9482C39.6163 69.162 38.1282 68.6847 36.4998 68.6847H34.394C33.0463 64.8943 29.4525 62.1709 25.2129 62.1709H17.211C13.6453 62.1709 10.5569 64.1082 8.84418 66.9439H6.14881C2.72345 66.9439 -0.0842285 69.7235 -0.0842285 73.177C-0.0842285 75.7881 2.02153 77.8939 4.63266 77.8939H9.46186C10.8095 79.2977 12.6626 80.1681 14.7403 80.1681H22.7422C23.8372 82.2458 25.971 83.6777 28.4698 83.6777H38.4651C42.059 83.6777 44.9509 80.7858 44.9509 77.192C44.9509 76.855 44.8947 76.5181 44.8386 76.1812H48.0112C49.8081 76.1812 51.2401 74.7212 51.2401 72.9524C51.2401 70.5939 49.3308 68.6847 46.9724 68.6847H47.0847Z" fill="#DAEDFF"/>
    <path d="M85.4376 48.6383H87.7399C88.6102 48.6383 89.3964 49.0033 89.9579 49.5648C90.9125 49.0033 92.0075 48.6383 93.1867 48.6383H94.731C95.7137 45.8587 98.3529 43.8652 101.469 43.8652H107.337C109.949 43.8652 112.223 45.2691 113.486 47.3748H115.452C117.979 47.3748 120.028 49.4244 120.028 51.9513C120.028 53.8606 118.484 55.4329 116.547 55.4329H113.009C112.026 56.4436 110.65 57.0894 109.134 57.0894H103.266C102.48 58.6055 100.908 59.6724 99.0548 59.6724H91.7267C89.0875 59.6724 86.9537 57.5386 86.9537 54.8994C86.9537 54.6467 87.0099 54.394 87.0379 54.1413H84.7076C83.388 54.1413 82.321 53.0744 82.321 51.7548C82.321 50.014 83.7249 48.6102 85.4656 48.6102L85.4376 48.6383Z" fill="#DAEDFF"/>
  </g>
  <defs>
    <clipPath id="clip0_1742_52780">
      <rect width="120" height="94" fill="white"/>
    </clipPath>
  </defs>
</svg>