<svg width="120" height="94" viewBox="0 0 120 94" fill="none" xmlns="http://www.w3.org/2000/svg">
<path d="M22.5866 73.0625H77.3891C79.0391 73.0625 80.5616 72.155 81.3491 70.7075L98.3741 39.275C98.9141 38.2775 98.1941 37.0625 97.0541 37.0625H42.2516C40.6016 37.0625 39.0791 37.97 38.2916 39.4175L21.2666 70.85C20.7266 71.8475 21.4466 73.0625 22.5866 73.0625Z" fill="#CDD1D6"/>
<path d="M22.5867 54.3125H77.3892C79.0392 54.3125 80.5617 53.405 81.3492 51.9575L98.3742 20.525C98.9142 19.5275 98.1942 18.3125 97.0542 18.3125H42.2517C40.6017 18.3125 39.0792 19.22 38.2917 20.6675L21.2667 52.1C20.7267 53.0975 21.4467 54.3125 22.5867 54.3125Z" fill="#DFF7FE"/>
<path d="M65.4417 62.1875H53.4417C51.7848 62.1875 50.4417 63.5306 50.4417 65.1875V73.4375C50.4417 75.0944 51.7848 76.4375 53.4417 76.4375H65.4417C67.0985 76.4375 68.4417 75.0944 68.4417 73.4375V65.1875C68.4417 63.5306 67.0985 62.1875 65.4417 62.1875Z" fill="#6380F7"/>
<path d="M85.1741 35.5625H36.8291C35.6966 35.5625 34.9691 34.3475 35.5091 33.35L39.1466 26.6C39.4091 26.1125 39.9191 25.8125 40.4666 25.8125H88.8116C89.9441 25.8125 90.6716 27.0275 90.1316 28.025L86.4941 34.775C86.2316 35.2625 85.7216 35.5625 85.1741 35.5625Z" fill="#6380F7"/>
<path d="M74.3817 46.9175C78.3498 46.9175 81.5667 45.2151 81.5667 43.115C81.5667 41.0149 78.3498 39.3125 74.3817 39.3125C70.4135 39.3125 67.1967 41.0149 67.1967 43.115C67.1967 45.2151 70.4135 46.9175 74.3817 46.9175Z" fill="white"/>
<g style="mix-blend-mode:multiply">
<path d="M71.5091 50.5171C75.4773 50.5171 78.6941 48.8147 78.6941 46.7146C78.6941 44.6145 75.4773 42.9121 71.5091 42.9121C67.5409 42.9121 64.3241 44.6145 64.3241 46.7146C64.3241 48.8147 67.5409 50.5171 71.5091 50.5171Z" fill="#99CCFA"/>
</g>
<path d="M25.1494 22.1344C30.6619 21.6169 30.6619 25.6669 25.1494 25.1494C25.6669 30.6619 21.6169 30.6619 22.1344 25.1494C16.6219 25.6669 16.6219 21.6169 22.1344 22.1344C21.6169 16.6219 25.6669 16.6219 25.1494 22.1344Z" fill="#99CCFA"/>
<path d="M59.6966 43.8125H33.1541C31.9991 43.8125 31.2791 42.5675 31.8491 41.57L33.1316 39.32C33.4016 38.855 33.8966 38.5625 34.4366 38.5625H60.9791C62.1341 38.5625 62.8541 39.8075 62.2841 40.805L61.0016 43.055C60.7316 43.52 60.2366 43.8125 59.6966 43.8125Z" fill="#99CCFA"/>
<path d="M97.7591 43.4373L86.7491 31.8498C85.5641 30.6048 83.5841 30.6048 82.3991 31.8498L71.3891 43.4373C69.5741 45.3498 70.9316 48.5073 73.5641 48.5073H75.9491V73.4373C75.9491 75.0948 77.2916 76.4373 78.9491 76.4373H90.9491C92.6066 76.4373 93.9491 75.0948 93.9491 73.4373V48.5073H95.5841C98.2166 48.5073 99.5741 45.3498 97.7591 43.4373Z" fill="#EA6750"/>
</svg>
