<svg width="120" height="94" viewBox="0 0 120 94" fill="none" xmlns="http://www.w3.org/2000/svg">
<g id="&#236;&#160;&#128;&#236;&#182;&#149;&#236;&#157;&#180;&#235;&#178;&#164;&#237;&#138;&#184;">
<g id="Group 1000011780">
<path id="Vector" d="M39.5701 61.5535C51.6601 61.5535 61.4611 51.7526 61.4611 39.6625C61.4611 27.5724 51.6601 17.7715 39.5701 17.7715C27.48 17.7715 17.6791 27.5724 17.6791 39.6625C17.6791 51.7526 27.48 61.5535 39.5701 61.5535Z" fill="#F2F4F6"/>
<g id="Group">
<path id="Vector_2" d="M80.109 51.8245V37.2305C74.0606 37.2305 68.5878 39.679 64.6312 43.6437L74.9524 53.9649C76.274 52.6434 78.0982 51.8245 80.109 51.8245Z" fill="#FF8D4C"/>
<path id="Vector_3" d="M74.9525 53.9648L64.6313 43.6436C60.6666 47.6083 58.218 53.081 58.218 59.1213H72.812C72.812 57.1025 73.6309 55.2782 74.9525 53.9648Z" fill="#FFEDB7"/>
<path id="Vector_4" d="M87.406 59.1213H102C102 53.0729 99.5514 47.6002 95.5867 43.6436L85.2655 53.9648C86.5871 55.2863 87.406 57.1106 87.406 59.1213Z" fill="#FF8D4C"/>
<path id="Vector_5" d="M85.2656 53.9649L95.5868 43.6437C91.6221 39.679 86.1493 37.2305 80.109 37.2305V51.8245C82.1278 51.8245 83.9521 52.6434 85.2656 53.9649Z" fill="#FFEDB7"/>
<path id="Vector_6" d="M87.406 59.1211C87.406 61.1399 86.5871 62.9642 85.2655 64.2776L95.5867 74.5988C99.5514 70.6341 102 65.1614 102 59.1211H87.406Z" fill="#FFEDB7"/>
<path id="Vector_7" d="M72.812 59.1211H58.218C58.218 65.1695 60.6666 70.6422 64.6313 74.5988L74.9525 64.2776C73.6309 62.9561 72.812 61.1318 72.812 59.1211Z" fill="#FF8D4C"/>
<path id="Vector_8" d="M74.9524 64.2783L64.6312 74.5995C68.5959 78.5642 74.0687 81.0128 80.109 81.0128V66.4188C78.0901 66.4188 76.2659 65.5999 74.9524 64.2783Z" fill="#FFEDB7"/>
<path id="Vector_9" d="M80.109 66.4188V81.0128C86.1574 81.0128 91.6302 78.5642 95.5868 74.5995L85.2656 64.2783C83.944 65.5999 82.1197 66.4188 80.109 66.4188Z" fill="#FF8D4C"/>
</g>
<path id="Union" fill-rule="evenodd" clip-rule="evenodd" d="M26.3901 69.7266C29.2002 67.6777 31.0135 69.4895 28.9671 72.299C32.4027 72.8375 32.4022 75.3986 28.9654 75.9405C31.0139 78.7504 29.2022 80.5636 26.3928 78.5174C25.8544 81.9533 23.2931 81.9526 22.7513 78.5155C19.9414 80.564 18.1282 78.7525 20.1742 75.9432C16.7386 75.4047 16.7393 72.8435 20.1764 72.3017C18.1276 69.4916 19.9393 67.6783 22.7487 69.7245C23.2872 66.2891 25.8482 66.2898 26.3901 69.7266Z" fill="#5A7EFF"/>
<path id="Union_2" fill-rule="evenodd" clip-rule="evenodd" d="M94.8653 20.3255L99.3732 24.8335C101.238 26.6982 100.857 29.8197 98.5949 31.1737L94.9869 33.3385C93.7798 34.0615 92.3181 34.0946 91.1091 33.5007L90.5844 34.547C90.3412 35.0416 89.6763 35.147 89.2872 34.7578L84.9576 30.4283C84.5684 30.0391 84.6738 29.3824 85.1684 29.131L86.208 28.6097C85.6038 27.3968 85.6332 25.9256 86.3602 24.7118L88.525 21.1039C89.879 18.8418 93.0005 18.4607 94.8653 20.3255Z" fill="#5A7EFF"/>
<path id="Union_3" fill-rule="evenodd" clip-rule="evenodd" d="M71.5531 28.4331C71.5326 27.6754 71.0861 26.9602 70.3469 26.633C69.3233 26.1798 68.1261 26.6423 67.6729 27.6659L66.3601 30.6314C65.9069 31.655 66.3693 32.8522 67.3929 33.3054C68.1334 33.6332 68.9648 33.4819 69.5395 32.9856C69.7038 33.2967 69.97 33.5568 70.3166 33.7103C70.9143 33.9749 71.586 33.8493 72.0462 33.4437C72.1635 33.588 72.3157 33.7076 72.4974 33.788C73.044 34.03 73.673 33.8369 73.9965 33.3586L74.8552 33.266C75.3903 33.2093 75.6578 32.5931 75.3416 32.1634L74.8313 31.4674C74.9609 30.91 74.6811 30.3214 74.1385 30.0812C73.9565 30.0006 73.7654 29.9683 73.5795 29.9786C73.5697 29.3659 73.2113 28.785 72.6142 28.5207C72.2668 28.3669 71.8944 28.3449 71.5531 28.4331Z" fill="#5A7EFF"/>
<path id="Vector_10" d="M25.3815 49.9029V63.4754C27.5381 63.6375 29.7029 63.7591 31.8677 63.8402V49.5381C29.7029 49.6192 27.5381 49.7489 25.3815 49.9029Z" fill="#87CDFF"/>
<path id="Vector_11" d="M24.749 49.9432C23.0464 50.0729 21.7329 51.4755 21.7329 53.1782V60.1914C21.7329 61.894 23.0545 63.2967 24.749 63.4264C24.9598 63.4426 25.1706 63.4507 25.3814 63.467V49.8945C25.1706 49.9107 24.9598 49.9189 24.749 49.9351V49.9432Z" fill="#D8F8FF"/>
<path id="Vector_12" d="M31.8677 49.5385V63.8406C34.1622 63.9298 36.4648 63.9704 38.7593 63.9785V49.3926C36.4648 49.3926 34.1622 49.4412 31.8677 49.5304V49.5385Z" fill="#D8F8FF"/>
<path id="Vector_13" d="M53.5803 49.944C53.1019 49.9034 52.6154 49.8791 52.1371 49.8467V63.5245C52.6154 63.4921 53.1019 63.4677 53.5803 63.4272C55.2829 63.2975 56.5964 61.8948 56.5964 60.1922V53.179C56.5964 51.4763 55.2748 50.0737 53.5803 49.944Z" fill="#87CDFF"/>
<path id="Vector_14" d="M45.6509 49.5137V63.8725C47.8157 63.7996 49.9804 63.6861 52.1371 63.532V49.8542C49.9804 49.7083 47.8157 49.5866 45.6509 49.5137Z" fill="#F7D465"/>
<path id="Vector_15" d="M38.7593 49.4004V63.9863C41.0538 63.9863 43.3564 63.9539 45.6509 63.8728V49.5139C43.3564 49.4329 41.0538 49.3923 38.7593 49.4004Z" fill="#87CDFF"/>
<path id="Vector_16" d="M42.0024 76.1483C42.0024 77.0401 42.7321 77.7698 43.624 77.7698H52.5426C53.4344 77.7698 54.1641 77.0401 54.1641 76.1483V73.3105H42.0024V76.1483Z" fill="#87CDFF"/>
<path id="Vector_17" d="M54.1641 50.9088C54.1641 50.0574 53.4993 49.344 52.648 49.2872L43.7294 48.6953C42.797 48.6305 42.0024 49.3764 42.0024 50.3169V53.8519H54.1641V50.9088Z" fill="#87CDFF"/>
<path id="Vector_18" d="M54.1641 66.8242H42.0024V73.3104H54.1641V66.8242Z" fill="#D8F8FF"/>
<path id="Vector_19" d="M54.1641 60.3379H42.0024V66.8241H54.1641V60.3379Z" fill="#87CDFF"/>
<path id="Vector_20" d="M54.1641 53.8516H42.0024V60.3378H54.1641V53.8516Z" fill="#D8F8FF"/>
<path id="Vector_21" d="M39.5701 39.6626C33.9757 39.6626 25.3815 38.4789 25.3815 37.0276C25.3815 35.5763 33.9757 34.3926 39.5701 34.3926C42.4078 34.3926 42.4078 39.6626 39.5701 39.6626Z" fill="#FF7822"/>
<path id="Vector_22" d="M31.8676 32.7709C33.211 32.7709 34.3 31.6819 34.3 30.3386C34.3 28.9952 33.211 27.9062 31.8676 27.9062C30.5243 27.9062 29.4353 28.9952 29.4353 30.3386C29.4353 31.6819 30.5243 32.7709 31.8676 32.7709Z" fill="#23282E"/>
<path id="Vector_23" d="M46.4618 32.7709C47.8051 32.7709 48.8941 31.6819 48.8941 30.3386C48.8941 28.9952 47.8051 27.9062 46.4618 27.9062C45.1184 27.9062 44.0294 28.9952 44.0294 30.3386C44.0294 31.6819 45.1184 32.7709 46.4618 32.7709Z" fill="#23282E"/>
<path id="Vector (Stroke)" fill-rule="evenodd" clip-rule="evenodd" d="M37.5431 41.5947C37.8192 41.5947 38.0431 41.8186 38.0431 42.0947C38.0431 44.3969 39.9029 46.2567 42.2051 46.2567C44.5072 46.2567 46.367 44.3969 46.367 42.0947C46.367 41.8186 46.5909 41.5947 46.867 41.5947C47.1432 41.5947 47.367 41.8186 47.367 42.0947C47.367 44.9491 45.0595 47.2567 42.2051 47.2567C39.3506 47.2567 37.0431 44.9491 37.0431 42.0947C37.0431 41.8186 37.2669 41.5947 37.5431 41.5947Z" fill="#23282E"/>
<path id="Vector_24" d="M46.4315 14.5819C46.2239 13.609 45.3619 12.9072 44.3722 12.9072H35.4326C34.4269 12.9072 33.5649 13.609 33.3733 14.5819L32.2399 20.1165C31.9685 21.4244 32.9742 22.6366 34.2992 22.6366H45.5056C46.8306 22.6366 47.8363 21.4084 47.5649 20.1165L46.4315 14.5979V14.5819Z" fill="#747A81"/>
</g>
</g>
</svg>
