<svg width="32" height="32" viewBox="0 0 32 32" fill="none" xmlns="http://www.w3.org/2000/svg">
<rect width="32" height="32" rx="16" fill="#E83E44"/>
<g clip-path="url(#clip0_1980_35422)">
<path d="M26 15.9995C26 21.5192 21.5197 25.9978 16 25.9978C10.4803 25.9978 6 21.5208 6 15.9995C6 10.4782 10.477 5.99951 16 5.99951C21.523 5.99951 26 10.4765 26 15.9995Z" fill="white"/>
<path d="M10.849 13.6318C10.5342 13.4436 10.1778 13.3903 9.81966 13.4419C10.4742 12.7441 10.8307 11.9846 10.8307 11.2184C10.8307 11.1485 10.829 11.0785 10.8207 11.0069C10.7874 10.5306 10.5675 10.1725 10.2261 10.0525C9.88628 9.92429 9.26004 9.98925 8.26736 11.0036L7.67109 11.6715C7.5062 11.873 6.87996 12.8207 6.76337 13.8084C6.5685 15.4872 6.69341 17.1628 7.12146 18.6468C7.17143 18.82 7.33132 19.2397 7.71606 19.3946C8.12413 19.5612 8.5122 19.3597 8.85697 19.1831L8.94858 19.1381L9.30334 18.9799L9.64644 18.8284L10.0645 18.6451C10.366 18.5219 10.6491 18.4086 10.9239 18.1771C11.2903 17.864 11.5585 17.4559 11.6967 16.9912C11.7684 16.7514 11.8183 16.4882 11.8433 16.1918C11.865 15.9603 11.8899 15.5106 11.8017 15.1158C11.6135 14.2464 11.1804 13.83 10.8473 13.6335L10.849 13.6318ZM7.66776 14.886L7.68608 15.1058C7.68275 15.1558 7.7094 15.2024 7.75437 15.2191C7.79435 15.2374 7.83765 15.2291 7.87762 15.1958C8.25071 14.8826 8.81533 14.6028 9.27003 14.7594C9.62646 14.8826 9.86796 15.2491 9.99288 15.852C10.251 17.1128 9.38662 17.7208 8.84698 17.9689L8.82866 17.9773L8.13745 18.317C8.13745 18.317 8.09914 18.3337 8.05584 18.3137C8.01253 18.292 8.00087 18.2637 7.97256 18.1888C7.50287 16.4549 7.34298 14.6328 7.51786 12.9323C7.53618 12.804 7.59448 12.6491 7.69275 12.5242L8.27236 11.9046L8.33732 11.8347C8.65211 11.5282 8.94858 11.375 9.10847 11.4416C9.24171 11.4982 9.27336 11.7098 9.27503 11.878C9.30167 12.7824 8.79701 13.7051 7.73772 14.7011C7.73772 14.7011 7.6561 14.7677 7.6661 14.8876L7.66776 14.886Z" fill="#E83E44"/>
<path d="M18.6971 8.36232C18.5023 7.69609 18.1858 7.55785 18.0942 7.52621C17.2631 7.26138 16.4003 7.20642 15.5626 7.35299C14.3051 7.5845 13.2175 8.24573 12.4946 9.21175C11.7368 10.2294 11.4436 11.4986 11.6685 12.781C11.8967 14.0702 12.5462 15.1128 13.5589 15.7957C14.7431 16.5935 16.3204 16.8367 18.0059 16.4836C19.0019 16.267 19.8247 15.8806 20.461 15.331C20.7458 15.0845 20.7991 14.7697 20.7991 14.5499C20.7991 14.5499 20.8141 14.3716 20.6758 13.8103C20.6392 13.6738 20.5792 13.6338 20.4826 13.6338C20.4127 13.6338 20.3394 13.7137 20.326 13.7304C19.8514 14.28 19.1268 14.6631 18.2241 14.8413C15.904 15.2877 14.1202 14.2034 13.6771 12.0798C13.4889 11.1588 13.6455 10.2777 14.1252 9.59483C14.6065 8.90029 15.3977 8.4406 16.3487 8.29736C17.0732 8.19243 17.8111 8.2807 18.4739 8.55719C18.4739 8.55719 18.7588 8.64046 18.6971 8.36065V8.36232Z" fill="#E83E44"/>
</g>
<defs>
<clipPath id="clip0_1980_35422">
<rect width="20" height="19.9983" fill="white" transform="translate(6 6)"/>
</clipPath>
</defs>
</svg>
