<svg width="32" height="32" viewBox="0 0 32 32" fill="none" xmlns="http://www.w3.org/2000/svg">
<rect width="32" height="32" rx="16" fill="#1F5CFF"/>
<path d="M26 16C26 21.5363 21.5017 26 16 26C10.4637 26 6 21.5017 6 16C6 10.4637 10.4637 6 16 6C21.5363 6 26 10.4637 26 16Z" fill="white"/>
<path d="M15.1693 23.9931C15.1693 23.9931 15.7921 24.4429 15.1001 24.5813C15.1001 24.5813 8.28345 25.2387 7.90283 17.7993C7.90283 17.7993 7.90283 17.4879 8.14505 17.4187C8.14505 17.4187 8.35266 17.3495 8.52567 17.6609C8.52567 17.6609 8.94089 18.8027 9.59833 19.7024C9.59833 19.7024 9.87515 19.9792 10.1174 19.6332C10.1174 19.6332 10.6364 18.7681 11.017 18.6297C11.017 18.6297 11.6053 18.1453 11.6053 18.9065C11.6053 19.045 11.5707 20.2214 11.7783 21.1557C11.7783 21.1557 13.0931 20.7405 14.2696 20.7751C14.2696 20.7751 15.4807 20.8443 13.1969 22.609C13.1623 22.609 12.2973 23.0934 15.1693 23.9931Z" fill="#1F5CFF"/>
<path d="M15.2735 7.90313C15.2735 7.90313 15.585 7.97233 15.5504 7.59171C15.5504 7.59171 15.585 7.3149 15.1697 7.21109C15.1697 7.21109 10.6369 6.51905 9.91022 10.9135C9.91022 10.9135 9.32198 13.5433 12.9206 16.4498C12.9206 16.4498 15.3427 18.7682 16.623 19.7716C16.623 19.7716 19.1836 21.7786 18.9414 23.2665C18.9414 23.2665 18.7337 24.1661 16.8652 24.6159C16.8652 24.6159 16.6922 24.6159 16.7268 24.8581C16.7268 24.8581 16.796 25.135 17.2113 25.135C17.2113 25.135 20.6023 25.2734 21.4673 22.4706C21.4673 22.4706 22.4708 20.5675 18.7683 17.5225C18.7683 17.5225 16.3116 15.3426 14.4431 13.7163C14.4431 13.7163 11.2943 11.0519 12.5746 9.14881C12.6438 9.21801 13.1628 7.97233 15.2735 7.90313Z" fill="#1F5CFF"/>
<path d="M17.2456 8.11066C17.2456 8.11066 16.865 7.79924 16.5535 8.04145C16.5535 8.04145 16.2767 8.24907 16.5189 8.66429C16.5189 8.66429 16.6573 8.8027 16.9342 9.21792C16.9342 9.21792 17.4186 10.1868 16.7958 10.948C16.7958 10.948 15.6885 12.6781 16.2767 14.4082C16.2767 14.4082 16.865 15.8269 18.4913 15.1349C18.4913 15.1349 19.5639 14.5466 18.6989 13.0588C18.6989 13.0588 17.9376 11.6747 18.6643 11.4325C18.6643 11.4325 19.1141 11.2248 19.4601 11.6401C19.4601 11.6401 19.6677 11.8823 19.8407 12.5051C19.8407 12.5051 20.1176 13.5086 20.948 13.647C20.948 13.647 21.8477 13.8546 22.4359 13.0934C22.4359 13.0934 23.3355 12.1937 22.4013 11.2594C22.4013 11.2594 22.1245 10.9826 21.0172 10.7058C21.0172 10.7058 20.2214 10.4636 20.5328 9.97917C20.5328 9.97917 20.775 9.66775 21.294 9.94457C21.294 9.94457 22.0207 10.3598 22.3321 10.0138C22.3321 10.0138 22.7819 9.42554 21.8823 8.90651C21.8823 8.90651 21.121 8.42208 19.2179 8.45668C19.1833 8.49128 17.9722 8.59509 17.2456 8.11066Z" fill="#1F5CFF"/>
</svg>
