<svg width="24" height="24" viewBox="0 0 24 24" fill="none" xmlns="http://www.w3.org/2000/svg">
<g id="ic/24/&#234;&#178;&#128;&#236;&#131;&#137;">
<path id="Union" fill-rule="evenodd" clip-rule="evenodd" d="M2.69995 9.4502C2.69995 5.72227 5.72203 2.7002 9.44995 2.7002C13.1779 2.7002 16.2 5.72227 16.2 9.4502C16.2 9.86441 16.5357 10.2002 16.95 10.2002C17.3642 10.2002 17.7 9.86441 17.7 9.4502C17.7 4.89385 14.0063 1.2002 9.44995 1.2002C4.8936 1.2002 1.19995 4.89385 1.19995 9.4502C1.19995 14.0065 4.8936 17.7002 9.44995 17.7002C10.8797 17.7002 12.2259 17.3359 13.3992 16.6951L18.3419 21.7566C20.0123 23.4671 22.916 22.2845 22.916 19.8937C22.916 19.1858 22.6344 18.5069 22.1335 18.0067L18.2829 14.1625C17.9898 13.8699 17.5149 13.8703 17.2223 14.1634C16.9296 14.4565 16.93 14.9314 17.2231 15.2241L21.0737 19.0683C21.2928 19.2871 21.416 19.584 21.416 19.8937C21.416 20.9395 20.1458 21.4568 19.4151 20.7086L14.8212 16.0044L15.1051 15.8193C16.6001 14.8451 16.6063 12.6578 15.1168 11.6752C13.6414 10.702 11.6526 11.6128 11.4322 13.3695C11.3428 14.0818 11.5788 14.7965 12.0748 15.3156L12.313 15.5649C11.4442 15.9725 10.4743 16.2002 9.44995 16.2002C5.72203 16.2002 2.69995 13.1781 2.69995 9.4502ZM13.7772 14.8943C13.7661 14.8929 13.7549 14.8918 13.7437 14.891L13.1593 14.2794C12.975 14.0865 12.8873 13.8209 12.9205 13.5562C13.0022 12.9055 13.7408 12.5645 14.2908 12.9273C14.8786 13.315 14.8761 14.1782 14.2862 14.5626L13.7772 14.8943Z" fill="#23282E"/>
</g>
</svg>
