<svg width="20" height="22" viewBox="0 0 20 22" fill="none" xmlns="http://www.w3.org/2000/svg">
<g id="Frame 1000010383">
<path id="Icon" d="M7.61072 2.96604C7.81407 2.05097 8.62569 1.3999 9.56309 1.3999H10.6283C11.5657 1.3999 12.3774 2.05097 12.5807 2.96604L12.5902 3.00898C12.7347 3.65911 13.2031 4.17832 13.7823 4.50707C13.8176 4.52707 13.8526 4.54734 13.8875 4.56789C14.4617 4.90628 15.1461 5.05272 15.7818 4.85261L15.8249 4.83907C16.719 4.55764 17.6887 4.93499 18.1574 5.7468L18.69 6.66933C19.1587 7.48114 19.0007 8.50956 18.3099 9.14321L18.2756 9.17465C17.7854 9.62432 17.5694 10.2886 17.5748 10.9538C17.575 10.9746 17.5751 10.9954 17.5751 11.0162C17.5751 11.0371 17.575 11.0579 17.5748 11.0786C17.5694 11.7439 17.7854 12.4081 18.2756 12.8578L18.3099 12.8893C19.0007 13.5229 19.1587 14.5513 18.69 15.3631L18.1574 16.2857C17.6887 17.0975 16.719 17.4748 15.8249 17.1934L15.7819 17.1799C15.1461 16.9798 14.4617 17.1262 13.8875 17.4646C13.8526 17.4851 13.8176 17.5054 13.7823 17.5254C13.2031 17.8542 12.7347 18.3734 12.5902 19.0235L12.5807 19.0664C12.3774 19.9815 11.5657 20.6326 10.6283 20.6326H9.56309C8.62569 20.6326 7.81407 19.9815 7.61072 19.0664L7.60118 19.0235C7.4567 18.3734 6.98828 17.8542 6.40908 17.5254C6.37384 17.5054 6.33878 17.4851 6.3039 17.4646C5.72968 17.1262 5.04532 16.9798 4.40955 17.1799L4.36651 17.1934C3.47236 17.4748 2.50271 17.0975 2.03401 16.2857L1.50139 15.3631C1.03269 14.5513 1.19072 13.5229 1.88152 12.8893L1.91583 12.8578C2.40606 12.4081 2.62203 11.7438 2.61659 11.0786C2.61642 11.0579 2.61634 11.0371 2.61634 11.0162C2.61634 10.9954 2.61642 10.9746 2.61659 10.9538C2.62203 10.2886 2.40606 9.62434 1.91583 9.17467L1.88153 9.14321C1.19073 8.50957 1.03271 7.48115 1.50141 6.66934L2.03403 5.74681C2.50273 4.935 3.47238 4.55764 4.36653 4.83907L4.40956 4.85262C5.04533 5.05272 5.72969 4.90629 6.30391 4.5679C6.33879 4.54735 6.37385 4.52707 6.40908 4.50707C6.98828 4.17832 7.4567 3.65911 7.60117 3.00898L7.61072 2.96604Z" stroke="#23282E" stroke-width="1.4" stroke-linecap="round" stroke-linejoin="round"/>
<circle id="Ellipse 879" cx="10" cy="11.0991" r="3" stroke="#23282E" stroke-width="1.4" stroke-linecap="round" stroke-linejoin="round"/>
</g>
</svg>
