<svg width="24" height="24" viewBox="0 0 24 24" fill="none" xmlns="http://www.w3.org/2000/svg">
<g id="ic/24/&#236;&#176;&#156;">
<path id="Icon" d="M11.9689 5.98404C9.89723 3.6539 6.95528 2.22007 4.08906 4.66903C1.69455 6.71496 1.74473 10.1354 3.62515 12.5551C5.1886 14.5669 9.92013 18.81 11.4709 20.1834C11.6444 20.337 11.7311 20.4138 11.8323 20.444C11.9206 20.4704 12.0172 20.4704 12.1056 20.444C12.2067 20.4138 12.2935 20.337 12.467 20.1834C14.0177 18.81 18.7493 14.5669 20.3127 12.5551C22.1931 10.1354 22.3851 6.69365 19.9494 4.66924C16.5883 2.22005 13.7207 3.6539 11.9689 5.98404ZM11.9689 5.98404L10.8067 7.42155C10.5313 7.76219 10.4089 8.20323 10.4678 8.63729V8.63729C10.7147 10.4546 13.3404 10.5024 13.6112 8.68852V8.68852C13.6806 8.22384 13.5404 7.75232 13.2283 7.40113L11.9689 5.98404Z" stroke="#23282E" stroke-width="1.5" stroke-linecap="round" stroke-linejoin="round"/>
</g>
</svg>
