<svg width="40" height="40" viewBox="0 0 40 40" fill="none" xmlns="http://www.w3.org/2000/svg">
<rect width="40" height="40" rx="20" fill="#F2F4F6"/>
<path d="M22.1863 9.00098H17.8137C16.743 9.00098 15.875 9.86895 15.875 10.9397V12.5621C15.875 13.6328 16.743 14.5008 17.8137 14.5008H22.1863C23.257 14.5008 24.125 13.6328 24.125 12.5621V10.9397C24.125 9.86895 23.257 9.00098 22.1863 9.00098Z" fill="#465CA9"/>
<path d="M15.875 26.876H14.5C13.7406 26.876 13.125 27.4916 13.125 28.2509V29.6259C13.125 30.3852 13.7406 31.0008 14.5 31.0008H15.875C16.6344 31.0008 17.25 30.3852 17.25 29.6259V28.2509C17.25 27.4916 16.6344 26.876 15.875 26.876Z" fill="#4B5158"/>
<path d="M25.5 26.876H24.125C23.3656 26.876 22.75 27.4916 22.75 28.2509V29.6259C22.75 30.3852 23.3656 31.0008 24.125 31.0008H25.5C26.2594 31.0008 26.875 30.3852 26.875 29.6259V28.2509C26.875 27.4916 26.2594 26.876 25.5 26.876Z" fill="#4B5158"/>
<path d="M26.875 11.751H13.125C11.6062 11.751 10.375 12.9821 10.375 14.5009V25.5005C10.375 27.0192 11.6062 28.2504 13.125 28.2504H26.875C28.3938 28.2504 29.625 27.0192 29.625 25.5005V14.5009C29.625 12.9821 28.3938 11.751 26.875 11.751Z" fill="#5A7EFF"/>
<path d="M25.8438 14.501H14.1563C13.5867 14.501 13.125 14.9627 13.125 15.5322V18.9696C13.125 19.5391 13.5867 20.0008 14.1563 20.0008H25.8438C26.4133 20.0008 26.875 19.5391 26.875 18.9696V15.5322C26.875 14.9627 26.4133 14.501 25.8438 14.501Z" fill="white"/>
<path d="M14.5 25.5009C15.2594 25.5009 15.875 24.8853 15.875 24.1259C15.875 23.3666 15.2594 22.751 14.5 22.751C13.7406 22.751 13.125 23.3666 13.125 24.1259C13.125 24.8853 13.7406 25.5009 14.5 25.5009Z" fill="white"/>
<path d="M25.5 25.5009C26.2594 25.5009 26.875 24.8853 26.875 24.1259C26.875 23.3666 26.2594 22.751 25.5 22.751C24.7406 22.751 24.125 23.3666 24.125 24.1259C24.125 24.8853 24.7406 25.5009 25.5 25.5009Z" fill="white"/>
</svg>
