<svg width="40" height="40" viewBox="0 0 40 40" fill="none" xmlns="http://www.w3.org/2000/svg">
<rect width="40" height="40" rx="20" fill="#F2F4F6"/>
<g clip-path="url(#clip0_1980_35479)">
<path d="M20.2452 31.0002C15.6974 31.0002 12.0015 27.3042 12.0015 22.7564C12.0015 18.2086 15.6974 14.5127 20.2452 14.5127C24.793 14.5127 28.4889 18.2086 28.4889 22.7564C28.4889 27.3042 24.793 31.0002 20.2452 31.0002ZM20.2452 16.5874C16.8378 16.5874 14.0624 19.3628 14.0624 22.7702C14.0624 26.1776 16.8378 28.953 20.2452 28.953C23.6526 28.953 26.428 26.1776 26.428 22.7702C26.428 19.3628 23.6526 16.5874 20.2452 16.5874Z" fill="#F4B158"/>
<path d="M24.5768 10.4044L20.2351 14.5125L15.9209 10.3769L17.5834 8L22.9418 8.02748L24.5768 10.4044Z" fill="#9ED9EF"/>
<path d="M21.6233 13.4824H18.8754C18.1166 13.4824 17.5015 14.0976 17.5015 14.8564C17.5015 15.6152 18.1166 16.2303 18.8754 16.2303H21.6233C22.3821 16.2303 22.9973 15.6152 22.9973 14.8564C22.9973 14.0976 22.3821 13.4824 21.6233 13.4824Z" fill="#F4B158"/>
</g>
<defs>
<clipPath id="clip0_1980_35479">
<rect width="16.4875" height="23" fill="white" transform="translate(12 8)"/>
</clipPath>
</defs>
</svg>
