<svg width="40" height="40" viewBox="0 0 40 40" fill="none" xmlns="http://www.w3.org/2000/svg">
<rect width="40" height="40" rx="20" fill="#F2F4F6"/>
<g clip-path="url(#clip0_1980_35484)">
<path d="M26.0465 8.5H14.4315C12.8834 8.5 11.6284 9.755 11.6284 11.3031V28.6969C11.6284 30.245 12.8834 31.5 14.4315 31.5H26.0465C27.5947 31.5 28.8497 30.245 28.8497 28.6969V11.3031C28.8497 9.755 27.5947 8.5 26.0465 8.5Z" fill="#4B5158"/>
<path d="M22.4097 11.375H18.0972C17.7002 11.375 17.3784 11.6968 17.3784 12.0938C17.3784 12.4907 17.7002 12.8125 18.0972 12.8125H22.4097C22.8066 12.8125 23.1284 12.4907 23.1284 12.0938C23.1284 11.6968 22.8066 11.375 22.4097 11.375Z" fill="#ADADAD"/>
<path d="M25.0403 25.75H24.0915C23.5596 25.75 23.1284 26.1812 23.1284 26.7131V27.6619C23.1284 28.1938 23.5596 28.625 24.0915 28.625H25.0403C25.5722 28.625 26.0034 28.1938 26.0034 27.6619V26.7131C26.0034 26.1812 25.5722 25.75 25.0403 25.75Z" fill="#20CE6E"/>
<path d="M20.7278 25.75H19.779C19.2471 25.75 18.8159 26.1812 18.8159 26.7131V27.6619C18.8159 28.1938 19.2471 28.625 19.779 28.625H20.7278C21.2597 28.625 21.6909 28.1938 21.6909 27.6619V26.7131C21.6909 26.1812 21.2597 25.75 20.7278 25.75Z" fill="#FCBC54"/>
<path d="M16.4153 25.75H15.4665C14.9346 25.75 14.5034 26.1812 14.5034 26.7131V27.6619C14.5034 28.1938 14.9346 28.625 15.4665 28.625H16.4153C16.9472 28.625 17.3784 28.1938 17.3784 27.6619V26.7131C17.3784 26.1812 16.9472 25.75 16.4153 25.75Z" fill="#F45858"/>
</g>
<defs>
<clipPath id="clip0_1980_35484">
<rect width="17.2212" height="23" fill="white" transform="translate(11.6265 8.5)"/>
</clipPath>
</defs>
</svg>
