<svg width="40" height="40" viewBox="0 0 40 40" fill="none" xmlns="http://www.w3.org/2000/svg">
<rect width="40" height="40" rx="20" fill="#F2F4F6"/>
<g clip-path="url(#clip0_1980_35526)">
<path d="M14.766 31.406C15.8862 31.406 16.7942 30.498 16.7942 29.3778C16.7942 28.2577 15.8862 27.3496 14.766 27.3496C13.6459 27.3496 12.7378 28.2577 12.7378 29.3778C12.7378 30.498 13.6459 31.406 14.766 31.406Z" fill="#4B5158"/>
<path d="M26.9359 31.406C28.0561 31.406 28.9642 30.498 28.9642 29.3778C28.9642 28.2577 28.0561 27.3496 26.9359 27.3496C25.8158 27.3496 24.9077 28.2577 24.9077 29.3778C24.9077 30.498 25.8158 31.406 26.9359 31.406Z" fill="#4B5158"/>
<path d="M8.68066 9.77246H11.385L15.4414 24.6461" stroke="#4B5158" stroke-width="1.35215" stroke-linecap="round" stroke-linejoin="round"/>
<path d="M26.8003 25.9974H14.9014C13.6304 25.9974 12.5351 25.1185 12.2647 23.8746L10.7638 17.1138C10.3852 15.4237 11.6698 13.8281 13.4005 13.8281H28.2876C30.0184 13.8281 31.3029 15.4237 30.9243 17.1138L29.4234 23.8746C29.153 25.1185 28.0578 25.9974 26.7867 25.9974H26.8003Z" fill="#FF8D45"/>
<path d="M16 18L16.5068 22.082" stroke="#F2F4F6" stroke-width="1.5" stroke-linecap="round"/>
<path d="M26 18L25.4932 22.082" stroke="#F2F4F6" stroke-width="1.5" stroke-linecap="round"/>
<path d="M21 18L21 22" stroke="#F2F4F6" stroke-width="1.5" stroke-linecap="round"/>
</g>
<defs>
<clipPath id="clip0_1980_35526">
<rect width="23" height="22.3104" fill="white" transform="translate(8.00488 9.09473)"/>
</clipPath>
</defs>
</svg>
