<svg width="40" height="40" viewBox="0 0 40 40" fill="none" xmlns="http://www.w3.org/2000/svg">
<rect width="40" height="40" rx="20" fill="#F2F4F6"/>
<path d="M17.3361 11.0059H14.3379C13.51 11.0059 12.8389 11.677 12.8389 12.5049C12.8389 13.3328 13.51 14.004 14.3379 14.004H17.3361C18.164 14.004 18.8351 13.3328 18.8351 12.5049C18.8351 11.677 18.164 11.0059 17.3361 11.0059Z" fill="#CCD1D6"/>
<path d="M26.3307 11.0059H23.3326C22.5046 11.0059 21.8335 11.677 21.8335 12.5049C21.8335 13.3328 22.5046 14.004 23.3326 14.004H26.3307C27.1586 14.004 27.8297 13.3328 27.8297 12.5049C27.8297 11.677 27.1586 11.0059 26.3307 11.0059Z" fill="#CCD1D6"/>
<path d="M13.2137 28.9943H11.3399C10.5154 28.9943 9.84082 28.3197 9.84082 27.4953V20C9.84082 19.1755 10.5154 18.501 11.3399 18.501H15.3424C16.3318 18.501 17.0513 19.4604 16.7815 20.4048L14.6378 27.9C14.4579 28.5446 13.8583 28.9943 13.1987 28.9943H13.2137Z" fill="#CCD1D6"/>
<path d="M27.455 28.9943H29.3288C30.1533 28.9943 30.8279 28.3197 30.8279 27.4953V20C30.8279 19.1755 30.1533 18.501 29.3288 18.501H25.3263C24.337 18.501 23.6174 19.4604 23.8872 20.4048L26.0309 27.9C26.2108 28.5446 26.8104 28.9943 27.47 28.9943H27.455Z" fill="#CCD1D6"/>
<path d="M26.3306 12.5059H14.338C11.0251 12.5059 8.3418 15.1892 8.3418 18.502C8.3418 21.8149 11.0251 24.4982 14.338 24.4982C16.5567 24.4982 18.4605 23.284 19.5098 21.5001H21.1738C22.2081 23.284 24.1269 24.4982 26.3455 24.4982C29.6585 24.4982 32.3418 21.8149 32.3418 18.502C32.3418 15.1892 29.6585 12.5059 26.3455 12.5059H26.3306Z" fill="#4B5158"/>
<path d="M27.1984 16.7635C27.1984 16.2833 26.8091 15.894 26.3289 15.894C25.8487 15.894 25.4595 16.2833 25.4595 16.7635V20.2563C25.4595 20.7364 25.8487 21.1257 26.3289 21.1257C26.8091 21.1257 27.1984 20.7364 27.1984 20.2563V16.7635Z" fill="#CCD1D6"/>
<path d="M24.5921 17.6332C24.1119 17.6332 23.7227 18.0224 23.7227 18.5026C23.7227 18.9828 24.1119 19.3721 24.5921 19.3721H28.0849C28.5651 19.3721 28.9544 18.9828 28.9544 18.5026C28.9544 18.0224 28.5651 17.6332 28.0849 17.6332H24.5921Z" fill="#CCD1D6"/>
<path d="M14.2318 17.6329C14.7119 17.6329 15.1012 17.2437 15.1012 16.7635C15.1012 16.2833 14.7119 15.894 14.2318 15.894C13.7516 15.894 13.3623 16.2833 13.3623 16.7635C13.3623 17.2437 13.7516 17.6329 14.2318 17.6329Z" fill="#FA7A7A"/>
<path d="M14.2318 21.111C14.7119 21.111 15.1012 20.7217 15.1012 20.2415C15.1012 19.7613 14.7119 19.3721 14.2318 19.3721C13.7516 19.3721 13.3623 19.7613 13.3623 20.2415C13.3623 20.7217 13.7516 21.111 14.2318 21.111Z" fill="#DBCA2F"/>
<path d="M12.4945 19.3702C12.9746 19.3702 13.3639 18.981 13.3639 18.5008C13.3639 18.0206 12.9746 17.6313 12.4945 17.6313C12.0143 17.6313 11.625 18.0206 11.625 18.5008C11.625 18.981 12.0143 19.3702 12.4945 19.3702Z" fill="#679CFE"/>
<path d="M15.9696 19.3702C16.4497 19.3702 16.839 18.981 16.839 18.5008C16.839 18.0206 16.4497 17.6313 15.9696 17.6313C15.4894 17.6313 15.1001 18.0206 15.1001 18.5008C15.1001 18.981 15.4894 19.3702 15.9696 19.3702Z" fill="#4DA681"/>
</svg>
