<svg width="40" height="40" viewBox="0 0 40 40" fill="none" xmlns="http://www.w3.org/2000/svg">
<rect width="40" height="40" rx="20" fill="#F2F4F6"/>
<g clip-path="url(#clip0_1980_35520)">
<path d="M28.375 16.875H12.625C11.1753 16.875 10 18.0503 10 19.5V27.375C10 28.8247 11.1753 30 12.625 30H28.375C29.8247 30 31 28.8247 31 27.375V19.5C31 18.0503 29.8247 16.875 28.375 16.875Z" fill="#F45858"/>
<path d="M28.4538 12.9375H12.5463C11.8649 12.9375 11.3125 13.4899 11.3125 14.1713V14.3287C11.3125 15.0101 11.8649 15.5625 12.5463 15.5625H28.4538C29.1351 15.5625 29.6875 15.0101 29.6875 14.3287V14.1713C29.6875 13.4899 29.1351 12.9375 28.4538 12.9375Z" fill="#4B5158"/>
<path d="M27.0625 9H13.9375C13.2126 9 12.625 9.58763 12.625 10.3125C12.625 11.0374 13.2126 11.625 13.9375 11.625H27.0625C27.7874 11.625 28.375 11.0374 28.375 10.3125C28.375 9.58763 27.7874 9 27.0625 9Z" fill="#B8BEC4"/>
<path d="M22.7446 22.7156L19.3977 20.7862C18.8859 20.4975 18.2559 20.865 18.2559 21.4425V25.3012C18.2559 25.8918 18.8859 26.2462 19.3977 25.9575L22.7446 24.0281C23.2565 23.7393 23.2565 23.0043 22.7446 22.7156Z" fill="white"/>
</g>
<defs>
<clipPath id="clip0_1980_35520">
<rect width="21" height="21" fill="white" transform="translate(10 9)"/>
</clipPath>
</defs>
</svg>
