<svg width="40" height="40" viewBox="0 0 40 40" fill="none" xmlns="http://www.w3.org/2000/svg">
<rect width="40" height="40" rx="20" fill="#F2F4F6"/>
<path d="M28.8315 25.5896L22.5258 22.42C21.9686 22.1402 21.7436 21.4628 22.024 20.907L23.6401 17.7042C23.9648 17.06 24.8097 16.8833 25.3668 17.3434L30.9494 21.9451C31.3552 22.2801 31.477 22.8507 31.2372 23.3219L30.3442 25.0926C30.0638 25.6485 29.3849 25.8731 28.8278 25.5933L28.8315 25.5896Z" fill="#5A7EFF"/>
<path d="M20.2257 31.8977L15.5656 29.5564C15.1524 29.3502 15.0122 28.8017 15.2483 28.3305L16.6135 25.621C16.8902 25.0762 17.5359 24.8921 17.9418 25.2492L21.9894 28.8017C22.2846 29.0594 22.351 29.5269 22.1517 29.9208L21.3954 31.4191C21.1592 31.8904 20.6316 32.1039 20.222 31.894L20.2257 31.8977Z" fill="#5A7EFF"/>
<path d="M10.0202 26.768L14.6803 29.1093C15.0936 29.3155 15.6175 29.102 15.8536 28.6345L17.2188 25.925C17.4956 25.3802 17.2557 24.7506 16.7281 24.6365L11.4592 23.5064C11.0755 23.4254 10.6622 23.6462 10.4593 24.0438L9.70292 25.5421C9.46678 26.0133 9.60699 26.5619 10.0202 26.768Z" fill="#5A7EFF"/>
<path d="M9.98184 16.12L16.2875 19.2896C16.8447 19.5694 17.5236 19.3448 17.804 18.789L19.4201 15.5862C19.7448 14.942 19.3869 14.1579 18.6821 13.9848L11.6533 12.2509C11.1404 12.1258 10.6091 12.3687 10.3729 12.8363L9.48004 14.607C9.19962 15.1629 9.4247 15.8402 9.98184 16.12Z" fill="#5A7EFF"/>
<path d="M15.1379 29.3436C13.389 28.4637 13.3447 26.8734 14.3261 24.9297L20.2739 11.2572C21.2554 9.31713 23.4877 8.44465 25.2366 9.32449C26.9855 10.2043 27.6164 12.5125 26.6386 14.4526L19.1744 27.363C18.1929 29.3031 16.8868 30.2197 15.1379 29.3399V29.3436Z" fill="#CBD7DC"/>
<path d="M17.3997 24.9584L17.2844 24.9005C17.0696 24.7926 16.8078 24.8788 16.6997 25.0931L14.8658 28.7262C14.7577 28.9405 14.8441 29.2017 15.0589 29.3096L15.1742 29.3675C15.389 29.4754 15.6507 29.3892 15.7589 29.1749L17.5927 25.5418C17.7009 25.3275 17.6145 25.0663 17.3997 24.9584Z" fill="#5A7EFF"/>
</svg>
