<svg width="40" height="40" viewBox="0 0 40 40" fill="none" xmlns="http://www.w3.org/2000/svg">
<rect width="40" height="40" rx="20" fill="#F2F4F6"/>
<g clip-path="url(#clip0_1980_35459)">
<path d="M20.0281 19.4882C19.3238 19.4882 18.7603 18.9247 18.7475 18.2204L18.645 9.29441C18.645 8.59006 19.2085 8.01378 19.9128 8.00098C20.6172 8.0394 21.1935 8.56445 21.2063 9.26879L21.3087 18.1947C21.3087 18.8991 20.7452 19.4754 20.0409 19.4882H20.0281Z" fill="#886AFF"/>
<path d="M24.0503 31.0011H15.8543C14.6889 31.0011 13.7157 30.1687 13.6132 29.0929L12.307 15.3903C12.2814 15.1726 12.4735 14.9805 12.704 14.9805H27.2006C27.4312 14.9805 27.6232 15.1726 27.5976 15.3903L26.2786 29.0801C26.1761 30.1687 25.2029 30.9883 24.0375 30.9883L24.0503 31.0011Z" fill="#CCD1D6"/>
<path d="M27.2127 13.25H12.7032C11.7626 13.25 11 14.0126 11 14.9532V15.0173C11 15.9579 11.7626 16.7205 12.7032 16.7205H27.2127C28.1534 16.7205 28.9159 15.9579 28.9159 15.0173V14.9532C28.9159 14.0126 28.1534 13.25 27.2127 13.25Z" fill="#8E939A"/>
<path d="M26.5208 26.9667H13.42C13.0614 26.9667 12.7669 26.6593 12.7413 26.2623L12.3059 20.3715C12.2674 19.9232 12.5876 19.5391 12.9846 19.5391H26.9562C27.3532 19.5391 27.6733 19.9232 27.6349 20.3715L27.1995 26.2623C27.1739 26.6593 26.8794 26.9667 26.5208 26.9667Z" fill="#886AFF"/>
</g>
<defs>
<clipPath id="clip0_1980_35459">
<rect width="17.9159" height="23" fill="white" transform="translate(11 8)"/>
</clipPath>
</defs>
</svg>
