<svg width="40" height="40" viewBox="0 0 40 40" fill="none" xmlns="http://www.w3.org/2000/svg">
<rect width="40" height="40" rx="20" fill="#F2F4F6"/>
<g clip-path="url(#clip0_1980_35465)">
<path d="M27.1442 31H13.7517C12.1705 31 10.9055 29.6663 11.0017 28.085L12.033 11.585C12.1292 10.1275 13.3255 9 14.783 9H26.113C27.5705 9 28.7667 10.1275 28.863 11.585L29.8942 28.085C29.9905 29.6663 28.7392 31 27.1442 31Z" fill="#F45858"/>
<path d="M16.3228 14.5278C17.0821 14.5278 17.6978 13.9122 17.6978 13.1528C17.6978 12.3934 17.0821 11.7778 16.3228 11.7778C15.5634 11.7778 14.9478 12.3934 14.9478 13.1528C14.9478 13.9122 15.5634 14.5278 16.3228 14.5278Z" fill="#9B4040"/>
<path d="M24.5728 14.5278C25.3321 14.5278 25.9478 13.9122 25.9478 13.1528C25.9478 12.3934 25.3321 11.7778 24.5728 11.7778C23.8134 11.7778 23.1978 12.3934 23.1978 13.1528C23.1978 13.9122 23.8134 14.5278 24.5728 14.5278Z" fill="#9B4040"/>
<path d="M20.4478 19.3403C17.794 19.3403 15.6353 17.1816 15.6353 14.5278V13.1528C15.6353 12.7678 15.9378 12.4653 16.3228 12.4653C16.7078 12.4653 17.0103 12.7678 17.0103 13.1528V14.5278C17.0103 16.4253 18.5503 17.9653 20.4478 17.9653C22.3453 17.9653 23.8853 16.4253 23.8853 14.5278V13.1528C23.8853 12.7678 24.1878 12.4653 24.5728 12.4653C24.9578 12.4653 25.2603 12.7678 25.2603 13.1528V14.5278C25.2603 17.1816 23.1015 19.3403 20.4478 19.3403Z" fill="#EDEDED"/>
</g>
<defs>
<clipPath id="clip0_1980_35465">
<rect width="18.8925" height="22" fill="white" transform="translate(10.9995 9)"/>
</clipPath>
</defs>
</svg>
