<svg width="40" height="40" viewBox="0 0 40 40" fill="none" xmlns="http://www.w3.org/2000/svg">
<rect width="40" height="40" rx="20" fill="#F2F4F6"/>
<g clip-path="url(#clip0_1980_35452)">
<path d="M10.8125 14.75H29.1875V27.875C29.1875 29.3188 28.0063 30.5 26.5625 30.5H13.4375C11.9937 30.5 10.8125 29.3188 10.8125 27.875V14.75Z" fill="#CCD1D6"/>
<path d="M14.75 21.3125H10.8125C10.0906 21.3125 9.5 20.7219 9.5 20L10.6681 10.655C10.7469 9.99875 11.3112 9.5 11.9675 9.5H16.0625V20C16.0625 20.7219 15.4719 21.3125 14.75 21.3125Z" fill="#8DD248"/>
<path d="M16.0625 9.5H23.9375V20C23.9375 20.7219 23.3469 21.3125 22.625 21.3125H17.375C16.6531 21.3125 16.0625 20.7219 16.0625 20V9.5Z" fill="#58A335"/>
<path d="M29.1875 21.3125H25.25C24.5281 21.3125 23.9375 20.7219 23.9375 20V9.5H28.0325C28.6887 9.5 29.2531 9.99875 29.3319 10.655L30.5 20C30.5 20.7219 29.9094 21.3125 29.1875 21.3125Z" fill="#8DD248"/>
<path d="M18.1616 25.25H21.8497C22.2828 25.25 22.6372 25.6044 22.6372 26.0375V30.5H17.3872V26.0375C17.3872 25.6044 17.7416 25.25 18.1747 25.25H18.1616Z" fill="#4B5158"/>
</g>
<defs>
<clipPath id="clip0_1980_35452">
<rect width="21" height="21" fill="white" transform="translate(9.5 9.5)"/>
</clipPath>
</defs>
</svg>
