<svg width="40" height="40" viewBox="0 0 40 40" fill="none" xmlns="http://www.w3.org/2000/svg">
<rect width="40" height="40" rx="20" fill="#F2F4F6"/>
<g clip-path="url(#clip0_1980_35496)">
<path d="M19.2235 25.8672V29.1251C17.6665 28.8634 16.3057 27.6466 15.3506 25.8672H19.2235Z" fill="#886AFF"/>
<path d="M24.4051 25.8672C23.45 27.6466 22.0892 28.8634 20.5322 29.1251V25.8672H24.4051Z" fill="#886AFF"/>
<path d="M18.7656 30.3812C15.6646 30.0279 12.9824 28.327 11.3076 25.8672H13.9114C15.0104 28.2354 16.7506 29.9233 18.7656 30.3812Z" fill="#886AFF"/>
<path d="M28.6062 25.8672C26.8922 28.4055 24.0922 30.1326 20.8735 30.4074C22.9408 29.9756 24.7203 28.2747 25.8455 25.8672H28.6062Z" fill="#886AFF"/>
<path d="M13.4141 24.559H10.5618C9.88139 23.172 9.50195 21.6281 9.50195 19.9795C9.50195 18.8412 9.68513 17.7291 10.0253 16.7085H13.0477C12.8122 17.7421 12.6814 18.8412 12.6814 19.9926C12.6814 21.6281 12.9431 23.172 13.4141 24.559Z" fill="#886AFF"/>
<path d="M19.2239 16.7085V24.559H14.7753C14.265 23.2113 13.9902 21.6543 13.9902 19.9926C13.9902 18.8412 14.1211 17.7291 14.3828 16.7085H19.2239Z" fill="#886AFF"/>
<path d="M19.0662 9.56494C16.5802 9.97055 14.4737 12.2472 13.4139 15.4005H10.5615C12.1316 12.1818 15.3111 9.87896 19.0662 9.56494Z" fill="#886AFF"/>
<path d="M19.2236 10.873V15.4002H14.7881C15.704 12.9273 17.3264 11.1871 19.2236 10.873Z" fill="#886AFF"/>
<path d="M24.9677 15.4002H20.5322V10.873C22.4294 11.1871 24.0519 12.9273 24.9677 15.4002Z" fill="#886AFF"/>
<path d="M25.7659 19.9926C25.7659 21.6543 25.4911 23.2113 24.9808 24.559H20.5322V16.7085H25.3733C25.635 17.7291 25.7659 18.8412 25.7659 19.9926Z" fill="#886AFF"/>
<path d="M29.3646 15.4008H26.3422C25.2824 12.2083 23.1366 9.93169 20.6113 9.55225C24.4711 9.77468 27.7553 12.1036 29.3646 15.4008Z" fill="#886AFF"/>
<path d="M30.4245 19.9795C30.4245 21.6281 30.0451 23.172 29.3647 24.559H26.3423C26.8133 23.172 27.075 21.6281 27.075 19.9926C27.075 18.8412 26.9442 17.7421 26.7086 16.7085H29.8881C30.2414 17.7291 30.4245 18.8412 30.4245 19.9795Z" fill="#886AFF"/>
<path d="M20.8069 30.4077C20.7153 30.4339 20.6237 30.447 20.5321 30.4601C20.3228 30.4862 20.1004 30.4993 19.8779 30.4993V30.447H19.9695C20.1527 30.447 20.349 30.447 20.5321 30.4339C20.6237 30.4208 20.7153 30.4208 20.8069 30.4077Z" fill="#2F65B2"/>
<path d="M20.4798 9.53828C20.3097 9.52519 20.1396 9.52519 19.9695 9.52519H19.8779V9.49902C20.0873 9.49902 20.2835 9.51211 20.4798 9.53828Z" fill="#2F65B2"/>
<path d="M19.8774 30.4463V30.4986C19.655 30.4986 19.4325 30.4855 19.2232 30.4594C19.0662 30.4332 18.9222 30.407 18.7783 30.3809C18.9222 30.3939 19.0793 30.407 19.2232 30.4201C19.4325 30.4332 19.655 30.4463 19.8774 30.4463Z" fill="#2F65B2"/>
<path d="M19.8782 9.49902V9.52519C19.6558 9.52519 19.4334 9.53828 19.224 9.55136H19.1455C19.1455 9.55136 19.1978 9.55136 19.224 9.53828C19.4334 9.51211 19.6558 9.49902 19.8782 9.49902Z" fill="#2F65B2"/>
<path d="M20.4797 9.53828C20.3096 9.52519 20.1395 9.52519 19.9694 9.52519H19.8778C19.6554 9.52519 19.433 9.53828 19.2236 9.55136C19.433 9.51211 19.6554 9.49902 19.8778 9.49902C20.0872 9.49902 20.2834 9.51211 20.4797 9.53828Z" fill="#2F65B2"/>
<path d="M20.532 30.433V30.4592C20.3227 30.4853 20.1003 30.4984 19.8778 30.4984C19.6554 30.4984 19.433 30.4853 19.2236 30.4592V30.4199C19.433 30.433 19.6554 30.4461 19.8778 30.4461H19.9694C20.1526 30.4461 20.3489 30.4461 20.532 30.433Z" fill="#2F65B2"/>
<path d="M27.0745 19.9927C27.0745 18.8413 26.9436 17.7422 26.7081 16.7086H29.8876C29.7436 16.2506 29.5735 15.8188 29.3642 15.4002H26.3418C25.282 12.2076 23.1362 9.931 20.6109 9.55156C20.5848 9.55156 20.5586 9.55156 20.5324 9.53847H20.4801C20.31 9.52539 20.1399 9.52539 19.9698 9.52539H19.8782C19.6558 9.52539 19.4334 9.53847 19.224 9.55156H19.1455C19.1455 9.55156 19.0932 9.56464 19.067 9.56464C16.581 9.97025 14.4745 12.2469 13.4147 15.4002H10.5623C10.353 15.8188 10.1698 16.2506 10.0259 16.7086H13.0483C12.8128 17.7422 12.682 18.8413 12.682 19.9927C12.682 21.6282 12.9436 23.1721 13.4147 24.559H10.5623C10.7717 25.017 11.0334 25.4618 11.3081 25.8674H13.9119C15.0109 28.2357 16.7511 29.9235 18.7661 30.3815H18.7792C18.9231 30.3945 19.0801 30.4076 19.224 30.4207C19.4334 30.4338 19.6558 30.4469 19.8782 30.4469H19.9698C20.153 30.4469 20.3492 30.4469 20.5324 30.4338C20.624 30.4207 20.7156 30.4207 20.8072 30.4076H20.8726C22.9399 29.9759 24.7193 28.2749 25.8446 25.8674H28.6053C28.8932 25.4618 29.1418 25.017 29.3642 24.559H26.3418C26.8128 23.1721 27.0745 21.6282 27.0745 19.9927ZM24.9679 15.4002H20.5324V10.8731C22.4296 11.1871 24.052 12.9273 24.9679 15.4002ZM19.224 29.1254C17.667 28.8637 16.3063 27.6469 15.3511 25.8674H19.224V29.1254ZM19.224 24.559H14.7754C14.2651 23.2114 13.9904 21.6544 13.9904 19.9927C13.9904 18.8413 14.1212 17.7291 14.3829 16.7086H19.224V24.559ZM19.224 15.4002H14.7885C15.7044 12.9273 17.3268 11.1871 19.224 10.8731V15.4002ZM20.5324 29.1254V25.8674H24.4053C23.4502 27.6469 22.0894 28.8637 20.5324 29.1254ZM24.981 24.559H20.5324V16.7086H25.3735C25.6352 17.7291 25.7661 18.8413 25.7661 19.9927C25.7661 21.6544 25.4913 23.2114 24.981 24.559Z" fill="#F2F4F6"/>
</g>
<defs>
<clipPath id="clip0_1980_35496">
<rect width="20.9215" height="21" fill="white" transform="translate(9.50195 9.5)"/>
</clipPath>
</defs>
</svg>
