<svg width="40" height="40" viewBox="0 0 40 40" fill="none" xmlns="http://www.w3.org/2000/svg">
<rect width="40" height="40" rx="20" fill="#F2F4F6"/>
<g clip-path="url(#clip0_1980_35491)">
<path d="M28 14.5H24.25C23.5625 14.5 22.9375 14.225 22.4875 13.7625C22.025 13.3125 21.75 12.6875 21.75 12C21.75 10.6125 20.625 9.5 19.25 9.5H13C11.625 9.5 10.5 10.6125 10.5 12V27C10.5 28.375 11.625 29.5 13 29.5H28C29.375 29.5 30.5 28.375 30.5 27V17C30.5 15.6125 29.375 14.5 28 14.5ZM12.4125 13.075V12.4375C12.4125 11.65 13.05 11.025 13.8375 11.025H18.325C19.1125 11.025 19.75 11.65 19.75 12.4375V13.075C19.75 13.8625 19.1125 14.5 18.325 14.5H13.8375C13.05 14.5 12.4125 13.8625 12.4125 13.075Z" fill="#FCBC54"/>
<path d="M28 12H24.25C23.5596 12 23 12.5596 23 13.25C23 13.9404 23.5596 14.5 24.25 14.5H28C28.6904 14.5 29.25 13.9404 29.25 13.25C29.25 12.5596 28.6904 12 28 12Z" fill="#4B5158"/>
<path d="M20.488 17.5376C20.488 17.5376 17.188 19.7376 17.188 23.1126C17.188 25.6876 18.7005 26.6126 20.4255 26.6126H20.538C22.2755 26.6126 23.7755 25.6876 23.7755 23.1126C23.7755 19.7376 20.4755 17.5376 20.4755 17.5376H20.488Z" fill="#4B5158"/>
</g>
<defs>
<clipPath id="clip0_1980_35491">
<rect width="20" height="20" fill="white" transform="translate(10.5 9.5)"/>
</clipPath>
</defs>
</svg>
