<svg width="16" height="16" viewBox="0 0 16 16" fill="none" xmlns="http://www.w3.org/2000/svg">
<g id="bxs:up-arrow">
<path id="Vector" d="M2.00006 12.6667H14.0001C14.1216 12.6664 14.2406 12.6328 14.3445 12.5698C14.4484 12.5068 14.5331 12.4166 14.5895 12.309C14.646 12.2014 14.672 12.0805 14.6648 11.9592C14.6576 11.8379 14.6175 11.7209 14.5487 11.6207L8.54872 2.95407C8.30006 2.59474 7.70139 2.59474 7.45206 2.95407L1.45206 11.6207C1.38261 11.7207 1.34188 11.8378 1.3343 11.9593C1.32672 12.0808 1.35258 12.202 1.40907 12.3098C1.46555 12.4176 1.55051 12.5079 1.6547 12.5708C1.75889 12.6338 1.87834 12.6669 2.00006 12.6667Z" fill="#23282E"/>
</g>
</svg>
