<svg width="161" height="161" viewBox="0 0 161 161" fill="none" xmlns="http://www.w3.org/2000/svg">
<path d="M108.845 44.3887C105.77 44.147 102.786 44.422 99.9856 45.147C96.0685 46.1636 91.968 44.6553 89.5094 41.4304C82.9253 32.8058 72.4241 27.3227 60.6561 27.656C42.3791 28.1726 27.3857 43.0054 26.6939 61.2713C25.9355 81.2206 41.8874 97.6366 61.6729 97.6366H106.678C122.013 97.6366 134.331 84.6871 133.289 69.1294C132.414 56.0632 121.905 45.4303 108.853 44.3887H108.845Z" fill="#8E939A"/>
<path fill-rule="evenodd" clip-rule="evenodd" d="M61.4859 66.3008C63.5954 66.3008 65.6045 67.0976 67.4867 68.509C68.2232 69.0613 68.3724 70.106 67.8201 70.8424C67.2677 71.5788 66.2229 71.728 65.4864 71.1757C64.0348 70.0872 62.7102 69.6341 61.4859 69.6341C60.2617 69.6341 58.9371 70.0872 57.4855 71.1757C56.749 71.728 55.7042 71.5788 55.1518 70.8424C54.5995 70.106 54.7487 69.0613 55.4852 68.509C57.3674 67.0976 59.3765 66.3008 61.4859 66.3008Z" fill="#23282E"/>
<path d="M45.6523 62.7329C45.6523 64.5745 47.144 66.0661 48.9855 66.0661C50.8271 66.0661 52.3187 64.5745 52.3187 62.7329C52.3187 62.5662 52.2938 62.4079 52.2688 62.2412L46.1606 60.9746C45.844 61.4829 45.6523 62.0829 45.6523 62.7329Z" fill="#23282E"/>
<path d="M77.3324 62.7329C77.3324 64.5745 75.8408 66.0661 73.9992 66.0661C72.1576 66.0661 70.666 64.5745 70.666 62.7329C70.666 62.5662 70.691 62.4079 70.716 62.2412L76.8241 60.9746C77.1408 61.4829 77.3324 62.0829 77.3324 62.7329Z" fill="#23282E"/>
<path d="M71.0991 133.524L85.4952 112.88C86.4146 111.569 85.5673 109.657 84.0709 109.657H79.6358L89.75 90.6638C90.4621 89.3328 89.5967 87.6416 88.1995 87.6416H72.7667C72.0185 87.6416 71.3515 88.152 71.081 88.9225L63.4548 110.938C63.0041 112.249 63.8694 113.66 65.1405 113.66H71.649L67.926 131.853C67.5023 133.945 69.9272 135.216 71.1081 133.524H71.0991Z" fill="#FFD34C"/>
<path d="M46.6677 107.642C44.2885 110.022 40 116.212 40 120.972C40 124.652 42.979 127.642 46.6677 127.642C50.3564 127.642 53.3354 124.662 53.3354 120.972C53.3354 116.212 49.0469 110.022 46.6677 107.642Z" fill="white"/>
<path d="M106.681 107.642C104.302 110.022 100.014 116.212 100.014 120.972C100.014 124.652 102.993 127.642 106.681 127.642C110.37 127.642 113.349 124.662 113.349 120.972C113.349 116.212 109.061 110.022 106.681 107.642Z" fill="white"/>
</svg>
