<svg width="160" height="161" viewBox="0 0 160 161" fill="none" xmlns="http://www.w3.org/2000/svg">
<path d="M79.998 120.975C105.77 120.975 126.662 100.082 126.662 74.3083C126.662 48.535 105.77 27.6416 79.998 27.6416C54.2262 27.6416 33.334 48.535 33.334 74.3083C33.334 100.082 54.2262 120.975 79.998 120.975Z" fill="#FF5C46"/>
<path d="M79.9986 37.6416C59.7497 37.6416 43.334 54.0583 43.334 74.3083C43.334 94.5583 59.7497 110.975 79.9986 110.975C100.247 110.975 116.663 94.5583 116.663 74.3083C116.663 54.0583 100.247 37.6416 79.9986 37.6416ZM79.9986 99.3083C66.191 99.3083 55 88.1166 55 74.3083C55 60.4999 66.191 49.3083 79.9986 49.3083C93.8061 49.3083 104.997 60.4999 104.997 74.3083C104.997 88.1166 93.8061 99.3083 79.9986 99.3083Z" fill="#FFD34C"/>
<path d="M79.9986 49.3086C66.191 49.3086 55 60.5003 55 74.3086C55 88.1169 66.191 99.3086 79.9986 99.3086C93.8061 99.3086 104.997 88.1169 104.997 74.3086C104.997 60.5003 93.8061 49.3086 79.9986 49.3086ZM79.9986 87.6419C72.6323 87.6419 66.666 81.6753 66.666 74.3086C66.666 66.9419 72.6323 60.9753 79.9986 60.9753C87.3648 60.9753 93.3311 66.9419 93.3311 74.3086C93.3311 81.6753 87.3648 87.6419 79.9986 87.6419Z" fill="#8DD248"/>
<path d="M80.0013 87.6413C87.3651 87.6413 93.3346 81.6717 93.3346 74.3079C93.3346 66.9441 87.3651 60.9746 80.0013 60.9746C72.6375 60.9746 66.668 66.9441 66.668 74.3079C66.668 81.6717 72.6375 87.6413 80.0013 87.6413Z" fill="#5A7EFF"/>
<path d="M108.836 81.0368C105.761 80.7952 102.778 81.0702 99.9786 81.7951C96.0623 82.8117 91.9627 81.3035 89.5046 78.0788C82.9219 69.4462 72.4229 63.9633 60.649 64.2966C42.3758 64.8216 27.3939 79.6453 26.6939 97.9187C25.9357 117.867 41.8841 134.282 61.6656 134.282H106.661C121.993 134.282 134.309 121.342 133.267 105.776C132.392 92.7108 121.885 82.0784 108.836 81.0368Z" fill="white"/>
<path fill-rule="evenodd" clip-rule="evenodd" d="M55.3471 104.975C55.8994 104.239 56.9441 104.09 57.6804 104.642C59.1318 105.731 60.4563 106.184 61.6804 106.184C62.9046 106.184 64.2291 105.731 65.6804 104.642C66.4168 104.09 67.4615 104.239 68.0138 104.975C68.5661 105.712 68.4168 106.756 67.6804 107.309C65.7985 108.72 63.7896 109.517 61.6804 109.517C59.5713 109.517 57.5624 108.72 55.6804 107.309C54.9441 106.756 54.7948 105.712 55.3471 104.975Z" fill="#23282E"/>
<path fill-rule="evenodd" clip-rule="evenodd" d="M44.9874 93.1962C45.6091 92.5174 46.6634 92.4712 47.3421 93.093L52.8005 98.093C53.1451 98.4087 53.3414 98.8546 53.3414 99.322C53.3414 99.7893 53.1451 100.235 52.8005 100.551L47.3421 105.551C46.6634 106.173 45.6091 106.126 44.9874 105.448C44.3656 104.769 44.4118 103.715 45.0906 103.093L49.2073 99.322L45.0906 95.5509C44.4118 94.9292 44.3656 93.8749 44.9874 93.1962Z" fill="#23282E"/>
<path fill-rule="evenodd" clip-rule="evenodd" d="M42.5137 99.322C42.5137 98.4016 43.2599 97.6554 44.1803 97.6554H51.6803C52.6008 97.6554 53.3414 98.4015 53.3414 99.322C53.3414 100.242 52.6008 100.989 51.6803 100.989H44.1803C43.2599 100.989 42.5137 100.243 42.5137 99.322Z" fill="#23282E"/>
<path fill-rule="evenodd" clip-rule="evenodd" d="M78.3559 94.5634C78.9777 95.2421 78.9315 96.2964 78.2527 96.9181L74.136 100.689L78.2527 104.46C78.9315 105.082 78.9777 106.136 78.3559 106.815C77.7342 107.494 76.6799 107.54 76.0012 106.918L70.5428 101.918C70.1982 101.602 70.002 101.157 70.002 100.689C70.002 100.222 70.1982 99.7759 70.5428 99.4602L76.0012 94.4602C76.6799 93.8384 77.7342 93.8846 78.3559 94.5634Z" fill="#23282E"/>
<path fill-rule="evenodd" clip-rule="evenodd" d="M70.002 100.689C70.002 99.7687 70.7481 99.0225 71.6686 99.0225H79.1686C80.0891 99.0225 80.8353 99.7687 80.8353 100.689C80.8353 101.61 80.0891 102.356 79.1686 102.356H71.6686C70.7481 102.356 70.002 101.61 70.002 100.689Z" fill="#23282E"/>
</svg>
