<svg width="160" height="161" viewBox="0 0 160 161" fill="none" xmlns="http://www.w3.org/2000/svg">
<path d="M95.206 46.584L116.148 42.884C117.289 42.684 118.281 43.6756 118.081 44.8173L114.389 65.759C114.273 66.4007 114.548 67.0423 115.073 67.4173L132.489 79.609C133.439 80.2756 133.439 81.6756 132.489 82.3423L115.073 94.534C114.539 94.909 114.273 95.5506 114.389 96.1923L118.089 117.134C118.289 118.276 117.298 119.267 116.156 119.067L95.2143 115.376C94.5727 115.259 93.931 115.534 93.556 116.059L81.3643 133.476C80.6977 134.426 79.2977 134.426 78.631 133.476L66.4393 116.059C66.0643 115.526 65.4227 115.259 64.781 115.376L43.8393 119.076C42.6977 119.276 41.706 118.284 41.906 117.142L45.5977 96.2006C45.7143 95.559 45.4393 94.9173 44.9143 94.5423L27.4977 82.3506C26.5477 81.684 26.5477 80.284 27.4977 79.6173L44.9143 67.4257C45.4477 67.0507 45.7143 66.409 45.5977 65.7673L41.8977 44.8256C41.6977 43.684 42.6893 42.6923 43.831 42.8923L64.7727 46.584C65.4143 46.7006 66.056 46.4256 66.431 45.9006L78.6227 28.484C79.2893 27.534 80.6893 27.534 81.356 28.484L93.5477 45.9006C93.9227 46.434 94.5643 46.7006 95.206 46.584Z" fill="#FFD34C"/>
<path d="M67.5013 84.3083C69.3423 84.3083 70.8346 82.8159 70.8346 80.9749C70.8346 79.134 69.3423 77.6416 67.5013 77.6416C65.6604 77.6416 64.168 79.134 64.168 80.9749C64.168 82.8159 65.6604 84.3083 67.5013 84.3083Z" fill="#23282E"/>
<path d="M92.5013 84.3083C94.3423 84.3083 95.8346 82.8159 95.8346 80.9749C95.8346 79.134 94.3423 77.6416 92.5013 77.6416C90.6604 77.6416 89.168 79.134 89.168 80.9749C89.168 82.8159 90.6604 84.3083 92.5013 84.3083Z" fill="#23282E"/>
<path fill-rule="evenodd" clip-rule="evenodd" d="M73.6674 86.6414C74.2197 85.905 75.2644 85.7558 76.0007 86.308C77.4521 87.3966 78.7766 87.8497 80.0007 87.8497C81.2249 87.8497 82.5494 87.3966 84.0007 86.308C84.7371 85.7558 85.7818 85.905 86.3341 86.6414C86.8864 87.3778 86.7371 88.4224 86.0007 88.9747C84.1188 90.3862 82.1099 91.183 80.0007 91.183C77.8916 91.183 75.8827 90.3862 74.0007 88.9747C73.2644 88.4224 73.1151 87.3778 73.6674 86.6414Z" fill="#23282E"/>
</svg>
