<svg width="161" height="161" viewBox="0 0 161 161" fill="none" xmlns="http://www.w3.org/2000/svg">
<path d="M108.832 44.3887C105.757 44.147 102.774 44.422 99.9744 45.147C96.0579 46.1636 91.958 44.6553 89.4998 41.4305C82.9167 32.8058 72.4171 27.3227 60.6509 27.656C42.3767 28.1726 27.3856 43.0054 26.6939 61.2713C25.9356 81.2206 41.885 97.6366 61.6676 97.6366H106.666C121.999 97.6366 134.315 84.6871 133.273 69.1294C132.398 56.0632 121.89 45.4303 108.841 44.3887H108.832Z" fill="#8E939A"/>
<path d="M49.1672 64.308C51.0081 64.308 52.5004 62.8157 52.5004 60.9748C52.5004 59.1339 51.0081 57.6416 49.1672 57.6416C47.3263 57.6416 45.834 59.1339 45.834 60.9748C45.834 62.8157 47.3263 64.308 49.1672 64.308Z" fill="#23282E"/>
<path d="M74.1672 64.308C76.0081 64.308 77.5004 62.8157 77.5004 60.9748C77.5004 59.1339 76.0081 57.6416 74.1672 57.6416C72.3263 57.6416 70.834 59.1339 70.834 60.9748C70.834 62.8157 72.3263 64.308 74.1672 64.308Z" fill="#23282E"/>
<path fill-rule="evenodd" clip-rule="evenodd" d="M61.4849 64.5293C63.594 64.5293 65.6028 65.3261 67.4847 66.7376C68.2211 67.2898 68.3704 68.3345 67.8181 69.0709C67.2658 69.8073 66.2211 69.9565 65.4847 69.4042C64.0334 68.3157 62.709 67.8626 61.4849 67.8626C60.2608 67.8626 58.9364 68.3157 57.4851 69.4042C56.7487 69.9565 55.7041 69.8073 55.1518 69.0709C54.5995 68.3345 54.7487 67.2898 55.4851 66.7376C57.367 65.3261 59.3758 64.5293 61.4849 64.5293Z" fill="#23282E"/>
<path d="M79.9963 107.642C76.823 110.815 71.1074 119.073 71.1074 125.419C71.1074 130.326 75.0896 134.308 79.9963 134.308C84.903 134.308 88.8852 130.326 88.8852 125.419C88.8852 119.073 83.1696 110.815 79.9963 107.642Z" fill="white"/>
<path d="M53.3346 107.642C50.9558 110.022 46.668 116.212 46.668 120.972C46.668 124.652 49.6465 127.642 53.3346 127.642C57.0228 127.642 60.0013 124.662 60.0013 120.972C60.0013 116.212 55.7134 110.022 53.3346 107.642Z" fill="white"/>
<path d="M106.655 107.642C104.276 110.022 99.9883 116.212 99.9883 120.972C99.9883 124.652 102.967 127.642 106.655 127.642C110.343 127.642 113.322 124.662 113.322 120.972C113.322 116.212 109.034 110.022 106.655 107.642Z" fill="white"/>
</svg>
