<svg width="81" height="80" viewBox="0 0 81 80" fill="none" xmlns="http://www.w3.org/2000/svg">
<path id="Vector" d="M40.5 79C39.4686 79 38.4468 78.96 37.436 78.8815L37.3585 79.8785C35.2412 79.714 33.1702 79.3846 31.1581 78.9032L31.3908 77.9307C29.3865 77.4511 27.4423 76.8168 25.5715 76.0411L25.1885 76.9648C23.2426 76.1579 21.3742 75.2018 19.5976 74.1108L20.1209 73.2586C18.3757 72.1869 16.7212 70.9816 15.1716 69.6569L14.5218 70.417C12.9291 69.0554 11.4446 67.5709 10.083 65.9782L10.8431 65.3284C9.51842 63.7788 8.3131 62.1243 7.24139 60.3791L6.38924 60.9024C5.29824 59.1258 4.34214 57.2574 3.53522 55.3115L4.45895 54.9285C3.68317 53.0577 3.04885 51.1135 2.56931 49.1092L1.59676 49.3418C1.11538 47.3298 0.786035 45.2588 0.621545 43.1415L1.61854 43.064C1.54001 42.0532 1.5 41.0314 1.5 40C1.5 38.9686 1.54001 37.9468 1.61854 36.936L0.621546 36.8585C0.786035 34.7412 1.11538 32.6701 1.59676 30.6581L2.56931 30.8908C3.04886 28.8865 3.68317 26.9423 4.45895 25.0715L3.53522 24.6885C4.34214 22.7426 5.29824 20.8742 6.38924 19.0976L7.24139 19.6209C8.3131 17.8757 9.51842 16.2212 10.8431 14.6716L10.083 14.0218C11.4446 12.4291 12.9291 10.9446 14.5218 9.58302L15.1716 10.3431C16.7212 9.01842 18.3757 7.8131 20.1209 6.74139L19.5976 5.88924C21.3742 4.79824 23.2426 3.84214 25.1885 3.03522L25.5715 3.95895C27.4423 3.18317 29.3865 2.54885 31.3908 2.06931L31.1582 1.09676C33.1702 0.615379 35.2412 0.286034 37.3585 0.121545L37.436 1.11854C38.4468 1.04001 39.4686 1 40.5 1C41.5314 1 42.5532 1.04001 43.564 1.11854L43.6415 0.121546C45.7588 0.286035 47.8298 0.61538 49.8419 1.09676L49.6092 2.06931C51.6135 2.54886 53.5577 3.18317 55.4285 3.95895L55.8115 3.03522C57.7574 3.84214 59.6258 4.79824 61.4024 5.88924L60.8791 6.74139C62.6243 7.8131 64.2788 9.01842 65.8284 10.3431L66.4782 9.58302C68.0709 10.9446 69.5554 12.4291 70.917 14.0218L70.1569 14.6716C71.4816 16.2212 72.6869 17.8757 73.7586 19.6209L74.6108 19.0976C75.7018 20.8742 76.6579 22.7426 77.4648 24.6885L76.5411 25.0715C77.3168 26.9423 77.9511 28.8865 78.4307 30.8908L79.4032 30.6582C79.8846 32.6702 80.214 34.7412 80.3785 36.8585L79.3815 36.936C79.46 37.9468 79.5 38.9686 79.5 40C79.5 41.0314 79.46 42.0532 79.3815 43.064L80.3785 43.1415C80.214 45.2588 79.8846 47.3299 79.4032 49.3419L78.4307 49.1092C77.9511 51.1135 77.3168 53.0577 76.5411 54.9285L77.4648 55.3115C76.6579 57.2574 75.7018 59.1258 74.6108 60.9024L73.7586 60.3791C72.6869 62.1243 71.4816 63.7788 70.1569 65.3284L70.917 65.9782C69.5554 67.5709 68.0709 69.0554 66.4782 70.417L65.8284 69.6569C64.2788 70.9816 62.6243 72.1869 60.8791 73.2586L61.4024 74.1108C59.6258 75.2018 57.7574 76.1579 55.8115 76.9648L55.4285 76.0411C53.5577 76.8168 51.6135 77.4511 49.6092 77.9307L49.8418 78.9032C47.8298 79.3846 45.7588 79.714 43.6415 79.8785L43.564 78.8815C42.5532 78.96 41.5314 79 40.5 79Z" stroke="#CCD1D6" stroke-width="2" stroke-dasharray="6 6"/>
</svg>
