<svg width="160" height="161" viewBox="0 0 160 161" fill="none" xmlns="http://www.w3.org/2000/svg">
<path d="M105.736 41.0511L119.333 38.6512C121.041 38.3513 122.533 39.8345 122.233 41.551L119.833 55.1501C119.667 56.1083 120.067 57.0749 120.858 57.6332L132.173 65.5493C133.598 66.5409 133.598 68.6491 132.173 69.649L120.858 77.5651C120.058 78.1234 119.658 79.09 119.833 80.0483L122.233 93.6473C122.533 95.3555 121.05 96.8471 119.333 96.5471L105.736 94.1473C104.777 93.9806 103.811 94.3806 103.253 95.1722L95.3374 106.488C94.3459 107.913 92.2379 107.913 91.2381 106.488L83.3227 95.1722C82.7645 94.3723 81.798 93.9723 80.8398 94.1473L67.2421 96.5471C65.534 96.8471 64.0426 95.3639 64.3426 93.6473L66.7422 80.0483C66.9088 79.09 66.5089 78.1234 65.7173 77.5651L54.4026 69.649C52.9778 68.6574 52.9778 66.5493 54.4026 65.5493L65.7173 57.6332C66.5172 57.0749 66.9171 56.1083 66.7422 55.1501L64.3426 41.551C64.0426 39.8428 65.5257 38.3513 67.2421 38.6512L80.8398 41.0511C81.798 41.2177 82.7645 40.8177 83.3227 40.0261L91.2381 28.7103C92.2296 27.2854 94.3375 27.2854 95.3374 28.7103L103.253 40.0261C103.811 40.8261 104.777 41.2261 105.736 41.0511Z" fill="#FFD34C"/>
<path d="M83.8546 65.3693C85.6954 65.3693 87.1877 63.877 87.1877 62.0362C87.1877 60.1954 85.6954 58.7031 83.8546 58.7031C82.0138 58.7031 80.5215 60.1954 80.5215 62.0362C80.5215 63.877 82.0138 65.3693 83.8546 65.3693Z" fill="#23282E"/>
<path d="M102.189 65.3693C104.029 65.3693 105.522 63.877 105.522 62.0362C105.522 60.1954 104.029 58.7031 102.189 58.7031C100.348 58.7031 98.8555 60.1954 98.8555 62.0362C98.8555 63.877 100.348 65.3693 102.189 65.3693Z" fill="#23282E"/>
<path fill-rule="evenodd" clip-rule="evenodd" d="M86.3672 68.696C86.3672 67.7755 87.1134 67.0293 88.0339 67.0293H98.0331C98.9536 67.0293 99.6998 67.7755 99.6998 68.696C99.6998 69.6164 98.9536 70.3626 98.0331 70.3626H88.0339C87.1134 70.3626 86.3672 69.6164 86.3672 68.696Z" fill="#23282E"/>
<path d="M108.83 81.0371C105.756 80.7954 102.773 81.0704 99.9734 81.7954C96.0573 82.812 91.958 81.3037 89.5001 78.079C82.9179 69.4462 72.4196 63.9633 60.6466 64.2966C42.3746 64.8132 27.3855 79.6455 26.6939 97.9109C25.9357 117.859 41.8831 134.275 61.6631 134.275H106.656C121.986 134.275 134.301 121.326 133.259 105.769C132.385 92.7029 121.878 82.0703 108.83 81.0288V81.0371Z" fill="white"/>
<path d="M108.83 81.0244C105.756 80.7827 102.773 81.0577 99.9734 81.7827C96.0573 82.7993 91.958 81.291 89.5001 78.0663C82.9179 69.4336 72.4196 63.9506 60.6466 64.2839C42.3746 64.8006 27.3855 79.6328 26.6939 97.8982C25.9357 117.847 41.8831 134.262 61.6631 134.262H106.656C121.986 134.262 134.301 121.313 133.259 105.756C132.385 92.6902 121.878 82.0577 108.83 81.0161V81.0244Z" fill="white"/>
<path d="M49.1671 102.628C51.0079 102.628 52.5002 101.136 52.5002 99.295C52.5002 97.4542 51.0079 95.9619 49.1671 95.9619C47.3263 95.9619 45.834 97.4542 45.834 99.295C45.834 101.136 47.3263 102.628 49.1671 102.628Z" fill="#23282E"/>
<path d="M74.1671 102.628C76.0079 102.628 77.5002 101.136 77.5002 99.295C77.5002 97.4542 76.0079 95.9619 74.1671 95.9619C72.3263 95.9619 70.834 97.4542 70.834 99.295C70.834 101.136 72.3263 102.628 74.1671 102.628Z" fill="#23282E"/>
<path fill-rule="evenodd" clip-rule="evenodd" d="M55.0137 105.963C55.0137 105.042 55.7599 104.296 56.6803 104.296H66.6796C67.6001 104.296 68.3463 105.042 68.3463 105.963C68.3463 106.883 67.6001 107.629 66.6796 107.629H56.6803C55.7599 107.629 55.0137 106.883 55.0137 105.963Z" fill="#23282E"/>
</svg>
