<svg width="18" height="18" viewBox="0 0 18 18" fill="none" xmlns="http://www.w3.org/2000/svg">
<path id="Icon" d="M13 10.7778H13.0089M1 2.77778V15.2222C1 16.2041 1.79594 17 2.77778 17H15.2222C16.2041 17 17 16.2041 17 15.2222V6.33333C17 5.35149 16.2041 4.55556 15.2222 4.55556L2.77778 4.55556C1.79594 4.55556 1 3.75962 1 2.77778ZM1 2.77778C1 1.79594 1.79594 1 2.77778 1H13.4444M13.4444 10.7778C13.4444 11.0232 13.2455 11.2222 13 11.2222C12.7545 11.2222 12.5556 11.0232 12.5556 10.7778C12.5556 10.5323 12.7545 10.3333 13 10.3333C13.2455 10.3333 13.4444 10.5323 13.4444 10.7778Z" stroke="white" stroke-width="1.77778" stroke-linecap="round" stroke-linejoin="round"/>
</svg>
