<svg width="24" height="24" viewBox="0 0 24 24" fill="none" xmlns="http://www.w3.org/2000/svg">
<g id="Frame 1707484815">
<g id="Group">
<path id="Vector" d="M1.5 8.31445H3V14.3145H1.5C0.675 14.3145 0 13.6395 0 12.8145V9.81445C0 8.98945 0.675 8.31445 1.5 8.31445Z" fill="#FF7822"/>
<path id="Vector_2" d="M12.75 21C18.9632 21 24 16.6348 24 11.25C24 5.86522 18.9632 1.5 12.75 1.5C6.5368 1.5 1.5 5.86522 1.5 11.25C1.5 16.6348 6.5368 21 12.75 21Z" fill="#FFB27B"/>
<path id="Vector_3" d="M9.75 22.5H8.13C7.77 22.5 7.45499 22.23 7.39499 21.87L6 13.5H10.5V21.75C10.5 22.17 10.17 22.5 9.75 22.5Z" fill="#FFB27B"/>
<path id="Vector_4" d="M18.87 22.5H17.25C16.83 22.5 16.5 22.17 16.5 21.75V13.5H21L19.605 21.87C19.545 22.23 19.23 22.5 18.87 22.5Z" fill="#FFB27B"/>
<path id="Vector_5" d="M7.49981 10.7135C8.16255 10.7135 8.69981 10.1762 8.69981 9.51348C8.69981 8.85074 8.16255 8.31348 7.49981 8.31348C6.83707 8.31348 6.2998 8.85074 6.2998 9.51348C6.2998 10.1762 6.83707 10.7135 7.49981 10.7135Z" fill="#23282E"/>
<path id="Vector_6" d="M3.48001 2.16592L3 7.05591L9 3.59091L4.53001 1.56593C4.06501 1.35593 3.52501 1.67091 3.48001 2.18091V2.16592Z" fill="#FFB27B"/>
<path id="Vector_7" d="M15.7499 5.44785C15.7499 5.44785 15.6149 5.44784 15.5399 5.41784C13.7249 4.87784 11.7749 4.87784 9.97492 5.41784C9.56992 5.53784 9.16493 5.31284 9.04493 4.90784C8.92493 4.50284 9.14992 4.09785 9.55492 3.97785C11.6549 3.36285 13.8899 3.36285 15.9899 3.97785C16.3799 4.09785 16.6199 4.51784 16.4999 4.90784C16.4099 5.23784 16.1099 5.44785 15.7799 5.44785H15.7499Z" fill="white"/>
</g>
</g>
</svg>
