<svg width="156" height="155" viewBox="0 0 156 155" fill="none" xmlns="http://www.w3.org/2000/svg">
<g id="&#236;&#131;&#157;&#234;&#176;&#129;&#237;&#149;&#152;&#235;&#138;&#148; &#237;&#143;&#172;&#236;&#189;&#148;">
<path id="Vector" d="M87.8228 134.667C57.0417 133.972 30.8649 136.001 25.7448 139.469C21.9737 142.024 30.8723 146.186 55.2797 142.637C67.2653 143.724 70.2649 143.724 78.3943 143.724L78.403 143.724C86.5389 143.724 98.957 143.525 108.806 142.638C120.367 146.186 134.2 144.029 137.215 141.987C142.335 138.519 118.604 135.363 87.8228 134.667Z" fill="black" fill-opacity="0.2"/>
<g id="Group">
<path id="Vector_2" d="M80.0814 81.8921C68.0081 81.0485 56.7336 82.0022 51.5627 87.2171C37.7736 101.122 36.7637 137.693 36.7637 137.693C36.7637 137.693 66.7949 138.523 78.1734 138.523C89.552 138.523 119.533 137.163 119.533 137.163C119.533 137.163 121.064 101.122 107.277 87.2171C102.106 82.0022 90.8313 81.0485 78.758 81.8921" fill="#FFD0BD"/>
<g id="Group 1000011802">
<g id="Group 1000011799">
<path id="Vector 5323" d="M51.1246 120.092C43.3807 109.95 33.7683 111.352 30.0059 112.57L35.1178 142.23C64.3992 140.176 62.1283 124.951 63.2865 117.979L51.1246 120.092Z" fill="#FFD0BD"/>
<path id="Vector 5348 (Stroke)" fill-rule="evenodd" clip-rule="evenodd" d="M42.2878 113.42C42.4659 112.954 43.0538 112.7 43.6009 112.851C44.9223 113.218 48.0543 114.401 49.9707 116.293C50.3464 116.664 50.2976 117.224 49.8619 117.544C49.4261 117.864 48.7683 117.822 48.3926 117.451C46.8365 115.915 44.1231 114.861 42.9559 114.538C42.4088 114.386 42.1097 113.886 42.2878 113.42Z" fill="#F29373"/>
<path id="Vector_3" d="M45.5073 125.904C47.7234 134.92 47.1727 140.382 35.6923 142.195C27.7601 143.449 20.9699 135.512 19.4975 125.904C18.2949 118.055 19.4976 112.776 27.8404 116.296C28.097 108.044 41.0982 112.989 45.5073 125.904Z" fill="#F7A284"/>
</g>
<g id="Group 1000011800">
<path id="Vector 5323_2" d="M105.225 120.092C112.969 109.95 122.581 111.352 126.344 112.57L121.232 142.23C91.9504 140.176 94.2213 124.951 93.0631 117.979L105.225 120.092Z" fill="#FFD0BD"/>
<path id="Vector 5348 (Stroke)_2" fill-rule="evenodd" clip-rule="evenodd" d="M114.064 113.42C113.886 112.954 113.298 112.7 112.751 112.851C111.429 113.218 108.297 114.401 106.381 116.293C106.005 116.664 106.054 117.224 106.49 117.544C106.925 117.864 107.583 117.822 107.959 117.451C109.515 115.915 112.228 114.861 113.396 114.538C113.943 114.386 114.242 113.886 114.064 113.42Z" fill="#F29373"/>
<path id="Vector_4" d="M110.842 125.904C108.626 134.92 109.177 140.382 120.657 142.195C128.59 143.449 135.38 135.512 136.852 125.904C138.055 118.055 136.852 112.776 128.509 116.296C128.253 108.044 115.251 112.989 110.842 125.904Z" fill="#F7A284"/>
</g>
</g>
<path id="Vector_5" d="M34.8985 22.1381C31.0353 31.1716 17.9716 66.7084 52.742 64.1081C59.2374 63.6231 65.1042 60.1917 68.5385 54.8606C86.8301 26.4609 48.2295 21.1364 38.1505 20.2435C36.7528 20.1197 35.4332 20.889 34.8985 22.1381Z" fill="#FFD0BD"/>
<path id="Vector_6" d="M34.8982 22.1367C35.2611 21.2889 35.9851 20.6634 36.8497 20.3858C37.4227 20.3641 51.0246 23.8858 55.4746 32.8741C44.531 36.4327 35.4382 41.9946 29.5383 49.5431C28.1163 39.4277 32.8286 26.9761 34.8982 22.135V22.1367Z" fill="#F6A284"/>
<path id="Vector_7" d="M95.7834 11.4263C102.713 18.5617 127.975 47.3561 94.4951 56.7608C88.2411 58.5183 81.494 57.3059 76.3251 53.4882C48.7915 33.1504 82.9455 15.0283 92.047 10.759C93.3093 10.1671 94.825 10.438 95.7834 11.4246V11.4263Z" fill="#FFD0BD"/>
<path id="Vector_8" d="M95.7835 11.4269C95.1324 10.7563 94.226 10.4185 93.3162 10.4537C92.771 10.6276 81.3412 18.554 80.4766 28.4771C92.0192 28.0791 102.567 30.1861 110.856 35.2396C108.474 25.2931 99.4973 15.2496 95.7835 11.4269Z" fill="#F6A284"/>
<path id="Vector_9" d="M98.3884 89.2666L87.0592 91.0283L73.5633 93.127L62.2324 94.8873" fill="#A0A0A0"/>
<path id="Vector_10" d="M67.816 28.4143C38.8395 33.2813 17.7231 49.1834 23.0221 75.8717C27.842 100.139 52.9431 104.308 81.9196 99.4415C110.896 94.5746 132.776 82.5158 127.957 58.2482C122.656 31.56 96.7924 23.549 67.8142 28.4159L67.816 28.4143Z" fill="#FFD0BD"/>
<path id="Vector_11" d="M92.2867 63.2137C91.212 57.8007 86.5275 54.0531 73.5212 56.2375C60.5148 58.4218 57.5736 63.45 58.6484 68.8631C59.7231 74.2761 64.4075 78.0237 77.4139 75.8393C90.4202 73.6549 93.3615 68.6267 92.2867 63.2137Z" fill="#FFB399"/>
<path id="Vector_12" d="M70.8495 67.3513C71.2072 69.1476 71.4954 70.6055 70.0282 70.8514C68.5611 71.0973 68.2712 69.641 67.9152 67.8447C67.5593 66.0483 67.2693 64.5905 68.7365 64.3446C70.2036 64.0987 70.4936 65.5549 70.8495 67.3513Z" fill="#DA724F"/>
<path id="Vector_13" d="M82.8788 65.3308C83.2365 67.1271 83.5247 68.585 82.0576 68.8309C80.5904 69.0768 80.3005 67.6205 79.9445 65.8242C79.5886 64.0278 79.2986 62.57 80.7658 62.3241C82.2329 62.0782 82.5229 63.5344 82.8788 65.3308Z" fill="#DA724F"/>
<path id="Vector_14" d="M53.1758 65.5205C55.1088 65.5205 56.6758 63.9535 56.6758 62.0205C56.6758 60.0875 55.1088 58.5205 53.1758 58.5205C51.2428 58.5205 49.6758 60.0875 49.6758 62.0205C49.6758 63.9535 51.2428 65.5205 53.1758 65.5205Z" fill="#23282E"/>
<path id="Vector_15" d="M95.1758 57.958C97.1088 57.958 98.6758 56.391 98.6758 54.458C98.6758 52.525 97.1088 50.958 95.1758 50.958C93.2428 50.958 91.6758 52.525 91.6758 54.458C91.6758 56.391 93.2428 57.958 95.1758 57.958Z" fill="#23282E"/>
<path id="Vector_16" d="M44.3059 93.0099C51.7882 93.0099 57.8539 87.4316 57.8539 80.5504C57.8539 73.6691 51.7882 68.0908 44.3059 68.0908C36.8235 68.0908 30.7578 73.6691 30.7578 80.5504C30.7578 87.4316 36.8235 93.0099 44.3059 93.0099Z" fill="#FFB399"/>
<path id="Vector_17" d="M109.847 82.0011C117.329 82.0011 123.395 76.4228 123.395 69.5416C123.395 62.6604 117.329 57.082 109.847 57.082C102.365 57.082 96.2988 62.6604 96.2988 69.5416C96.2988 76.4228 102.365 82.0011 109.847 82.0011Z" fill="#FFB399"/>
<path id="Vector_18" d="M67.6632 103.266C75.0755 109.301 91.3833 123.354 78.0043 126.914C70.8753 129.278 65.4061 126.47 62.7148 124.474" fill="#FFD0BD"/>
<path id="Vector (Stroke)" fill-rule="evenodd" clip-rule="evenodd" d="M66.9072 102.653C67.3049 102.299 67.9644 102.286 68.3801 102.625C72.0774 105.635 78.1072 110.733 81.52 115.561C83.212 117.955 84.3819 120.446 84.108 122.659C83.9672 123.796 83.4461 124.846 82.4583 125.733C81.4887 126.605 80.1183 127.276 78.3461 127.752C70.7138 130.268 64.8513 127.237 62.0275 125.143C61.5936 124.821 61.5482 124.261 61.9261 123.892C62.304 123.523 62.962 123.484 63.3959 123.806C65.9504 125.7 71.0135 128.279 77.6231 126.088L77.6563 126.077L77.6903 126.068C79.2463 125.654 80.2815 125.111 80.9458 124.514C81.598 123.928 81.9399 123.249 82.0359 122.473C82.2355 120.861 81.3738 118.794 79.7347 116.475C76.4853 111.878 70.655 106.931 66.94 103.906C66.5242 103.568 66.5095 103.007 66.9072 102.653Z" fill="#F29373"/>
<g id="Group_2">
<path id="Vector_19" d="M85.9768 102.749C78.9888 110.644 68.5111 119.219 79.5884 125.46C84.1537 127.431 88.9284 127.357 92.4878 126.175" fill="#FFD0BD"/>
<path id="Vector (Stroke)_2" fill-rule="evenodd" clip-rule="evenodd" d="M86.6046 102.041C87.0641 102.336 87.1559 102.892 86.8097 103.283C85.9272 104.28 84.9913 105.286 84.0588 106.287L83.9852 106.366C83.0747 107.343 82.1684 108.316 81.3038 109.286C79.5224 111.286 77.9607 113.231 76.9558 115.095C75.9507 116.959 75.5505 118.656 75.949 120.198C76.3393 121.709 77.5375 123.23 80.1141 124.692C84.3903 126.522 88.8319 126.438 92.11 125.349C92.6459 125.171 93.25 125.396 93.4592 125.852C93.6683 126.309 93.4034 126.823 92.8674 127.001C89.0405 128.272 83.9561 128.34 79.118 126.251L79.0644 126.228L79.0144 126.199C76.0869 124.55 74.4538 122.669 73.9141 120.579C73.3801 118.512 73.959 116.401 75.0622 114.355C76.1655 112.308 77.8412 110.238 79.6436 108.215C80.522 107.229 81.4407 106.243 82.3471 105.27L82.4263 105.185C83.361 104.181 84.2811 103.192 85.1457 102.215C85.4919 101.824 86.1451 101.746 86.6046 102.041Z" fill="#F29373"/>
</g>
<path id="Vector (Stroke)_3" fill-rule="evenodd" clip-rule="evenodd" d="M87.9749 92.8958C88.3232 93.2856 88.2344 93.842 87.7765 94.1385C85.6296 95.5288 83.0453 96.5278 80.1744 96.9742C77.3032 97.4207 74.4705 97.2633 71.8857 96.609C71.3343 96.4694 71.0201 95.9757 71.1841 95.5063C71.3481 95.0368 71.9281 94.7694 72.4796 94.909C74.7529 95.4845 77.254 95.6255 79.7999 95.2296C82.3461 94.8336 84.6269 93.9497 86.515 92.727C86.9729 92.4304 87.6265 92.506 87.9749 92.8958Z" fill="#F29373"/>
</g>
</g>
</svg>
