<svg width="173" height="201" viewBox="0 0 173 201" fill="none" xmlns="http://www.w3.org/2000/svg">
<ellipse cx="79" cy="198" rx="20" ry="3" fill="#4C5577" fill-opacity="0.4"/>
<path d="M61.5309 152.864C47.9547 136.224 70.3269 84.8724 70.3269 84.8724C70.3269 84.8724 81.0386 84.7854 95.9644 84.7854C110.89 84.7854 116.652 84.2402 116.652 84.2402C116.652 84.2402 146.963 132.94 126.98 156.019C120.994 162.929 112.041 172.062 96.1381 171.649C81.4458 171.268 71.0523 164.534 61.5309 152.864Z" fill="#FFD0BD"/>
<path d="M122.52 111.927C129.874 103.683 136.078 109.244 143.73 116.107C151.383 122.971 154.356 131.201 150.229 136.777C146.515 141.801 136.671 139.459 129.019 132.596C121.366 125.733 115.163 120.171 122.52 111.927Z" fill="#FFD0BD"/>
<path d="M91.1789 156.493C90.904 143.98 89.0481 123.981 75.0668 124.989C60.8664 126.013 57.0946 127.149 57.169 137.908C57.3199 159.443 64.0285 188.207 75.0668 187.997C86.1051 188.209 91.6501 178.017 91.1789 156.493Z" fill="#FFD0BD"/>
<path d="M100.037 146.33C100.312 133.817 102.168 113.818 116.15 114.826C130.35 115.85 134.122 116.986 134.047 127.745C133.896 149.279 127.188 178.043 116.15 177.834C105.111 178.046 99.5663 167.854 100.037 146.33Z" fill="#FFD0BD"/>
<path d="M45.9062 14.4866C41.3077 25.6838 25.7578 69.7325 67.1458 66.5093C74.8774 65.9082 81.8608 61.6549 85.9488 55.0469C107.722 19.8448 61.7744 13.2451 49.7771 12.1382C48.1134 11.9848 46.5427 12.9383 45.9062 14.4866Z" fill="#FFD0BD"/>
<path d="M45.9058 14.4877C46.3378 13.4368 47.1996 12.6616 48.2288 12.3175C48.9108 12.2906 65.1015 16.6558 70.3985 27.797C57.372 32.2079 46.5486 39.102 39.5259 48.4585C37.8332 35.9203 43.4423 20.4863 45.9058 14.4856V14.4877Z" fill="#F6A284"/>
<path d="M118.379 1.21229C126.627 10.0569 156.697 45.7481 116.845 57.4054C109.401 59.5839 101.369 58.0812 95.2168 53.349C62.4429 28.1398 103.097 5.67707 113.931 0.385254C115.433 -0.348511 117.238 -0.0127239 118.379 1.21022V1.21229Z" fill="#FFD0BD"/>
<path d="M118.378 1.21236C117.603 0.381172 116.525 -0.0375191 115.442 0.00600929C114.793 0.221579 101.187 10.0466 100.158 22.3465C113.898 21.8531 126.453 24.4648 136.32 30.7288C133.484 18.3999 122.799 5.95074 118.378 1.21236Z" fill="#F6A284"/>
<path d="M85.0925 24.028C50.6011 30.3458 25.4657 50.9887 31.7733 85.6332C37.5105 117.135 67.389 122.547 101.88 116.229C136.372 109.912 162.417 94.258 156.679 62.7559C150.37 28.1114 119.584 17.7122 85.0904 24.0301L85.0925 24.028Z" fill="#FFD0BD"/>
<path d="M114.216 69.2028C112.937 62.1761 107.361 57.3113 91.8788 60.1469C76.397 62.9824 72.896 69.5096 74.1753 76.5363C75.4546 83.5631 81.0306 88.4279 96.5123 85.5923C111.994 82.7568 115.495 76.2296 114.216 69.2028Z" fill="#FFB399"/>
<path d="M88.6991 74.5721C89.1249 76.904 89.468 78.7964 87.7216 79.1157C85.9752 79.4349 85.6301 77.5445 85.2064 75.2126C84.7827 72.8807 84.4376 70.9883 86.184 70.6691C87.9303 70.3499 88.2755 72.2402 88.6991 74.5721Z" fill="#DA724F"/>
<path d="M103.021 71.951C103.447 74.2829 103.79 76.1754 102.044 76.4946C100.298 76.8138 99.9524 74.9234 99.5287 72.5915C99.105 70.2596 98.7599 68.3672 100.506 68.048C102.253 67.7288 102.598 69.6191 103.021 71.951Z" fill="#DA724F"/>
<path d="M67.1656 71.73C69.5945 71.73 71.5635 69.7552 71.5635 67.3191C71.5635 64.883 69.5945 62.9082 67.1656 62.9082C64.7366 62.9082 62.7676 64.883 62.7676 67.3191C62.7676 69.7552 64.7366 71.73 67.1656 71.73Z" fill="#23282E"/>
<path d="M117.111 62.5845C119.54 62.5845 121.509 60.6096 121.509 58.1736C121.509 55.7375 119.54 53.7627 117.111 53.7627C114.682 53.7627 112.713 55.7375 112.713 58.1736C112.713 60.6096 114.682 62.5845 117.111 62.5845Z" fill="#23282E"/>
<path d="M57.1031 107.882C66.0096 107.882 73.2297 100.641 73.2297 91.7081C73.2297 82.7755 66.0096 75.5342 57.1031 75.5342C48.1967 75.5342 40.9766 82.7755 40.9766 91.7081C40.9766 100.641 48.1967 107.882 57.1031 107.882Z" fill="#FFB399"/>
<path d="M135.119 93.592C144.025 93.592 151.245 86.3507 151.245 77.4181C151.245 68.4855 144.025 61.2441 135.119 61.2441C126.212 61.2441 118.992 68.4855 118.992 77.4181C118.992 86.3507 126.212 93.592 135.119 93.592Z" fill="#FFB399"/>
<path fill-rule="evenodd" clip-rule="evenodd" d="M110.421 106.434C110.836 106.981 110.73 107.761 110.185 108.177C107.629 110.127 104.553 111.528 101.136 112.154C97.7183 112.78 94.3464 112.559 91.2697 111.642C90.6133 111.446 90.2394 110.754 90.4346 110.095C90.6298 109.437 91.3202 109.062 91.9766 109.258C94.6826 110.065 97.6597 110.262 100.69 109.707C103.721 109.152 106.436 107.912 108.683 106.197C109.228 105.781 110.006 105.887 110.421 106.434Z" fill="#F29373"/>
<path d="M87.2267 131.314C80.1745 146.203 57.7659 136.477 46.9317 131.314C36.0975 126.15 29.4114 115.368 34.2212 105.941C39.4224 95.7476 48.5467 98.4265 59.3809 103.59C70.2151 108.754 92.7675 119.616 87.2267 131.314Z" fill="#FFD0BD"/>
<path fill-rule="evenodd" clip-rule="evenodd" d="M41.8589 99.2279C41.7816 98.5454 42.2706 97.9293 42.951 97.8518C47.9737 97.2795 53.8425 99.5744 59.9133 102.468C62.7507 103.82 66.4212 105.577 70.1857 107.643C70.7865 107.972 71.007 108.728 70.6783 109.331C70.3496 109.933 69.5961 110.154 68.9953 109.825C65.2995 107.797 61.6868 106.067 58.8488 104.714C52.7098 101.788 47.4545 99.842 43.231 100.323C42.5505 100.401 41.9362 99.9104 41.8589 99.2279Z" fill="#F29373"/>
<path d="M96.4677 143.09C112.293 143.09 114.275 136.125 114.461 127.204C114.473 126.605 114.043 126.087 113.454 125.985C108.167 125.071 102.445 124.571 96.4677 124.571C90.4907 124.571 84.7701 125.071 79.4814 125.985C78.8923 126.087 78.4625 126.605 78.4749 127.204C78.6609 136.127 80.6408 143.09 96.4677 143.09Z" fill="#FFB399"/>
<path d="M128.256 145.395C128.221 141.938 125.371 134.569 118.121 133.879C110.871 133.188 106.69 139.888 106.006 143.277" fill="#FFD0BD"/>
<path fill-rule="evenodd" clip-rule="evenodd" d="M108.729 136.163C110.963 133.957 114.165 132.255 118.236 132.642C122.307 133.03 125.133 135.306 126.913 137.895C128.669 140.448 129.474 143.394 129.494 145.384C129.501 146.071 128.952 146.633 128.267 146.64C127.582 146.647 127.021 146.096 127.014 145.409C126.999 143.942 126.362 141.474 124.871 139.307C123.405 137.174 121.181 135.421 118.002 135.118C114.823 134.816 112.309 136.118 110.469 137.936C108.599 139.783 107.51 142.086 107.219 143.525C107.083 144.198 106.429 144.633 105.758 144.497C105.087 144.361 104.653 143.705 104.789 143.031C105.182 141.081 106.526 138.34 108.729 136.163Z" fill="#F29373"/>
<path d="M140.714 138.272C138.385 145.588 142.446 153.412 149.783 155.747C157.12 158.082 164.956 154.045 167.284 146.729C169.613 139.413 165.552 131.589 158.215 129.254C150.877 126.919 143.042 130.957 140.714 138.272Z" fill="#FFD34C"/>
<path fill-rule="evenodd" clip-rule="evenodd" d="M166.506 146.479C168.698 139.593 164.876 132.228 157.969 130.029C151.062 127.831 143.685 131.632 141.494 138.519C139.302 145.406 143.124 152.771 150.031 154.969C156.938 157.167 164.315 153.366 166.506 146.479ZM158.463 128.476C166.231 130.948 170.529 139.231 168.064 146.975C165.599 154.72 157.305 158.994 149.537 156.522C141.77 154.05 137.471 145.768 139.936 138.023C142.401 130.278 150.696 126.004 158.463 128.476Z" fill="#FFB72C"/>
<path d="M150.847 149.745C150.611 149.67 150.426 149.504 150.321 149.301C150.216 149.097 150.186 148.854 150.261 148.619L150.975 146.374L147.73 144.298C147.718 144.291 147.71 144.28 147.7 144.274C147.674 144.257 147.651 144.238 147.628 144.217C147.61 144.202 147.59 144.185 147.571 144.167C147.54 144.137 147.515 144.104 147.49 144.069C147.483 144.061 147.475 144.05 147.469 144.042C147.363 143.887 147.301 143.698 147.31 143.495C147.331 143.003 147.754 142.619 148.246 142.643L152.104 142.823L153.965 142.91L154.01 142.913L153.971 142.89L152.402 141.886L149.154 139.808C149.142 139.802 149.134 139.791 149.125 139.785C149.098 139.768 149.077 139.747 149.053 139.728C149.033 139.71 149.014 139.695 148.996 139.678C148.966 139.646 148.94 139.615 148.914 139.579C148.908 139.572 148.9 139.561 148.894 139.553C148.787 139.398 148.726 139.209 148.735 139.006C148.755 138.514 149.178 138.129 149.671 138.154L153.53 138.336L154.244 136.094C154.393 135.625 154.902 135.362 155.375 135.513C155.849 135.664 156.11 136.17 155.96 136.64L155.393 138.424L158.76 138.581C159.255 138.606 159.638 139.028 159.618 139.52C159.593 140.014 159.171 140.396 158.678 140.374L154.829 140.193L152.969 140.106L152.944 140.103L152.965 140.116L154.534 141.12L157.787 143.202C158.172 143.448 158.301 143.94 158.111 144.34C158.107 144.353 158.101 144.362 158.095 144.372C158.082 144.393 158.075 144.417 158.062 144.44C158.052 144.453 158.04 144.464 158.033 144.476C158.015 144.499 157.995 144.522 157.977 144.545C157.962 144.563 157.948 144.582 157.932 144.598C157.758 144.77 157.519 144.875 157.254 144.864L153.402 144.682L151.542 144.594L151.522 144.593L151.538 144.604L153.107 145.608L156.362 147.692C156.778 147.957 156.901 148.515 156.636 148.93C156.367 149.346 155.808 149.469 155.393 149.2L152.544 147.379L151.975 149.166C151.826 149.634 151.318 149.897 150.847 149.747L150.847 149.745Z" fill="#FFB72C"/>
<path d="M26.77 61.1452C25.4779 62.8209 20.2591 81.464 20.2591 81.464L43.3938 78.0107C43.3938 78.0107 31.7153 55.1039 26.77 61.1452Z" fill="#5A7EFF"/>
<path d="M69.0644 97.9089C63.7869 97.3831 59.8038 96.6548 59.8038 96.6548L60.6756 103.285C60.6756 103.285 74.3418 98.4347 69.0644 97.9089Z" fill="#5A7EFF"/>
<path d="M30.9856 110.651C45.7982 116.528 61.3532 112.354 65.7286 101.328C70.104 90.3009 61.6429 76.5972 46.8303 70.7195C32.0177 64.8419 16.4628 69.0161 12.0874 80.0428C7.71201 91.0695 16.173 104.773 30.9856 110.651Z" fill="#5A7EFF"/>
<path d="M14.0524 107.864C13.2717 107.554 13.0104 106.366 13.4689 105.211L16.7733 92.7594C17.2317 91.6039 18.2365 90.9182 19.0172 91.228L25.2548 93.703C26.0355 94.0128 26.2968 95.2009 25.8383 96.3564L19.7065 107.686C19.248 108.841 18.2432 109.527 17.4625 109.217L14.0517 107.864L14.0524 107.864Z" fill="#5A7EFF"/>
<path d="M19.707 107.685C19.2485 108.841 18.2437 109.526 17.463 109.217L14.0522 107.863C13.2715 107.554 13.0103 106.365 13.4688 105.21L19.7063 107.685L19.707 107.685Z" fill="#264FDF"/>
<path d="M44.7223 120.034C45.503 120.343 46.5078 119.658 46.9663 118.502L53.098 107.173C53.5565 106.017 53.2953 104.829 52.5146 104.519L46.277 102.044C45.4963 101.735 44.4915 102.42 44.033 103.576L40.7287 116.027C40.2702 117.182 40.5314 118.371 41.3121 118.68L44.7229 120.034L44.7223 120.034Z" fill="#5A7EFF"/>
<path d="M18.1767 75.5909L13.1166 73.583C12.5538 73.3597 11.9384 73.5801 11.7419 74.0753L7.74581 84.1461C7.54933 84.6412 7.84622 85.2237 8.40894 85.447L13.469 87.4548C14.0318 87.6781 14.6472 87.4577 14.8437 86.9625L18.8398 76.8917C19.0363 76.3966 18.7394 75.8141 18.1767 75.5909Z" fill="#5A7EFF"/>
<path d="M41.8266 70.9797L42.0006 72.0495C42.0006 72.0495 43.3975 72.2925 46.004 73.3267C48.6105 74.361 49.9554 75.3869 49.9554 75.3869L50.8934 74.6559C50.8934 74.6559 49.7123 73.6126 46.5525 72.3588C43.3926 71.1049 41.8262 70.9789 41.8262 70.9789L41.8266 70.9797Z" fill="#663402"/>
<path d="M25.1064 77.4468C26.0736 77.8306 27.1314 77.4518 27.4691 76.6007C27.8068 75.7496 27.2965 74.7486 26.3294 74.3648C25.3622 73.981 24.3044 74.3598 23.9667 75.2109C23.629 76.062 24.1392 77.063 25.1064 77.4468Z" fill="#663402"/>
<path d="M46.9687 118.5C46.5102 119.655 45.5054 120.341 44.7247 120.031L41.3139 118.678C40.5332 118.368 40.272 117.18 40.7305 116.024L46.968 118.499L46.9687 118.5Z" fill="#264FDF"/>
</svg>
