<svg width="24" height="24" viewBox="0 0 24 24" fill="none" xmlns="http://www.w3.org/2000/svg">
<g clip-path="url(#clip0_1980_35877)">
<path d="M12 24C18.6274 24 24 18.6274 24 12C24 5.37258 18.6274 0 12 0C5.37258 0 0 5.37258 0 12C0 18.6274 5.37258 24 12 24Z" fill="#FFE6E0"/>
<path d="M14.0005 10.4951H10.0005C9.4482 10.4951 9.00049 10.9428 9.00049 11.4951V17.4951C9.00049 18.0474 9.4482 18.4951 10.0005 18.4951H14.0005C14.5528 18.4951 15.0005 18.0474 15.0005 17.4951V11.4951C15.0005 10.9428 14.5528 10.4951 14.0005 10.4951Z" fill="#FF5C46"/>
<path d="M11.6403 5.65488L6.82027 10.6449C6.51027 10.9649 6.74027 11.4949 7.18027 11.4949H16.8203C17.2603 11.4949 17.4903 10.9649 17.1803 10.6449L12.3603 5.65488C12.1603 5.45488 11.8403 5.45488 11.6403 5.65488Z" fill="#FF5C46"/>
</g>
<defs>
<clipPath id="clip0_1980_35877">
<rect width="24" height="24" fill="white"/>
</clipPath>
</defs>
</svg>
