<svg width="40" height="40" viewBox="0 0 40 40" fill="none" xmlns="http://www.w3.org/2000/svg">
<g clip-path="url(#clip0_1742_47479)">
<path d="M20 40C31.0457 40 40 31.0457 40 20C40 8.9543 31.0457 0 20 0C8.9543 0 0 8.9543 0 20C0 31.0457 8.9543 40 20 40Z" fill="#FFF4CF"/>
<path d="M28.3337 15.8337C28.3337 10.767 24.6003 6.66699 20.0003 6.66699C15.4003 6.66699 11.667 10.767 11.667 15.8337C11.667 19.6503 13.7837 22.9003 16.8003 24.2837C17.4503 24.5837 17.817 25.2837 17.717 26.0003L17.1337 30.0337C16.8837 31.767 18.2337 33.3337 20.0003 33.3337C21.767 33.3337 23.117 31.7837 22.867 30.0337L22.2837 26.0003C22.1837 25.2837 22.5503 24.5837 23.2003 24.2837C26.217 22.9003 28.3337 19.6503 28.3337 15.8337Z" fill="#FFA723"/>
<path d="M20 21.6667C22.7614 21.6667 25 19.055 25 15.8333C25 12.6117 22.7614 10 20 10C17.2386 10 15 12.6117 15 15.8333C15 19.055 17.2386 21.6667 20 21.6667Z" fill="white"/>
</g>
<defs>
<clipPath id="clip0_1742_47479">
<rect width="40" height="40" fill="white"/>
</clipPath>
</defs>
</svg>
