<svg width="40" height="40" viewBox="0 0 40 40" fill="none" xmlns="http://www.w3.org/2000/svg">
<g clip-path="url(#clip0_1742_47489)">
<path d="M20 40C31.0457 40 40 31.0457 40 20C40 8.9543 31.0457 0 20 0C8.9543 0 0 8.9543 0 20C0 31.0457 8.9543 40 20 40Z" fill="#DDF7A7"/>
<path d="M30 21.6667C30 20.75 29.25 20 28.3333 20H11.6667C10.75 20 10 20.75 10 21.6667V30C10 30.9167 10.75 31.6667 11.6667 31.6667H28.3333C29.25 31.6667 30 30.9167 30 30C30 29.0833 29.25 28.3333 28.3333 28.3333H13.3333V23.3333H28.3333C29.25 23.3333 30 22.5833 30 21.6667Z" fill="#8DD248"/>
<path d="M30 9.99967C30 9.08301 29.25 8.33301 28.3333 8.33301H11.6667C10.75 8.33301 10 9.08301 10 9.99967V18.333C10 19.2497 10.75 19.9997 11.6667 19.9997H28.3333C29.25 19.9997 30 19.2497 30 18.333C30 17.4163 29.25 16.6663 28.3333 16.6663H13.3333V11.6663H28.3333C29.25 11.6663 30 10.9163 30 9.99967Z" fill="#B6E765"/>
<path d="M28.333 23.333H13.333V28.333H28.333V23.333Z" fill="white"/>
<path d="M28.333 11.666H13.333V16.666H28.333V11.666Z" fill="white"/>
<path d="M20.0003 30L18.3337 28.3333L16.667 30V25H20.0003V30Z" fill="#B6E765"/>
</g>
<defs>
<clipPath id="clip0_1742_47489">
<rect width="40" height="40" fill="white"/>
</clipPath>
</defs>
</svg>
