<svg width="40" height="40" viewBox="0 0 40 40" fill="none" xmlns="http://www.w3.org/2000/svg">
<g clip-path="url(#clip0_1742_47483)">
<path d="M20 40C31.0457 40 40 31.0457 40 20C40 8.9543 31.0457 0 20 0C8.9543 0 0 8.9543 0 20C0 31.0457 8.9543 40 20 40Z" fill="#DDF7A7"/>
<path d="M16.667 10H13.3337C12.4132 10 11.667 10.7462 11.667 11.6667C11.667 12.5871 12.4132 13.3333 13.3337 13.3333H16.667C17.5875 13.3333 18.3337 12.5871 18.3337 11.6667C18.3337 10.7462 17.5875 10 16.667 10Z" fill="#8DD248"/>
<path d="M26.667 10H23.3337C22.4132 10 21.667 10.7462 21.667 11.6667C21.667 12.5871 22.4132 13.3333 23.3337 13.3333H26.667C27.5875 13.3333 28.3337 12.5871 28.3337 11.6667C28.3337 10.7462 27.5875 10 26.667 10Z" fill="#8DD248"/>
<path d="M12.083 29.9997H9.99967C9.08301 29.9997 8.33301 29.2497 8.33301 28.333V19.9997C8.33301 19.083 9.08301 18.333 9.99967 18.333H14.4497C15.5497 18.333 16.3497 19.3997 16.0497 20.4497L13.6663 28.783C13.4663 29.4997 12.7997 29.9997 12.0663 29.9997H12.083Z" fill="#8DD248"/>
<path d="M27.9169 29.9997H30.0003C30.9169 29.9997 31.6669 29.2497 31.6669 28.333V19.9997C31.6669 19.083 30.9169 18.333 30.0003 18.333H25.5503C24.4503 18.333 23.6503 19.3997 23.9503 20.4497L26.3336 28.783C26.5336 29.4997 27.2003 29.9997 27.9336 29.9997H27.9169Z" fill="#8DD248"/>
<path d="M26.667 11.667H13.3337C9.65033 11.667 6.66699 14.6503 6.66699 18.3337C6.66699 22.017 9.65033 25.0003 13.3337 25.0003C15.8003 25.0003 17.917 23.6503 19.0837 21.667H20.9337C22.0837 23.6503 24.217 25.0003 26.6837 25.0003C30.367 25.0003 33.3503 22.017 33.3503 18.3337C33.3503 14.6503 30.367 11.667 26.6837 11.667H26.667Z" fill="white"/>
<path d="M27.6335 16.4003C27.6335 15.8664 27.2007 15.4336 26.6669 15.4336C26.133 15.4336 25.7002 15.8664 25.7002 16.4003V20.2836C25.7002 20.8175 26.133 21.2503 26.6669 21.2503C27.2007 21.2503 27.6335 20.8175 27.6335 20.2836V16.4003Z" fill="#B6E765"/>
<path d="M24.7333 17.3665C24.1994 17.3665 23.7666 17.7993 23.7666 18.3331C23.7666 18.867 24.1994 19.2998 24.7333 19.2998H28.6166C29.1505 19.2998 29.5833 18.867 29.5833 18.3331C29.5833 17.7993 29.1505 17.3665 28.6166 17.3665H24.7333Z" fill="#B6E765"/>
<path d="M13.2167 17.3669C13.7505 17.3669 14.1833 16.9341 14.1833 16.4003C14.1833 15.8664 13.7505 15.4336 13.2167 15.4336C12.6828 15.4336 12.25 15.8664 12.25 16.4003C12.25 16.9341 12.6828 17.3669 13.2167 17.3669Z" fill="#B6E765"/>
<path d="M13.2167 21.2331C13.7505 21.2331 14.1833 20.8003 14.1833 20.2665C14.1833 19.7326 13.7505 19.2998 13.2167 19.2998C12.6828 19.2998 12.25 19.7326 12.25 20.2665C12.25 20.8003 12.6828 21.2331 13.2167 21.2331Z" fill="#B6E765"/>
<path d="M11.2831 19.2995C11.8169 19.2995 12.2497 18.8668 12.2497 18.3329C12.2497 17.799 11.8169 17.3662 11.2831 17.3662C10.7492 17.3662 10.3164 17.799 10.3164 18.3329C10.3164 18.8668 10.7492 19.2995 11.2831 19.2995Z" fill="#B6E765"/>
<path d="M15.1503 19.2995C15.6841 19.2995 16.1169 18.8668 16.1169 18.3329C16.1169 17.799 15.6841 17.3662 15.1503 17.3662C14.6164 17.3662 14.1836 17.799 14.1836 18.3329C14.1836 18.8668 14.6164 19.2995 15.1503 19.2995Z" fill="#B6E765"/>
</g>
<defs>
<clipPath id="clip0_1742_47483">
<rect width="40" height="40" fill="white"/>
</clipPath>
</defs>
</svg>
