<svg width="24" height="24" viewBox="0 0 24 24" fill="none" xmlns="http://www.w3.org/2000/svg">
<g clip-path="url(#clip0_1980_35887)">
<path d="M12 24C18.6274 24 24 18.6274 24 12C24 5.37258 18.6274 0 12 0C5.37258 0 0 5.37258 0 12C0 18.6274 5.37258 24 12 24Z" fill="#FFEDE1"/>
<path d="M5 9.54248H6V13.5425H5C4.45 13.5425 4 13.0925 4 12.5425V10.5425C4 9.99248 4.45 9.54248 5 9.54248Z" fill="#FF7822"/>
<path d="M12.5 17.9995C16.6421 17.9995 20 15.0894 20 11.4995C20 7.90966 16.6421 4.99951 12.5 4.99951C8.35786 4.99951 5 7.90966 5 11.4995C5 15.0894 8.35786 17.9995 12.5 17.9995Z" fill="#FFB27B"/>
<path d="M10.5 18.9995H9.42C9.18 18.9995 8.96999 18.8195 8.92999 18.5795L8 12.9995H11V18.4995C11 18.7795 10.78 18.9995 10.5 18.9995Z" fill="#FFB27B"/>
<path d="M16.58 18.9995H15.5C15.22 18.9995 15 18.7795 15 18.4995V12.9995H18L17.07 18.5795C17.03 18.8195 16.82 18.9995 16.58 18.9995Z" fill="#FFB27B"/>
<path d="M9.0002 11.1415C9.44203 11.1415 9.8002 10.7833 9.8002 10.3415C9.8002 9.89968 9.44203 9.5415 9.0002 9.5415C8.55837 9.5415 8.2002 9.89968 8.2002 10.3415C8.2002 10.7833 8.55837 11.1415 9.0002 11.1415Z" fill="#23282E"/>
<path d="M6.32001 5.44346L6 8.70345L10 6.39345L7.02 5.04346C6.71 4.90346 6.35001 5.11345 6.32001 5.45345V5.44346Z" fill="#FFB27B"/>
<path d="M14.4998 7.63173C14.4998 7.63173 14.4098 7.63173 14.3598 7.61173C13.1498 7.25173 11.8498 7.25173 10.6498 7.61173C10.3798 7.69173 10.1098 7.54173 10.0298 7.27173C9.94979 7.00173 10.0998 6.73174 10.3698 6.65174C11.7698 6.24174 13.2598 6.24174 14.6598 6.65174C14.9198 6.73174 15.0798 7.01173 14.9998 7.27173C14.9398 7.49173 14.7398 7.63173 14.5198 7.63173H14.4998Z" fill="white"/>
</g>
<defs>
<clipPath id="clip0_1980_35887">
<rect width="24" height="24" fill="white"/>
</clipPath>
</defs>
</svg>
