<svg width="40" height="40" viewBox="0 0 40 40" fill="none" xmlns="http://www.w3.org/2000/svg">
<g clip-path="url(#clip0_1742_47485)">
<path d="M20 40C31.0457 40 40 31.0457 40 20C40 8.9543 31.0457 0 20 0C8.9543 0 0 8.9543 0 20C0 31.0457 8.9543 40 20 40Z" fill="#FFF4CF"/>
<path d="M22.708 15C24.8654 15 26.6143 13.2511 26.6143 11.0938C26.6143 8.93639 24.8654 7.1875 22.708 7.1875C20.5506 7.1875 18.8018 8.93639 18.8018 11.0938C18.8018 13.2511 20.5506 15 22.708 15Z" fill="white"/>
<path d="M28.1768 10.3125V15H10.9893V10.3125C10.9893 9.45313 11.6924 8.75 12.5518 8.75L26.6143 8.75C27.4736 8.75 28.1768 9.45312 28.1768 10.3125Z" fill="white"/>
<path d="M10.9893 29.0625L10.9893 15H28.1768V29.0625C28.1768 30.7812 26.7705 32.1875 25.0518 32.1875H14.1143C12.3955 32.1875 10.9893 30.7812 10.9893 29.0625Z" fill="#FFD34C"/>
<path d="M17.2393 19.6875H15.6768V27.5H17.2393V19.6875Z" fill="#FFA723"/>
<path d="M23.4893 19.6875H21.9268V27.5H23.4893V19.6875Z" fill="#FFA723"/>
<path d="M28.1768 16.5625V18.125H29.7393C30.5986 18.125 31.3018 18.8281 31.3018 19.6875V22.8125C31.3018 23.6719 30.5986 24.375 29.7393 24.375H28.1768V25.9375H29.7393C31.458 25.9375 32.8643 24.5312 32.8643 22.8125V19.6875C32.8643 17.9688 31.458 16.5625 29.7393 16.5625H28.1768Z" fill="#FFD34C"/>
<path d="M18.0205 11.875C19.3149 11.875 20.3643 10.8257 20.3643 9.53125C20.3643 8.23683 19.3149 7.1875 18.0205 7.1875C16.7261 7.1875 15.6768 8.23683 15.6768 9.53125C15.6768 10.8257 16.7261 11.875 18.0205 11.875Z" fill="white"/>
<path d="M14.1143 11.875H17.2393V16.5625C17.2393 17.4219 16.5361 18.125 15.6768 18.125C14.8174 18.125 14.1143 17.4219 14.1143 16.5625V11.875Z" fill="white"/>
</g>
<defs>
<clipPath id="clip0_1742_47485">
<rect width="40" height="40" fill="white"/>
</clipPath>
</defs>
</svg>
