<svg width="24" height="24" viewBox="0 0 24 24" fill="none" xmlns="http://www.w3.org/2000/svg">
<g clip-path="url(#clip0_1980_35882)">
<path d="M12 24C18.6274 24 24 18.6274 24 12C24 5.37258 18.6274 0 12 0C5.37258 0 0 5.37258 0 12C0 18.6274 5.37258 24 12 24Z" fill="#D8F8FF"/>
<path d="M10 13.5039H14C14.5523 13.5039 15 13.0562 15 12.5039V6.50391C15 5.95162 14.5523 5.50391 14 5.50391L10 5.50391C9.44772 5.50391 9 5.95162 9 6.50391V12.5039C9 13.0562 9.44772 13.5039 10 13.5039Z" fill="#5A7EFF"/>
<path d="M12.3598 18.3439L17.1798 13.3539C17.4898 13.0339 17.2598 12.5039 16.8198 12.5039H7.17977C6.73977 12.5039 6.50978 13.0339 6.81978 13.3539L11.6398 18.3439C11.8398 18.5439 12.1598 18.5439 12.3598 18.3439Z" fill="#5A7EFF"/>
</g>
<defs>
<clipPath id="clip0_1980_35882">
<rect width="24" height="24" fill="white"/>
</clipPath>
</defs>
</svg>
