<svg width="24" height="24" viewBox="0 0 24 24" fill="none" xmlns="http://www.w3.org/2000/svg">
<path d="M12 24C18.6274 24 24 18.6274 24 12C24 5.37258 18.6274 0 12 0C5.37258 0 0 5.37258 0 12C0 18.6274 5.37258 24 12 24Z" fill="#FFE6E0"/>
<path d="M12 8.24922C9.86902 4.18635 4.5 5.91607 4.5 11.1258C4.5 14.6415 9.11885 17.6362 11.1078 18.7625C11.6674 19.0792 12.3326 19.0792 12.8922 18.7625C14.8812 17.6362 19.5 14.6434 19.5 11.1258C19.5 5.91607 14.131 4.18822 12 8.2511V8.24922Z" fill="#FF5C46"/>
<path d="M8 13H10L11 11L13 15L14 13H16" stroke="white" stroke-linecap="round" stroke-linejoin="round"/>
</svg>
