<svg width="24" height="24" viewBox="0 0 24 24" fill="none" xmlns="http://www.w3.org/2000/svg">
<g clip-path="url(#clip0_1980_35816)">
<path d="M12 24C18.6274 24 24 18.6274 24 12C24 5.37258 18.6274 0 12 0C5.37258 0 0 5.37258 0 12C0 18.6274 5.37258 24 12 24Z" fill="#E4E9EF"/>
<path d="M16.3247 6.51206C15.8634 6.47581 15.4159 6.51706 14.996 6.62581C14.4085 6.7783 13.7935 6.55206 13.4248 6.06833C12.4373 4.77463 10.8624 3.95216 9.09744 4.00216C6.3563 4.07966 4.10764 6.30457 4.00389 9.04446C3.89015 12.0368 6.28256 14.4992 9.24994 14.4992H15.9997C18.2996 14.4992 20.147 12.5568 19.9908 10.2232C19.8595 8.26324 18.2833 6.6683 16.3259 6.51206H16.3247Z" fill="#8E939A"/>
<path fill-rule="evenodd" clip-rule="evenodd" d="M9.22264 9.79883C9.53901 9.79883 9.84033 9.91835 10.1226 10.1301C10.2331 10.2129 10.2555 10.3696 10.1726 10.4801C10.0898 10.5905 9.93307 10.6129 9.82261 10.5301C9.60491 10.3668 9.40626 10.2988 9.22264 10.2988C9.03903 10.2988 8.84037 10.3668 8.62267 10.5301C8.51221 10.6129 8.35551 10.5905 8.27267 10.4801C8.18983 10.3696 8.21221 10.2129 8.32267 10.1301C8.60495 9.91835 8.90628 9.79883 9.22264 9.79883Z" fill="#23282E"/>
<path d="M6.84766 9.26374C6.84766 9.53998 7.0714 9.76372 7.34764 9.76372C7.62388 9.76372 7.84762 9.53998 7.84762 9.26374C7.84762 9.23874 7.84387 9.21499 7.84012 9.18999L6.9239 9C6.8764 9.07625 6.84766 9.16624 6.84766 9.26374Z" fill="#23282E"/>
<path d="M11.5976 9.26374C11.5976 9.53998 11.3739 9.76372 11.0976 9.76372C10.8214 9.76372 10.5977 9.53998 10.5977 9.26374C10.5977 9.23874 10.6014 9.21499 10.6052 9.18999L11.5214 9C11.5689 9.07625 11.5976 9.16624 11.5976 9.26374Z" fill="#23282E"/>
<path d="M10.6646 19.8824L12.8237 16.7857C12.9616 16.5891 12.8345 16.3024 12.6101 16.3024H11.9449L13.4618 13.4533C13.5686 13.2537 13.4388 13 13.2293 13H10.9147C10.8025 13 10.7024 13.0766 10.6619 13.1921L9.51812 16.4945C9.45052 16.6911 9.58031 16.9028 9.77093 16.9028H10.7471L10.1887 19.6317C10.1252 19.9455 10.4888 20.1361 10.6659 19.8824H10.6646Z" fill="#FFD34C"/>
<path d="M7 16C6.64318 16.357 6 17.2855 6 17.9995C6 18.5515 6.44678 19 7 19C7.55322 19 8 18.553 8 17.9995C8 17.2855 7.35682 16.357 7 16Z" fill="white"/>
<path d="M16 16C15.6432 16.357 15 17.2855 15 17.9995C15 18.5515 15.4468 19 16 19C16.5532 19 17 18.553 17 17.9995C17 17.2855 16.3568 16.357 16 16Z" fill="white"/>
</g>
<defs>
<clipPath id="clip0_1980_35816">
<rect width="24" height="24" fill="white"/>
</clipPath>
</defs>
</svg>
