<svg width="40" height="40" viewBox="0 0 40 40" fill="none" xmlns="http://www.w3.org/2000/svg">
<g clip-path="url(#clip0_1742_47475)">
<path d="M20 40C31.0457 40 40 31.0457 40 20C40 8.9543 31.0457 0 20 0C8.9543 0 0 8.9543 0 20C0 31.0457 8.9543 40 20 40Z" fill="#DDF7A7"/>
<path d="M20 10C14.4833 10 10 14.4833 10 20H30C30 14.4833 25.5167 10 20 10Z" fill="white"/>
<path d="M24.1667 28.4326H15.8333C15.3731 28.4326 15 28.8057 15 29.266V30.9326C15 31.3929 15.3731 31.766 15.8333 31.766H24.1667C24.6269 31.766 25 31.3929 25 30.9326V29.266C25 28.8057 24.6269 28.4326 24.1667 28.4326Z" fill="#8DD248"/>
<path d="M11.6663 21.6667C13.5073 21.6667 14.9997 20.1743 14.9997 18.3333C14.9997 16.4924 13.5073 15 11.6663 15C9.82539 15 8.33301 16.4924 8.33301 18.3333C8.33301 20.1743 9.82539 21.6667 11.6663 21.6667Z" fill="white"/>
<path d="M13.3333 18.3327C15.1743 18.3327 16.6667 16.8403 16.6667 14.9993C16.6667 13.1584 15.1743 11.666 13.3333 11.666C11.4924 11.666 10 13.1584 10 14.9993C10 16.8403 11.4924 18.3327 13.3333 18.3327Z" fill="white"/>
<path d="M16.6663 14.9997C18.5073 14.9997 19.9997 13.5073 19.9997 11.6663C19.9997 9.82539 18.5073 8.33301 16.6663 8.33301C14.8254 8.33301 13.333 9.82539 13.333 11.6663C13.333 13.5073 14.8254 14.9997 16.6663 14.9997Z" fill="white"/>
<path d="M19.9993 14.9997C21.8403 14.9997 23.3327 13.5073 23.3327 11.6663C23.3327 9.82539 21.8403 8.33301 19.9993 8.33301C18.1584 8.33301 16.666 9.82539 16.666 11.6663C16.666 13.5073 18.1584 14.9997 19.9993 14.9997Z" fill="white"/>
<path d="M28.3333 21.6667C30.1743 21.6667 31.6667 20.1743 31.6667 18.3333C31.6667 16.4924 30.1743 15 28.3333 15C26.4924 15 25 16.4924 25 18.3333C25 20.1743 26.4924 21.6667 28.3333 21.6667Z" fill="white"/>
<path d="M26.6663 18.3327C28.5073 18.3327 29.9997 16.8403 29.9997 14.9993C29.9997 13.1584 28.5073 11.666 26.6663 11.666C24.8254 11.666 23.333 13.1584 23.333 14.9993C23.333 16.8403 24.8254 18.3327 26.6663 18.3327Z" fill="white"/>
<path d="M23.3333 14.9997C25.1743 14.9997 26.6667 13.5073 26.6667 11.6663C26.6667 9.82539 25.1743 8.33301 23.3333 8.33301C21.4924 8.33301 20 9.82539 20 11.6663C20 13.5073 21.4924 14.9997 23.3333 14.9997Z" fill="white"/>
<path d="M19.9993 31.6667C26.1993 31.6667 31.2826 26.8167 31.6493 20.7C31.6659 20.3167 31.3493 20 30.9659 20H9.0326C8.64926 20 8.3326 20.3167 8.34926 20.7C8.71593 26.8167 13.7826 31.6667 19.9993 31.6667Z" fill="#8DD248"/>
</g>
<defs>
<clipPath id="clip0_1742_47475">
<rect width="40" height="40" fill="white"/>
</clipPath>
</defs>
</svg>
