<svg width="40" height="40" viewBox="0 0 40 40" fill="none" xmlns="http://www.w3.org/2000/svg">
<g clip-path="url(#clip0_1742_47481)">
<path d="M20 40C31.0457 40 40 31.0457 40 20C40 8.9543 31.0457 0 20 0C8.9543 0 0 8.9543 0 20C0 31.0457 8.9543 40 20 40Z" fill="#D8F8FF"/>
<path d="M22.65 6.66699H17.35C16.0521 6.66699 15 7.71912 15 9.01699V10.9837C15 12.2815 16.0521 13.3337 17.35 13.3337H22.65C23.9479 13.3337 25 12.2815 25 10.9837V9.01699C25 7.71912 23.9479 6.66699 22.65 6.66699Z" fill="#5A7EFF"/>
<path d="M14.9993 28.333H13.3327C12.4122 28.333 11.666 29.0792 11.666 29.9997V31.6663C11.666 32.5868 12.4122 33.333 13.3327 33.333H14.9993C15.9198 33.333 16.666 32.5868 16.666 31.6663V29.9997C16.666 29.0792 15.9198 28.333 14.9993 28.333Z" fill="#5A7EFF"/>
<path d="M26.6663 28.333H24.9997C24.0792 28.333 23.333 29.0792 23.333 29.9997V31.6663C23.333 32.5868 24.0792 33.333 24.9997 33.333H26.6663C27.5868 33.333 28.333 32.5868 28.333 31.6663V29.9997C28.333 29.0792 27.5868 28.333 26.6663 28.333Z" fill="#5A7EFF"/>
<path d="M28.333 10H11.6663C9.82539 10 8.33301 11.4924 8.33301 13.3333V26.6667C8.33301 28.5076 9.82539 30 11.6663 30H28.333C30.174 30 31.6663 28.5076 31.6663 26.6667V13.3333C31.6663 11.4924 30.174 10 28.333 10Z" fill="#87CDFF"/>
<path d="M27.0827 13.333H12.916C12.2257 13.333 11.666 13.8927 11.666 14.583V18.7497C11.666 19.44 12.2257 19.9997 12.916 19.9997H27.0827C27.773 19.9997 28.3327 19.44 28.3327 18.7497V14.583C28.3327 13.8927 27.773 13.333 27.0827 13.333Z" fill="white"/>
<path d="M13.3327 26.6663C14.2532 26.6663 14.9993 25.9201 14.9993 24.9997C14.9993 24.0792 14.2532 23.333 13.3327 23.333C12.4122 23.333 11.666 24.0792 11.666 24.9997C11.666 25.9201 12.4122 26.6663 13.3327 26.6663Z" fill="white"/>
<path d="M26.6667 26.6663C27.5871 26.6663 28.3333 25.9201 28.3333 24.9997C28.3333 24.0792 27.5871 23.333 26.6667 23.333C25.7462 23.333 25 24.0792 25 24.9997C25 25.9201 25.7462 26.6663 26.6667 26.6663Z" fill="white"/>
</g>
<defs>
<clipPath id="clip0_1742_47481">
<rect width="40" height="40" fill="white"/>
</clipPath>
</defs>
</svg>
