<svg width="40" height="40" viewBox="0 0 40 40" fill="none" xmlns="http://www.w3.org/2000/svg">
<path d="M20 40C31.0457 40 40 31.0457 40 20C40 8.9543 31.0457 0 20 0C8.9543 0 0 8.9543 0 20C0 31.0457 8.9543 40 20 40Z" fill="#D8F8FF"/>
<rect x="25" y="8.33301" width="3.33333" height="6.66667" rx="0.5" fill="#87CDFF"/>
<path d="M10 17.2019C10 16.8675 10.1671 16.5553 10.4453 16.3698L19.4453 10.3698C19.7812 10.1459 20.2188 10.1459 20.5547 10.3698L29.5547 16.3698C29.8329 16.5553 30 16.8675 30 17.2019V29C30 29.5523 29.5523 30 29 30H11C10.4477 30 10 29.5523 10 29V17.2019Z" fill="#87CDFF"/>
<path d="M9.16699 17.5L20.0003 10L30.8337 17.5" stroke="#5A7EFF" stroke-width="2" stroke-linecap="round"/>
<rect x="15.8271" y="18.3262" width="3.33333" height="3.33333" rx="0.5" fill="white"/>
<rect x="15.8271" y="23.3262" width="3.33333" height="3.33333" rx="0.5" fill="white"/>
<rect x="20.8271" y="18.3262" width="3.33333" height="3.33333" rx="0.5" fill="white"/>
<rect x="20.8271" y="23.3262" width="3.33333" height="3.33333" rx="0.5" fill="white"/>
</svg>
