<svg width="24" height="24" viewBox="0 0 24 24" fill="none" xmlns="http://www.w3.org/2000/svg">
<g clip-path="url(#clip0_1980_35813)">
<path d="M12 24C18.6274 24 24 18.6274 24 12C24 5.37258 18.6274 0 12 0C5.37258 0 0 5.37258 0 12C0 18.6274 5.37258 24 12 24Z" fill="#E4E9EF"/>
<path d="M16.3247 6.51206C15.8634 6.47581 15.4159 6.51706 14.996 6.62581C14.4085 6.7783 13.7935 6.55206 13.4248 6.06833C12.4373 4.77463 10.8624 3.95216 9.09745 4.00216C6.3563 4.07966 4.10764 6.30457 4.00389 9.04446C3.89015 12.0368 6.28256 14.4992 9.24994 14.4992H15.9997C18.2996 14.4992 20.147 12.5568 19.9908 10.2232C19.8595 8.26324 18.2833 6.6683 16.3259 6.51206H16.3247Z" fill="#8E939A"/>
<path d="M7.37498 9.49996C7.65111 9.49996 7.87496 9.27611 7.87496 8.99998C7.87496 8.72385 7.65111 8.5 7.37498 8.5C7.09885 8.5 6.875 8.72385 6.875 8.99998C6.875 9.27611 7.09885 9.49996 7.37498 9.49996Z" fill="#23282E"/>
<path d="M11.125 9.49996C11.4011 9.49996 11.625 9.27611 11.625 8.99998C11.625 8.72385 11.4011 8.5 11.125 8.5C10.8488 8.5 10.625 8.72385 10.625 8.99998C10.625 9.27611 10.8488 9.49996 11.125 9.49996Z" fill="#23282E"/>
<path fill-rule="evenodd" clip-rule="evenodd" d="M9.22264 9.5332C9.53901 9.5332 9.84033 9.65273 10.1226 9.86444C10.2331 9.94728 10.2555 10.104 10.1726 10.2144C10.0898 10.3249 9.93307 10.3473 9.82261 10.2644C9.60491 10.1012 9.40626 10.0332 9.22264 10.0332C9.03903 10.0332 8.84037 10.1012 8.62267 10.2644C8.51221 10.3473 8.35551 10.3249 8.27267 10.2144C8.18983 10.104 8.21221 9.94728 8.32267 9.86444C8.60495 9.65273 8.90628 9.5332 9.22264 9.5332Z" fill="#23282E"/>
<path d="M11.9998 16C11.5238 16.476 10.6665 17.7147 10.6665 18.6667C10.6665 19.4027 11.2638 20 11.9998 20C12.7358 20 13.3332 19.4027 13.3332 18.6667C13.3332 17.7147 12.4758 16.476 11.9998 16Z" fill="white"/>
<path d="M8 16C7.64318 16.357 7 17.2855 7 17.9995C7 18.5515 7.44678 19 8 19C8.55322 19 9 18.553 9 17.9995C9 17.2855 8.35682 16.357 8 16Z" fill="white"/>
<path d="M15.998 16C15.6412 16.357 14.998 17.2855 14.998 17.9995C14.998 18.5515 15.4448 19 15.998 19C16.5513 19 16.998 18.553 16.998 17.9995C16.998 17.2855 16.3549 16.357 15.998 16Z" fill="white"/>
</g>
<defs>
<clipPath id="clip0_1980_35813">
<rect width="24" height="24" fill="white"/>
</clipPath>
</defs>
</svg>
