<svg width="24" height="24" viewBox="0 0 24 24" fill="none" xmlns="http://www.w3.org/2000/svg">
<g clip-path="url(#clip0_1980_35804)">
<path d="M12 24C18.6274 24 24 18.6274 24 12C24 5.37258 18.6274 0 12 0C5.37258 0 0 5.37258 0 12C0 18.6274 5.37258 24 12 24Z" fill="#FFF4CF"/>
<path d="M12 18C15.866 18 19 14.866 19 11C19 7.13401 15.866 4 12 4C8.13401 4 5 7.13401 5 11C5 14.866 8.13401 18 12 18Z" fill="#FF5C46"/>
<path d="M12 5.5C8.9625 5.5 6.5 7.9625 6.5 11C6.5 14.0375 8.9625 16.5 12 16.5C15.0375 16.5 17.5 14.0375 17.5 11C17.5 7.9625 15.0375 5.5 12 5.5ZM12 14.75C9.92875 14.75 8.25 13.0712 8.25 11C8.25 8.92875 9.92875 7.25 12 7.25C14.0712 7.25 15.75 8.92875 15.75 11C15.75 13.0712 14.0712 14.75 12 14.75Z" fill="#FFD34C"/>
<path d="M12 7.25C9.92875 7.25 8.25 8.92875 8.25 11C8.25 13.0712 9.92875 14.75 12 14.75C14.0712 14.75 15.75 13.0712 15.75 11C15.75 8.92875 14.0712 7.25 12 7.25ZM12 13C10.895 13 10 12.105 10 11C10 9.895 10.895 9 12 9C13.105 9 14 9.895 14 11C14 12.105 13.105 13 12 13Z" fill="#8DD248"/>
<path d="M12 13C13.1046 13 14 12.1046 14 11C14 9.89543 13.1046 9 12 9C10.8954 9 10 9.89543 10 11C10 12.1046 10.8954 13 12 13Z" fill="#5A7EFF"/>
<path d="M16.3259 12.0088C15.8647 11.9725 15.4172 12.0138 14.9972 12.1225C14.4097 12.275 13.7948 12.0488 13.426 11.5651C12.4386 10.2702 10.8636 9.44777 9.09745 9.49776C6.3563 9.57651 4.10889 11.8001 4.00389 14.5411C3.89015 17.5333 6.28256 19.9956 9.24994 19.9956H15.9997C18.2996 19.9956 20.147 18.0545 19.9908 15.7197C19.8595 13.7599 18.2833 12.165 16.3259 12.0088Z" fill="white"/>
<path fill-rule="evenodd" clip-rule="evenodd" d="M8.30148 15.6C8.38432 15.4896 8.54102 15.4672 8.65148 15.55C8.86919 15.7133 9.06785 15.7813 9.25148 15.7813C9.4351 15.7813 9.63377 15.7133 9.85148 15.55C9.96194 15.4672 10.1186 15.4896 10.2015 15.6C10.2843 15.7105 10.2619 15.8672 10.1515 15.95C9.86919 16.1617 9.56785 16.2813 9.25148 16.2813C8.9351 16.2813 8.63377 16.1617 8.35148 15.95C8.24102 15.8672 8.21864 15.7105 8.30148 15.6Z" fill="#23282E"/>
<path fill-rule="evenodd" clip-rule="evenodd" d="M6.74703 13.8326C6.8403 13.7308 6.99844 13.7239 7.10025 13.8171L7.919 14.5671C7.97069 14.6145 8.00013 14.6814 8.00013 14.7515C8.00013 14.8216 7.97069 14.8885 7.919 14.9358L7.10025 15.6858C6.99844 15.7791 6.8403 15.7721 6.74703 15.6703C6.65377 15.5685 6.6607 15.4104 6.76251 15.3171L7.38002 14.7515L6.76251 14.1858C6.6607 14.0926 6.65377 13.9344 6.74703 13.8326Z" fill="#23282E"/>
<path fill-rule="evenodd" clip-rule="evenodd" d="M6.37598 14.7515C6.37598 14.6134 6.48791 14.5015 6.62598 14.5015H7.75098C7.88905 14.5015 8.00013 14.6134 8.00013 14.7515C8.00013 14.8895 7.88905 15.0015 7.75098 15.0015H6.62598C6.48791 15.0015 6.37598 14.8896 6.37598 14.7515Z" fill="#23282E"/>
<path fill-rule="evenodd" clip-rule="evenodd" d="M11.7531 14.0382C11.8464 14.14 11.8394 14.2981 11.7376 14.3914L11.1201 14.957L11.7376 15.5227C11.8394 15.6159 11.8464 15.7741 11.7531 15.8759C11.6598 15.9777 11.5017 15.9846 11.3999 15.8914L10.5811 15.1414C10.5294 15.094 10.5 15.0271 10.5 14.957C10.5 14.8869 10.5294 14.82 10.5811 14.7727L11.3999 14.0227C11.5017 13.9294 11.6598 13.9364 11.7531 14.0382Z" fill="#23282E"/>
<path fill-rule="evenodd" clip-rule="evenodd" d="M10.5 14.957C10.5 14.819 10.6119 14.707 10.75 14.707H11.875C12.0131 14.707 12.125 14.819 12.125 14.957C12.125 15.0951 12.0131 15.207 11.875 15.207H10.75C10.6119 15.207 10.5 15.0951 10.5 14.957Z" fill="#23282E"/>
</g>
<defs>
<clipPath id="clip0_1980_35804">
<rect width="24" height="24" fill="white"/>
</clipPath>
</defs>
</svg>
