<svg width="24" height="24" viewBox="0 0 24 24" fill="none" xmlns="http://www.w3.org/2000/svg">
<g clip-path="url(#clip0_1980_35796)">
<path d="M12 24C18.6274 24 24 18.6274 24 12C24 5.37258 18.6274 0 12 0C5.37258 0 0 5.37258 0 12C0 18.6274 5.37258 24 12 24Z" fill="#FFF4CF"/>
<path d="M12 19.5C16.1421 19.5 19.5 16.1421 19.5 12C19.5 7.85786 16.1421 4.5 12 4.5C7.85786 4.5 4.5 7.85786 4.5 12C4.5 16.1421 7.85786 19.5 12 19.5Z" fill="#FFD34C"/>
<path fill-rule="evenodd" clip-rule="evenodd" d="M8.54801 9.38131C8.80753 9.28694 9.09441 9.42082 9.18878 9.68034L10.5258 13.357L11.5178 9.71965C11.5771 9.50212 11.7747 9.35121 12.0001 9.35121C12.2256 9.35121 12.4232 9.50212 12.4825 9.71965L13.4745 13.357L14.8115 9.68034C14.9059 9.42082 15.1927 9.28694 15.4523 9.38131C15.7118 9.47568 15.8457 9.76257 15.7513 10.0221L13.8763 15.1783C13.8018 15.3831 13.6034 15.516 13.3858 15.507C13.1681 15.498 12.9813 15.3492 12.924 15.139L12.0001 11.7515L11.0763 15.139C11.019 15.3492 10.8322 15.498 10.6145 15.507C10.3969 15.516 10.1984 15.3831 10.124 15.1783L8.24899 10.0221C8.15462 9.76257 8.2885 9.47568 8.54801 9.38131Z" fill="white"/>
<path fill-rule="evenodd" clip-rule="evenodd" d="M7.75 12.6636C7.75 12.3874 7.97386 12.1636 8.25 12.1636H9.65625C9.93239 12.1636 10.1562 12.3874 10.1562 12.6636C10.1562 12.9397 9.93239 13.1636 9.65625 13.1636H8.25C7.97386 13.1636 7.75 12.9397 7.75 12.6636Z" fill="white"/>
<path fill-rule="evenodd" clip-rule="evenodd" d="M13.8438 12.6636C13.8438 12.3874 14.0676 12.1636 14.3438 12.1636H15.75C16.0261 12.1636 16.25 12.3874 16.25 12.6636C16.25 12.9397 16.0261 13.1636 15.75 13.1636H14.3438C14.0676 13.1636 13.8438 12.9397 13.8438 12.6636Z" fill="white"/>
</g>
<defs>
<clipPath id="clip0_1980_35796">
<rect width="24" height="24" fill="white"/>
</clipPath>
</defs>
</svg>
