<svg width="40" height="40" viewBox="0 0 40 40" fill="none" xmlns="http://www.w3.org/2000/svg">
<g clip-path="url(#clip0_1742_47487)">
<path d="M20 40C31.0457 40 40 31.0457 40 20C40 8.9543 31.0457 0 20 0C8.9543 0 0 8.9543 0 20C0 31.0457 8.9543 40 20 40Z" fill="#DDF7A7"/>
<path d="M29.5844 26.2181L22.8965 22.8562C22.3056 22.5595 22.0669 21.8411 22.3643 21.2515L24.0783 17.8545C24.4227 17.1712 25.3189 16.9838 25.9098 17.4719L31.8306 22.3526C32.2611 22.7079 32.3903 23.3131 32.1359 23.8129L31.1889 25.6909C30.8914 26.2805 30.1714 26.5187 29.5805 26.222L29.5844 26.2181Z" fill="#8DD248"/>
<path d="M20.4582 32.9087L15.5157 30.4254C15.0774 30.2067 14.9286 29.6249 15.1791 29.1252L16.627 26.2514C16.9205 25.6735 17.6054 25.4783 18.0358 25.8571L22.3288 29.6249C22.6418 29.8983 22.7123 30.3941 22.5009 30.8119L21.6987 32.4011C21.4483 32.9009 20.8886 33.1273 20.4543 32.9048L20.4582 32.9087Z" fill="#8DD248"/>
<path d="M9.63382 27.4683L14.5763 29.9515C15.0146 30.1702 15.5703 29.9437 15.8208 29.4479L17.2687 26.5741C17.5622 25.9962 17.3078 25.3286 16.7482 25.2075L11.16 24.0088C10.753 23.9229 10.3147 24.1572 10.0995 24.5789L9.29726 26.168C9.04681 26.6678 9.19552 27.2496 9.63382 27.4683Z" fill="#8DD248"/>
<path d="M9.59281 16.1744L16.2807 19.5363C16.8716 19.833 17.5916 19.5948 17.8891 19.0052L19.6031 15.6083C19.9475 14.925 19.5679 14.0933 18.8204 13.9098L11.3655 12.0708C10.8216 11.938 10.2581 12.1957 10.0076 12.6916L9.06059 14.5697C8.76318 15.1593 9.0019 15.8777 9.59281 16.1744Z" fill="#8DD248"/>
<path d="M15.061 30.2003C13.2061 29.2671 13.1592 27.5803 14.2001 25.5187L20.5084 11.0172C21.5493 8.95955 23.9169 8.03418 25.7718 8.96736C27.6267 9.90055 28.2959 12.3487 27.2589 14.4064L19.3422 28.0996C18.3013 30.1573 16.916 31.1296 15.061 30.1964V30.2003Z" fill="white"/>
<path d="M17.4605 25.548L17.3382 25.4865C17.1104 25.3721 16.8328 25.4635 16.7181 25.6908L14.7731 29.5443C14.6584 29.7715 14.75 30.0485 14.9778 30.163L15.1002 30.2245C15.3279 30.3389 15.6056 30.2474 15.7203 30.0202L17.6653 26.1667C17.78 25.9395 17.6883 25.6624 17.4605 25.548Z" fill="#8DD248"/>
</g>
<defs>
<clipPath id="clip0_1742_47487">
<rect width="40" height="40" fill="white"/>
</clipPath>
</defs>
</svg>
