<svg width="24" height="25" viewBox="0 0 24 25" fill="none" xmlns="http://www.w3.org/2000/svg">
<g clip-path="url(#clip0_1980_35729)">
<path d="M12 24.0625C18.6274 24.0625 24 18.6899 24 12.0625C24 5.43508 18.6274 0.0625 12 0.0625C5.37258 0.0625 0 5.43508 0 12.0625C0 18.6899 5.37258 24.0625 12 24.0625Z" fill="#FF7822"/>
<path d="M12 19.5625C16.1421 19.5625 19.5 16.2046 19.5 12.0625C19.5 7.92036 16.1421 4.5625 12 4.5625C7.85786 4.5625 4.5 7.92036 4.5 12.0625C4.5 16.2046 7.85786 19.5625 12 19.5625Z" fill="white"/>
<path d="M15.0156 12.063C15.5679 12.063 16.0156 11.6153 16.0156 11.063C16.0156 10.5107 15.5679 10.063 15.0156 10.063C14.4633 10.063 14.0156 10.5107 14.0156 11.063C14.0156 11.6153 14.4633 12.063 15.0156 12.063Z" fill="#FF7822"/>
<path d="M9.01562 12.063C9.56791 12.063 10.0156 11.6153 10.0156 11.063C10.0156 10.5107 9.56791 10.063 9.01562 10.063C8.46334 10.063 8.01562 10.5107 8.01562 11.063C8.01562 11.6153 8.46334 12.063 9.01562 12.063Z" fill="#FF7822"/>
<path d="M10.0148 13.064C10.0148 13.064 10.1048 13.064 10.1548 13.084C11.3648 13.444 12.6648 13.444 13.8648 13.084C14.1348 13.004 14.4048 13.154 14.4848 13.424C14.5648 13.694 14.4148 13.964 14.1448 14.044C12.7448 14.454 11.2548 14.454 9.85484 14.044C9.59484 13.964 9.43484 13.684 9.51484 13.424C9.57484 13.204 9.77484 13.064 9.99484 13.064H10.0148Z" fill="#FF7822"/>
</g>
<defs>
<clipPath id="clip0_1980_35729">
<rect width="24" height="24" fill="white" transform="translate(0 0.0625)"/>
</clipPath>
</defs>
</svg>
