<svg width="24" height="24" viewBox="0 0 24 24" fill="none" xmlns="http://www.w3.org/2000/svg">
<g clip-path="url(#clip0_1980_35807)">
<path d="M12 24C18.6274 24 24 18.6274 24 12C24 5.37258 18.6274 0 12 0C5.37258 0 0 5.37258 0 12C0 18.6274 5.37258 24 12 24Z" fill="#FFF4CF"/>
<path d="M14.2812 6.84141L17.4224 6.28641C17.5937 6.25641 17.7424 6.40516 17.7124 6.57641L17.1587 9.71766C17.1412 9.81391 17.1824 9.91016 17.2612 9.96641L19.8737 11.7952C20.0162 11.8952 20.0162 12.1052 19.8737 12.2052L17.2612 14.0339C17.1812 14.0902 17.1412 14.1864 17.1587 14.2827L17.7137 17.4239C17.7437 17.5952 17.5949 17.7439 17.4237 17.7139L14.2824 17.1602C14.1862 17.1427 14.0899 17.1839 14.0337 17.2627L12.2049 19.8752C12.1049 20.0177 11.8949 20.0177 11.7949 19.8752L9.96619 17.2627C9.90994 17.1827 9.81369 17.1427 9.71744 17.1602L6.57619 17.7152C6.40494 17.7452 6.25619 17.5964 6.28619 17.4252L6.83994 14.2839C6.85744 14.1877 6.81619 14.0914 6.73744 14.0352L4.12494 12.2064C3.98244 12.1064 3.98244 11.8964 4.12494 11.7964L6.73744 9.96766C6.81744 9.91141 6.85744 9.81516 6.83994 9.71891L6.28494 6.57766C6.25494 6.40641 6.40369 6.25766 6.57494 6.28766L9.71619 6.84141C9.81244 6.85891 9.90869 6.81766 9.96494 6.73891L11.7937 4.12641C11.8937 3.98391 12.1037 3.98391 12.2037 4.12641L14.0324 6.73891C14.0887 6.81891 14.1849 6.85891 14.2812 6.84141Z" fill="#FFD34C"/>
<path d="M10.125 12.5C10.4011 12.5 10.625 12.2761 10.625 12C10.625 11.7239 10.4011 11.5 10.125 11.5C9.84886 11.5 9.625 11.7239 9.625 12C9.625 12.2761 9.84886 12.5 10.125 12.5Z" fill="#23282E"/>
<path d="M13.875 12.5C14.1511 12.5 14.375 12.2761 14.375 12C14.375 11.7239 14.1511 11.5 13.875 11.5C13.5989 11.5 13.375 11.7239 13.375 12C13.375 12.2761 13.5989 12.5 13.875 12.5Z" fill="#23282E"/>
<path fill-rule="evenodd" clip-rule="evenodd" d="M11.05 12.85C11.1329 12.7396 11.2896 12.7172 11.4 12.8C11.6177 12.9633 11.8164 13.0313 12 13.0313C12.1836 13.0313 12.3823 12.9633 12.6 12.8C12.7105 12.7172 12.8672 12.7396 12.95 12.85C13.0329 12.9605 13.0105 13.1172 12.9 13.2C12.6177 13.4117 12.3164 13.5313 12 13.5313C11.6836 13.5313 11.3823 13.4117 11.1 13.2C10.9896 13.1172 10.9672 12.9605 11.05 12.85Z" fill="#23282E"/>
</g>
<defs>
<clipPath id="clip0_1980_35807">
<rect width="24" height="24" fill="white"/>
</clipPath>
</defs>
</svg>
