<svg width="40" height="40" viewBox="0 0 40 40" fill="none" xmlns="http://www.w3.org/2000/svg">
<g clip-path="url(#clip0_1742_47501)">
<path d="M20 40C31.0457 40 40 31.0457 40 20C40 8.9543 31.0457 0 20 0C8.9543 0 0 8.9543 0 20C0 31.0457 8.9543 40 20 40Z" fill="#8E939A"/>
<path d="M20 32.5C26.9036 32.5 32.5 26.9036 32.5 20C32.5 13.0964 26.9036 7.5 20 7.5C13.0964 7.5 7.5 13.0964 7.5 20C7.5 26.9036 13.0964 32.5 20 32.5Z" fill="white"/>
<path d="M26.25 21.5625C27.1129 21.5625 27.8125 20.8629 27.8125 20C27.8125 19.1371 27.1129 18.4375 26.25 18.4375C25.3871 18.4375 24.6875 19.1371 24.6875 20C24.6875 20.8629 25.3871 21.5625 26.25 21.5625Z" fill="#4B5158"/>
<path d="M13.75 21.5625C14.6129 21.5625 15.3125 20.8629 15.3125 20C15.3125 19.1371 14.6129 18.4375 13.75 18.4375C12.8871 18.4375 12.1875 19.1371 12.1875 20C12.1875 20.8629 12.8871 21.5625 13.75 21.5625Z" fill="#4B5158"/>
<path d="M20 21.5625C20.8629 21.5625 21.5625 20.8629 21.5625 20C21.5625 19.1371 20.8629 18.4375 20 18.4375C19.1371 18.4375 18.4375 19.1371 18.4375 20C18.4375 20.8629 19.1371 21.5625 20 21.5625Z" fill="#4B5158"/>
</g>
<defs>
<clipPath id="clip0_1742_47501">
<rect width="40" height="40" fill="white"/>
</clipPath>
</defs>
</svg>
