<svg width="40" height="40" viewBox="0 0 40 40" fill="none" xmlns="http://www.w3.org/2000/svg">
<path d="M20 40C31.0457 40 40 31.0457 40 20C40 8.9543 31.0457 0 20 0C8.9543 0 0 8.9543 0 20C0 31.0457 8.9543 40 20 40Z" fill="#FFE6E0"/>
<path d="M20 13.7487C16.4484 6.97725 7.5 9.86012 7.5 18.5431C7.5 24.4025 15.1981 29.3936 18.5129 31.2708C19.4456 31.7986 20.5544 31.7986 21.4871 31.2708C24.8019 29.3936 32.5 24.4056 32.5 18.5431C32.5 9.86012 23.5516 6.98037 20 13.7518V13.7487Z" fill="#FF5C46"/>
<path d="M8 13H10L11 11L13 15L14 13H16" stroke="white" stroke-linecap="round" stroke-linejoin="round"/>
</svg>
