<svg width="24" height="24" viewBox="0 0 24 24" fill="none" xmlns="http://www.w3.org/2000/svg">
<g clip-path="url(#clip0_1980_35810)">
<path d="M12 24C18.6274 24 24 18.6274 24 12C24 5.37258 18.6274 0 12 0C5.37258 0 0 5.37258 0 12C0 18.6274 5.37258 24 12 24Z" fill="#FFF4CF"/>
<path d="M15.8605 6.01142L17.9004 5.65145C18.1566 5.60645 18.3803 5.82893 18.3353 6.08641L17.9754 8.12627C17.9504 8.27001 18.0104 8.415 18.1291 8.49874L19.8265 9.68616C20.0402 9.8349 20.0402 10.1511 19.8265 10.3011L18.1291 11.4885C18.0091 11.5723 17.9491 11.7173 17.9754 11.861L18.3353 13.9009C18.3803 14.1571 18.1579 14.3808 17.9004 14.3358L15.8605 13.9759C15.7168 13.9509 15.5718 14.0108 15.488 14.1296L14.3006 15.827C14.1519 16.0407 13.8357 16.0407 13.6857 15.827L12.4983 14.1296C12.4145 14.0096 12.2695 13.9496 12.1258 13.9759L10.0859 14.3358C9.82969 14.3808 9.60596 14.1583 9.65096 13.9009L10.0109 11.861C10.0359 11.7173 9.97593 11.5723 9.85719 11.4885L8.15981 10.3011C7.94608 10.1524 7.94608 9.83615 8.15981 9.68616L9.85719 8.49874C9.97718 8.415 10.0372 8.27001 10.0109 8.12627L9.65096 6.08641C9.60596 5.83018 9.82844 5.60645 10.0859 5.65145L12.1258 6.01142C12.2695 6.03642 12.4145 5.97642 12.4983 5.85768L13.6857 4.1603C13.8344 3.94657 14.1506 3.94657 14.3006 4.1603L15.488 5.85768C15.5718 5.97767 15.7168 6.03767 15.8605 6.01142Z" fill="#FFD34C"/>
<path d="M12.5796 9.65862C12.8557 9.65862 13.0795 9.43478 13.0795 9.15866C13.0795 8.88253 12.8557 8.65869 12.5796 8.65869C12.3034 8.65869 12.0796 8.88253 12.0796 9.15866C12.0796 9.43478 12.3034 9.65862 12.5796 9.65862Z" fill="#23282E"/>
<path d="M15.3291 9.65862C15.6052 9.65862 15.829 9.43478 15.829 9.15866C15.829 8.88253 15.6052 8.65869 15.3291 8.65869C15.0529 8.65869 14.8291 8.88253 14.8291 9.15866C14.8291 9.43478 15.0529 9.65862 15.3291 9.65862Z" fill="#23282E"/>
<path fill-rule="evenodd" clip-rule="evenodd" d="M12.9551 10.1582C12.9551 10.0201 13.067 9.9082 13.2051 9.9082H14.705C14.843 9.9082 14.955 10.0201 14.955 10.1582C14.955 10.2963 14.843 10.4082 14.705 10.4082H13.2051C13.067 10.4082 12.9551 10.2963 12.9551 10.1582Z" fill="#23282E"/>
<path d="M16.3255 12.0093C15.8643 11.9731 15.4168 12.0143 14.9969 12.1231C14.4094 12.2756 13.7944 12.0493 13.4257 11.5656C12.4383 10.2707 10.8634 9.44826 9.09728 9.49825C6.35623 9.57575 4.10764 11.8006 4.00389 14.5404C3.89015 17.5327 6.28248 19.995 9.24977 19.995H15.9993C18.2991 19.995 20.1465 18.0526 19.9903 15.7191C19.859 13.7592 18.2829 12.1643 16.3255 12.0081V12.0093Z" fill="white"/>
<path d="M16.3255 12.0074C15.8643 11.9711 15.4168 12.0124 14.9969 12.1211C14.4094 12.2736 13.7944 12.0474 13.4257 11.5637C12.4383 10.2687 10.8634 9.4463 9.09728 9.4963C6.35623 9.57379 4.10764 11.7986 4.00389 14.5384C3.89015 17.5307 6.28248 19.9931 9.24977 19.9931H15.9993C18.2991 19.9931 20.1465 18.0507 19.9903 15.7171C19.859 13.7572 18.2829 12.1624 16.3255 12.0061V12.0074Z" fill="white"/>
<path d="M7.37496 15.248C7.65109 15.248 7.87493 15.0241 7.87493 14.748C7.87493 14.4719 7.65109 14.248 7.37496 14.248C7.09884 14.248 6.875 14.4719 6.875 14.748C6.875 15.0241 7.09884 15.248 7.37496 15.248Z" fill="#23282E"/>
<path d="M11.125 15.248C11.4011 15.248 11.6249 15.0241 11.6249 14.748C11.6249 14.4719 11.4011 14.248 11.125 14.248C10.8488 14.248 10.625 14.4719 10.625 14.748C10.625 15.0241 10.8488 15.248 11.125 15.248Z" fill="#23282E"/>
<path fill-rule="evenodd" clip-rule="evenodd" d="M8.25195 15.748C8.25195 15.61 8.36388 15.498 8.50195 15.498H10.0018C10.1399 15.498 10.2518 15.61 10.2518 15.748C10.2518 15.8861 10.1399 15.998 10.0018 15.998H8.50195C8.36388 15.998 8.25195 15.8861 8.25195 15.748Z" fill="#23282E"/>
</g>
<defs>
<clipPath id="clip0_1980_35810">
<rect width="24" height="24" fill="white"/>
</clipPath>
</defs>
</svg>
