<svg width="40" height="40" viewBox="0 0 40 40" fill="none" xmlns="http://www.w3.org/2000/svg">
<g clip-path="url(#clip0_1742_47477)">
<path d="M20 40C31.0457 40 40 31.0457 40 20C40 8.9543 31.0457 0 20 0C8.9543 0 0 8.9543 0 20C0 31.0457 8.9543 40 20 40Z" fill="#D8F8FF"/>
<path d="M16.6673 29.9997C16.6673 29.0792 15.9211 28.333 15.0007 28.333C14.0802 28.333 13.334 29.0792 13.334 29.9997C13.334 30.9201 14.0802 31.6663 15.0007 31.6663C15.9211 31.6663 16.6673 30.9201 16.6673 29.9997Z" fill="#5A7EFF"/>
<path d="M26.6673 29.9997C26.6673 29.0792 25.9211 28.333 25.0007 28.333C24.0802 28.333 23.334 29.0792 23.334 29.9997C23.334 30.9201 24.0802 31.6663 25.0007 31.6663C25.9211 31.6663 26.6673 30.9201 26.6673 29.9997Z" fill="#5A7EFF"/>
<path d="M16.6667 8.33301H23.3333C27.0167 8.33301 30 11.3163 30 14.9997V23.333H10V14.9997C10 11.3163 12.9833 8.33301 16.6667 8.33301Z" fill="#5A7EFF"/>
<path d="M26.6667 20V25H13.3333V20H10V28.3333C10 29.25 10.75 30 11.6667 30H28.3333C29.25 30 30 29.25 30 28.3333V20H26.6667Z" fill="#87CDFF"/>
<path d="M10.0003 23.3327C11.8413 23.3327 13.3337 21.8403 13.3337 19.9993C13.3337 18.1584 11.8413 16.666 10.0003 16.666C8.15938 16.666 6.66699 18.1584 6.66699 19.9993C6.66699 21.8403 8.15938 23.3327 10.0003 23.3327Z" fill="#87CDFF"/>
<path d="M30.0003 23.3327C31.8413 23.3327 33.3337 21.8403 33.3337 19.9993C33.3337 18.1584 31.8413 16.666 30.0003 16.666C28.1594 16.666 26.667 18.1584 26.667 19.9993C26.667 21.8403 28.1594 23.3327 30.0003 23.3327Z" fill="#87CDFF"/>
<path d="M15.0007 21.666H25.0007C25.9173 21.666 26.6673 22.416 26.6673 23.3327V24.9993H13.334V23.3327C13.334 22.416 14.084 21.666 15.0007 21.666Z" fill="white"/>
</g>
<defs>
<clipPath id="clip0_1742_47477">
<rect width="40" height="40" fill="white"/>
</clipPath>
</defs>
</svg>
