<svg width="40" height="40" viewBox="0 0 40 40" fill="none" xmlns="http://www.w3.org/2000/svg">
<g clip-path="url(#clip0_1742_47491)">
<path d="M20 40C31.0457 40 40 31.0457 40 20C40 8.9543 31.0457 0 20 0C8.9543 0 0 8.9543 0 20C0 31.0457 8.9543 40 20 40Z" fill="#FFE6E0"/>
<path d="M31.7188 14.8271H8.28125C7.84978 14.8271 7.5 15.1769 7.5 15.6084V18.7334C7.5 19.1649 7.84978 19.5146 8.28125 19.5146H31.7188C32.1502 19.5146 32.5 19.1649 32.5 18.7334V15.6084C32.5 15.1769 32.1502 14.8271 31.7188 14.8271Z" fill="white"/>
<path d="M9.0625 19.5146H30.9375V28.8896C30.9375 29.749 30.2344 30.4521 29.375 30.4521H10.625C9.76562 30.4521 9.0625 29.749 9.0625 28.8896V19.5146Z" fill="#FFA794"/>
<path d="M23.125 11.7021H16.875V30.4521H23.125V11.7021Z" fill="#FF5C46"/>
<path d="M16.875 14.8263H10.625V11.1075C10.625 9.95128 11.8437 9.18565 12.8906 9.7169L16.875 11.7169V14.8419V14.8263Z" fill="#FF5C46"/>
<path d="M23.125 14.8263H29.375V11.1075C29.375 9.95128 28.1563 9.18565 27.1094 9.7169L23.125 11.7169V14.8419V14.8263Z" fill="#FF5C46"/>
</g>
<defs>
<clipPath id="clip0_1742_47491">
<rect width="40" height="40" fill="white"/>
</clipPath>
</defs>
</svg>
