<svg width="40" height="40" viewBox="0 0 40 40" fill="none" xmlns="http://www.w3.org/2000/svg">
<g clip-path="url(#clip0_1742_47499)">
<path d="M20 40C31.0457 40 40 31.0457 40 20C40 8.9543 31.0457 0 20 0C8.9543 0 0 8.9543 0 20C0 31.0457 8.9543 40 20 40Z" fill="#FFF4CF"/>
<path d="M19.9997 33.3333C20.9201 33.3333 21.6663 32.5871 21.6663 31.6667C21.6663 30.7462 20.9201 30 19.9997 30C19.0792 30 18.333 30.7462 18.333 31.6667C18.333 32.5871 19.0792 33.3333 19.9997 33.3333Z" fill="white"/>
<path d="M25.0078 26.667H14.9915C14.0756 26.667 13.333 27.4095 13.333 28.3255V28.3418C13.333 29.2578 14.0756 30.0003 14.9915 30.0003H25.0078C25.9238 30.0003 26.6663 29.2578 26.6663 28.3418V28.3255C26.6663 27.4095 25.9238 26.667 25.0078 26.667Z" fill="#FFA723"/>
<path d="M25.1119 21.6563C27.9351 21.6563 30.2237 19.3677 30.2237 16.5445C30.2237 13.7213 27.9351 11.4326 25.1119 11.4326C22.2887 11.4326 20 13.7213 20 16.5445C20 19.3677 22.2887 21.6563 25.1119 21.6563Z" fill="#FFD34C"/>
<path d="M14.8902 21.6563C17.7134 21.6563 20.002 19.3677 20.002 16.5445C20.002 13.7213 17.7134 11.4326 14.8902 11.4326C12.067 11.4326 9.77832 13.7213 9.77832 16.5445C9.77832 19.3677 12.067 21.6563 14.8902 21.6563Z" fill="#FFD34C"/>
<path d="M19.9976 19.9405C22.8208 19.9405 25.1095 17.6519 25.1095 14.8287C25.1095 12.0055 22.8208 9.7168 19.9976 9.7168C17.1744 9.7168 14.8857 12.0055 14.8857 14.8287C14.8857 17.6519 17.1744 19.9405 19.9976 19.9405Z" fill="#FFD34C"/>
<path d="M24.6006 28.4804H15.3838C11.1499 28.4804 7.85695 25.0003 8.27511 20.9708L8.30995 20.6378C8.85007 15.4093 13.4672 11.4131 18.973 11.4131H21.0115C26.5172 11.4131 31.1343 15.3927 31.6745 20.6378L31.7093 20.9708C32.1275 24.9837 28.8345 28.4804 24.6006 28.4804Z" fill="#FFD34C"/>
<path d="M16.6667 21.6663C17.5871 21.6663 18.3333 20.9201 18.3333 19.9997C18.3333 19.0792 17.5871 18.333 16.6667 18.333C15.7462 18.333 15 19.0792 15 19.9997C15 20.9201 15.7462 21.6663 16.6667 21.6663Z" fill="#FFA723"/>
<path d="M23.3337 21.6663C24.2541 21.6663 25.0003 20.9201 25.0003 19.9997C25.0003 19.0792 24.2541 18.333 23.3337 18.333C22.4132 18.333 21.667 19.0792 21.667 19.9997C21.667 20.9201 22.4132 21.6663 23.3337 21.6663Z" fill="#FFA723"/>
<path d="M19.9915 23.3229C20.4518 23.3229 20.8249 22.9498 20.8249 22.4896C20.8249 22.0293 20.4518 21.6562 19.9915 21.6562C19.5313 21.6562 19.1582 22.0293 19.1582 22.4896C19.1582 22.9498 19.5313 23.3229 19.9915 23.3229Z" fill="#FFA723"/>
<path d="M10.4139 21.6663H6.8325C5.67433 21.6663 4.81907 20.7061 5.03288 19.6644L6.11978 14.6676C6.29796 13.8864 7.04632 13.333 7.9194 13.333H11.5008C12.659 13.333 13.5143 14.2933 13.3004 15.335L12.2135 20.3317C12.0354 21.113 11.287 21.6663 10.4139 21.6663Z" fill="#FFD34C"/>
<path d="M29.5864 21.6663H33.1678C34.326 21.6663 35.1813 20.7061 34.9674 19.6644L33.8805 14.6676C33.7024 13.8864 32.954 13.333 32.0809 13.333H28.4995C27.3413 13.333 26.4861 14.2933 26.6999 15.335L27.7868 20.3317C27.965 21.113 28.7133 21.6663 29.5864 21.6663Z" fill="#FFD34C"/>
</g>
<defs>
<clipPath id="clip0_1742_47499">
<rect width="40" height="40" fill="white"/>
</clipPath>
</defs>
</svg>
