<svg width="40" height="40" viewBox="0 0 40 40" fill="none" xmlns="http://www.w3.org/2000/svg">
<path d="M20 40C31.0457 40 40 31.0457 40 20C40 8.9543 31.0457 0 20 0C8.9543 0 0 8.9543 0 20C0 31.0457 8.9543 40 20 40Z" fill="#D8F8FF"/>
<path d="M25.54 12.9975H25.5824L26.6353 9.46322C26.8024 8.90218 26.3913 8.33301 25.8158 8.33301H14.1889C13.6134 8.33301 13.2023 8.90218 13.3694 9.46322L14.4223 12.9975H14.4647C10.7332 15.2932 8.33301 18.7787 8.33301 23.6898C8.33301 29.4845 13.4383 31.6663 19.9997 31.6663C26.561 31.6663 31.6663 29.4845 31.6663 23.6898C31.6663 18.7787 29.2662 15.2959 25.5346 12.9975H25.54Z" fill="#5A7EFF"/>
<path d="M24.7331 22.6899C24.7331 22.8498 24.6695 22.9961 24.566 23.0991C24.4626 23.2048 24.322 23.2699 24.1656 23.2699H22.6751L22.0465 25.6685C22.0465 25.6685 22.0386 25.6848 22.0386 25.6929C22.0333 25.7119 22.0253 25.7309 22.0174 25.7471C22.012 25.7607 22.0041 25.7769 21.9988 25.7905C21.9855 25.8149 21.9696 25.8366 21.9564 25.861C21.9537 25.8664 21.9484 25.8745 21.9431 25.8799C21.8688 25.9748 21.7681 26.0507 21.6434 26.0832C21.3437 26.1672 21.0308 25.9829 20.9486 25.6739L20.3173 23.2699L20.0124 22.1098L20.0044 22.0827L19.9964 22.1098L19.6914 23.2699L19.0629 25.6712C19.0629 25.6712 19.0549 25.6875 19.0549 25.6956C19.0496 25.7146 19.0417 25.7336 19.0337 25.7498C19.0258 25.7661 19.0205 25.7796 19.0152 25.7932C19.0019 25.8176 18.9886 25.8393 18.9727 25.8637C18.9701 25.8691 18.9648 25.8772 18.9595 25.8826C18.8852 25.9775 18.7844 26.0534 18.6598 26.0859C18.3601 26.1699 18.0471 25.9856 17.9649 25.6767L17.3337 23.2699H15.8459C15.5356 23.2699 15.2783 23.0097 15.2783 22.6899C15.2783 22.37 15.5329 22.1098 15.8459 22.1098H17.0314L16.4797 20.012C16.4002 19.7031 16.5805 19.3859 16.8802 19.3019C17.1825 19.2206 17.4928 19.4049 17.5751 19.7112L18.2036 22.1098L18.5086 23.2699V23.2861L18.5166 23.2699L18.8215 22.1098L19.4528 19.7058C19.527 19.4212 19.7975 19.245 20.076 19.2857C20.084 19.2857 20.0919 19.2857 20.0999 19.2884C20.1158 19.2911 20.1317 19.2911 20.1476 19.2965C20.1582 19.2992 20.1662 19.3046 20.1741 19.3073C20.1927 19.3155 20.2086 19.3209 20.2272 19.329C20.2404 19.3345 20.2563 19.3399 20.267 19.348C20.4049 19.4212 20.5136 19.5459 20.556 19.7112L21.1846 22.1126L21.4896 23.2726V23.2861L21.4975 23.2726L21.8025 22.1126L22.4337 19.7058C22.5133 19.3995 22.8263 19.2125 23.1286 19.2965C23.4309 19.3805 23.6113 19.7003 23.5291 20.0066L22.9774 22.1126H24.1629C24.4732 22.1126 24.7305 22.3727 24.7305 22.6926L24.7331 22.6899Z" fill="white"/>
<path d="M25.9362 12.6777H14.068C13.901 12.6777 13.7656 12.8155 13.7656 12.9854C13.7656 13.1553 13.901 13.293 14.068 13.293H25.9362C26.1032 13.293 26.2385 13.1553 26.2385 12.9854C26.2385 12.8155 26.1032 12.6777 25.9362 12.6777Z" fill="white"/>
</svg>
