<svg width="95" height="108" viewBox="0 0 95 108" fill="none" xmlns="http://www.w3.org/2000/svg">
<g id="Layer_2" clip-path="url(#clip0_2089_25037)">
<g id="Group 1000011847">
<g id="Group 1000011848">
<path id="Vector" d="M3.89716 99.9263C2.71846 100.224 2.07579 101.662 2.44088 102.808C2.80598 103.954 3.96416 104.738 5.16611 104.921C6.36805 105.104 7.59871 104.771 8.6981 104.254C9.54862 103.853 10.3718 103.315 10.8668 102.522C11.3618 101.729 11.4507 100.637 10.8832 99.8926C10.1325 98.9063 8.48205 98.9455 7.55769 99.7737C6.63333 100.602 6.36668 101.966 6.56769 103.184C6.92595 105.354 8.69947 107.228 10.8668 107.726C13.0341 108.225 15.4626 107.318 16.7548 105.529" stroke="#F6A284" stroke-width="1.6895" stroke-linecap="round" stroke-linejoin="round"/>
<path id="Vector_2" d="M29.6356 73.0385L31.7482 84.0997L22.5593 89.3175C6.35701 88.6447 0.240633 80.7869 0.00270563 69.8621C-0.140871 63.2527 6.357 56.5824 10.4879 57.1485C13.6302 57.5781 16.3171 55.2948 19.082 56.8297C21.5939 58.224 21.4613 64.0471 21.2822 69.1568L29.6356 73.0371V73.0385Z" fill="#FFD0BD"/>
<path id="Vector_3" d="M45.6891 131C45.6891 131 60.4898 129.91 63.628 113.545C68.7886 86.6447 58.3649 77.2817 58.3649 77.2817L48.6318 75.932L37.0376 74.3242L25.3696 76.667C25.3696 76.667 13.543 83.6304 13.0589 102.52C12.3014 120.466 20.0518 122.767 20.0518 122.767L45.6891 131Z" fill="#FFD0BD"/>
<path id="Vector_4" d="M43.3055 0.635969C36.6845 6.147 12.2546 28.6518 39.6367 40.1738C44.7508 42.326 50.7674 42.2139 55.3769 39.1442C76.5373 25.058 53.8057 5.04857 46.5421 0.429255C45.5343 -0.211153 44.2216 -0.128738 43.3055 0.634618V0.635969Z" fill="#FFD0BD"/>
<path id="Vector_5" d="M43.3889 0.642802C44.0111 0.125341 44.8137 -0.0786708 45.5822 0.0429258C46.0252 0.248289 54.8791 8.28042 54.5687 16.9935C44.8301 15.4951 35.6699 16.272 28.1164 19.8361C31.1794 11.4284 39.8405 3.5949 43.3889 0.641451V0.642802Z" fill="#F6A284"/>
<g id="Group">
<path id="Vector_6" d="M84.3772 13.1012C87.03 19.6553 95.9659 45.4175 71.5005 43.295C66.9306 42.8978 62.8243 40.3794 60.445 36.5031C47.7761 15.8588 74.9955 12.2838 82.1005 11.7096C83.0864 11.6299 84.0094 12.1947 84.3759 13.1012H84.3772Z" fill="#FFD0BD"/>
<path id="Vector_7" d="M84.3773 13.1005C84.1284 12.4858 83.6224 12.0278 83.0167 11.8224C82.6133 11.8021 73.0087 14.2503 69.809 20.7124C77.4883 23.3606 83.8508 27.4421 87.9489 32.937C89.025 25.6398 85.7993 16.6119 84.3786 13.1005H84.3773Z" fill="#F6A284"/>
</g>
<path id="Vector_8" d="M94.2041 61.5884C93.9648 62.8165 93.6736 63.9879 93.3345 65.1038C90.8759 73.2089 85.8753 78.4268 79.2024 81.4181C70.1666 85.4659 58.0638 85.4307 45.0516 82.9475C21.1044 78.3768 3.14222 67.248 7.48371 45.0404C12.2573 20.6184 33.8089 13.3807 57.7561 17.9514C81.7034 22.5207 98.9777 37.1664 94.2041 61.5884Z" fill="#FFD0BD"/>
<g id="Group_2">
<path id="Vector_9" d="M69.375 62.5634C70.3431 57.6104 67.8818 52.9748 56.8031 50.8604C45.7244 48.746 41.6933 52.1426 40.7252 57.0956C39.7571 62.0486 42.2184 66.6842 53.2971 68.7986C64.3757 70.913 68.4068 67.5164 69.3763 62.5634H69.375Z" fill="#FFB399"/>
<g id="Group_3">
<path id="Vector_10" d="M50.9357 59.5374C50.6143 61.1816 50.3532 62.5151 49.1034 62.276C47.8536 62.0368 48.1134 60.7047 48.4347 59.0604C48.756 57.4162 49.0172 56.0827 50.267 56.3218C51.5168 56.5609 51.257 57.8931 50.9357 59.5374Z" fill="#DD624E"/>
<path id="Vector_11" d="M61.1818 61.4924C60.8605 63.1367 60.5993 64.4702 59.3495 64.2311C58.0997 63.9919 58.3595 62.6598 58.6808 61.0155C59.0022 59.3712 59.2633 58.0377 60.5131 58.2769C61.7629 58.516 61.5031 59.8482 61.1818 61.4924Z" fill="#DD624E"/>
</g>
</g>
<path id="Vector_12" d="M40.8377 45.6306C42.5792 45.6306 43.9909 44.2357 43.9909 42.515C43.9909 40.7943 42.5792 39.3994 40.8377 39.3994C39.0963 39.3994 37.6845 40.7943 37.6845 42.515C37.6845 44.2357 39.0963 45.6306 40.8377 45.6306Z" fill="#25282D"/>
<path id="Vector_13" d="M25.3698 65.3137C31.2324 65.3137 35.985 60.6179 35.985 54.8253C35.985 49.0327 31.2324 44.3369 25.3698 44.3369C19.5073 44.3369 14.7547 49.0327 14.7547 54.8253C14.7547 60.6179 19.5073 65.3137 25.3698 65.3137Z" fill="#FFB399"/>
<path id="Vector_14" d="M93.3344 65.1039C90.8759 73.209 85.8753 78.4268 79.2024 81.4181C74.0131 79.5009 70.8298 74.1102 71.9141 68.5559C73.1256 62.3612 79.1901 58.3094 85.4596 59.5051C88.9232 60.1658 91.7236 62.2896 93.3344 65.1039Z" fill="#FFB399"/>
<path id="Vector_15" d="M40.8076 81.4189C42.5538 82.6808 44.6459 83.5739 46.9664 83.9495C49.2868 84.3251 51.5581 84.1346 53.6201 83.4874" stroke="#F29373" stroke-width="1.79103" stroke-miterlimit="10" stroke-linecap="round"/>
<path id="Vector_16" d="M70.3743 50.0184C72.7071 49.7374 74.1278 49.6077 76.8175 49.2402" stroke="#25282D" stroke-width="2.38804" stroke-miterlimit="10" stroke-linecap="round"/>
<path id="Vector_17" d="M70.351 50.1484C72.0137 51.7913 72.9914 52.8155 74.9399 54.6826" stroke="#25282D" stroke-width="2.38804" stroke-miterlimit="10" stroke-linecap="round"/>
<path id="Vector_18" d="M41.1356 118.799C52.7093 121.444 55.5726 114.647 57.5225 106.929C57.6538 106.411 57.4733 105.807 57.0343 105.703C52.8323 104.712 49.0528 103.969 44.8221 102.953C39.708 101.726 36.12 100.862 32.1928 100.024C31.7511 99.9295 31.3218 100.392 31.2083 100.914C29.5305 108.694 29.5619 116.153 41.1356 118.799Z" fill="#FFB399"/>
<path id="Vector_19" d="M8.63404 77.7333C8.63404 77.7333 21.6995 78.1441 22.0564 67.934C22.2342 62.8283 19.7701 60.1586 17.261 58.7643C14.4988 57.2295 11.187 57.0457 8.19921 58.0874C4.85592 59.2534 0.651171 62.0339 0.794748 68.6366C0.794748 68.6366 1.62476 76.8862 8.63404 77.732V77.7333Z" fill="#FFD0BD"/>
<path id="Vector_20" d="M66.8135 105.812C66.8327 106.265 66.8614 106.716 66.9434 107.16C67.8691 112.174 74.7048 113.912 78.9697 112.415C80.6803 111.815 82.1489 110.691 83.1813 109.217C89.8856 99.6484 76.8489 88.6669 76.8489 88.6669C76.8489 88.6669 68.0045 79.2607 64.6339 78.0326C61.2619 76.8058 50.9161 88.3669 50.9161 88.3669C53.5484 90.0436 56.0658 91.9365 58.4546 93.9347C60.2008 95.3952 61.8881 96.9422 63.3923 98.6486C64.8021 100.25 66.54 102.286 66.7438 104.458C66.7862 104.907 66.7944 105.359 66.8135 105.811V105.812Z" fill="#FFD0BD"/>
<path id="Vector_21" d="M8.78001 77.147C8.78001 77.147 21.8578 77.5577 22.2133 67.3382C22.3911 62.2285 19.9243 59.556 17.4138 58.1617C14.6489 56.6256 11.3343 56.4418 8.34381 57.4849" stroke="#F29373" stroke-width="1.79103" stroke-miterlimit="10" stroke-linecap="round"/>
<path id="Vector_22" d="M38.5482 57.1621C38.752 56.1434 39.0514 55.1733 39.4603 54.2681C40.9781 50.9093 44.0219 48.4477 49.4956 47.7789C50.5348 47.6532 51.6616 47.5911 52.8813 47.6005C49.7486 52.5495 44.588 56.1164 38.5482 57.1621Z" fill="#FFB399"/>
<path id="Vector_23" d="M40.8069 46.3328C43.4297 46.3328 45.5559 44.232 45.5559 41.6405C45.5559 39.049 43.4297 36.9482 40.8069 36.9482C38.1841 36.9482 36.058 39.049 36.058 41.6405C36.058 44.232 38.1841 46.3328 40.8069 46.3328Z" fill="#25282D"/>
<path id="Vector_24" d="M38.1146 55.0534C38.0886 55.6182 38.0189 56.1883 37.9082 56.7598C37.8794 56.903 37.848 57.0463 37.8152 57.1881C34.8329 56.9125 32.0707 55.8911 29.7229 54.3117C27.9084 53.093 26.3413 51.542 25.1093 49.7491C23.7446 47.763 22.7929 45.477 22.3731 43.0154C23.0637 42.8032 23.7761 42.6506 24.5049 42.5641C25.7315 42.4155 27.0018 42.4506 28.2803 42.6952C34.2928 43.8422 38.4059 49.183 38.1133 55.0548L38.1146 55.0534Z" fill="#FFB399"/>
<path id="Vector_25" opacity="0.4" d="M36.6166 55.7393C43.9254 55.7393 49.8503 49.8851 49.8503 42.6636C49.8503 35.4421 43.9254 29.5879 36.6166 29.5879C29.3079 29.5879 23.383 35.4421 23.383 42.6636C23.383 49.8851 29.3079 55.7393 36.6166 55.7393Z" fill="#E2E2E2"/>
</g>
<g id="Group 1000011849">
<path id="Vector_26" d="M66.9841 88.3345L58.2456 81.4559C57.9689 81.2373 57.9186 80.8323 58.1324 80.5494L65.4187 71.0286C65.6324 70.7522 66.0222 70.7008 66.2988 70.9129L74.5344 77.393C75.0877 77.8301 75.1882 78.6401 74.7607 79.2059L67.8705 88.2124C67.6568 88.4888 67.267 88.5402 66.9904 88.3281L66.9841 88.3345Z" fill="#E4E9EF"/>
<path id="Vector_27" d="M55.6027 72.761L67.0768 77.6827C67.726 77.9612 68.0345 78.7324 67.7622 79.3966L63.3567 90.1434C63.2205 90.4754 62.8436 90.6332 62.5189 90.4939L50.4547 85.319C50.13 85.1798 49.9758 84.7942 50.1119 84.4621L54.765 73.1116C54.9011 72.7795 55.2781 72.6217 55.6027 72.761Z" fill="#8DD248"/>
<path id="Vector_28" d="M67.132 79.9784H49.3846C48.7717 79.9784 48.2609 80.4433 48.2337 81.039L47.001 108.791C46.9738 109.42 47.4982 109.943 48.1519 109.943H75.8491C76.4824 109.943 77 109.446 77 108.837V81.7854C77 80.7117 76.1419 79.8082 75.025 79.7428C73.9082 79.6773 72.4984 79.6707 69.9719 79.8148C69.6382 79.8344 69.1274 79.8802 68.4804 79.9326C68.0378 79.9654 67.5883 79.985 67.1388 79.985L67.132 79.9784Z" fill="#BD9B72"/>
<path id="Vector_29" d="M48.5861 80.752C48.5861 80.752 47.3738 87.1221 48.4362 91.4561L51.4736 89.2629L48.5861 80.752Z" fill="#BD9B72"/>
<path id="Vector_30" d="M66.748 95.6446C66.748 95.905 66.6505 96.1424 66.4957 96.3127C66.3409 96.4829 66.1276 96.5902 65.8909 96.5902H63.6357L62.6836 100.499C62.681 100.513 62.6732 100.524 62.6706 100.536C62.6628 100.567 62.6524 100.596 62.6394 100.626C62.6316 100.649 62.6212 100.674 62.6108 100.699C62.5926 100.739 62.5692 100.775 62.5445 100.812C62.5393 100.82 62.5315 100.832 62.5263 100.84C62.4157 100.996 62.2609 101.118 62.0737 101.174C61.6185 101.31 61.145 101.009 61.0241 100.509L60.0681 96.5916L59.6077 94.7018L59.5973 94.6561L59.5869 94.7018L59.1265 96.5916L58.1744 100.503C58.1718 100.517 58.164 100.529 58.1614 100.54C58.1536 100.571 58.1406 100.6 58.1302 100.63C58.1198 100.656 58.112 100.679 58.1016 100.703C58.0808 100.743 58.06 100.779 58.0353 100.816C58.0301 100.825 58.0223 100.836 58.0171 100.845C57.9065 101.001 57.7518 101.122 57.5645 101.178C57.1093 101.314 56.6358 101.014 56.5149 100.513L55.5602 96.5931H53.3076C52.8368 96.5931 52.4492 96.1682 52.4492 95.646C52.4492 95.1239 52.8355 94.7018 53.3076 94.7018H55.0998L54.2661 91.2828C54.1452 90.7792 54.4183 90.2614 54.8735 90.1255C55.3313 89.9924 55.8021 90.2928 55.9257 90.7935L56.8777 94.7018L57.3382 96.5916L57.3434 96.6174L57.3486 96.5916L57.809 94.7018L58.7636 90.785C58.8768 90.3214 59.2878 90.0353 59.7079 90.0983C59.7209 90.0983 59.7313 90.1011 59.7417 90.104C59.7651 90.1097 59.7885 90.1097 59.8132 90.1154C59.8288 90.1212 59.8418 90.1297 59.8548 90.1326C59.8808 90.1441 59.9082 90.1555 59.9342 90.1669C59.955 90.1755 59.9758 90.1841 59.9953 90.1956C60.2034 90.3143 60.3686 90.5203 60.4349 90.7892L61.3869 94.7004L61.8474 96.5902L61.8526 96.6102L61.8578 96.5902L62.3182 94.7004L63.2741 90.7807C63.3951 90.28 63.8685 89.9795 64.3237 90.1126C64.7815 90.2485 65.0559 90.7692 64.9311 91.2699L64.0974 94.7004H65.8922C66.3631 94.7004 66.7506 95.1253 66.7506 95.6446H66.748Z" fill="#9F7249"/>
<path id="Vector_31" d="M72.0656 84.4502C72.0656 84.4502 70.833 93.4194 72.0656 97.6552C73.2983 101.885 71.5208 106.12 71.5208 106.12" stroke="#9F7249" stroke-width="1.5" stroke-linecap="round" stroke-linejoin="round"/>
</g>
<g id="Group_4">
<path id="Vector_32" d="M25.4696 57.5114L21.5817 53.6699L14.7525 60.4176L18.6404 64.2591L25.4696 57.5114Z" fill="#D6D6D6"/>
<path id="Vector_33" d="M27.7789 54.5111L24.5872 51.3575C24.0233 50.8003 23.109 50.8003 22.5451 51.3575L20.1646 53.7096C19.6007 54.2667 19.6007 55.1701 20.1646 55.7273L23.3563 58.8809C23.9203 59.4381 24.8345 59.4381 25.3984 58.8809L27.7789 56.5288C28.3428 55.9716 28.3428 55.0683 27.7789 54.5111Z" fill="#978D85"/>
<path id="Vector_34" d="M36.6129 57.5975C44.9721 57.5975 51.7486 50.902 51.7486 42.6425C51.7486 34.3831 44.9721 27.6875 36.6129 27.6875C28.2537 27.6875 21.4772 34.3831 21.4772 42.6425C21.4772 50.902 28.2537 57.5975 36.6129 57.5975Z" stroke="#666465" stroke-width="4.32832" stroke-miterlimit="10"/>
</g>
<g id="&#237;&#131;&#144;&#236;&#160;&#149;&#235;&#170;&#168;&#236;&#158;&#144;">
<g id="&#235;&#170;&#168;&#236;&#158;&#144;&#236;&#186;&#161;">
<g id="Group_5">
<path id="Vector_35" d="M77.3522 26.8164C77.4541 26.4716 77.4742 26.1226 77.4326 25.7807C77.4297 25.7495 77.4254 25.7169 77.4225 25.6857C77.4225 25.6772 77.4197 25.6687 77.4182 25.6601C77.3293 24.9551 77.0078 24.2485 76.5156 23.5576C76.0564 22.9121 75.7608 22.1673 75.712 21.3799L75.5714 19.1569C75.5513 18.8306 75.4666 18.5071 75.2944 18.2262C74.7864 17.3977 73.8665 16.6202 72.763 15.918L72.1459 28.0024C72.5018 28.2932 72.9266 28.5273 73.4116 28.6664C74.9529 29.109 76.5185 28.4975 77.1585 27.2831C77.2087 27.2079 77.2532 27.1242 77.2862 27.0278C77.2977 26.9937 77.302 26.9597 77.312 26.9256C77.325 26.8887 77.3407 26.8533 77.3522 26.815V26.8164Z" fill="#824B2C"/>
<path id="Vector_36" d="M53.5062 12.435L51.8617 14.5304C51.3551 15.1759 50.6605 15.6413 49.8813 15.9165C48.5711 16.3804 47.6326 17.0798 47.3456 18.0871C47.3341 18.1183 47.3212 18.1495 47.3126 18.1807C46.8649 19.7001 47.9053 21.3359 49.6331 21.8324C50.1167 21.9715 50.6017 22.0013 51.0609 21.9459L57.1311 11.3525C55.564 11.3653 54.2252 11.6576 53.5062 12.435Z" fill="#824B2C"/>
<g id="Group_6">
<path id="Vector_37" d="M65.4452 11.5282C65.8111 13.1143 65.2357 13.5627 64.4392 13.7414C63.6428 13.9202 62.9052 13.6634 62.5637 12.1766C62.324 11.1339 62.7732 10.1422 63.5696 9.96343C64.3661 9.78467 65.2056 10.4841 65.4452 11.5282Z" fill="#824B2C"/>
<path id="Vector_38" d="M65.7873 11.6274C64.6177 12.7723 64.8617 13.4561 65.4357 14.0293C66.0097 14.6025 66.7717 14.777 67.868 13.703C68.6372 12.9497 68.7936 11.8743 68.2196 11.3011C67.6456 10.728 66.5564 10.8741 65.7873 11.6274Z" fill="#824B2C"/>
</g>
<path id="Vector_39" d="M65.2539 14.0203C65.9268 14.0203 66.4722 13.481 66.4722 12.8158C66.4722 12.1506 65.9268 11.6113 65.2539 11.6113C64.581 11.6113 64.0356 12.1506 64.0356 12.8158C64.0356 13.481 64.581 14.0203 65.2539 14.0203Z" fill="#AC7147"/>
<g id="Clip path group">
<mask id="mask0_2089_25037" style="mask-type:luminance" maskUnits="userSpaceOnUse" x="49" y="11" width="26" height="20">
<g id="clippath">
<path id="Vector_40" d="M73.88 27.7412C74.2287 26.4005 74.4482 24.7421 74.5085 22.7034C74.5458 21.4535 74.5114 18.2146 72.8109 15.9376V15.9348C72.8109 15.9348 72.808 15.9334 72.8066 15.932C72.1005 14.9885 71.1104 14.2097 69.7155 13.8082C69.1042 13.6323 68.4886 13.5642 67.8801 13.5798C66.9646 13.2393 66.1136 12.9641 65.4291 12.7669C64.6283 12.537 63.6109 12.2689 62.5059 12.0291C62.0065 11.6986 61.454 11.4333 60.8513 11.2602C59.5081 10.8743 58.2898 10.9807 57.2121 11.3666C57.2021 11.3666 57.1906 11.3666 57.1791 11.3666L57.1691 11.3836C54.4511 12.3781 52.6344 15.1418 51.9814 16.2285C50.9209 17.9905 50.2049 19.5099 49.7729 20.8321C49.5218 21.6011 49.3682 22.3019 49.2993 22.9417C50.9726 24.132 57.5508 23.8454 63.0598 25.6841C66.0318 26.6757 69.8633 29.7174 72.366 30.9815C72.996 30.2083 73.5097 29.1528 73.8771 27.7426L73.88 27.7412Z" fill="white"/>
</g>
</mask>
<g mask="url(#mask0_2089_25037)">
<g id="Group_7">
<path id="Vector_41" d="M73.8797 27.7402C74.2284 26.3995 74.4479 24.7411 74.5082 22.7024C74.5455 21.4526 74.5111 18.2137 72.8106 15.9367V15.9338C72.8106 15.9338 72.8077 15.9324 72.8062 15.931C72.1002 14.9876 71.11 14.2087 69.7152 13.8072C69.1039 13.6313 68.4882 13.5632 67.8798 13.5788C66.9642 13.2383 66.1133 12.9631 65.4288 12.7659C64.628 12.536 63.6106 12.2679 62.5056 12.0282C62.0062 11.6976 61.4537 11.4323 60.851 11.2592C59.5078 10.8733 58.2895 10.9797 57.2118 11.3656C57.2017 11.3656 57.1903 11.3656 57.1788 11.3656L57.1687 11.3827C54.4508 12.3772 52.634 15.1408 51.9811 16.2275C50.9206 17.9895 50.2045 19.5089 49.7726 20.8312C49.5215 21.6001 49.3442 21.8351 49.2753 22.4749C50.9485 23.6652 57.5504 23.8445 63.0595 25.6831C66.0315 26.6748 69.8991 28.9548 72.4018 30.2189C73.0318 29.4457 73.5094 29.1518 73.8768 27.7416L73.8797 27.7402Z" fill="#995E38"/>
<path id="Vector_42" d="M48.1772 21.3492L53.7566 12.5107C57.9899 12.9817 62.8044 14.2756 64.8967 14.8771C67.6419 15.6659 71.6528 17.0733 74.9878 18.7161L74.9032 29.0329L48.1772 21.3492Z" stroke="#824B2C" stroke-width="0.746804" stroke-linecap="round" stroke-linejoin="round"/>
<path id="Vector_43" d="M44.8062 24.5764L50.938 15.5479C55.8516 16.1905 61.4683 17.7114 63.9093 18.4122C67.1123 19.3329 71.8034 20.9446 75.721 22.7761L75.9965 33.5426L44.8062 24.5764Z" stroke="#824B2C" stroke-width="0.746804" stroke-linecap="round" stroke-linejoin="round"/>
<path id="Vector_44" d="M70.1785 22.5575C68.7837 27.3002 64.3853 30.2042 60.3543 29.0466C56.3233 27.8875 54.1865 23.1037 55.5814 18.361C56.9748 13.6183 59.3196 10.124 65.4042 11.8733C70.9118 13.4565 71.5719 17.8162 70.1771 22.5589L70.1785 22.5575Z" stroke="#824B2C" stroke-width="0.746804" stroke-linecap="round" stroke-linejoin="round"/>
<path id="Vector_45" d="M65.9942 20.5174C64.7558 24.7281 62.4583 27.7698 60.864 27.3116C59.2697 26.8533 58.9798 23.0682 60.2182 18.8576C61.4567 14.6469 62.9419 11.3711 65.3485 12.0634C67.5283 12.6905 67.2327 16.3067 65.9942 20.5174Z" stroke="#824B2C" stroke-width="0.746804" stroke-linecap="round" stroke-linejoin="round"/>
</g>
</g>
</g>
<path id="Vector_46" d="M74.2661 30.2186C72.6576 32.1418 67.1836 27.2151 62.6446 25.7013C56.1698 23.5406 48.2125 24.3167 48.4852 22.1787C48.9315 18.6788 59.3154 19.635 63.1799 20.7458C67.2898 21.9276 75.6417 26.9792 74.2661 30.2186Z" fill="#AC7147"/>
</g>
</g>
</g>
<g id="Group 1000011850">
<path id="Vector_47" d="M73.0876 112.545C73.0876 112.545 84.7734 112.891 85.092 104.289C85.252 99.9881 83.0463 97.7385 80.8024 96.5644C78.3316 95.2715 75.3698 95.1161 72.6979 95.9943C69.7074 96.9765 65.9484 99.3193 66.0769 104.882C66.0769 104.882 66.8194 111.832 73.0876 112.545Z" fill="#FFD0BD"/>
<path id="Vector_48" d="M81.2578 97.1116C78.1265 93.9082 72.8825 94.8783 70.1833 96.9089C70.1833 96.9089 64.7547 100.393 66.9453 107.161" stroke="#F29373" stroke-width="1.79103" stroke-miterlimit="10" stroke-linecap="round"/>
</g>
</g>
</g>
<defs>
<clipPath id="clip0_2089_25037">
<rect width="95" height="131" fill="white"/>
</clipPath>
</defs>
</svg>
