<svg width="155" height="155" viewBox="0 0 155 155" fill="none" xmlns="http://www.w3.org/2000/svg">
<g id="bucket_img_stpe3">
<g id="porko3">
<path id="Vector" d="M97.6513 86.417H61.2798C61.2798 86.417 48.2279 98.3717 52.3507 125.17C54.6072 139.833 65.6707 157.677 76.1364 154.664C85.5967 151.94 82.6378 145.309 81.0521 136.112L84.0649 134.209C83.9063 146.26 99.2877 147.053 103.093 137.063C114.618 106.811 97.6529 86.417 97.6529 86.417H97.6513Z" fill="#FFD0BD"/>
<path id="Vector_2" d="M106.369 89.8975C106.369 89.8975 136.961 107.676 123.876 121.642C107.373 139.254 87.8071 91.6909 87.8071 91.6909L106.368 89.8975H106.369Z" fill="#A0A0A0"/>
<path id="Vector_3" d="M106.369 89.8975C106.369 89.8975 136.961 107.676 123.876 121.642C107.373 139.254 87.8071 91.6909 87.8071 91.6909L106.368 89.8975H106.369Z" fill="#FFD0BD"/>
<g id="Group">
<g id="Group_2">
<path id="Vector_4" d="M38.509 11.7012C34.4765 20.8935 20.7189 57.1032 55.1811 55.2162C61.6175 54.8642 67.5037 51.4724 71.0255 46.073C89.7861 17.313 51.7211 10.9733 41.7708 9.82843C40.3912 9.66986 39.0671 10.4294 38.509 11.7012Z" fill="#FFD0BD"/>
<path id="Vector_5" d="M38.509 11.7011C38.888 10.8385 39.619 10.2121 40.4801 9.94728C41.0477 9.93777 54.4232 13.8624 58.6158 23.1959C47.7061 26.6036 38.5788 32.1123 32.5658 39.7348C31.3955 29.312 36.3477 16.6279 38.509 11.7011Z" fill="#F6A284"/>
</g>
<g id="Group_3">
<path id="Vector_6" d="M98.9959 2.07149C105.684 9.55763 130.005 39.7052 96.6618 48.6121C90.4331 50.2755 83.7858 48.8801 78.7607 44.8413C51.9971 23.3295 86.2104 5.48235 95.3155 1.304C96.5777 0.72522 98.0715 1.03602 98.9975 2.07149H98.9959Z" fill="#FFD0BD"/>
<path id="Vector_7" d="M98.9959 2.07159C98.3679 1.36912 97.4784 1.00124 96.5777 1.01709C96.0354 1.18359 84.5406 9.06774 83.4528 19.2417C94.881 19.0942 105.269 21.495 113.35 26.8737C111.226 16.603 102.58 6.08344 98.9943 2.07159H98.9959Z" fill="#F6A284"/>
</g>
<path id="Vector_8" d="M70.8955 20.35C42.1069 24.9327 20.8267 41.5652 25.4158 70.395C29.5893 96.6116 54.3217 101.66 83.1102 97.0778C111.899 92.4951 133.84 80.0155 129.667 53.799C125.076 24.9692 99.6841 15.7689 70.8955 20.3516V20.35Z" fill="#FFD0BD"/>
<path id="Vector_9" d="M94.2546 58.3404C93.3238 52.4923 88.7823 48.3552 75.8604 50.4134C62.9384 52.4717 59.9065 57.814 60.8373 63.6621C61.7682 69.5102 66.3096 73.6473 79.2316 71.589C92.1535 69.5324 95.1854 64.1885 94.2546 58.3404Z" fill="#FFB399"/>
<g id="Group_4">
<path id="Vector_10" d="M72.9443 62.308C73.2535 64.2489 73.504 65.8235 72.0452 66.0551C70.5863 66.2866 70.3358 64.7135 70.0281 62.7726C69.7189 60.8317 69.4684 59.2571 70.9272 59.0256C72.3861 58.7941 72.6366 60.3671 72.9443 62.308Z" fill="#DA724F"/>
<path id="Vector_11" d="M84.8942 60.4047C85.2034 62.3456 85.454 63.9202 83.9951 64.1517C82.5363 64.3833 82.2857 62.8102 81.9781 60.8693C81.6689 58.9284 81.4183 57.3538 82.8772 57.1223C84.3361 56.8908 84.5866 58.4638 84.8942 60.4047Z" fill="#DA724F"/>
</g>
<g id="Group_5">
<path id="Vector_12" d="M55.1842 59.5447C57.2037 59.5447 58.8409 57.9076 58.8409 55.8881C58.8409 53.8686 57.2037 52.2314 55.1842 52.2314C53.1647 52.2314 51.5276 53.8686 51.5276 55.8881C51.5276 57.9076 53.1647 59.5447 55.1842 59.5447Z" fill="#23282E"/>
<path id="Vector_13" d="M96.8662 52.909C98.8858 52.909 100.523 51.2719 100.523 49.2524C100.523 47.2328 98.8858 45.5957 96.8662 45.5957C94.8467 45.5957 93.2096 47.2328 93.2096 49.2524C93.2096 51.2719 94.8467 52.909 96.8662 52.909Z" fill="#23282E"/>
</g>
<g id="Group_6">
<path id="Vector_14" d="M46.3598 89.3163C53.7644 89.3163 59.767 83.3137 59.767 75.9091C59.767 68.5045 53.7644 62.502 46.3598 62.502C38.9552 62.502 32.9526 68.5045 32.9526 75.9091C32.9526 83.3137 38.9552 89.3163 46.3598 89.3163Z" fill="#FFB399"/>
<path id="Vector_15" d="M111.472 78.9501C118.877 78.9501 124.879 72.9475 124.879 65.5429C124.879 58.1383 118.877 52.1357 111.472 52.1357C104.068 52.1357 98.0651 58.1383 98.0651 65.5429C98.0651 72.9475 104.068 78.9501 111.472 78.9501Z" fill="#FFB399"/>
</g>
<path id="Vector_16" d="M74.5854 90.2858C76.9735 91.0549 79.6058 91.288 82.2983 90.8598C84.9909 90.4317 87.4218 89.3915 89.4515 87.9199" fill="#FFD0BD"/>
<path id="Vector (Stroke)" fill-rule="evenodd" clip-rule="evenodd" d="M90.2218 87.3618C90.5302 87.7872 90.4354 88.3821 90.01 88.6905C87.8603 90.249 85.2895 91.3479 82.4478 91.7998C79.6064 92.2516 76.823 92.0063 74.2938 91.1917C73.7937 91.0307 73.5188 90.4946 73.6798 89.9945C73.8409 89.4943 74.377 89.2194 74.8771 89.3805C77.1241 90.1041 79.6053 90.325 82.149 89.9205C84.6923 89.5161 86.9833 88.5345 88.893 87.15C89.3185 86.8415 89.9134 86.9364 90.2218 87.3618Z" fill="#F29373"/>
</g>
<path id="Vector_17" d="M81.5959 126.551C98.8262 122.248 99.4684 117.167 99.1465 107.837C99.1243 107.209 98.6264 106.789 98.0207 106.622C87.7992 103.815 69.1338 108.025 62.1345 111.787C61.5811 112.083 61.1022 112.492 61.1498 113.119C61.8601 122.428 65.4851 130.576 81.5943 126.551H81.5959Z" fill="#FFB399"/>
<path id="Vector_18" d="M105.099 120.096C105.099 108.243 87.0999 107.219 85.4904 118.633C85.4904 118.633 81.5261 139.759 92.6261 141.028C103.726 142.296 105.099 120.096 105.099 120.096Z" fill="#FFD0BD"/>
<path id="Vector_19" d="M105.099 120.096C105.099 108.243 87.0999 107.219 85.4904 118.633L105.099 120.096Z" fill="#FFD0BD"/>
<path id="Vector (Stroke)_2" fill-rule="evenodd" clip-rule="evenodd" d="M95.9612 109.69C101.033 110.025 106.051 113.548 106.051 120.096C106.051 120.621 105.625 121.047 105.099 121.047C104.574 121.047 104.148 120.621 104.148 120.096C104.148 114.79 100.166 111.875 95.8356 111.588C91.4929 111.301 87.1498 113.678 86.4325 118.765C86.3591 119.286 85.8778 119.648 85.3575 119.575C84.8372 119.501 84.4749 119.02 84.5483 118.5C85.4404 112.173 90.9018 109.355 95.9612 109.69Z" fill="#F29373"/>
<path id="Vector_20" d="M58.5063 97.2364C58.5063 97.2364 38.3187 68.1783 25.4538 82.3466C9.22881 100.214 58.2162 115.883 58.2162 115.883L58.5063 97.238V97.2364Z" fill="#FFD0BD"/>
<path id="Vector_21" d="M59.8019 98.5301C59.8019 98.5301 44.8963 76.3302 31.4177 79.0259L59.8019 98.5301Z" fill="#FFD0BD"/>
<path id="Vector (Stroke)_3" fill-rule="evenodd" clip-rule="evenodd" d="M60.5914 97.9996C60.5916 97.9999 60.5918 98.0002 59.8019 98.5305L60.5918 98.0002C60.8847 98.4364 60.7685 99.0275 60.3322 99.3204C59.896 99.6133 59.305 99.4972 59.0121 99.061M59.012 99.0609L59.0118 99.0606L59.0103 99.0583L59.0031 99.0478C58.9966 99.0381 58.9865 99.0232 58.9729 99.0033C58.9457 98.9634 58.9045 98.9034 58.8497 98.8246C58.7403 98.667 58.5768 98.4344 58.3634 98.1384C57.9363 97.5461 57.3097 96.7005 56.5152 95.6931C54.9246 93.6761 52.6694 91.0203 50.0041 88.4527C47.3341 85.8805 44.2824 83.4258 41.1021 81.7818C37.9192 80.1365 34.6867 79.3428 31.6043 79.9592C31.089 80.0623 30.5878 79.7281 30.4847 79.2129C30.3817 78.6976 30.7158 78.1964 31.2311 78.0933C34.888 77.362 38.573 78.3324 41.9759 80.0914C45.3812 81.8517 48.5831 84.4415 51.3243 87.0823C54.0703 89.7277 56.3839 92.4535 58.0094 94.5148C58.8229 95.5464 59.466 96.4141 59.9068 97.0254C60.1272 97.3312 60.2972 97.5729 60.4127 97.7392C60.4704 97.8223 60.5145 97.8866 60.5445 97.9306C60.5559 97.9472 60.5653 97.961 60.5725 97.9717L60.5789 97.9811L60.5881 97.9947L60.5906 97.9984L60.5914 97.9996" fill="#F29373"/>
<path id="Vector_22" d="M101.866 93.3164C101.866 93.3164 107.012 99.6006 106.717 111.988L101.866 93.3164Z" fill="#FFD0BD"/>
<path id="Vector (Stroke)_4" fill-rule="evenodd" clip-rule="evenodd" d="M101.263 92.5806C101.67 92.2477 102.269 92.3074 102.602 92.7139L101.866 93.3167C102.602 92.7139 102.602 92.7143 102.603 92.7147L102.604 92.7156L102.605 92.718L102.611 92.7243C102.615 92.7293 102.62 92.7359 102.626 92.744C102.639 92.7602 102.657 92.7827 102.679 92.8113C102.723 92.8686 102.784 92.9507 102.861 93.0576C103.013 93.2714 103.226 93.5845 103.477 93.9964C103.98 94.8203 104.639 96.0402 105.285 97.6534C106.578 100.882 107.819 105.678 107.668 112.011C107.655 112.536 107.219 112.952 106.694 112.94C106.169 112.927 105.753 112.491 105.766 111.966C105.91 105.911 104.724 101.371 103.519 98.361C102.915 96.8547 102.306 95.7294 101.853 94.9879C101.627 94.6171 101.44 94.3424 101.313 94.1642C101.249 94.0751 101.2 94.0101 101.169 93.9693C101.153 93.9489 101.142 93.9345 101.135 93.9262C101.132 93.922 101.13 93.9194 101.129 93.9183L101.129 93.9183L101.129 93.9188C101.129 93.9185 101.129 93.9182 101.129 93.9179C100.797 93.5113 100.857 92.913 101.263 92.5806ZM101.129 93.9179C101.129 93.918 101.129 93.9181 101.129 93.9183L101.128 93.9177C101.128 93.9176 101.128 93.9176 101.128 93.9177C101.128 93.9177 101.129 93.9178 101.129 93.9179Z" fill="#F29373"/>
<path id="Vector_23" d="M29.7626 124.869C32.3049 120.882 30.2952 115.054 25.2738 111.852C20.2523 108.651 14.1207 109.288 11.5783 113.276C9.03596 117.263 11.0457 123.091 16.0671 126.293C21.0885 129.494 27.2202 128.857 29.7626 124.869Z" fill="#F4CB4A"/>
<path id="Vector_24" d="M30.4759 123.752C32.6247 120.382 30.2959 115.054 25.2745 111.853C20.253 108.651 14.4404 108.788 12.2917 112.158C10.1429 115.529 12.4717 120.856 17.4931 124.058C22.5146 127.259 28.3272 127.122 30.4759 123.752Z" fill="#FFDF5A"/>
<path id="Vector_25" d="M140.994 91.9627C145.747 90.7555 148.989 87.3664 148.233 84.393C147.478 81.4196 143.013 79.9878 138.259 81.195C133.506 82.4022 130.265 85.7913 131.02 88.7647C131.775 91.7381 136.241 93.1699 140.994 91.9627Z" fill="#F4CB4A"/>
<path id="Vector_26" d="M140.267 89.106C145.02 87.8988 148.424 85.1496 147.87 82.9656C147.315 80.7816 143.012 79.9898 138.258 81.197C133.505 82.4042 130.101 85.1533 130.656 87.3373C131.211 89.5213 135.514 90.3132 140.267 89.106Z" fill="#FFDF5A"/>
<path id="Vector_27" d="M24.7213 13.797C26.6766 8.96697 26.0572 4.15901 23.3378 3.05808C20.6184 1.95716 16.8288 4.98018 14.8734 9.81018C12.918 14.6402 13.5374 19.4481 16.2568 20.5491C18.9762 21.65 22.7659 18.627 24.7213 13.797Z" fill="#F4CB4A"/>
<path id="Vector_28" d="M22.1864 12.7721C24.1418 7.94209 24.0897 3.36377 22.07 2.54613C20.0503 1.72849 16.8279 4.98115 14.8725 9.81115C12.9172 14.6412 12.9693 19.2195 14.989 20.0371C17.0086 20.8548 20.231 17.6021 22.1864 12.7721Z" fill="#FFDF5A"/>
<g id="Group_7">
<path id="Vector_29" d="M15.4131 30.541L4.38611 39.6351C8.00629 43.639 12.2623 46.9404 17.0528 49.4474L23.6715 36.8046C20.6206 35.2078 17.7854 33.0544 15.4116 30.541H15.4131Z" fill="#89CE78"/>
<path id="Vector_30" d="M14.6329 29.6869C14.0034 28.967 13.8496 28.6959 13.8179 28.6309C13.8179 28.6309 13.8559 28.7086 13.8892 28.8497L0 32.1369C0.719912 35.1751 2.45785 37.4458 3.89292 39.0854C4.05625 39.271 4.22116 39.4533 4.38607 39.6373L15.4131 30.5432C15.1467 30.2626 14.8851 29.9771 14.6313 29.6869H14.6329Z" fill="#D6EFB4"/>
<path id="Vector_31" d="M124.075 55.3556C125.767 54.2805 127.957 52.8914 130.033 51.0837L124.754 43.0029C123.592 44.1399 121.8 45.5306 118.976 47.3224L124.075 55.354V55.3556Z" fill="#D6EFB4"/>
<path id="Vector_32" d="M136.208 41.7506L126.977 39.4434C126.736 40.4091 126.314 41.4762 124.753 43.0033L130.031 51.0841C132.719 48.7451 135.218 45.7085 136.206 41.7506H136.208Z" fill="#89CE78"/>
<path id="Vector_33" d="M126.901 137.285L120.625 144.472C121.191 145.058 121.706 145.691 122.16 146.36L130.039 141.029C129.121 139.673 128.067 138.421 126.9 137.285H126.901Z" fill="#D6EFB4"/>
<path id="Vector_34" d="M114.609 130.831L112.795 140.171C115.735 140.742 118.529 142.297 120.625 144.47L126.901 137.283C123.538 134.012 119.244 131.732 114.609 130.831Z" fill="#89CE78"/>
<path id="Vector_35" d="M131.641 114.076L145.327 118.123C146.096 115.522 147.75 113.177 149.905 111.506L140.985 100.356C136.576 103.828 133.252 108.626 131.641 114.076Z" fill="#89CE78"/>
<path id="Vector_36" d="M147.768 96.4512C145.314 97.42 143.033 98.7457 140.985 100.358L149.905 111.507C150.855 110.77 151.902 110.164 153.013 109.725L147.769 96.4528L147.768 96.4512Z" fill="#D6EFB4"/>
<path id="Vector_37" d="M143.632 17.4607L151.02 11.4857C147.225 6.99339 141.969 3.72207 136.216 2.46777L134.189 11.7632C137.847 12.5608 141.196 14.6238 143.632 17.4607Z" fill="#89CE78"/>
<path id="Vector_38" d="M146.291 21.6579L155 17.8253C153.99 15.5292 152.637 13.3964 151.021 11.4824L143.634 17.4574C144.717 18.718 145.622 20.1325 146.291 21.6563V21.6579Z" fill="#D6EFB4"/>
<path id="Vector_39" d="M27.2172 145.155L34.2212 151.593C35.753 149.927 37.0295 148.052 38.0317 146.045L30.1713 140.257C29.5053 142.068 28.5095 143.749 27.2172 145.155Z" fill="#D6EFB4"/>
<path id="Vector_40" d="M39.9963 129.301L30.7469 131.529C31.4351 134.383 31.1956 137.472 30.1713 140.258L38.0316 146.046C40.5894 140.919 41.3505 134.925 39.9963 129.301Z" fill="#89CE78"/>
</g>
</g>
</g>
</svg>
