<svg width="156" height="155" viewBox="0 0 156 155" fill="none" xmlns="http://www.w3.org/2000/svg">
<g id="bucket_img_step1" clip-path="url(#clip0_1862_22757)">
<g id="Group 1000011846">
<path id="Vector" opacity="0.6" d="M44.368 149.149H117.078C117.583 149.149 117.866 149.73 117.557 150.129L114.406 154.181C114.005 154.698 113.386 155.002 112.731 155.002H40.0213C39.5164 155.002 39.2329 154.421 39.5422 154.022L42.6927 149.97C43.0944 149.453 43.713 149.149 44.368 149.149Z" fill="#23282E"/>
<path id="Vector_2" d="M125.841 82.0791H91.066C91.066 82.0791 80.3001 99.7055 83.3368 130.278C84.8499 145.504 96.9637 144.899 96.9637 144.899C96.9637 144.899 109.553 147.117 111.067 130.581C112.58 147.117 125.169 144.899 125.169 144.899C125.169 144.899 137.283 145.504 138.796 130.278C141.833 99.7055 125.843 82.0791 125.843 82.0791H125.841Z" fill="#FFD0BD"/>
<path id="Vector_3" d="M82.7304 85.4072C82.7304 85.4072 53.4815 102.406 65.9925 115.758C81.7707 132.598 100.478 87.122 100.478 87.122L82.7319 85.4072H82.7304Z" fill="#FFD0BD"/>
<path id="Vector_4" d="M102.451 123.694C114.936 123.694 115.306 116.729 115.453 107.804C115.462 107.203 115.124 106.686 114.658 106.585C110.487 105.671 107.166 105.172 102.451 105.172C97.7354 105.172 93.2219 105.672 89.0511 106.585C88.5856 106.686 88.2476 107.203 88.2566 107.804C88.4037 116.729 89.9653 123.694 102.451 123.694Z" fill="#FFB399"/>
<path id="Vector_5" d="M113.899 132.383C113.899 113.957 98.9619 99.0205 80.5365 99.0205H74.8374C56.4121 99.0205 41.4753 113.957 41.4753 132.383C41.4753 141.111 44.829 149.054 50.3143 155H105.06C110.547 149.054 113.899 141.111 113.899 132.383Z" fill="#FFD34C"/>
<path id="Vector_6" d="M86.5494 1.02966C80.2151 8.2403 57.205 37.2603 89.1571 45.5079C95.1246 47.0483 101.47 45.6595 106.241 41.7586C131.657 20.9742 98.8011 4.18773 90.0638 0.265536C88.8524 -0.27875 87.4273 0.0320539 86.5494 1.02966Z" fill="#FFD0BD"/>
<path id="Vector_7" d="M86.5494 1.02902C87.1437 0.351317 87.9913 -0.00648601 88.8524 0.00109457C89.3724 0.155738 100.426 7.60138 101.547 17.3197C90.6187 17.2696 80.7078 19.6499 73.0242 24.8563C74.9724 15.0197 83.1549 4.89208 86.5479 1.02902H86.5494Z" fill="#F6A284"/>
<path id="Vector_8" d="M131.971 2.08265C123.073 5.68191 89.4832 21.2782 114.328 42.995C118.969 47.0506 126.733 56.4035 132.747 55.0603C164.789 47.9027 141.5 10.4061 135.453 2.97716C134.615 1.94772 133.202 1.58385 131.971 2.08265Z" fill="#FFD0BD"/>
<path id="Vector_9" d="M131.972 2.08318C132.808 1.74508 133.726 1.80421 134.492 2.1984C134.888 2.56985 141.421 14.1863 138.058 23.374C128.315 18.4223 118.391 16.0997 109.188 17.3004C115.345 9.3863 127.204 4.01168 131.972 2.08318Z" fill="#F6A284"/>
<path id="Vector_10" d="M105.046 16.2666C77.1753 16.2666 54.5807 28.7715 54.5807 56.6832C54.5807 82.0645 77.1753 90.5502 105.046 90.5502C132.917 90.5502 155.511 82.0645 155.511 56.6832C155.511 28.7715 132.917 16.2666 105.046 16.2666Z" fill="#FFD0BD"/>
<path id="Vector_11" d="M114.361 60.6372C114.361 54.976 110.695 50.3867 98.1841 50.3867C85.6732 50.3867 82.0072 54.976 82.0072 60.6372C82.0072 66.2983 85.6732 70.8876 98.1841 70.8876C110.695 70.8876 114.361 66.2983 114.361 60.6372Z" fill="#FFB399"/>
<path id="Vector_12" d="M93.6433 61.18C93.6433 63.06 93.6433 64.5837 92.2318 64.5837C90.8203 64.5837 90.8203 63.06 90.8203 61.18C90.8203 59.3001 90.8203 57.7764 92.2318 57.7764C93.6433 57.7764 93.6433 59.3001 93.6433 61.18Z" fill="#DA724F"/>
<path id="Vector_13" d="M105.213 61.18C105.213 63.06 105.213 64.5837 103.801 64.5837C102.39 64.5837 102.39 63.06 102.39 61.18C102.39 59.3001 102.39 57.7764 103.801 57.7764C105.213 57.7764 105.213 59.3001 105.213 61.18Z" fill="#DA724F"/>
<path id="Vector_14" d="M77.8394 55.9445C79.7703 55.9445 81.3356 54.3792 81.3356 52.4483C81.3356 50.5174 79.7703 48.9521 77.8394 48.9521C75.9085 48.9521 74.3433 50.5174 74.3433 52.4483C74.3433 54.3792 75.9085 55.9445 77.8394 55.9445Z" fill="#23282E"/>
<path id="Vector_15" d="M118.194 55.9445C120.125 55.9445 121.69 54.3792 121.69 52.4483C121.69 50.5174 120.125 48.9521 118.194 48.9521C116.263 48.9521 114.698 50.5174 114.698 52.4483C114.698 54.3792 116.263 55.9445 118.194 55.9445Z" fill="#23282E"/>
<path id="Vector_16" d="M79.3161 70.0268C79.3161 62.9465 73.5761 57.208 66.4974 57.208C61.6534 57.208 57.4386 59.8961 55.2584 63.8592C56.9459 72.3464 61.7171 78.4594 68.5896 82.6742C74.6738 81.6751 79.3161 76.3944 79.3161 70.0268Z" fill="#FFB399"/>
<path id="Vector_17" d="M129.537 82.8455C136.617 82.8455 142.356 77.1064 142.356 70.0268C142.356 62.9472 136.617 57.208 129.537 57.208C122.458 57.208 116.719 62.9472 116.719 70.0268C116.719 77.1064 122.458 82.8455 129.537 82.8455Z" fill="#FFB399"/>
<path id="Vector (Stroke)" fill-rule="evenodd" clip-rule="evenodd" d="M90.1772 85.7086C90.4043 85.2605 90.9516 85.0813 91.3998 85.3084C93.413 86.3286 95.7239 86.9112 98.1856 86.9112C100.647 86.9112 102.958 86.3286 104.971 85.3084C105.42 85.0813 105.967 85.2605 106.194 85.7086C106.421 86.1568 106.242 86.7042 105.794 86.9313C103.529 88.0791 100.936 88.7306 98.1856 88.7306C95.4349 88.7306 92.8427 88.0791 90.5774 86.9313C90.1293 86.7042 89.9501 86.1568 90.1772 85.7086Z" fill="#F29373"/>
<path id="Vector (Stroke)_2" fill-rule="evenodd" clip-rule="evenodd" d="M92.0559 103.787C92.327 103.364 92.8897 103.241 93.3126 103.512C102.811 109.602 109.109 120.256 109.109 132.382C109.109 139.106 107.172 145.378 103.824 150.671C103.556 151.095 102.994 151.222 102.569 150.953C102.145 150.685 102.018 150.123 102.287 149.698C105.455 144.688 107.29 138.752 107.29 132.382C107.29 120.902 101.329 110.813 92.3307 105.044C91.9077 104.773 91.7847 104.21 92.0559 103.787Z" fill="#FFB72C"/>
<path id="Vector_18" d="M65.0949 106.168C54.3972 109.917 52.8659 110.662 51.3937 106.461C49.4607 100.946 54.5169 97.3775 61.3849 94.9699C68.2529 92.5623 74.3326 92.2287 76.2656 97.7428C77.6271 101.626 76.2914 102.243 65.0949 106.168Z" fill="#FFD0BD"/>
<path id="Vector (Stroke)_3" fill-rule="evenodd" clip-rule="evenodd" d="M73.1795 94.7151C73.4246 94.2765 73.9788 94.1197 74.4173 94.3648C75.2862 94.8503 76.5804 95.8906 77.1241 97.4412C77.4699 98.4274 77.7153 99.383 77.5668 100.291C77.4071 101.269 76.8275 102.022 75.9225 102.676C75.0437 103.311 73.7797 103.912 72.0928 104.586C70.3928 105.265 68.1908 106.046 65.3958 107.026L65.3957 107.026C64.9339 107.188 64.4884 107.344 64.0587 107.495C62.0096 108.215 60.3189 108.809 58.9242 109.252C57.2498 109.785 55.9181 110.13 54.8467 110.203C54.3455 110.236 53.9116 109.858 53.8777 109.356C53.8438 108.855 54.2226 108.421 54.7239 108.387C55.5568 108.331 56.7054 108.049 58.3726 107.519C59.739 107.084 61.3974 106.501 63.4462 105.782C63.8779 105.63 64.3269 105.472 64.7941 105.309C67.5973 104.326 69.7609 103.558 71.4178 102.896C73.0878 102.229 74.172 101.696 74.8565 101.202C75.5148 100.726 75.7136 100.351 75.7713 99.9979C75.8403 99.5759 75.7421 98.9983 75.4072 98.0432C75.066 97.07 74.1884 96.321 73.5298 95.9529C73.0912 95.7079 72.9344 95.1537 73.1795 94.7151Z" fill="#F29373"/>
<path id="Vector_19" d="M118.45 92.7334C118.45 92.7334 91.6572 101.413 100.003 115.748C108.187 129.806 127.29 113.583 127.29 113.583" fill="#FFD0BD"/>
<path id="Vector (Stroke)_4" fill-rule="evenodd" clip-rule="evenodd" d="M118.731 93.5985C118.731 93.5986 118.731 93.5985 118.731 93.5985L118.728 93.5995L118.715 93.6036C118.704 93.6074 118.686 93.6133 118.662 93.6212C118.614 93.6372 118.542 93.6614 118.448 93.694C118.26 93.759 117.983 93.857 117.631 93.9871C116.928 94.2476 115.93 94.6363 114.758 95.1473C112.407 96.1716 109.379 97.6766 106.619 99.6099C103.846 101.553 101.427 103.871 100.187 106.493C98.976 109.054 98.855 111.967 100.79 115.29C102.701 118.574 105.196 120.028 107.859 120.441C110.574 120.862 113.554 120.212 116.381 119.091C119.197 117.975 121.78 116.425 123.667 115.145C124.609 114.507 125.371 113.939 125.897 113.533C126.16 113.33 126.364 113.167 126.5 113.056C126.568 113 126.62 112.958 126.654 112.929C126.671 112.915 126.683 112.905 126.691 112.898L126.7 112.891L126.702 112.889C126.702 112.889 126.702 112.889 126.702 112.889C127.085 112.564 127.659 112.611 127.984 112.994C128.309 113.377 128.262 113.951 127.879 114.276L127.29 113.583C127.879 114.276 127.879 114.276 127.879 114.277L127.878 114.278L127.874 114.281L127.862 114.291C127.851 114.3 127.837 114.312 127.817 114.328C127.778 114.361 127.721 114.407 127.648 114.467C127.501 114.587 127.285 114.759 127.01 114.972C126.459 115.398 125.666 115.988 124.688 116.651C122.738 117.973 120.034 119.6 117.051 120.783C114.079 121.96 110.749 122.73 107.58 122.239C104.36 121.74 101.397 119.95 99.2173 116.206C96.9788 112.361 97.077 108.814 98.5423 105.715C99.9787 102.678 102.693 100.139 105.575 98.1199C108.47 96.0914 111.619 94.5306 114.031 93.4794C115.24 92.9527 116.27 92.5513 116.999 92.2811C117.364 92.1459 117.654 92.0434 117.854 91.9743C117.954 91.9397 118.032 91.9135 118.085 91.8957C118.112 91.8869 118.132 91.8801 118.147 91.8754L118.163 91.87L118.169 91.868C118.17 91.8679 118.17 91.8678 118.449 92.7289L118.17 91.8678C118.648 91.7129 119.161 91.9749 119.316 92.4528C119.47 92.9307 119.208 93.4437 118.731 93.5985Z" fill="#F29373"/>
<path id="Vector (Stroke)_5" fill-rule="evenodd" clip-rule="evenodd" d="M87.6201 121.556C89.0638 121.989 89.883 123.511 89.4499 124.954L83.2399 145.655C82.8936 146.81 81.8311 147.6 80.626 147.6C79.4208 147.6 78.3583 146.81 78.0121 145.655L74.416 133.668L70.8199 145.655C70.4736 146.81 69.4111 147.6 68.206 147.6C67.0008 147.6 65.9383 146.81 65.592 145.655L59.382 124.954C58.949 123.511 59.7682 121.989 61.2118 121.556C62.6555 121.123 64.1768 121.942 64.6099 123.386L68.206 135.374L71.802 123.386C72.1483 122.232 73.2108 121.441 74.416 121.441C75.6211 121.441 76.6836 122.232 77.0299 123.386L80.626 135.374L84.2221 123.386C84.6551 121.942 86.1765 121.123 87.6201 121.556Z" fill="#FFB72C"/>
<path id="Vector (Stroke)_6" fill-rule="evenodd" clip-rule="evenodd" d="M58.2314 135.582C58.2314 134.074 59.4533 132.853 60.9605 132.853H87.8715C89.3787 132.853 90.6005 134.074 90.6005 135.582C90.6005 137.089 89.3787 138.311 87.8715 138.311H60.9605C59.4533 138.311 58.2314 137.089 58.2314 135.582Z" fill="#FFB72C"/>
</g>
</g>
<defs>
<clipPath id="clip0_1862_22757">
<rect width="155" height="155" fill="white" transform="translate(0.511475)"/>
</clipPath>
</defs>
</svg>
