<svg width="156" height="155" viewBox="0 0 156 155" fill="none" xmlns="http://www.w3.org/2000/svg">
<g id="butket_img_step2" clip-path="url(#clip0_1862_22628)">
<g id="Group 1000011810">
<path id="Vector" d="M150.317 139.989H58.881V144.882H150.317V139.989Z" fill="#89CE78"/>
<path id="Vector_2" d="M120.753 78.0635H85.6819C85.6819 78.0635 69.5552 87.4304 72.6178 118.263C74.1438 133.62 132.293 133.62 133.819 118.263C136.882 87.4304 120.755 78.0635 120.755 78.0635H120.753Z" fill="#FFD0BD"/>
<path id="Vector_3" d="M147.897 126.84H56.4606V144.882H147.897V126.84Z" fill="#89CE78"/>
<path id="Vector_4" d="M143.423 140.907H117.902C117.396 140.907 116.984 140.496 116.984 139.99C116.984 139.484 117.396 139.072 117.902 139.072H143.423C143.929 139.072 144.34 139.484 144.34 139.99C144.34 140.496 143.929 140.907 143.423 140.907Z" fill="#69AA5B"/>
<path id="Vector_5" d="M126.252 135.861H105.822C105.316 135.861 104.905 135.45 104.905 134.944C104.905 134.438 105.316 134.026 105.822 134.026H126.252C126.758 134.026 127.169 134.438 127.169 134.944C127.169 135.45 126.758 135.861 126.252 135.861Z" fill="#69AA5B"/>
<g id="Group" opacity="0.6">
<path id="Vector_6" d="M35.8506 149.1H109.18C109.689 149.1 109.975 149.685 109.663 150.087L106.486 154.174C106.081 154.696 105.457 155.002 104.796 155.002H31.4669C30.9577 155.002 30.6718 154.416 30.9837 154.014L34.161 149.927C34.5662 149.405 35.1901 149.1 35.8506 149.1Z" fill="#23282E"/>
</g>
<g id="Group_2">
<g id="Group_3">
<path id="Vector_7" d="M80.5429 1.1577C74.5322 8.74631 52.8444 39.1543 85.448 45.8239C91.5382 47.0701 97.8577 45.3453 102.463 41.1711C126.998 18.9343 93.0458 3.71119 84.0428 0.208169C82.7936 -0.278065 81.3747 0.107252 80.5429 1.1577Z" fill="#FFD0BD"/>
<path id="Vector_8" d="M80.5428 1.15735C81.107 0.444821 81.9419 0.0396266 82.8104 0.00292969C83.3425 0.132898 94.8577 7.06402 96.4846 16.7963C85.4755 17.307 75.6147 20.2122 68.1423 25.8498C69.5995 15.8422 77.3227 5.22306 80.5428 1.15735Z" fill="#F6A284"/>
</g>
<g id="Group_4">
<path id="Vector_9" d="M139.317 6.97218C143.724 15.5914 159.034 49.6583 125.755 49.8112C119.539 49.8403 113.68 46.9106 109.981 41.9153C90.2797 15.3024 126.558 7.02723 136.071 5.35599C137.391 5.12358 138.707 5.77953 139.317 6.97371V6.97218Z" fill="#FFD0BD"/>
<path id="Vector_10" d="M139.317 6.97237C138.903 6.16351 138.165 5.60235 137.32 5.39746C136.773 5.4204 124.123 9.96164 120.62 19.1863C131.316 21.8438 140.417 26.6251 146.638 33.6174C147.171 23.5181 141.678 11.5916 139.316 6.97237H139.317Z" fill="#F6A284"/>
</g>
<path id="Vector_11" d="M108.636 17.1469C80.6636 14.3794 56.7464 24.6866 53.9743 52.7001C51.4544 78.1738 73.2875 88.9321 101.26 91.6997C129.232 94.4672 152.75 88.1936 155.27 62.7214C158.042 34.7079 136.606 19.9145 108.634 17.1469H108.636Z" fill="#FFD0BD"/>
<path id="Vector_12" d="M121.13 58.2951C121.692 52.6132 118.467 47.6438 105.911 46.4007C93.3561 45.1591 89.2201 49.4007 88.6574 55.0826C88.0947 60.7645 91.3194 65.7339 103.876 66.977C116.431 68.2185 120.567 63.977 121.13 58.2951Z" fill="#FFB399"/>
<g id="Group_5">
<path id="Vector_13" d="M100.283 56.7808C100.096 58.6676 99.9447 60.1967 98.5273 60.056C97.1099 59.9153 97.2613 58.3863 97.4478 56.501C97.6343 54.6141 97.7857 53.0851 99.2031 53.2258C100.621 53.3665 100.469 54.8955 100.283 56.7808Z" fill="#DA724F"/>
<path id="Vector_14" d="M111.894 57.9302C111.708 59.817 111.556 61.3461 110.139 61.2054C108.721 61.0647 108.873 59.5357 109.059 57.6504C109.246 55.7636 109.397 54.2345 110.815 54.3752C112.232 54.5159 112.081 56.0449 111.894 57.9302Z" fill="#DA724F"/>
</g>
<g id="Group_6">
<path id="Vector_15" d="M85.2889 49.9767C87.2362 49.9767 88.8149 48.3981 88.8149 46.4508C88.8149 44.5034 87.2362 42.9248 85.2889 42.9248C83.3416 42.9248 81.7629 44.5034 81.7629 46.4508C81.7629 48.3981 83.3416 49.9767 85.2889 49.9767Z" fill="#23282E"/>
<path id="Vector_16" d="M125.79 53.9826C127.737 53.9826 129.316 52.404 129.316 50.4566C129.316 48.5093 127.737 46.9307 125.79 46.9307C123.843 46.9307 122.264 48.5093 122.264 50.4566C122.264 52.404 123.843 53.9826 125.79 53.9826Z" fill="#23282E"/>
</g>
<g id="Group_7">
<path id="Vector_17" d="M72.1591 75.8921C79.299 75.8921 85.0871 70.1041 85.0871 62.9641C85.0871 55.8242 79.299 50.0361 72.1591 50.0361C65.0191 50.0361 59.2311 55.8242 59.2311 62.9641C59.2311 70.1041 65.0191 75.8921 72.1591 75.8921Z" fill="#FFB399"/>
<path id="Vector_18" d="M135.428 82.1519C142.567 82.1519 148.356 76.3638 148.356 69.2239C148.356 62.084 142.567 56.2959 135.428 56.2959C128.288 56.2959 122.5 62.084 122.5 69.2239C122.5 76.3638 128.288 82.1519 135.428 82.1519Z" fill="#FFB399"/>
</g>
<g id="Group_8">
<path id="Vector_19" d="M94.9694 83.2793C97.0076 84.5805 99.4066 85.4429 102.023 85.7013C104.639 85.9597 107.16 85.5851 109.414 84.7089" fill="#FFD0BD"/>
<path id="Vector_20" d="M103.628 86.6982C103.064 86.6982 102.498 86.6707 101.933 86.6141C99.2674 86.3511 96.688 85.4643 94.4754 84.053C94.0488 83.7808 93.9235 83.2135 94.1956 82.7854C94.4678 82.3573 95.0351 82.2334 95.4632 82.5056C97.4341 83.7625 99.7338 84.553 102.115 84.7884C104.495 85.0239 106.905 84.7013 109.084 83.8542C109.555 83.6707 110.088 83.9046 110.272 84.3771C110.455 84.8496 110.221 85.3817 109.749 85.5652C107.821 86.3144 105.732 86.6997 103.63 86.6997L103.628 86.6982Z" fill="#F29373"/>
</g>
</g>
<g id="Group_9">
<g id="Group_10">
<path id="Vector_21" d="M67.1195 102.586C67.1195 102.586 75.2448 100.947 80.7249 107.254C85.2646 105.205 91.2569 103.762 91.2569 103.762L93.4633 119.653C93.4633 119.653 86.5826 128.063 72.8106 130.912" fill="#FFD0BD"/>
<path id="Vector_22" d="M64.8488 106.328C61.5966 101.963 57.0003 104.53 58.5614 117.123C59.7449 126.664 64.3336 133.657 72.809 130.912C81.2845 128.167 80.6637 119.958 76.2707 111.389C70.5812 100.293 64.9253 100.885 64.8488 106.328Z" fill="#FFB399"/>
</g>
<g id="Group_11">
<path id="Vector_23" d="M74.9374 103.769C74.9374 103.769 78.3823 104.602 80.5703 107.102L74.9374 103.769Z" fill="#FFD0BD"/>
<path id="Vector_24" d="M80.5719 108.019C80.3166 108.019 80.0628 107.913 79.8808 107.705C77.9191 105.464 74.7524 104.667 74.7203 104.66C74.2295 104.539 73.9267 104.043 74.046 103.551C74.1653 103.059 74.6607 102.757 75.153 102.877C75.3059 102.913 78.9083 103.809 81.2615 106.497C81.5949 106.878 81.5566 107.458 81.1759 107.792C81.0016 107.945 80.786 108.02 80.5719 108.02V108.019Z" fill="#F29373"/>
</g>
</g>
<g id="Group_12">
<g id="Group_13">
<path id="Vector_25" d="M139.484 102.586C139.484 102.586 131.359 100.947 125.879 107.254C121.339 105.205 115.347 103.762 115.347 103.762L113.14 119.653C113.14 119.653 120.021 128.063 133.793 130.912" fill="#FFD0BD"/>
<path id="Vector_26" d="M141.753 106.328C145.006 101.963 149.602 104.53 148.041 117.123C146.857 126.664 142.269 133.657 133.793 130.912C125.318 128.167 125.938 119.958 130.331 111.389C136.021 100.293 141.677 100.885 141.753 106.328Z" fill="#FFB399"/>
</g>
<g id="Group_14">
<path id="Vector_27" d="M131.665 103.769C131.665 103.769 128.22 104.602 126.032 107.102L131.665 103.769Z" fill="#FFD0BD"/>
<path id="Vector_28" d="M126.032 108.019C125.818 108.019 125.602 107.944 125.428 107.791C125.047 107.458 125.007 106.879 125.342 106.496C127.695 103.808 131.298 102.912 131.451 102.876C131.943 102.756 132.438 103.059 132.558 103.551C132.677 104.044 132.374 104.539 131.882 104.658C131.833 104.671 128.678 105.469 126.721 107.704C126.539 107.912 126.286 108.018 126.03 108.018L126.032 108.019Z" fill="#F29373"/>
</g>
</g>
<path id="Vector_29" d="M103.218 122.558C118.578 122.558 120.5 116.424 120.68 108.563C120.692 108.034 120.275 107.578 119.703 107.49C114.572 106.685 109.018 106.245 103.218 106.245C97.4188 106.245 91.8654 106.685 86.7339 107.49C86.162 107.58 85.7446 108.036 85.7569 108.563C85.9373 116.424 87.8593 122.558 103.218 122.558Z" fill="#FFB399"/>
<g id="Group 1000011813">
<g id="Group_15">
<path id="Vector_30" d="M35.3599 154.975H103.096L104.342 146.155L37.8461 137.307L35.3599 154.975Z" fill="#D6EFB4"/>
<path id="Vector_31" d="M100.956 71.3359H47.1335L37.8477 137.306L104.344 146.155L113.189 83.5682C113.189 76.8129 107.712 71.3359 100.957 71.3359H100.956Z" fill="#74BC66"/>
</g>
<g id="Group_16">
<path id="Vector_32" d="M71.6991 87.9873L71.7308 87.7694C72.3015 83.8474 75.9484 81.1272 79.8704 81.6979L105.599 85.4422L103.499 99.8711L77.7706 96.1268C73.8486 95.5561 71.1283 91.9092 71.6991 87.9873Z" fill="#5D994F"/>
<path id="Vector_33" d="M69.7004 102.203L69.7321 101.985C70.3029 98.0632 73.9497 95.343 77.8717 95.9137L103.6 99.658L101.501 114.087L75.7719 110.343C71.8499 109.772 69.1297 106.125 69.7004 102.203Z" fill="#5D994F"/>
<path id="Vector_34" d="M67.7018 116.418L67.7335 116.2C68.3042 112.278 71.9511 109.558 75.873 110.129L101.602 113.873L99.502 128.302L73.7732 124.557C69.8513 123.987 67.131 120.34 67.7018 116.418Z" fill="#5D994F"/>
<path id="Vector_35" d="M65.7047 130.634L65.7364 130.416C66.3072 126.494 69.954 123.774 73.876 124.344L99.6047 128.089L97.5049 142.518L71.7762 138.773C67.8542 138.203 65.134 134.556 65.7047 130.634Z" fill="#5D994F"/>
<path id="Vector_36" d="M110.628 86.1529L102.948 85.0352L94.6366 142.144L102.317 143.262L110.628 86.1529Z" fill="#538C44"/>
</g>
<g id="Group_17">
<g id="Group_18">
<path id="Vector_37" d="M51.9651 118.25C55.1685 121.011 68.0521 131.034 71.5567 116.92C72.2111 114.284 71.5735 111.493 69.835 109.406C60.5721 98.29 53.3076 112.837 51.615 116.704C51.3795 117.241 51.5232 117.868 51.9667 118.25H51.9651Z" fill="#69AA5B"/>
<path id="Vector_38" d="M51.9652 118.25C51.664 117.99 51.5034 117.618 51.5034 117.239C51.5692 117.01 54.8061 112.108 59.0844 111.574C59.1073 116.391 60.196 120.748 62.5217 124.114C58.1792 123.296 53.6823 119.73 51.9652 118.25Z" fill="#5D994F"/>
</g>
<g id="Group_19">
<path id="Vector_39" d="M55.5721 92.6938C59.4146 90.9263 74.5689 84.8606 74.0307 99.3941C73.9298 102.108 72.5444 104.614 70.2968 106.137C58.3198 114.255 55.3642 98.2656 54.8091 94.0807C54.7327 93.4996 55.0416 92.937 55.5737 92.6923L55.5721 92.6938Z" fill="#69AA5B"/>
<path id="Vector_40" d="M55.5722 92.6937C55.2113 92.8604 54.9529 93.1723 54.8474 93.5378C54.8474 93.7763 56.6012 99.3833 60.5645 101.081C61.9192 96.4582 64.173 92.5714 67.3381 89.9828C62.9375 89.5669 57.6303 91.7488 55.5722 92.6953V92.6937Z" fill="#5D994F"/>
</g>
<path id="Vector_41" d="M89.2491 102.74L88.5779 107.496L87.7782 113.161L87.1069 117.916C87.1069 117.916 93.7399 125.889 107.116 126.526L110.864 100.005C97.8316 96.9133 89.2491 102.74 89.2491 102.74Z" fill="#69AA5B"/>
<g id="Group_20">
<path id="Vector_42" d="M88.0458 121.758C88.0458 121.758 93.6619 135.57 100.26 130.932C108.581 125.084 89.8867 114.119 89.8867 114.119L88.0458 121.758Z" fill="#69AA5B"/>
<path id="Vector_43" d="M91.2155 99.3075C91.2155 99.3075 100.436 87.5905 105.492 93.8718C111.87 101.794 90.8715 107.158 90.8715 107.158L91.217 99.3075H91.2155Z" fill="#69AA5B"/>
</g>
<path id="Vector_44" d="M59.4574 106.274C57.7403 118.438 61.806 129.068 73.9863 130.786C85.0626 132.349 90.1574 123.013 91.8745 110.849C93.5916 98.6857 91.2797 88.3035 80.2033 86.7393C68.023 85.0207 61.1729 94.1093 59.4574 106.273V106.274Z" fill="#69AA5B"/>
<path id="Vector_45" d="M77.6499 101.568C75.179 101.219 72.9512 102.537 72.1805 107.996C71.4099 113.456 73.1866 115.338 75.6575 115.687C78.1285 116.036 80.3563 114.717 81.1269 109.259C81.8975 103.799 80.1208 101.916 77.6499 101.568Z" fill="#5D994F"/>
<g id="Group_21">
<path id="Vector_46" d="M76.6102 110.643C77.4297 110.76 78.0949 110.853 78.0077 111.469C77.9206 112.085 77.2554 111.992 76.4359 111.876C75.6163 111.76 74.9512 111.666 75.0383 111.05C75.1255 110.434 75.7906 110.527 76.6102 110.643Z" fill="#538C44"/>
<path id="Vector_47" d="M77.3227 105.593C78.1423 105.709 78.8074 105.802 78.7202 106.418C78.6331 107.035 77.968 106.941 77.1484 106.825C76.3288 106.709 75.6637 106.616 75.7509 105.999C75.838 105.383 76.5031 105.476 77.3227 105.593Z" fill="#538C44"/>
</g>
<g id="Group_22">
<path id="Vector_48" d="M71.8273 118.543C72.6785 118.543 73.3685 117.853 73.3685 117.002C73.3685 116.151 72.6785 115.461 71.8273 115.461C70.9761 115.461 70.286 116.151 70.286 117.002C70.286 117.853 70.9761 118.543 71.8273 118.543Z" fill="#538C44"/>
<path id="Vector_49" d="M74.3135 100.932C75.1647 100.932 75.8548 100.242 75.8548 99.3909C75.8548 98.5397 75.1647 97.8496 74.3135 97.8496C73.4623 97.8496 72.7722 98.5397 72.7722 99.3909C72.7722 100.242 73.4623 100.932 74.3135 100.932Z" fill="#538C44"/>
</g>
<g id="Group_23">
<path id="Vector_50" d="M78.7997 128.684C81.92 128.684 84.4495 126.155 84.4495 123.035C84.4495 119.914 81.92 117.385 78.7997 117.385C75.6794 117.385 73.1499 119.914 73.1499 123.035C73.1499 126.155 75.6794 128.684 78.7997 128.684Z" fill="#5D994F"/>
<path id="Vector_51" d="M82.6819 101.174C85.8022 101.174 88.3317 98.6441 88.3317 95.5238C88.3317 92.4035 85.8022 89.874 82.6819 89.874C79.5616 89.874 77.0321 92.4035 77.0321 95.5238C77.0321 98.6441 79.5616 101.174 82.6819 101.174Z" fill="#5D994F"/>
</g>
<path id="Vector_52" d="M88.084 113.903C87.9938 113.903 87.902 113.875 87.8225 113.82C87.6146 113.675 87.5641 113.389 87.7094 113.181C88.2889 112.351 88.6727 111.369 88.8164 110.343C88.9601 109.317 88.8653 108.268 88.5381 107.31C88.4556 107.07 88.584 106.81 88.8241 106.727C89.0641 106.645 89.3241 106.773 89.4066 107.013C89.7797 108.106 89.8913 109.302 89.7262 110.47C89.5611 111.638 89.1237 112.756 88.4632 113.704C88.3745 113.833 88.2308 113.9 88.0871 113.9L88.084 113.903Z" fill="#5D994F"/>
<path id="Vector_53" d="M106.339 112.892C107.318 105.964 104.4 104.667 100.517 104.037C100.255 103.995 100.003 104.15 99.9218 104.403C99.197 106.661 98.6252 109.135 98.2552 111.751C97.8851 114.367 97.7506 116.903 97.8224 119.274C97.8301 119.539 98.0304 119.759 98.2919 119.789C102.199 120.257 105.361 119.82 106.338 112.892H106.339Z" fill="#5D994F"/>
<path id="Vector_54" d="M97.0747 100.201C96.8622 100.201 96.6726 100.053 96.6267 99.8372C96.5747 99.5895 96.7322 99.3464 96.9815 99.2944C99.2368 98.8189 101.575 98.6017 103.932 98.6476C104.186 98.6522 104.387 98.8617 104.382 99.1155C104.377 99.3693 104.166 99.5727 103.914 99.565C101.627 99.5176 99.3576 99.7302 97.1711 100.192C97.139 100.198 97.1069 100.203 97.0763 100.203L97.0747 100.201Z" fill="#5D994F"/>
<path id="Vector_55" d="M100.2 125.928C100.16 125.928 100.121 125.924 100.082 125.913C97.7965 125.304 95.6023 124.444 93.5595 123.356C93.3363 123.237 93.2506 122.959 93.3699 122.736C93.4892 122.512 93.7659 122.427 93.9907 122.546C95.9708 123.601 98.1007 124.434 100.318 125.026C100.562 125.092 100.708 125.343 100.644 125.587C100.588 125.792 100.403 125.928 100.2 125.928Z" fill="#5D994F"/>
</g>
<g id="Group_24">
<path id="Vector_56" d="M61.4788 98.3632C64.1485 98.7516 61.8458 114.568 59.1761 114.18C54.3428 113.476 52.563 112.14 53.5615 105.287C54.534 98.6079 56.4697 97.6339 61.4788 98.3632Z" fill="#538C44"/>
<path id="Vector_57" d="M48.2909 104.519C47.4468 110.318 49.3795 110.6 54.3887 111.329C57.0584 111.717 58.7464 100.118 56.0767 99.7298C51.0676 99.0005 49.1349 98.7191 48.2909 104.519Z" fill="#538C44"/>
<path id="Vector_58" d="M51.1458 107.087C51.287 106.117 50.2607 105.165 48.8534 104.96C47.4462 104.755 46.1909 105.376 46.0497 106.346C45.9085 107.316 46.9349 108.269 48.3421 108.473C49.7494 108.678 51.0046 108.058 51.1458 107.087Z" fill="#538C44"/>
<path id="Vector_59" d="M51.7852 102.694C51.9264 101.724 50.9001 100.771 49.4928 100.566C48.0856 100.362 46.8303 100.982 46.6891 101.952C46.5479 102.922 47.5743 103.875 48.9815 104.08C50.3888 104.285 51.644 103.664 51.7852 102.694Z" fill="#538C44"/>
</g>
<path id="Vector_60" d="M104.931 71.3359H48.9683C42.213 71.3359 36.736 76.8129 36.736 83.5682V91.6721L92.6987 101.764V83.5682C92.6987 76.8129 98.1757 71.3359 104.931 71.3359Z" fill="#89CE78"/>
<path id="Vector_61" d="M77.6561 135.876L75.7184 149.191L89.0336 151.129L90.9714 137.814L77.6561 135.876Z" fill="#538C44"/>
<g id="Group_25">
<path id="Vector_62" d="M86.9342 96.0751C86.9235 93.9482 86.8929 91.8229 86.873 89.696C86.7186 89.6822 86.6406 89.6746 86.4862 89.6608C86.2461 89.6394 86.1253 89.5048 86.1238 89.2419C86.1238 89.0033 86.1238 88.8795 86.1238 88.6211C86.1238 88.352 86.2385 88.2174 86.4663 88.2373C87.3378 88.3122 87.7736 88.3489 88.6436 88.4162C88.847 88.4315 88.9494 88.5767 88.9494 88.8336C88.9494 89.1104 88.9494 89.2449 88.951 89.5018C88.951 89.7541 88.8608 89.8657 88.6742 89.8504C88.451 89.8321 88.3394 89.8229 88.1161 89.8045C88.1268 91.3596 88.1559 92.9146 88.1742 94.4696C88.4127 94.4987 88.532 94.5124 88.7705 94.5415C89.084 94.5797 89.1773 94.7051 89.0534 94.9299C88.7553 95.4589 88.6054 95.7372 88.3027 96.3626C88.2247 96.5155 88.0978 96.5843 87.9235 96.5629C87.6482 96.5277 87.5106 96.5094 87.2354 96.4742C87.0366 96.4482 86.9372 96.3106 86.9372 96.0766L86.9342 96.0751Z" fill="#69AA5B"/>
<path id="Vector_63" d="M81.8456 95.5368C81.5199 95.3335 81.2508 95.0323 81.0337 94.6638C80.8181 94.2953 80.656 93.8518 80.549 93.3641C80.442 92.8763 80.3854 92.3289 80.3823 91.702C80.3793 91.017 80.4297 90.4467 80.5383 89.9604C80.6453 89.4742 80.8089 89.0507 81.0261 88.7235C81.2432 88.3978 81.5138 88.1592 81.838 88.0369C82.1606 87.9146 82.5367 87.8718 82.9649 87.9146C83.3808 87.9559 83.7493 88.0767 84.0704 88.2709C84.3915 88.465 84.6606 88.7617 84.8746 89.1348C85.0887 89.5079 85.2538 89.9681 85.3701 90.4849C85.4863 91.0017 85.5489 91.595 85.5566 92.2922C85.5658 92.9772 85.5153 93.5522 85.4083 94.0292C85.2997 94.5063 85.1392 94.9145 84.9251 95.2188C84.711 95.5246 84.4404 95.7433 84.1162 95.8503C83.7921 95.9573 83.4159 95.9864 82.9909 95.9329C82.5536 95.8778 82.1713 95.7433 81.8471 95.5399L81.8456 95.5368ZM82.3884 89.3412C82.2172 89.4253 82.0719 89.5797 81.9557 89.7938C81.838 90.0078 81.7493 90.2861 81.6881 90.6164C81.627 90.9467 81.5979 91.3442 81.601 91.8182C81.604 92.3029 81.6377 92.7097 81.7004 93.043C81.7631 93.3763 81.8517 93.6577 81.9679 93.8732C82.0842 94.0888 82.2294 94.2494 82.4068 94.3488C82.5841 94.4482 82.7906 94.5047 83.0169 94.5307C83.2386 94.5552 83.4404 94.5384 83.6132 94.4726C83.786 94.4054 83.9297 94.2708 84.0428 94.0781C84.1575 93.8855 84.2432 93.6225 84.2997 93.3044C84.3578 92.9849 84.3838 92.598 84.3777 92.1347C84.3716 91.6516 84.3395 91.2387 84.2783 90.8886C84.2172 90.5384 84.13 90.2372 84.0138 89.9971C83.8976 89.7571 83.7539 89.5736 83.5826 89.4589C83.4098 89.3427 83.2126 89.2739 82.9893 89.251C82.76 89.228 82.5597 89.2601 82.3884 89.3427V89.3412Z" fill="#69AA5B"/>
<path id="Vector_64" d="M75.867 94.7729C75.5413 94.568 75.2692 94.2653 75.0551 93.8968C74.8395 93.5283 74.6789 93.0879 74.575 92.6078C74.4695 92.1277 74.4175 91.5941 74.4205 90.9855C74.4221 90.3219 74.4786 89.7669 74.5903 89.2898C74.7019 88.8128 74.8685 88.3938 75.0887 88.0727C75.3089 87.7501 75.5826 87.5131 75.9098 87.3938C76.2355 87.2745 76.6147 87.2348 77.0444 87.2822C77.4633 87.3281 77.8333 87.455 78.1575 87.6537C78.4801 87.8525 78.7492 88.1537 78.9633 88.5268C79.1774 88.8999 79.341 89.3556 79.4541 89.8601C79.5673 90.3647 79.6254 90.9396 79.6284 91.6109C79.6315 92.2714 79.5765 92.8265 79.4648 93.2913C79.3532 93.7561 79.1881 94.1583 78.971 94.4595C78.7538 94.7622 78.4801 94.9809 78.1529 95.0864C77.8257 95.1934 77.448 95.2225 77.0199 95.1674C76.5795 95.1109 76.1958 94.9763 75.8701 94.7714L75.867 94.7729ZM76.4587 88.7027C76.286 88.7837 76.1392 88.9351 76.0199 89.1446C75.9006 89.354 75.8089 89.6262 75.7447 89.9473C75.6805 90.2684 75.6468 90.6537 75.6468 91.114C75.6468 91.5849 75.6759 91.9794 75.737 92.3066C75.7967 92.6323 75.8854 92.909 76 93.1231C76.1162 93.3356 76.2615 93.4962 76.4389 93.594C76.6162 93.6919 76.8242 93.75 77.052 93.776C77.2753 93.802 77.4786 93.7852 77.6529 93.721C77.8272 93.6552 77.9725 93.5237 78.0887 93.3356C78.2049 93.146 78.2936 92.8907 78.3532 92.5818C78.4144 92.2714 78.4434 91.8968 78.4419 91.4503C78.4419 90.984 78.4113 90.5849 78.3532 90.2424C78.2951 89.9014 78.208 89.6063 78.0933 89.3693C77.9786 89.1323 77.8349 88.9504 77.6621 88.8326C77.4893 88.7164 77.2905 88.6446 77.0658 88.6186C76.8349 88.5926 76.6331 88.6216 76.4587 88.7027Z" fill="#69AA5B"/>
<path id="Vector_65" d="M69.8656 93.9833C69.5384 93.7753 69.2678 93.471 69.0522 93.1041C68.8366 92.7371 68.6775 92.2998 68.572 91.8289C68.4681 91.3579 68.4176 90.8396 68.4207 90.2509C68.4253 89.6087 68.4834 89.072 68.598 88.6041C68.7112 88.1378 68.8809 87.7234 69.1026 87.4023C69.3259 87.0812 69.6026 86.8427 69.9314 86.7219C70.2601 86.6011 70.6424 86.5613 71.0766 86.6103C71.4986 86.6577 71.8717 86.7861 72.1974 86.9864C72.5231 87.1867 72.7922 87.4895 73.0062 87.8625C73.2203 88.2356 73.3824 88.6882 73.494 89.1852C73.6041 89.6821 73.6591 90.2402 73.6561 90.8931C73.653 91.5353 73.5949 92.075 73.4787 92.5322C73.3625 92.9894 73.1958 93.3854 72.9757 93.6866C72.7555 93.9879 72.4818 94.205 72.153 94.3105C71.8243 94.416 71.4451 94.445 71.0154 94.3869C70.5735 94.3288 70.1898 94.1897 69.8625 93.9817L69.8656 93.9833ZM70.4849 88.0277C70.309 88.1072 70.1622 88.257 70.0399 88.4619C69.9191 88.6683 69.8258 88.9329 69.7586 89.2463C69.6928 89.5598 69.6577 89.9329 69.6546 90.3793C69.6515 90.835 69.6806 91.2188 69.7387 91.5383C69.7968 91.8579 69.8855 92.1301 70.0002 92.3396C70.1148 92.5506 70.2616 92.7096 70.439 92.8074C70.6164 92.9053 70.8243 92.9649 71.0552 92.9925C71.28 93.0184 71.4833 93.0047 71.6576 92.942C71.8335 92.8793 71.9787 92.7493 72.0965 92.5643C72.2142 92.3793 72.3044 92.1285 72.3671 91.8258C72.4298 91.523 72.4619 91.1591 72.465 90.7249C72.4665 90.2708 72.4405 89.8839 72.3839 89.5491C72.3273 89.2157 72.2417 88.9252 72.127 88.6897C72.0124 88.4558 71.8686 88.2738 71.6943 88.1576C71.52 88.0414 71.3212 87.9696 71.0949 87.9436C70.8625 87.9176 70.6592 87.9466 70.4833 88.0261L70.4849 88.0277Z" fill="#69AA5B"/>
<path id="Vector_66" d="M63.8626 93.1457C63.5354 92.9347 63.2632 92.6304 63.0461 92.2665C62.829 91.9026 62.6669 91.4745 62.5598 91.0203C62.4528 90.5647 62.3993 90.0723 62.3993 89.5127C62.3993 88.9026 62.4543 88.3919 62.566 87.9424C62.6776 87.4929 62.8442 87.0877 63.0675 86.7696C63.2907 86.4516 63.569 86.2115 63.9008 86.0892C64.2326 85.9654 64.6179 85.9225 65.0568 85.9653C65.4834 86.0082 65.861 86.1335 66.1898 86.3308C66.5185 86.528 66.7922 86.8293 67.0078 87.1993C67.2249 87.5678 67.387 88.0143 67.4986 88.5005C67.6087 88.9852 67.6622 89.5265 67.6592 90.1564C67.6546 90.7757 67.595 91.2986 67.4788 91.7451C67.3625 92.1916 67.1944 92.5815 66.9742 92.8781C66.754 93.1748 66.4803 93.3904 66.1515 93.4928C65.8228 93.5952 65.4436 93.6212 65.0155 93.5585C64.5751 93.4959 64.1913 93.3537 63.8641 93.1442L63.8626 93.1457ZM64.462 87.3736C64.2861 87.4531 64.1363 87.5999 64.0155 87.8002C63.8947 88.0005 63.8014 88.2589 63.7357 88.5586C63.6699 88.8598 63.6363 89.2161 63.6363 89.6412C63.6363 90.0769 63.6653 90.4439 63.7265 90.7512C63.7877 91.0586 63.8748 91.3231 63.991 91.5295C64.1072 91.7359 64.254 91.8934 64.4314 91.9913C64.6088 92.0891 64.8182 92.1488 65.0476 92.1778C65.2724 92.2053 65.4757 92.1931 65.6516 92.132C65.8274 92.0708 65.9727 91.9454 66.0904 91.765C66.2081 91.5846 66.2983 91.3414 66.361 91.0479C66.4237 90.7558 66.4574 90.4041 66.4589 89.9867C66.4619 89.5494 66.4344 89.1763 66.3778 88.8522C66.3213 88.528 66.2356 88.2451 66.1194 88.0158C66.0032 87.7864 65.858 87.6091 65.6821 87.4959C65.5063 87.3828 65.306 87.3124 65.0766 87.288C64.8427 87.2635 64.6363 87.2926 64.4604 87.3721L64.462 87.3736Z" fill="#69AA5B"/>
</g>
<g id="Group_26">
<path id="Vector_67" d="M57.5875 86.4577C57.6976 86.8185 57.797 87.1901 57.8842 87.6182C57.9637 87.2115 58.0539 86.8629 58.1579 86.5265C58.2618 86.1901 58.3735 85.8629 58.4943 85.5525C58.5508 85.4454 58.6441 85.3934 58.7756 85.4041C58.9514 85.4179 59.0401 85.424 59.216 85.4363C59.3337 85.4439 59.4239 85.502 59.4866 85.6029C59.7848 86.4118 60.0294 87.0066 60.2129 87.5998C60.3964 88.1931 60.5156 88.7879 60.5646 89.5631C60.5692 89.6855 60.5126 89.742 60.3948 89.7267C60.1991 89.7007 60.1013 89.6885 59.9056 89.664C59.7526 89.6442 59.6701 89.5616 59.6563 89.4255C59.6211 89.0907 59.5768 88.794 59.5264 88.5219C59.4774 88.2497 59.4224 88.0081 59.3627 87.7818C59.3031 87.5555 59.2404 87.3476 59.1731 87.1488C59.1059 86.95 59.0355 86.7665 58.9637 86.5937C58.9606 86.5953 58.9591 86.5968 58.9575 86.5983C58.9575 86.5968 58.9575 86.5953 58.9575 86.5937C58.8123 87.0632 58.693 87.4561 58.5967 87.869C58.5004 88.2803 58.4239 88.7191 58.3673 89.2619C58.3459 89.3919 58.2588 89.4515 58.1059 89.4332C57.9591 89.4148 57.8857 89.4056 57.7389 89.3858C57.586 89.3659 57.4836 89.2772 57.4622 89.1472C57.4224 88.9102 57.3949 88.6442 57.3429 88.3995C57.2909 88.1549 57.2343 87.9255 57.1747 87.7008C57.1135 87.476 57.0478 87.2589 56.9759 87.0356C56.9041 86.8124 56.8322 86.5953 56.7588 86.3751C56.7557 86.3751 56.7542 86.3766 56.7527 86.3781C56.7527 86.3766 56.7527 86.3751 56.7527 86.3736C56.6227 86.7008 56.508 87.0387 56.4086 87.4378C56.3093 87.8353 56.2297 88.2894 56.1671 88.9821C56.1625 89.0448 56.1395 89.0922 56.0952 89.1228C56.0508 89.1533 55.9882 89.1641 55.9041 89.1534C55.7114 89.1289 55.6151 89.1166 55.4224 89.0922C55.3689 89.0861 55.3276 89.0616 55.297 89.0203C55.2665 88.9806 55.2512 88.9347 55.2496 88.8873C55.3047 88.1503 55.4117 87.6243 55.5738 87.1029C55.7359 86.5815 55.956 86.0632 56.2389 85.3231C56.2955 85.2176 56.3857 85.1702 56.5126 85.184C56.69 85.2038 56.7787 85.2145 56.956 85.2329C57.0738 85.2451 57.1609 85.3063 57.219 85.4087C57.3566 85.7436 57.4805 86.0968 57.5906 86.4577H57.5875ZM57.8842 87.6258C57.8842 87.6258 57.878 87.6258 57.878 87.6335C57.878 87.6304 57.8796 87.6289 57.8842 87.6258Z" fill="#69AA5B"/>
<path id="Vector_68" d="M51.0202 86.5164C51.0248 85.3345 51.6655 84.4951 52.9101 84.6617C54.1349 84.8253 54.7496 85.8054 54.7633 87.0057C54.7771 88.18 54.1578 88.9828 52.9116 88.8207C51.6441 88.6556 51.0141 87.6709 51.0187 86.5149L51.0202 86.5164ZM53.8199 86.8834C53.8138 86.0486 53.5126 85.492 52.9101 85.4125C52.2817 85.3299 51.9606 85.8085 51.9514 86.6372C51.9545 86.6372 51.956 86.6372 51.9575 86.6372C51.9575 87.44 52.2756 87.9904 52.9147 88.0745C53.5233 88.1556 53.826 87.6908 53.8199 86.8819V86.8834Z" fill="#69AA5B"/>
<path id="Vector_69" d="M46.7665 84.0713C46.9851 84.0835 47.0952 84.0896 47.3124 84.1049C47.4867 84.1172 47.6121 84.1951 47.687 84.3282C48.3659 85.5392 48.6992 85.8113 49.3704 86.7196C49.3766 85.9077 49.3781 85.663 49.3857 84.5162C49.3857 84.3664 49.4759 84.293 49.6518 84.3129C49.8215 84.3312 49.9056 84.3404 50.0753 84.3603C50.2558 84.3801 50.346 84.4734 50.3444 84.6233C50.3322 86.4138 50.3337 86.3939 50.3215 88.1767C50.3215 88.3404 50.2175 88.4183 50.0142 88.3908C49.8475 88.3679 49.7634 88.3572 49.5967 88.3342C49.4515 88.3144 49.3414 88.2333 49.2665 88.1018C48.5432 86.6859 48.1809 86.4245 47.4469 85.4291C47.4423 86.3465 47.4408 86.5361 47.4362 87.8006C47.4362 87.9489 47.3429 88.0177 47.1564 87.9902C47.0004 87.9673 46.9225 87.9566 46.765 87.9336C46.5845 87.9076 46.4928 87.8144 46.4928 87.6722V84.2655C46.4928 84.1324 46.583 84.0652 46.7634 84.0743L46.7665 84.0713Z" fill="#69AA5B"/>
</g>
</g>
<path id="Vector_70" d="M126.061 90.2091C120.867 84.307 116.541 78.4783 110.396 73.512C100.803 65.6895 87.0229 76.2031 92.9158 87.0899C96.6039 93.9017 107.324 100.574 112.443 103.753" fill="#FFD0BD"/>
<path id="Vector_71" d="M126.061 91.1261C125.807 91.1261 125.553 91.0206 125.371 90.8142C124.117 89.3892 122.902 87.9549 121.727 86.5696C117.969 82.1339 114.419 77.9428 109.819 74.2242C107.969 72.715 105.908 71.8786 103.691 71.7364C103.185 71.7043 102.801 71.267 102.835 70.7624C102.867 70.2563 103.303 69.8741 103.809 69.9062C106.379 70.0713 108.858 71.0713 110.977 72.8006C115.709 76.6263 119.313 80.8801 123.13 85.3846C124.299 86.7653 125.507 88.1919 126.75 89.6032C127.085 89.984 127.049 90.5635 126.668 90.8983C126.493 91.0512 126.278 91.1277 126.062 91.1277L126.061 91.1261Z" fill="#F29373"/>
</g>
</g>
<defs>
<clipPath id="clip0_1862_22628">
<rect width="155" height="155" fill="white" transform="translate(0.511475)"/>
</clipPath>
</defs>
</svg>
