<svg width="138" height="132" viewBox="0 0 138 132" fill="none" xmlns="http://www.w3.org/2000/svg">
<g id="piggy" clip-path="url(#clip0_1862_26411)">
<path id="Vector" opacity="0.7" d="M11.0854 125.061H136.932C137.819 125.061 138.318 125.749 137.774 126.222L132.234 131.027C131.528 131.64 130.44 132 129.289 132H1.44252C0.591529 132 0.0982117 131.367 0.537949 130.898C0.577056 130.856 0.624332 130.823 0.672539 130.792L8.0677 126.079C8.1156 126.048 8.16094 126.014 8.20488 125.978C8.91203 125.399 9.96861 125.061 11.0854 125.061Z" fill="#23282E"/>
<path id="Vector_2" d="M18.7852 144.859H118.04V135.969H117.909C116.147 108.18 94.6675 86.2217 68.4134 86.2217C42.1592 86.2217 20.6779 108.18 18.9162 135.969C18.9162 135.969 18.5881 140.196 18.7852 144.859Z" fill="#FFD8C8"/>
<path id="Vector_3" d="M41.1216 3.61196C33.91 11.8515 7.72212 45.007 44.1909 54.3472C51.0033 56.0911 58.2376 54.4943 63.673 50.0335C92.623 26.2684 55.1053 7.18869 45.1283 2.73273C43.7448 2.11533 42.1189 2.4709 41.1216 3.61196Z" fill="#FFD8C8"/>
<path id="Vector_4" d="M41.1215 3.61254C41.7987 2.83837 42.7636 2.42623 43.7479 2.43269C44.341 2.60886 56.9671 11.0779 58.2682 22.1637C45.8005 22.1314 34.4998 24.8677 25.7446 30.8235C27.9443 19.5987 37.2571 8.0281 41.1215 3.61254Z" fill="#F6A284"/>
<path id="Vector_5" d="M107.205 13.4362C111.706 23.418 127.119 62.7572 89.5088 61.086C82.4847 60.7741 76.0262 57.1408 72.1246 51.2916C51.3398 20.1338 92.7849 12.7913 103.627 11.4304C105.13 11.2413 106.581 12.0559 107.205 13.4378V13.4362Z" fill="#FFD8C8"/>
<path id="Vector_6" d="M107.205 13.4359C106.783 12.4985 105.978 11.8245 105.036 11.5449C104.417 11.5401 89.8723 15.9718 85.405 26.1993C97.3425 29.7938 107.36 35.6996 114.003 43.9456C115.163 32.5641 109.618 18.7857 107.205 13.4359Z" fill="#F6A284"/>
<path id="Vector_7" d="M71.9774 23.2316C40.5254 18.5575 12.933 28.8771 8.2508 60.3743C3.99364 89.0157 28.0659 102.38 59.5162 107.056C90.9665 111.732 117.887 105.947 122.144 77.306C126.826 45.8088 103.428 27.909 71.9774 23.2332V23.2316Z" fill="#FFD8C8"/>
<path id="Vector_8" d="M83.8144 68.8003C84.7647 62.4113 81.3965 56.6187 67.2786 54.5192C53.1608 52.4213 48.2539 56.984 47.3052 63.373C46.3548 69.7619 49.7231 75.5545 63.8409 77.654C77.9587 79.7519 82.8656 75.1893 83.8144 68.8003Z" fill="#FFB59B"/>
<path id="Vector_9" d="M60.3453 65.9354C60.0301 68.0559 59.7748 69.7756 58.1812 69.5396C56.5876 69.302 56.8445 67.584 57.1597 65.4619C57.4749 63.3414 57.7302 61.6217 59.3238 61.8576C60.9175 62.0952 60.6605 63.8133 60.3453 65.9354Z" fill="#DA724F"/>
<path id="Vector_10" d="M73.3995 67.8768C73.0843 69.9973 72.829 71.717 71.2354 71.481C69.6418 71.2435 69.8987 69.5254 70.2139 67.4033C70.5291 65.2812 70.7844 63.5631 72.378 63.7991C73.9717 64.0367 73.7147 65.7547 73.3995 67.8768Z" fill="#DA724F"/>
<path id="Vector_11" d="M43.9743 57.4198C46.1764 57.4198 47.9616 55.6347 47.9616 53.4326C47.9616 51.2305 46.1764 49.4453 43.9743 49.4453C41.7722 49.4453 39.9871 51.2305 39.9871 53.4326C39.9871 55.6347 41.7722 57.4198 43.9743 57.4198Z" fill="#23282E"/>
<path id="Vector_12" d="M89.5136 64.1903C91.7157 64.1903 93.5009 62.4052 93.5009 60.2031C93.5009 58.001 91.7157 56.2158 89.5136 56.2158C87.3115 56.2158 85.5264 58.001 85.5264 60.2031C85.5264 62.4052 87.3115 64.1903 89.5136 64.1903Z" fill="#23282E"/>
<path id="Vector_13" d="M27.1141 86.1891C35.1914 86.1891 41.7394 79.6411 41.7394 71.5638C41.7394 63.4865 35.1914 56.9385 27.1141 56.9385C19.0367 56.9385 12.4888 63.4865 12.4888 71.5638C12.4888 79.6411 19.0367 86.1891 27.1141 86.1891Z" fill="#FFB59B"/>
<path id="Vector_14" d="M98.2508 96.7643C106.328 96.7643 112.876 90.2163 112.876 82.139C112.876 74.0617 106.328 67.5137 98.2508 67.5137C90.1735 67.5137 83.6255 74.0617 83.6255 82.139C83.6255 90.2163 90.1735 96.7643 98.2508 96.7643Z" fill="#FFB59B"/>
<path id="Vector_15" d="M52.875 95.1006C55.107 96.6829 57.769 97.79 60.7105 98.228C63.6521 98.666 66.5209 98.3815 69.1166 97.5152" stroke="#F29373" stroke-width="1.93948" stroke-linecap="round" stroke-linejoin="round"/>
<path id="Vector_16" d="M43.0871 105.216C47.0792 115.503 44.1328 126.085 36.5058 128.848C28.8772 131.614 20.7346 129.514 15.464 115.227C11.6465 104.878 11.4687 95.7979 22.0453 91.594C29.5802 88.5991 39.0934 94.9283 43.0871 105.216Z" fill="#FFD8C8"/>
<path id="Vector_17" d="M20.3386 92.3609C31.7541 88.1619 40.8697 98.2101 45.9317 111.348" stroke="#F29373" stroke-width="1.93948" stroke-linecap="round" stroke-linejoin="round"/>
<path id="Vector_18" d="M23.3464 98.818C21.2647 91.7502 28.0254 86.7754 30.3156 86.4684C30.9492 86.3843 31.6183 86.234 32.3408 86.234C35.3195 86.234 38.7686 87.5173 41.1266 90.3053C44.0359 87.3007 48.1653 85.4873 52.4629 85.4873C55.5273 85.4873 58.7032 86.1338 60.5732 88.1945C62.7648 90.6108 64.1176 93.0173 63.4566 98.818" fill="#8E939A"/>
<path id="Vector_19" d="M58.9279 90.1106C53.8562 86.0215 44.5984 87.877 40.8924 94.7104C39.0886 89.5708 33.7033 88.1841 30.9962 88.8613C24.6961 90.4387 21.3133 99.2973 24.6621 108.233C26.9491 114.336 30.9347 118.295 34.6957 121.078C41.353 126.006 50.9987 121.708 57.5299 114.432C64.8482 106.278 65.4737 95.3892 58.9296 90.1122L58.9279 90.1106Z" fill="#FF5C46"/>
<path id="Vector_20" d="M39.116 88.7398C40.4549 88.7398 41.5404 87.6906 41.5404 86.3963C41.5404 85.102 40.4549 84.0527 39.116 84.0527C37.7771 84.0527 36.6917 85.102 36.6917 86.3963C36.6917 87.6906 37.7771 88.7398 39.116 88.7398Z" fill="#8E939A"/>
<path id="Vector_21" d="M43.5606 89.0621C45.0334 89.0621 46.2274 87.8681 46.2274 86.3953C46.2274 84.9225 45.0334 83.7285 43.5606 83.7285C42.0878 83.7285 40.8938 84.9225 40.8938 86.3953C40.8938 87.8681 42.0878 89.0621 43.5606 89.0621Z" fill="#8E939A"/>
<path id="Union" fill-rule="evenodd" clip-rule="evenodd" d="M35.5086 100.907C36.0821 100.735 36.6861 101.061 36.8577 101.635L38.4951 107.107L40.1326 101.635C40.2699 101.176 40.692 100.862 41.171 100.862C41.6499 100.862 42.072 101.176 42.2093 101.635L43.8468 107.107L45.4842 101.635C45.6558 101.061 46.2598 100.735 46.8333 100.907C47.4068 101.079 47.7326 101.683 47.561 102.256L46.5188 105.739H48.2162C48.8148 105.739 49.3 106.224 49.3 106.823C49.3 107.421 48.8148 107.906 48.2162 107.906H45.8702L44.8851 111.198C44.7478 111.657 44.3257 111.971 43.8468 111.971C43.3678 111.971 42.9457 111.657 42.8084 111.198L41.171 105.726L39.5335 111.198C39.3962 111.657 38.9741 111.971 38.4951 111.971C38.0162 111.971 37.5941 111.657 37.4568 111.198L36.4717 107.906H34.058C33.4594 107.906 32.9741 107.421 32.9741 106.823C32.9741 106.224 33.4594 105.739 34.058 105.739H35.8231L34.7809 102.256C34.6093 101.683 34.9351 101.079 35.5086 100.907Z" fill="#F7F9FA"/>
<path id="Vector_22" d="M78.2741 113.18C83.3814 121.213 82.1046 130.942 75.4214 134.91C68.7383 138.878 59.3205 138.332 52.4822 127.118C47.5284 118.995 47.4638 110.532 55.9959 105.003C64.4359 99.5339 73.1668 105.147 78.2757 113.18H78.2741Z" fill="#FFD8C8"/>
<path id="Vector_23" d="M52.4805 127.117C47.5267 118.994 47.4621 110.531 55.9942 105.002C64.4342 99.533 73.1651 105.146 78.274 113.179" stroke="#F29373" stroke-width="1.93948" stroke-linecap="round" stroke-linejoin="round"/>
</g>
<defs>
<clipPath id="clip0_1862_26411">
<rect width="138" height="132" fill="white" transform="matrix(-1 0 0 1 138 0)"/>
</clipPath>
</defs>
</svg>
