<svg width="66" height="57" viewBox="0 0 66 57" fill="none" xmlns="http://www.w3.org/2000/svg">
<g id="Layer_8" clip-path="url(#clip0_1466_31557)">
<g id="Group">
<path id="Vector" d="M53.5299 0.110965L2.44787 14.864C0.680792 15.3744 -0.359552 17.2994 0.124198 19.1636L8.41865 51.1284C8.9024 52.9927 10.7271 54.0903 12.4941 53.5799L63.5761 38.8269C65.3432 38.3165 66.3836 36.3915 65.8998 34.5273L57.6054 2.56242C57.1216 0.698169 55.297 -0.399387 53.5299 0.110965Z" fill="#FEEADF"/>
<path id="Vector_2" d="M58.5586 6.21521L1.07739 22.8164L3.13387 30.7416L60.615 14.1404L58.5586 6.21521Z" fill="#FF6D1C"/>
<path id="Vector_3" opacity="0.7" d="M15.4616 42.6356C17.899 42.6356 19.875 40.5509 19.875 37.9794C19.875 35.4079 17.899 33.3232 15.4616 33.3232C13.0241 33.3232 11.0481 35.4079 11.0481 37.9794C11.0481 40.5509 13.0241 42.6356 15.4616 42.6356Z" fill="#F43735"/>
<path id="Vector_4" opacity="0.7" d="M16.8461 47.9012C19.2836 47.9012 21.2595 45.8166 21.2595 43.245C21.2595 40.6735 19.2836 38.5889 16.8461 38.5889C14.4086 38.5889 12.4326 40.6735 12.4326 43.245C12.4326 45.8166 14.4086 47.9012 16.8461 47.9012Z" fill="#FFC601"/>
<path id="Vector_5" d="M34.6153 30.2771L28.4387 32.0609C27.9931 32.1896 27.7307 32.6751 27.8527 33.1452L28.0279 33.8203C28.1499 34.2904 28.61 34.5672 29.0556 34.4385L35.2322 32.6546C35.6778 32.5259 35.9402 32.0405 35.8182 31.5704L35.643 30.8952C35.521 30.4251 35.0609 30.1484 34.6153 30.2771Z" fill="#FF6D1C"/>
<path id="Vector_6" d="M45.0579 27.2614L38.8813 29.0453C38.4357 29.174 38.1734 29.6594 38.2953 30.1295L38.4705 30.8046C38.5925 31.2748 39.0526 31.5515 39.4983 31.4228L45.6748 29.639C46.1205 29.5103 46.3828 29.0248 46.2608 28.5547L46.0856 27.8796C45.9636 27.4095 45.5035 27.1327 45.0579 27.2614Z" fill="#FF6D1C"/>
<path id="Vector_7" d="M55.493 24.2175L49.3164 26.0013C48.8708 26.13 48.6084 26.6155 48.7304 27.0856L48.9056 27.7607C49.0276 28.2308 49.4877 28.5076 49.9333 28.3789L56.1099 26.595C56.5555 26.4663 56.8179 25.9809 56.6959 25.5108L56.5207 24.8357C56.3987 24.3656 55.9386 24.0888 55.493 24.2175Z" fill="#FF6D1C"/>
</g>
<g id="Group_2">
<path id="Vector_8" d="M53.5577 55.2766C59.3885 55.2766 64.1154 50.2898 64.1154 44.1383C64.1154 37.9868 59.3885 33 53.5577 33C47.7268 33 43 37.9868 43 44.1383C43 50.2898 47.7268 55.2766 53.5577 55.2766Z" fill="#FFC601"/>
<g id="Vector_9" style="mix-blend-mode:multiply">
<path d="M53.5577 52.5074C49.2019 52.5074 45.625 48.7642 45.625 44.1385C45.625 39.5127 49.1731 35.7695 53.5577 35.7695C57.9423 35.7695 61.4904 39.5127 61.4904 44.1385C61.4904 48.7642 57.9423 52.5074 53.5577 52.5074Z" fill="#FFC601" fill-opacity="0.5"/>
</g>
<path id="Vector_10" d="M48.5385 43.6213H58.5481V44.6256H48.5385V43.6213ZM48.5385 39.8477H49.7211L51.2211 46.5428H51.3077L52.8942 39.8477H54.1346L55.7211 46.5428H55.8077L57.3365 39.8477H58.5481L56.4423 48.4296H55.2019L53.5865 41.8562H53.5288L51.9135 48.4296H50.6731L48.5673 39.8477H48.5385Z" fill="#FFD064"/>
</g>
</g>
<defs>
<clipPath id="clip0_1466_31557">
<rect width="66" height="57" fill="white"/>
</clipPath>
</defs>
</svg>
