<svg width="90" height="60" viewBox="0 0 90 60" fill="none" xmlns="http://www.w3.org/2000/svg">
<g id="&#237;&#134;&#181;&#236;&#158;&#165;" clip-path="url(#clip0_1980_40601)">
<path id="Vector" d="M77.4588 0.587891H12.5555C8.40692 0.587891 5.04517 4.62022 5.04517 9.62169L9.53704 48.7162C9.53704 53.7004 12.8988 57.75 17.0473 57.75H81.6216C85.7702 57.75 89.1319 53.7004 89.1319 48.7162L84.9834 9.62169C84.9691 4.63752 81.6073 0.587891 77.4588 0.587891Z" fill="#FC8619"/>
<path id="Vector_2" d="M77.8679 0.832031H12.6642C8.54426 0.832031 5.19681 4.88166 5.19681 9.86583L1.24854 50.6218C1.24854 55.6059 4.59598 59.6556 8.71592 59.6556H73.9196C78.0396 59.6556 81.387 55.6059 81.387 50.6218L85.3353 9.84852C85.3353 4.88167 81.9878 0.832031 77.8679 0.832031Z" fill="#FFBC6C"/>
<path id="Vector (Stroke)" fill-rule="evenodd" clip-rule="evenodd" d="M30.7264 17.5845C31.8808 17.2498 33.084 17.9281 33.4138 19.0994L37.1205 32.2638L40.8271 19.0994C41.0938 18.1525 41.9468 17.4996 42.9173 17.4996C43.8879 17.4996 44.7409 18.1525 45.0075 19.0994L48.7142 32.2638L52.4208 19.0994C52.7507 17.9281 53.9538 17.2498 55.1082 17.5845C56.2626 17.9191 56.931 19.14 56.6012 20.3114L54.0812 29.2612H57.408C58.6086 29.2612 59.5819 30.2487 59.5819 31.467C59.5819 32.6852 58.6086 33.6728 57.408 33.6728H52.8391L50.8044 40.8992C50.5377 41.8461 49.6847 42.499 48.7142 42.499C47.7436 42.499 46.8906 41.8462 46.624 40.8992L42.9173 27.7348L39.2106 40.8992C38.944 41.8462 38.091 42.499 37.1205 42.499C36.1499 42.499 35.2969 41.8461 35.0303 40.8992L32.9956 33.6728H28.4224C27.2218 33.6728 26.2485 32.6852 26.2485 31.467C26.2485 30.2487 27.2218 29.2612 28.4224 29.2612H31.7534L29.2334 20.3114C28.9036 19.14 29.572 17.9191 30.7264 17.5845Z" fill="#FC8619"/>
</g>
<defs>
<clipPath id="clip0_1980_40601">
<rect width="88.2353" height="58.8235" fill="white" transform="translate(0.882324 0.587891)"/>
</clipPath>
</defs>
</svg>
