<svg width="84" height="84" viewBox="0 0 84 84" fill="none" xmlns="http://www.w3.org/2000/svg">
<g id="&#237;&#136;&#172;&#236;&#158;&#144;" clip-path="url(#clip0_1980_40608)">
<path id="Vector (Stroke)" fill-rule="evenodd" clip-rule="evenodd" d="M35.4779 6.08544C36.6323 5.75076 37.8354 6.42904 38.1653 7.60041L41.8719 20.7648L45.5786 7.60041C45.8452 6.65344 46.6982 6.00057 47.6688 6.00057C48.6394 6.00057 49.4923 6.65344 49.759 7.60041L53.4656 20.7648L57.1723 7.60041C57.5021 6.42904 58.7053 5.75076 59.8597 6.08544C61.0141 6.42012 61.6825 7.64101 61.3527 8.81239L58.8327 17.7621H62.1595C63.3601 17.7621 64.3333 18.7497 64.3333 19.968C64.3333 21.1862 63.3601 22.1738 62.1595 22.1738H57.5905L55.5558 29.4002C55.2892 30.3471 54.4362 31 53.4656 31C52.4951 31 51.6421 30.3471 51.3755 29.4002L47.6688 16.2357L43.9621 29.4002C43.6955 30.3471 42.8425 31 41.8719 31C40.9014 31 40.0484 30.3471 39.7817 29.4002L37.747 22.1738H33.1738C31.9733 22.1738 31 21.1862 31 19.968C31 18.7497 31.9733 17.7621 33.1738 17.7621H36.5049L33.9849 8.81239C33.6551 7.64101 34.3235 6.42012 35.4779 6.08544Z" fill="#FC8619"/>
<g id="Group">
<g id="Group_2">
<path id="Vector" d="M15.7904 43.516C15.7904 43.516 23.1338 38.9502 28.2477 38.9502C33.3617 38.9502 55.6845 45.3131 55.0575 49.7817C54.4304 54.2504 44.1051 52.5342 39.8969 51.4818C46.1116 54.0237 79.0107 41.0064 82.9959 45.7503C88.5418 52.3561 57.3288 70.441 47.4772 72.3839C39.9108 73.8734 22.9248 66.1181 17.0445 66.5391C11.1503 66.96 15.8043 43.516 15.8043 43.516H15.7904Z" fill="#FFEFD7"/>
<path id="Vector_2" d="M55.0716 49.5713C56.9388 52.9389 52.633 53.9751 34.6855 50.8989" stroke="#D6BB7F" stroke-width="0.5" stroke-miterlimit="10"/>
</g>
<path id="Vector_3" d="M12.3377 22.8828H5.48771C2.91227 22.8828 0.824463 24.1645 0.824463 25.7455V80.3143C0.824463 81.8953 2.91227 83.1769 5.48771 83.1769H12.3377C14.9131 83.1769 17.0009 81.8953 17.0009 80.3143V25.7455C17.0009 24.1645 14.9131 22.8828 12.3377 22.8828Z" fill="#FFBC6C"/>
</g>
</g>
<defs>
<clipPath id="clip0_1980_40608">
<rect width="83.3333" height="83.3333" fill="white" transform="translate(0.333252 0.333008)"/>
</clipPath>
</defs>
</svg>
