<svg width="100" height="142" viewBox="0 0 100 142" fill="none" xmlns="http://www.w3.org/2000/svg">
<g id="&#235;&#130;&#168;&#236;&#132;&#177;" clip-path="url(#clip0_1353_19945)">
<path id="Vector" d="M50.0196 0C22.37 0 0 22.296 0 49.8542V185.033H100V49.8542C100 22.296 77.63 0 50.0196 0Z" fill="#FF8F51"/>
<path id="Vector_2" d="M100 49.8542C100 22.296 77.63 0 50.0196 0C22.4091 0 0 22.296 0 49.8542C0 49.8542 32.9683 32.7814 50.4889 32.7814C72.4286 32.7814 100.039 49.8542 100.039 49.8542H100Z" fill="black"/>
<path id="Vector_3" d="M30.5436 89.418C38.8808 89.418 45.6394 82.6817 45.6394 74.3721C45.6394 66.0625 38.8808 59.3262 30.5436 59.3262C22.2064 59.3262 15.4478 66.0625 15.4478 74.3721C15.4478 82.6817 22.2064 89.418 30.5436 89.418Z" stroke="black" stroke-width="4" stroke-miterlimit="10"/>
<path id="Vector_4" d="M71.3336 89.418C79.6708 89.418 86.4294 82.6817 86.4294 74.3721C86.4294 66.0625 79.6708 59.3262 71.3336 59.3262C62.9964 59.3262 56.2378 66.0625 56.2378 74.3721C56.2378 82.6817 62.9964 89.418 71.3336 89.418Z" stroke="black" stroke-width="4" stroke-miterlimit="10"/>
<path id="Vector_5" d="M45.6394 74.3721H56.2378" stroke="black" stroke-width="4" stroke-miterlimit="10"/>
<path id="Vector_6" d="M56.7639 136.895L62.2534 122H51.025H39.7965L45.286 136.895L38 155.911L51.025 207L64 155.911L56.7639 136.895Z" fill="black"/>
</g>
<defs>
<clipPath id="clip0_1353_19945">
<rect width="100" height="197" fill="white"/>
</clipPath>
</defs>
</svg>
