<svg width="25" height="25" viewBox="0 0 25 25" fill="none" xmlns="http://www.w3.org/2000/svg">
<g id="Group 1000011733">
<path id="Vector" d="M21.5839 18.2181L14.896 14.8562C14.3051 14.5595 14.0664 13.8411 14.3638 13.2515L16.0778 9.85452C16.4222 9.17123 17.3184 8.98381 17.9093 9.47188L23.8302 14.3526C24.2606 14.7079 24.3898 15.3131 24.1354 15.8129L23.1884 17.6909C22.891 18.2805 22.1709 18.5187 21.58 18.222L21.5839 18.2181Z" fill="#8DD248"/>
<path id="Vector_2" d="M12.4577 24.9092L7.51516 22.4259C7.07687 22.2072 6.92816 21.6254 7.17861 21.1257L8.62655 18.2519C8.92005 17.674 9.60488 17.4788 10.0353 17.8575L14.3283 21.6254C14.6413 21.8987 14.7118 22.3946 14.5004 22.8124L13.6982 24.4016C13.4478 24.9013 12.8882 25.1278 12.4538 24.9052L12.4577 24.9092Z" fill="#8DD248"/>
<path id="Vector_3" d="M1.63333 19.4687L6.57585 21.952C7.01414 22.1707 7.56984 21.9442 7.8203 21.4483L9.26822 18.5746C9.56172 17.9967 9.30736 17.3291 8.74775 17.208L3.15952 16.0093C2.75254 15.9234 2.31425 16.1577 2.09901 16.5794L1.29677 18.1685C1.04632 18.6683 1.19503 19.2501 1.63333 19.4687Z" fill="#8DD248"/>
<path id="Vector_4" d="M1.59232 8.17494L8.2802 11.5368C8.87111 11.8335 9.59116 11.5953 9.88857 11.0057L11.6026 7.60878C11.947 6.92548 11.5674 6.09382 10.8199 5.9103L3.36506 4.07126C2.82111 3.93851 2.25759 4.19621 2.00713 4.69208L1.0601 6.57017C0.762691 7.15976 1.00141 7.87819 1.59232 8.17494Z" fill="#8DD248"/>
<path id="Vector_5" d="M7.06006 22.2003C5.20514 21.2671 5.15818 19.5803 6.19912 17.5187L12.5074 3.01725C13.5484 0.959552 15.9159 0.0341752 17.7708 0.967361C19.6258 1.90055 20.2949 4.3487 19.2579 6.40639L11.3412 20.0996C10.3003 22.1573 8.91498 23.1296 7.06006 22.1964V22.2003Z" fill="white"/>
<path id="Vector_6" d="M9.46005 17.5485L9.33772 17.487C9.10994 17.3726 8.8323 17.464 8.71759 17.6913L6.77261 21.5447C6.6579 21.772 6.74956 22.049 6.97734 22.1635L7.09967 22.2249C7.32745 22.3394 7.60508 22.2479 7.71979 22.0207L9.66477 18.1672C9.77948 17.94 9.68782 17.6629 9.46005 17.5485Z" fill="#8DD248"/>
</g>
</svg>
