<svg width="23" height="26" viewBox="0 0 23 26" fill="none" xmlns="http://www.w3.org/2000/svg">
<g id="Group">
<g id="Group_2">
<path id="Vector" d="M12.7085 8C14.8659 8 16.6147 6.25111 16.6147 4.09375C16.6147 1.93639 14.8659 0.1875 12.7085 0.1875C10.5511 0.1875 8.80225 1.93639 8.80225 4.09375C8.80225 6.25111 10.5511 8 12.7085 8Z" fill="white"/>
<path id="Vector_2" d="M18.1772 3.3125V8H0.989746V3.3125C0.989746 2.45313 1.69287 1.75 2.55225 1.75L16.6147 1.75C17.4741 1.75 18.1772 2.45312 18.1772 3.3125Z" fill="white"/>
<path id="Vector_3" d="M0.989746 22.0625L0.989746 8H18.1772V22.0625C18.1772 23.7812 16.771 25.1875 15.0522 25.1875H4.11475C2.396 25.1875 0.989746 23.7812 0.989746 22.0625Z" fill="#FFD34C"/>
<g id="Group_3">
<path id="Vector_4" d="M7.23975 12.6875H5.67725V20.5H7.23975V12.6875Z" fill="#FFA723"/>
<path id="Vector_5" d="M13.4897 12.6875H11.9272V20.5H13.4897V12.6875Z" fill="#FFA723"/>
</g>
<path id="Vector_6" d="M18.1772 9.5625V11.125H19.7397C20.5991 11.125 21.3022 11.8281 21.3022 12.6875V15.8125C21.3022 16.6719 20.5991 17.375 19.7397 17.375H18.1772V18.9375H19.7397C21.4585 18.9375 22.8647 17.5312 22.8647 15.8125V12.6875C22.8647 10.9688 21.4585 9.5625 19.7397 9.5625H18.1772Z" fill="#FFD34C"/>
<path id="Vector_7" d="M8.021 4.875C9.31541 4.875 10.3647 3.82567 10.3647 2.53125C10.3647 1.23683 9.31541 0.1875 8.021 0.1875C6.72658 0.1875 5.67725 1.23683 5.67725 2.53125C5.67725 3.82567 6.72658 4.875 8.021 4.875Z" fill="white"/>
<path id="Vector_8" d="M4.11475 4.875H7.23975V9.5625C7.23975 10.4219 6.53662 11.125 5.67725 11.125C4.81787 11.125 4.11475 10.4219 4.11475 9.5625V4.875Z" fill="white"/>
</g>
</g>
</svg>
