<svg width="20" height="24" viewBox="0 0 20 24" fill="none" xmlns="http://www.w3.org/2000/svg">
<g id="Group 1000011756">
<path id="Vector" d="M20 13.6667C20 12.75 19.25 12 18.3333 12H1.66667C0.75 12 0 12.75 0 13.6667V22C0 22.9167 0.75 23.6667 1.66667 23.6667H18.3333C19.25 23.6667 20 22.9167 20 22C20 21.0833 19.25 20.3333 18.3333 20.3333H3.33333V15.3333H18.3333C19.25 15.3333 20 14.5833 20 13.6667Z" fill="#8DD248"/>
<path id="Vector_2" d="M20 2.00016C20 1.0835 19.25 0.333496 18.3333 0.333496H1.66667C0.75 0.333496 0 1.0835 0 2.00016V10.3335C0 11.2502 0.75 12.0002 1.66667 12.0002H18.3333C19.25 12.0002 20 11.2502 20 10.3335C20 9.41683 19.25 8.66683 18.3333 8.66683H3.33333V3.66683H18.3333C19.25 3.66683 20 2.91683 20 2.00016Z" fill="#B6E765"/>
<path id="Vector_3" d="M18.3335 15.3335H3.3335V20.3335H18.3335V15.3335Z" fill="white"/>
<path id="Vector_4" d="M18.3335 3.66699H3.3335V8.66699H18.3335V3.66699Z" fill="white"/>
<path id="Vector_5" d="M9.99984 22L8.33317 20.3333L6.6665 22V17H9.99984V22Z" fill="#B6E765"/>
</g>
</svg>
