<svg width="40" height="40" viewBox="0 0 40 40" fill="none" xmlns="http://www.w3.org/2000/svg">
<path d="M22.65 6.6665H17.35C16.0521 6.6665 15 7.71863 15 9.0165V10.9832C15 12.281 16.0521 13.3332 17.35 13.3332H22.65C23.9479 13.3332 25 12.281 25 10.9832V9.0165C25 7.71863 23.9479 6.6665 22.65 6.6665Z" fill="#5A7EFF"/>
<path d="M15.0003 28.3335H13.3337C12.4132 28.3335 11.667 29.0797 11.667 30.0002V31.6668C11.667 32.5873 12.4132 33.3335 13.3337 33.3335H15.0003C15.9208 33.3335 16.667 32.5873 16.667 31.6668V30.0002C16.667 29.0797 15.9208 28.3335 15.0003 28.3335Z" fill="#5A7EFF"/>
<path d="M26.6668 28.3335H25.0002C24.0797 28.3335 23.3335 29.0797 23.3335 30.0002V31.6668C23.3335 32.5873 24.0797 33.3335 25.0002 33.3335H26.6668C27.5873 33.3335 28.3335 32.5873 28.3335 31.6668V30.0002C28.3335 29.0797 27.5873 28.3335 26.6668 28.3335Z" fill="#5A7EFF"/>
<path d="M28.3335 10H11.6668C9.82588 10 8.3335 11.4924 8.3335 13.3333V26.6667C8.3335 28.5076 9.82588 30 11.6668 30H28.3335C30.1744 30 31.6668 28.5076 31.6668 26.6667V13.3333C31.6668 11.4924 30.1744 10 28.3335 10Z" fill="#87CDFF"/>
<path d="M27.0837 13.3335H12.917C12.2266 13.3335 11.667 13.8931 11.667 14.5835V18.7502C11.667 19.4405 12.2266 20.0002 12.917 20.0002H27.0837C27.774 20.0002 28.3337 19.4405 28.3337 18.7502V14.5835C28.3337 13.8931 27.774 13.3335 27.0837 13.3335Z" fill="white"/>
<path d="M13.3337 26.6668C14.2541 26.6668 15.0003 25.9206 15.0003 25.0002C15.0003 24.0797 14.2541 23.3335 13.3337 23.3335C12.4132 23.3335 11.667 24.0797 11.667 25.0002C11.667 25.9206 12.4132 26.6668 13.3337 26.6668Z" fill="white"/>
<path d="M26.6667 26.6668C27.5871 26.6668 28.3333 25.9206 28.3333 25.0002C28.3333 24.0797 27.5871 23.3335 26.6667 23.3335C25.7462 23.3335 25 24.0797 25 25.0002C25 25.9206 25.7462 26.6668 26.6667 26.6668Z" fill="white"/>
</svg>
