<svg width="50" height="43" viewBox="0 0 50 43" fill="none" xmlns="http://www.w3.org/2000/svg">
<g id="Layer_8" clip-path="url(#clip0_1876_27621)">
<g id="Group">
<path id="Vector" d="M9.44699 0.176941L48.1455 11.1524C49.4842 11.5321 50.2723 12.9641 49.9058 14.3511L43.6222 38.1311C43.2557 39.518 41.8734 40.3345 40.5347 39.9548L1.83618 28.9794C0.497481 28.5997 -0.290661 27.1676 0.0758161 25.7807L6.35949 2.00069C6.72597 0.613787 8.10829 -0.202733 9.44699 0.176941Z" fill="#E7E1FF"/>
<path id="Vector_2" d="M5.63726 4.718L49.1836 17.0684L47.6257 22.9642L4.07932 10.6139L5.63726 4.718Z" fill="#886AFF"/>
<path id="Vector_3" opacity="0.7" d="M38.2865 31.8116C36.44 31.8116 34.943 30.2608 34.943 28.3477C34.943 26.4346 36.44 24.8838 38.2865 24.8838C40.1331 24.8838 41.6301 26.4346 41.6301 28.3477C41.6301 30.2608 40.1331 31.8116 38.2865 31.8116Z" fill="#886AFF"/>
<path id="Vector_4" opacity="0.7" d="M37.2373 35.7296C35.3908 35.7296 33.8938 34.1788 33.8938 32.2657C33.8938 30.3526 35.3908 28.8018 37.2373 28.8018C39.0839 28.8018 40.5809 30.3526 40.5809 32.2657C40.5809 34.1788 39.0839 35.7296 37.2373 35.7296Z" fill="#8DD248"/>
<path id="Vector_5" d="M23.7765 22.6187L28.4558 23.9458C28.7934 24.0415 28.9921 24.4027 28.8997 24.7524L28.767 25.2546C28.6746 25.6044 28.326 25.8103 27.9884 25.7145L23.3092 24.3875C22.9716 24.2917 22.7728 23.9306 22.8652 23.5808L22.998 23.0786C23.0904 22.7288 23.439 22.5229 23.7765 22.6187Z" fill="#886AFF"/>
<path id="Vector_6" d="M15.865 20.3745L20.5443 21.7016C20.8819 21.7974 21.0806 22.1585 20.9882 22.5083L20.8555 23.0105C20.7631 23.3602 20.4145 23.5661 20.0769 23.4704L15.3977 22.1433C15.0601 22.0476 14.8613 21.6864 14.9537 21.3367L15.0865 20.8344C15.1789 20.4847 15.5275 20.2788 15.865 20.3745Z" fill="#886AFF"/>
<path id="Vector_7" d="M7.95964 18.1109L12.6389 19.438C12.9765 19.5337 13.1752 19.8948 13.0828 20.2446L12.9501 20.7468C12.8577 21.0966 12.5091 21.3025 12.1715 21.2067L7.49226 19.8796C7.15468 19.7839 6.95593 19.4228 7.04834 19.073L7.18105 18.5708C7.27347 18.221 7.62206 18.0151 7.95964 18.1109Z" fill="#886AFF"/>
</g>
<g id="Group_2">
<path id="Vector_8" d="M9.426 41.218C5.00869 41.218 1.42775 37.5081 1.42775 32.9318C1.42775 28.3554 5.00869 24.6455 9.426 24.6455C13.8433 24.6455 17.4243 28.3554 17.4243 32.9318C17.4243 37.5081 13.8433 41.218 9.426 41.218Z" fill="#FFD34C"/>
<g id="Vector_9" style="mix-blend-mode:multiply">
<path d="M9.42593 39.1571C12.7258 39.1571 15.4355 36.3724 15.4355 32.9311C15.4355 29.4898 12.7476 26.7051 9.42593 26.7051C6.10425 26.7051 3.41632 29.4898 3.41632 32.9311C3.41632 36.3724 6.10425 39.1571 9.42593 39.1571Z" fill="#FFD34C"/>
</g>
<path id="Vector_10" d="M13.2286 32.5476H5.64554V33.2947H13.2286V32.5476ZM13.2286 29.7402H12.3326L11.1962 34.721H11.1307L9.92875 29.7402H8.98906L7.78714 34.721H7.72158L6.56337 29.7402H5.64554L7.24081 36.1247H8.1805L9.40428 31.2345H9.44798L10.6718 36.1247H11.6114L13.2067 29.7402H13.2286Z" fill="#FFD34C"/>
</g>
</g>
<defs>
<clipPath id="clip0_1876_27621">
<rect width="50" height="42.4048" fill="white" transform="matrix(-1 0 0 1 50 0.0947266)"/>
</clipPath>
</defs>
</svg>
