<svg width="26" height="26" viewBox="0 0 26 26" fill="none" xmlns="http://www.w3.org/2000/svg">
<g id="Group">
<path id="Vector" d="M13 25.5C19.9036 25.5 25.5 19.9036 25.5 13C25.5 6.09644 19.9036 0.5 13 0.5C6.09644 0.5 0.5 6.09644 0.5 13C0.5 19.9036 6.09644 25.5 13 25.5Z" fill="white"/>
<path id="Vector_2" d="M19.25 14.5625C20.1129 14.5625 20.8125 13.8629 20.8125 13C20.8125 12.1371 20.1129 11.4375 19.25 11.4375C18.3871 11.4375 17.6875 12.1371 17.6875 13C17.6875 13.8629 18.3871 14.5625 19.25 14.5625Z" fill="#4B5158"/>
<path id="Vector_3" d="M6.75 14.5625C7.61295 14.5625 8.3125 13.8629 8.3125 13C8.3125 12.1371 7.61295 11.4375 6.75 11.4375C5.88706 11.4375 5.1875 12.1371 5.1875 13C5.1875 13.8629 5.88706 14.5625 6.75 14.5625Z" fill="#4B5158"/>
<path id="Vector_4" d="M13 14.5625C13.8629 14.5625 14.5625 13.8629 14.5625 13C14.5625 12.1371 13.8629 11.4375 13 11.4375C12.1371 11.4375 11.4375 12.1371 11.4375 13C11.4375 13.8629 12.1371 14.5625 13 14.5625Z" fill="#4B5158"/>
</g>
</svg>
