<svg width="40" height="40" viewBox="0 0 40 40" fill="none" xmlns="http://www.w3.org/2000/svg">
<path d="M16.6665 10H13.3332C12.4127 10 11.6665 10.7462 11.6665 11.6667C11.6665 12.5871 12.4127 13.3333 13.3332 13.3333H16.6665C17.587 13.3333 18.3332 12.5871 18.3332 11.6667C18.3332 10.7462 17.587 10 16.6665 10Z" fill="#8DD248"/>
<path d="M26.6665 10H23.3332C22.4127 10 21.6665 10.7462 21.6665 11.6667C21.6665 12.5871 22.4127 13.3333 23.3332 13.3333H26.6665C27.587 13.3333 28.3332 12.5871 28.3332 11.6667C28.3332 10.7462 27.587 10 26.6665 10Z" fill="#8DD248"/>
<path d="M12.0835 30.0002H10.0002C9.0835 30.0002 8.3335 29.2502 8.3335 28.3335V20.0002C8.3335 19.0835 9.0835 18.3335 10.0002 18.3335H14.4502C15.5502 18.3335 16.3502 19.4002 16.0502 20.4502L13.6668 28.7835C13.4668 29.5002 12.8002 30.0002 12.0668 30.0002H12.0835Z" fill="#8DD248"/>
<path d="M27.9165 30.0002H29.9998C30.9165 30.0002 31.6665 29.2502 31.6665 28.3335V20.0002C31.6665 19.0835 30.9165 18.3335 29.9998 18.3335H25.5498C24.4498 18.3335 23.6498 19.4002 23.9498 20.4502L26.3331 28.7835C26.5331 29.5002 27.1998 30.0002 27.9331 30.0002H27.9165Z" fill="#8DD248"/>
<path d="M26.6665 11.6665H13.3332C9.64984 11.6665 6.6665 14.6498 6.6665 18.3332C6.6665 22.0165 9.64984 24.9998 13.3332 24.9998C15.7998 24.9998 17.9165 23.6498 19.0832 21.6665H20.9332C22.0832 23.6498 24.2165 24.9998 26.6832 24.9998C30.3665 24.9998 33.3498 22.0165 33.3498 18.3332C33.3498 14.6498 30.3665 11.6665 26.6832 11.6665H26.6665Z" fill="white"/>
<path d="M27.6335 16.3998C27.6335 15.8659 27.2007 15.4331 26.6669 15.4331C26.133 15.4331 25.7002 15.8659 25.7002 16.3998V20.2831C25.7002 20.817 26.133 21.2498 26.6669 21.2498C27.2007 21.2498 27.6335 20.817 27.6335 20.2831V16.3998Z" fill="#B6E765"/>
<path d="M24.7333 17.3665C24.1994 17.3665 23.7666 17.7993 23.7666 18.3331C23.7666 18.867 24.1994 19.2998 24.7333 19.2998H28.6166C29.1505 19.2998 29.5833 18.867 29.5833 18.3331C29.5833 17.7993 29.1505 17.3665 28.6166 17.3665H24.7333Z" fill="#B6E765"/>
<path d="M13.2167 17.3664C13.7505 17.3664 14.1833 16.9336 14.1833 16.3998C14.1833 15.8659 13.7505 15.4331 13.2167 15.4331C12.6828 15.4331 12.25 15.8659 12.25 16.3998C12.25 16.9336 12.6828 17.3664 13.2167 17.3664Z" fill="#B6E765"/>
<path d="M13.2167 21.2331C13.7505 21.2331 14.1833 20.8003 14.1833 20.2665C14.1833 19.7326 13.7505 19.2998 13.2167 19.2998C12.6828 19.2998 12.25 19.7326 12.25 20.2665C12.25 20.8003 12.6828 21.2331 13.2167 21.2331Z" fill="#B6E765"/>
<path d="M11.2836 19.3C11.8174 19.3 12.2502 18.8672 12.2502 18.3334C12.2502 17.7995 11.8174 17.3667 11.2836 17.3667C10.7497 17.3667 10.3169 17.7995 10.3169 18.3334C10.3169 18.8672 10.7497 19.3 11.2836 19.3Z" fill="#B6E765"/>
<path d="M15.1498 19.3C15.6836 19.3 16.1164 18.8672 16.1164 18.3334C16.1164 17.7995 15.6836 17.3667 15.1498 17.3667C14.6159 17.3667 14.1831 17.7995 14.1831 18.3334C14.1831 18.8672 14.6159 19.3 15.1498 19.3Z" fill="#B6E765"/>
</svg>
