<svg width="24" height="22" viewBox="0 0 24 22" fill="none" xmlns="http://www.w3.org/2000/svg">
<g id="Group 1000011757">
<rect id="Rectangle 43095" x="17" y="0.333496" width="3.33333" height="6.66667" rx="0.5" fill="#87CDFF"/>
<path id="Rectangle 43094" d="M2 9.20185C2 8.8675 2.1671 8.55527 2.4453 8.3698L11.4453 2.3698C11.7812 2.14587 12.2188 2.14587 12.5547 2.3698L21.5547 8.3698C21.8329 8.55527 22 8.8675 22 9.20185V21C22 21.5523 21.5523 22 21 22H3C2.44772 22 2 21.5523 2 21V9.20185Z" fill="#87CDFF"/>
<path id="Vector 5283" d="M1.1665 9.5L11.9998 2L22.8332 9.5" stroke="#5A7EFF" stroke-width="2" stroke-linecap="round"/>
<rect id="Rectangle 43096" x="7.82666" y="10.3271" width="3.33333" height="3.33333" rx="0.5" fill="white"/>
<rect id="Rectangle 43098" x="7.82666" y="15.3271" width="3.33333" height="3.33333" rx="0.5" fill="white"/>
<rect id="Rectangle 43097" x="12.8267" y="10.3271" width="3.33333" height="3.33333" rx="0.5" fill="white"/>
<rect id="Rectangle 43099" x="12.8267" y="15.3271" width="3.33333" height="3.33333" rx="0.5" fill="white"/>
</g>
</svg>
