<svg width="45" height="46" viewBox="0 0 45 46" fill="none" xmlns="http://www.w3.org/2000/svg">
<g id="Layer_11" clip-path="url(#clip0_1876_27644)">
<path id="Vector" d="M22.5 45.9991C34.9264 45.9991 45 35.9032 45 23.4492C45 10.9953 34.9264 0.899414 22.5 0.899414C10.0736 0.899414 0 10.9953 0 23.4492C0 35.9032 10.0736 45.9991 22.5 45.9991Z" fill="#8DD248"/>
<path id="Vector_2" d="M22.4998 42.0322C12.2706 42.0322 3.96075 33.7039 3.96075 23.4521C3.96075 13.2004 12.2706 4.87207 22.4998 4.87207C32.7289 4.87207 41.0388 13.2004 41.0388 23.4521C41.0388 33.7039 32.7289 42.0322 22.4998 42.0322Z" fill="white"/>
<path id="Vector_3" d="M22.4998 38.0615C30.551 38.0615 37.0778 31.5202 37.0778 23.4511C37.0778 15.3821 30.551 8.84082 22.4998 8.84082C14.4486 8.84082 7.92175 15.3821 7.92175 23.4511C7.92175 31.5202 14.4486 38.0615 22.4998 38.0615Z" fill="#8DD248"/>
<path id="Vector_4" d="M22.5001 34.0907C28.3637 34.0907 33.1171 29.3268 33.1171 23.4501C33.1171 17.5735 28.3637 12.8096 22.5001 12.8096C16.6364 12.8096 11.883 17.5735 11.883 23.4501C11.883 29.3268 16.6364 34.0907 22.5001 34.0907Z" fill="white"/>
<path id="Vector_5" d="M22.5001 30.12C26.1761 30.12 29.1562 27.1333 29.1562 23.4491C29.1562 19.7649 26.1761 16.7783 22.5001 16.7783C18.824 16.7783 15.844 19.7649 15.844 23.4491C15.844 27.1333 18.824 30.12 22.5001 30.12Z" fill="#8DD248"/>
<g id="Group">
<path id="Vector_6" d="M38.3144 5.06324C38.5049 4.81086 38.4551 4.45152 38.2033 4.26065C37.9515 4.06977 37.5929 4.11964 37.4025 4.37202L22.845 23.663C22.6546 23.9154 22.7043 24.2748 22.9561 24.4656C23.208 24.6565 23.5665 24.6066 23.757 24.3543L38.3144 5.06324Z" fill="#4B5158"/>
<g id="Group_2">
<path id="Vector_7" d="M33.957 9.84253L32.2828 6.17972L36.9379 0L38.6122 3.68327L33.957 9.84253Z" fill="#FFD34C"/>
<path id="Vector_8" d="M42.6141 4.29845L38.6123 3.68457L33.9572 9.84382L37.9386 10.4782L42.6141 4.29845Z" fill="#5A7EFF"/>
</g>
</g>
</g>
<defs>
<clipPath id="clip0_1876_27644">
<rect width="45" height="46" fill="white"/>
</clipPath>
</defs>
</svg>
