<svg width="18" height="28" viewBox="0 0 18 28" fill="none" xmlns="http://www.w3.org/2000/svg">
<g id="Group">
<path id="Vector" d="M17.3332 9.83317C17.3332 4.7665 13.5998 0.666504 8.99984 0.666504C4.39984 0.666504 0.666504 4.7665 0.666504 9.83317C0.666504 13.6498 2.78317 16.8998 5.79984 18.2832C6.44984 18.5832 6.8165 19.2832 6.7165 19.9998L6.13317 24.0332C5.88317 25.7665 7.23317 27.3332 8.99984 27.3332C10.7665 27.3332 12.1165 25.7832 11.8665 24.0332L11.2832 19.9998C11.1832 19.2832 11.5498 18.5832 12.1998 18.2832C15.2165 16.8998 17.3332 13.6498 17.3332 9.83317Z" fill="#FFA723"/>
<path id="Vector_2" d="M9 15.6667C11.7614 15.6667 14 13.055 14 9.83333C14 6.61167 11.7614 4 9 4C6.23858 4 4 6.61167 4 9.83333C4 13.055 6.23858 15.6667 9 15.6667Z" fill="white"/>
</g>
</svg>
