<svg width="24" height="24" viewBox="0 0 24 24" fill="none" xmlns="http://www.w3.org/2000/svg">
<g id="Group">
<path id="Vector" d="M17.5404 4.99799H17.5829L18.6358 1.46371C18.8028 0.902667 18.3918 0.333496 17.8163 0.333496H6.18937C5.61386 0.333496 5.20279 0.902667 5.36987 1.46371L6.42276 4.99799H6.4652C2.73367 7.29365 0.333496 10.7792 0.333496 15.6903C0.333496 21.485 5.43882 23.6668 12.0002 23.6668C18.5615 23.6668 23.6668 21.485 23.6668 15.6903C23.6668 10.7792 21.2667 7.29636 17.5351 4.99799H17.5404Z" fill="#5A7EFF"/>
<path id="Vector_2" d="M16.7336 14.6903C16.7336 14.8503 16.67 14.9966 16.5665 15.0996C16.4631 15.2053 16.3225 15.2704 16.1661 15.2704H14.6756L14.047 17.669C14.047 17.669 14.0391 17.6853 14.0391 17.6934C14.0338 17.7124 14.0258 17.7313 14.0178 17.7476C14.0125 17.7612 14.0046 17.7774 13.9993 17.791C13.986 17.8154 13.9701 17.8371 13.9568 17.8614C13.9542 17.8669 13.9489 17.875 13.9436 17.8804C13.8693 17.9753 13.7685 18.0512 13.6439 18.0837C13.3442 18.1677 13.0313 17.9834 12.949 17.6744L12.3178 15.2704L12.0128 14.1103L12.0049 14.0832L11.9969 14.1103L11.6919 15.2704L11.0634 17.6717C11.0634 17.6717 11.0554 17.688 11.0554 17.6961C11.0501 17.7151 11.0422 17.7341 11.0342 17.7503C11.0263 17.7666 11.0209 17.7801 11.0156 17.7937C11.0024 17.8181 10.9891 17.8398 10.9732 17.8642C10.9706 17.8696 10.9653 17.8777 10.9599 17.8831C10.8857 17.978 10.7849 18.0539 10.6603 18.0864C10.3606 18.1704 10.0476 17.9861 9.96541 17.6771L9.3342 15.2704H7.84636C7.53606 15.2704 7.27881 15.0102 7.27881 14.6903C7.27881 14.3705 7.53341 14.1103 7.84636 14.1103H9.03185L8.48022 12.0125C8.40065 11.7035 8.581 11.3864 8.88069 11.3024C9.18303 11.2211 9.49333 11.4054 9.57554 11.7117L10.2041 14.1103L10.5091 15.2704V15.2866L10.517 15.2704L10.822 14.1103L11.4532 11.7063C11.5275 11.4217 11.798 11.2455 12.0765 11.2862C12.0844 11.2862 12.0924 11.2862 12.1004 11.2889C12.1163 11.2916 12.1322 11.2916 12.1481 11.297C12.1587 11.2997 12.1667 11.3051 12.1746 11.3078C12.1932 11.316 12.2091 11.3214 12.2277 11.3295C12.2409 11.3349 12.2568 11.3404 12.2674 11.3485C12.4054 11.4217 12.5141 11.5463 12.5565 11.7117L13.1851 14.113L13.4901 15.2731V15.2866L13.498 15.2731L13.803 14.113L14.4342 11.7063C14.5138 11.4 14.8267 11.213 15.1291 11.297C15.4314 11.381 15.6118 11.7008 15.5295 12.0071L14.9779 14.113H16.1634C16.4737 14.113 16.731 14.3732 16.731 14.6931L16.7336 14.6903Z" fill="white"/>
<path id="Vector_3" d="M17.9362 4.67822H6.06797C5.90099 4.67822 5.76562 4.81595 5.76562 4.98584C5.76562 5.15574 5.90099 5.29347 6.06797 5.29347H17.9362C18.1032 5.29347 18.2385 5.15574 18.2385 4.98584C18.2385 4.81595 18.1032 4.67822 17.9362 4.67822Z" fill="white"/>
</g>
</svg>
