<svg width="26" height="22" viewBox="0 0 26 22" fill="none" xmlns="http://www.w3.org/2000/svg">
<g id="Group">
<path id="Vector" d="M24.7188 5.82764H1.28125C0.849778 5.82764 0.5 6.17741 0.5 6.60889V9.73389C0.5 10.1654 0.849778 10.5151 1.28125 10.5151H24.7188C25.1502 10.5151 25.5 10.1654 25.5 9.73389V6.60889C25.5 6.17741 25.1502 5.82764 24.7188 5.82764Z" fill="white"/>
<path id="Vector_2" d="M2.0625 10.5151H23.9375V19.8901C23.9375 20.7495 23.2344 21.4526 22.375 21.4526H3.625C2.76562 21.4526 2.0625 20.7495 2.0625 19.8901V10.5151Z" fill="#FFA794"/>
<path id="Vector_3" d="M16.125 2.70264H9.875V21.4526H16.125V2.70264Z" fill="#FF5C46"/>
<path id="Vector_4" d="M9.875 5.82628H3.625V2.10753C3.625 0.951283 4.84375 0.185653 5.89062 0.716904L9.875 2.71691V5.84191V5.82628Z" fill="#FF5C46"/>
<path id="Vector_5" d="M16.125 5.82628H22.375V2.10753C22.375 0.951283 21.1563 0.185653 20.1094 0.716904L16.125 2.71691V5.84191V5.82628Z" fill="#FF5C46"/>
</g>
</svg>
