<svg width="30" height="25" viewBox="0 0 30 25" fill="none" xmlns="http://www.w3.org/2000/svg">
<g id="Group">
<path id="Vector" d="M15.0002 24.3333C15.9206 24.3333 16.6668 23.5871 16.6668 22.6667C16.6668 21.7462 15.9206 21 15.0002 21C14.0797 21 13.3335 21.7462 13.3335 22.6667C13.3335 23.5871 14.0797 24.3333 15.0002 24.3333Z" fill="white"/>
<path id="Vector_2" d="M20.0083 17.6665H9.99203C9.07605 17.6665 8.3335 18.4091 8.3335 19.325V19.3413C8.3335 20.2573 9.07605 20.9998 9.99203 20.9998H20.0083C20.9243 20.9998 21.6668 20.2573 21.6668 19.3413V19.325C21.6668 18.4091 20.9243 17.6665 20.0083 17.6665Z" fill="#FFA723"/>
<g id="Group_2">
<path id="Vector_3" d="M20.1119 12.6559C22.9351 12.6559 25.2237 10.3672 25.2237 7.54399C25.2237 4.72079 22.9351 2.43213 20.1119 2.43213C17.2887 2.43213 15 4.72079 15 7.54399C15 10.3672 17.2887 12.6559 20.1119 12.6559Z" fill="#FFD34C"/>
<path id="Vector_4" d="M9.89067 12.6559C12.7139 12.6559 15.0025 10.3672 15.0025 7.54399C15.0025 4.72079 12.7139 2.43213 9.89067 2.43213C7.06747 2.43213 4.77881 4.72079 4.77881 7.54399C4.77881 10.3672 7.06747 12.6559 9.89067 12.6559Z" fill="#FFD34C"/>
<path id="Vector_5" d="M14.9981 10.9405C17.8213 10.9405 20.11 8.65187 20.11 5.82866C20.11 3.00546 17.8213 0.716797 14.9981 0.716797C12.1749 0.716797 9.88623 3.00546 9.88623 5.82866C9.88623 8.65187 12.1749 10.9405 14.9981 10.9405Z" fill="#FFD34C"/>
<path id="Vector_6" d="M19.6002 19.4799H10.3833C6.14945 19.4799 2.85646 15.9998 3.27462 11.9703L3.30946 11.6373C3.84958 6.40884 8.46673 2.4126 13.9725 2.4126H16.011C21.5167 2.4126 26.1339 6.39219 26.674 11.6373L26.7088 11.9703C27.127 15.9832 23.834 19.4799 19.6002 19.4799Z" fill="#FFD34C"/>
<path id="Vector_7" d="M11.6667 12.6668C12.5871 12.6668 13.3333 11.9206 13.3333 11.0002C13.3333 10.0797 12.5871 9.3335 11.6667 9.3335C10.7462 9.3335 10 10.0797 10 11.0002C10 11.9206 10.7462 12.6668 11.6667 12.6668Z" fill="#FFA723"/>
<path id="Vector_8" d="M18.3332 12.6668C19.2536 12.6668 19.9998 11.9206 19.9998 11.0002C19.9998 10.0797 19.2536 9.3335 18.3332 9.3335C17.4127 9.3335 16.6665 10.0797 16.6665 11.0002C16.6665 11.9206 17.4127 12.6668 18.3332 12.6668Z" fill="#FFA723"/>
<path id="Vector_9" d="M14.992 14.3229C15.4523 14.3229 15.8254 13.9498 15.8254 13.4896C15.8254 13.0293 15.4523 12.6562 14.992 12.6562C14.5318 12.6562 14.1587 13.0293 14.1587 13.4896C14.1587 13.9498 14.5318 14.3229 14.992 14.3229Z" fill="#FFA723"/>
<path id="Vector_10" d="M5.41393 12.6668H1.8325C0.674332 12.6668 -0.180933 11.7065 0.032883 10.6649L1.11978 5.66813C1.29796 4.88688 2.04632 4.3335 2.9194 4.3335H6.50083C7.659 4.3335 8.51427 5.29378 8.30045 6.33545L7.21355 11.3322C7.03537 12.1134 6.28701 12.6668 5.41393 12.6668Z" fill="#FFD34C"/>
<path id="Vector_11" d="M24.5859 12.6668H28.1673C29.3255 12.6668 30.1808 11.7065 29.967 10.6649L28.8801 5.66813C28.7019 4.88688 27.9535 4.3335 27.0804 4.3335H23.499C22.3408 4.3335 21.4856 5.29378 21.6994 6.33545L22.7863 11.3322C22.9645 12.1134 23.7128 12.6668 24.5859 12.6668Z" fill="#FFD34C"/>
</g>
</g>
</svg>
