<svg width="24" height="24" viewBox="0 0 24 24" fill="none" xmlns="http://www.w3.org/2000/svg">
<g id="Group">
<path id="Vector" d="M12 2C6.48333 2 2 6.48333 2 12H22C22 6.48333 17.5167 2 12 2Z" fill="white"/>
<path id="Vector_2" d="M16.1667 20.4336H7.83333C7.3731 20.4336 7 20.8067 7 21.2669V22.9336C7 23.3938 7.3731 23.7669 7.83333 23.7669H16.1667C16.6269 23.7669 17 23.3938 17 22.9336V21.2669C17 20.8067 16.6269 20.4336 16.1667 20.4336Z" fill="#8DD248"/>
<path id="Vector_3" d="M3.66683 13.6667C5.50778 13.6667 7.00016 12.1743 7.00016 10.3333C7.00016 8.49238 5.50778 7 3.66683 7C1.82588 7 0.333496 8.49238 0.333496 10.3333C0.333496 12.1743 1.82588 13.6667 3.66683 13.6667Z" fill="white"/>
<path id="Vector_4" d="M5.33333 10.3337C7.17428 10.3337 8.66667 8.84128 8.66667 7.00033C8.66667 5.15938 7.17428 3.66699 5.33333 3.66699C3.49238 3.66699 2 5.15938 2 7.00033C2 8.84128 3.49238 10.3337 5.33333 10.3337Z" fill="white"/>
<path id="Vector_5" d="M8.66683 7.00016C10.5078 7.00016 12.0002 5.50778 12.0002 3.66683C12.0002 1.82588 10.5078 0.333496 8.66683 0.333496C6.82588 0.333496 5.3335 1.82588 5.3335 3.66683C5.3335 5.50778 6.82588 7.00016 8.66683 7.00016Z" fill="white"/>
<path id="Vector_6" d="M12.0003 7.00016C13.8413 7.00016 15.3337 5.50778 15.3337 3.66683C15.3337 1.82588 13.8413 0.333496 12.0003 0.333496C10.1594 0.333496 8.66699 1.82588 8.66699 3.66683C8.66699 5.50778 10.1594 7.00016 12.0003 7.00016Z" fill="white"/>
<path id="Vector_7" d="M20.3333 13.6667C22.1743 13.6667 23.6667 12.1743 23.6667 10.3333C23.6667 8.49238 22.1743 7 20.3333 7C18.4924 7 17 8.49238 17 10.3333C17 12.1743 18.4924 13.6667 20.3333 13.6667Z" fill="white"/>
<path id="Vector_8" d="M18.6668 10.3337C20.5078 10.3337 22.0002 8.84128 22.0002 7.00033C22.0002 5.15938 20.5078 3.66699 18.6668 3.66699C16.8259 3.66699 15.3335 5.15938 15.3335 7.00033C15.3335 8.84128 16.8259 10.3337 18.6668 10.3337Z" fill="white"/>
<path id="Vector_9" d="M15.3333 7.00016C17.1743 7.00016 18.6667 5.50778 18.6667 3.66683C18.6667 1.82588 17.1743 0.333496 15.3333 0.333496C13.4924 0.333496 12 1.82588 12 3.66683C12 5.50778 13.4924 7.00016 15.3333 7.00016Z" fill="white"/>
<path id="Vector_10" d="M12.0002 23.6667C18.2002 23.6667 23.2836 18.8167 23.6502 12.7C23.6669 12.3167 23.3502 12 22.9669 12H1.03357C0.650238 12 0.333572 12.3167 0.350239 12.7C0.716905 18.8167 5.78357 23.6667 12.0002 23.6667Z" fill="#8DD248"/>
</g>
</svg>
