<svg width="28" height="24" viewBox="0 0 28 24" fill="none" xmlns="http://www.w3.org/2000/svg">
<g id="Group">
<path id="Vector" d="M10.6663 22.0002C10.6663 21.0797 9.92015 20.3335 8.99967 20.3335C8.0792 20.3335 7.33301 21.0797 7.33301 22.0002C7.33301 22.9206 8.0792 23.6668 8.99967 23.6668C9.92015 23.6668 10.6663 22.9206 10.6663 22.0002Z" fill="#5A7EFF"/>
<path id="Vector_2" d="M20.6663 22.0002C20.6663 21.0797 19.9201 20.3335 18.9997 20.3335C18.0792 20.3335 17.333 21.0797 17.333 22.0002C17.333 22.9206 18.0792 23.6668 18.9997 23.6668C19.9201 23.6668 20.6663 22.9206 20.6663 22.0002Z" fill="#5A7EFF"/>
<path id="Vector_3" d="M10.6667 0.333496H17.3333C21.0167 0.333496 24 3.31683 24 7.00016V15.3335H4V7.00016C4 3.31683 6.98333 0.333496 10.6667 0.333496Z" fill="#5A7EFF"/>
<path id="Vector_4" d="M20.6667 12V17H7.33333V12H4V20.3333C4 21.25 4.75 22 5.66667 22H22.3333C23.25 22 24 21.25 24 20.3333V12H20.6667Z" fill="#87CDFF"/>
<path id="Vector_5" d="M3.99984 15.3337C5.84079 15.3337 7.33317 13.8413 7.33317 12.0003C7.33317 10.1594 5.84079 8.66699 3.99984 8.66699C2.15889 8.66699 0.666504 10.1594 0.666504 12.0003C0.666504 13.8413 2.15889 15.3337 3.99984 15.3337Z" fill="#87CDFF"/>
<path id="Vector_6" d="M23.9998 15.3337C25.8408 15.3337 27.3332 13.8413 27.3332 12.0003C27.3332 10.1594 25.8408 8.66699 23.9998 8.66699C22.1589 8.66699 20.6665 10.1594 20.6665 12.0003C20.6665 13.8413 22.1589 15.3337 23.9998 15.3337Z" fill="#87CDFF"/>
<path id="Vector_7" d="M8.99967 13.667H18.9997C19.9163 13.667 20.6663 14.417 20.6663 15.3337V17.0003H7.33301V15.3337C7.33301 14.417 8.08301 13.667 8.99967 13.667Z" fill="white"/>
</g>
</svg>
