<svg width="24" height="24" viewBox="0 0 24 24" fill="none" xmlns="http://www.w3.org/2000/svg">
<g id="&#236;&#185;&#180;&#235;&#147;&#156;&#236;&#185;&#180;&#237;&#133;&#140;&#234;&#179;&#160;&#235;&#166;&#172;=&#235;&#176;&#176;&#235;&#139;&#172;">
<path id="Rectangle 43234" d="M17 18.2353V11C17 8.23858 14.7614 6 12 6C9.23858 6 7 8.23858 7 11V18.2353C7 18.6576 7.34237 19 7.76471 19H16.2353C16.6576 19 17 18.6576 17 18.2353Z" stroke="#23282E" stroke-width="1.5" stroke-linejoin="round"/>
<path id="Rectangle 43235" d="M14 20V16C14 14.8954 13.1046 14 12 14C10.8954 14 10 14.8954 10 16V20C10 21.1046 10.8954 22 12 22C13.1046 22 14 21.1046 14 20Z" fill="white" stroke="#23282E" stroke-width="1.5" stroke-linejoin="round"/>
<path id="Vector 5259" d="M10 17H14" stroke="#23282E" stroke-width="1.5" stroke-linecap="round"/>
<circle id="Ellipse 1072" cx="12" cy="5" r="3" fill="white" stroke="#23282E" stroke-width="1.5"/>
<circle id="Ellipse 1073" cx="12" cy="5" r="1" fill="#23282E"/>
<path id="Line 118" d="M15 5L18.5 5" stroke="#23282E" stroke-width="1.5" stroke-linecap="round"/>
<path id="Line 119" d="M5.5 5L9 5" stroke="#23282E" stroke-width="1.5" stroke-linecap="round"/>
</g>
</svg>
