<svg width="20" height="20" viewBox="0 0 20 20" fill="none" xmlns="http://www.w3.org/2000/svg">
<g id="Group 1000011796">
<path id="Rectangle 43232" d="M2.80005 17.4043H6.40005V19.0043C6.40005 19.5566 5.95233 20.0043 5.40005 20.0043H3.80005C3.24776 20.0043 2.80005 19.5566 2.80005 19.0043V17.4043Z" fill="#23282E"/>
<path id="Rectangle 43233" d="M13.6001 17.4043H17.2001V19.0043C17.2001 19.5566 16.7524 20.0043 16.2001 20.0043H14.6001C14.0478 20.0043 13.6001 19.5566 13.6001 19.0043V17.4043Z" fill="#23282E"/>
<path id="Rectangle 43231" d="M6.74976 1C6.74976 0.861929 6.86169 0.75 6.99976 0.75H12.9998C13.1378 0.75 13.2498 0.861929 13.2498 1V1.05H6.74976V1Z" stroke="#23282E" stroke-width="1.5"/>
<path id="Vector" d="M1 5.78L19 5.78M1 11.78L19 11.78M5 18H15C17.2091 18 19 16.2091 19 14V6C19 3.79086 17.2091 2 15 2H5C2.79086 2 1 3.79086 1 6V14C1 16.2091 2.79086 18 5 18Z" stroke="#23282E" stroke-width="1.5"/>
<circle id="Ellipse 1053" cx="5.25" cy="14.75" r="1.25" fill="#23282E"/>
<circle id="Ellipse 1054" cx="14.7498" cy="14.75" r="1.25" fill="#23282E"/>
</g>
</svg>
