<svg width="24" height="24" viewBox="0 0 24 24" fill="none" xmlns="http://www.w3.org/2000/svg">
<g id="&#236;&#185;&#180;&#235;&#147;&#156;&#236;&#185;&#180;&#237;&#133;&#140;&#234;&#179;&#160;&#235;&#166;&#172;=&#236;&#139;&#157;&#235;&#185;&#132;">
<g id="Union">
<path fill-rule="evenodd" clip-rule="evenodd" d="M14.3058 4.08072C13.7555 3.42031 12.9268 3 12 3C11.0732 3 10.2445 3.42031 9.69418 4.08072C9.47137 4.02794 9.23895 4 9 4C7.34315 4 6 5.34315 6 7C6 7.05673 6.00157 7.1131 6.00468 7.16905C4.83705 7.57957 4 8.69203 4 10C4 11.6569 5.34315 13 7 13C7.05673 13 7.1131 12.9984 7.16905 12.9953C7.57956 14.163 8.69203 15 10 15C10.7684 15 11.4692 14.7111 12 14.2361C12.5308 14.7111 13.2316 15 14 15C15.308 15 16.4204 14.163 16.8309 12.9953C16.8869 12.9984 16.9433 13 17 13C18.6569 13 20 11.6569 20 10C20 8.69203 19.163 7.57956 17.9953 7.16905C17.9984 7.1131 18 7.05673 18 7C18 5.34315 16.6569 4 15 4C14.7611 4 14.5286 4.02794 14.3058 4.08072Z" fill="white"/>
<path d="M14.3058 4.08072L13.7296 4.56084L14.0269 4.91756L14.4787 4.81052L14.3058 4.08072ZM9.69418 4.08072L9.52129 4.81052L9.97312 4.91756L10.2704 4.56084L9.69418 4.08072ZM6.00468 7.16905L6.25344 7.8766L6.78477 7.6898L6.75353 7.12746L6.00468 7.16905ZM7.16905 12.9953L7.8766 12.7466L7.6898 12.2152L7.12746 12.2465L7.16905 12.9953ZM12 14.2361L12.5002 13.6773L12 13.2296L11.4998 13.6773L12 14.2361ZM16.8309 12.9953L16.8725 12.2465L16.3102 12.2152L16.1234 12.7466L16.8309 12.9953ZM17.9953 7.16905L17.2465 7.12746L17.2152 7.6898L17.7466 7.8766L17.9953 7.16905ZM14.882 3.6006C14.1953 2.77651 13.1588 2.25 12 2.25V3.75C12.6949 3.75 13.3157 4.06411 13.7296 4.56084L14.882 3.6006ZM12 2.25C10.8412 2.25 9.80469 2.77651 9.118 3.6006L10.2704 4.56084C10.6843 4.06411 11.3051 3.75 12 3.75V2.25ZM9.86707 3.35092C9.58802 3.28481 9.29759 3.25 9 3.25V4.75C9.1803 4.75 9.35472 4.77106 9.52129 4.81052L9.86707 3.35092ZM9 3.25C6.92893 3.25 5.25 4.92893 5.25 7H6.75C6.75 5.75736 7.75736 4.75 9 4.75V3.25ZM5.25 7C5.25 7.07061 5.25196 7.14085 5.25584 7.21065L6.75353 7.12746C6.75119 7.08535 6.75 7.04285 6.75 7H5.25ZM5.75593 6.46151C4.29738 6.9743 3.25 8.36387 3.25 10H4.75C4.75 9.02019 5.37671 8.18483 6.25344 7.8766L5.75593 6.46151ZM3.25 10C3.25 12.0711 4.92893 13.75 7 13.75V12.25C5.75736 12.25 4.75 11.2426 4.75 10H3.25ZM7 13.75C7.07065 13.75 7.14088 13.748 7.21065 13.7442L7.12746 12.2465C7.08531 12.2488 7.04282 12.25 7 12.25V13.75ZM6.46151 13.2441C6.97429 14.7026 8.36387 15.75 10 15.75V14.25C9.02019 14.25 8.18483 13.6233 7.8766 12.7466L6.46151 13.2441ZM10 15.75C10.96 15.75 11.8372 15.3883 12.5002 14.795L11.4998 13.6773C11.1013 14.034 10.5767 14.25 10 14.25V15.75ZM11.4998 14.795C12.1628 15.3883 13.04 15.75 14 15.75V14.25C13.4233 14.25 12.8988 14.034 12.5002 13.6773L11.4998 14.795ZM14 15.75C15.6361 15.75 17.0257 14.7026 17.5385 13.2441L16.1234 12.7466C15.8152 13.6233 14.9798 14.25 14 14.25V15.75ZM16.7894 13.7442C16.8591 13.748 16.9294 13.75 17 13.75V12.25C16.9572 12.25 16.9147 12.2488 16.8725 12.2465L16.7894 13.7442ZM17 13.75C19.0711 13.75 20.75 12.0711 20.75 10H19.25C19.25 11.2426 18.2426 12.25 17 12.25V13.75ZM20.75 10C20.75 8.36387 19.7026 6.97429 18.2441 6.46151L17.7466 7.8766C18.6233 8.18483 19.25 9.02019 19.25 10H20.75ZM17.25 7C17.25 7.04282 17.2488 7.08531 17.2465 7.12746L18.7442 7.21065C18.748 7.14088 18.75 7.07065 18.75 7H17.25ZM15 4.75C16.2426 4.75 17.25 5.75736 17.25 7H18.75C18.75 4.92893 17.0711 3.25 15 3.25V4.75ZM14.4787 4.81052C14.6453 4.77106 14.8197 4.75 15 4.75V3.25C14.7024 3.25 14.412 3.28481 14.1329 3.35092L14.4787 4.81052Z" fill="#23282E"/>
</g>
<g id="Union_2">
<path fill-rule="evenodd" clip-rule="evenodd" d="M3.17647 11C3.07901 11 3 11.079 3 11.1765C3 14.2694 4.59138 16.9906 7 18.5661V19C7 20.1046 7.89543 21 9 21H15C16.1046 21 17 20.1046 17 19V18.5661C19.4086 16.9906 21 14.2694 21 11.1765C21 11.079 20.921 11 20.8235 11H3.17647Z" fill="white"/>
<path d="M7 18.5661H7.75V18.1604L7.41054 17.9384L7 18.5661ZM17 18.5661L16.5895 17.9384L16.25 18.1604V18.5661H17ZM3.75 11.1765C3.75 11.4932 3.49322 11.75 3.17647 11.75V10.25C2.6648 10.25 2.25 10.6648 2.25 11.1765H3.75ZM7.41054 17.9384C5.20473 16.4956 3.75 14.0057 3.75 11.1765H2.25C2.25 14.5331 3.97802 17.4856 6.58946 19.1937L7.41054 17.9384ZM7.75 19V18.5661H6.25V19H7.75ZM9 20.25C8.30964 20.25 7.75 19.6904 7.75 19H6.25C6.25 20.5188 7.48122 21.75 9 21.75V20.25ZM15 20.25H9V21.75H15V20.25ZM16.25 19C16.25 19.6904 15.6904 20.25 15 20.25V21.75C16.5188 21.75 17.75 20.5188 17.75 19H16.25ZM16.25 18.5661V19H17.75V18.5661H16.25ZM20.25 11.1765C20.25 14.0057 18.7953 16.4956 16.5895 17.9384L17.4105 19.1937C20.022 17.4856 21.75 14.5331 21.75 11.1765H20.25ZM20.8235 11.75C20.5068 11.75 20.25 11.4932 20.25 11.1765H21.75C21.75 10.6648 21.3352 10.25 20.8235 10.25V11.75ZM3.17647 11.75H20.8235V10.25H3.17647V11.75Z" fill="#23282E"/>
</g>
</g>
</svg>
