<svg width="24" height="24" viewBox="0 0 24 24" fill="none" xmlns="http://www.w3.org/2000/svg">
<g id="&#236;&#185;&#180;&#235;&#147;&#156;&#236;&#185;&#180;&#237;&#133;&#140;&#234;&#179;&#160;&#235;&#166;&#172;=&#237;&#142;&#152;&#236;&#157;&#180;">
<circle id="Ellipse 1058" cx="14" cy="12" r="8" fill="white" stroke="#23282E" stroke-width="1.5"/>
<circle id="Ellipse 1056" cx="10" cy="12" r="8" fill="white" stroke="#23282E" stroke-width="1.5"/>
<path id="Vector 5258" d="M7.70225 9.73666C7.55681 9.34882 7.1245 9.15231 6.73666 9.29775C6.34882 9.44319 6.15231 9.8755 6.29775 10.2633L7.70225 9.73666ZM8.5 14L7.79775 14.2633C7.90753 14.5561 8.18737 14.75 8.5 14.75C8.81263 14.75 9.09247 14.5561 9.20225 14.2633L8.5 14ZM10 10L10.7022 9.73666C10.5925 9.44393 10.3126 9.25 10 9.25C9.68737 9.25 9.40753 9.44393 9.29775 9.73666L10 10ZM11.5 14L10.7978 14.2633C10.9075 14.5561 11.1874 14.75 11.5 14.75C11.8126 14.75 12.0925 14.5561 12.2022 14.2633L11.5 14ZM13.7022 10.2633C13.8477 9.8755 13.6512 9.44319 13.2633 9.29775C12.8755 9.15231 12.4432 9.34882 12.2978 9.73666L13.7022 10.2633ZM14.5 12.75C14.9142 12.75 15.25 12.4142 15.25 12C15.25 11.5858 14.9142 11.25 14.5 11.25V12.75ZM5.5 11.25C5.08579 11.25 4.75 11.5858 4.75 12C4.75 12.4142 5.08579 12.75 5.5 12.75V11.25ZM9.20225 14.2633L10.7022 10.2633L9.29775 9.73666L7.79775 13.7367L9.20225 14.2633ZM9.29775 10.2633L10.7978 14.2633L12.2022 13.7367L10.7022 9.73666L9.29775 10.2633ZM12.2022 14.2633L12.9522 12.2633L11.5478 11.7367L10.7978 13.7367L12.2022 14.2633ZM12.9522 12.2633L13.7022 10.2633L12.2978 9.73666L11.5478 11.7367L12.9522 12.2633ZM12.25 12.75H14.5V11.25H12.25V12.75ZM6.29775 10.2633L7.04775 12.2633L8.45225 11.7367L7.70225 9.73666L6.29775 10.2633ZM7.04775 12.2633L7.79775 14.2633L9.20225 13.7367L8.45225 11.7367L7.04775 12.2633ZM7.75 11.25C7.74821 11.25 7.74642 11.25 7.74462 11.25C7.74283 11.25 7.74104 11.25 7.73924 11.25C7.73744 11.25 7.73564 11.25 7.73384 11.25C7.73204 11.25 7.73024 11.25 7.72844 11.25C7.72664 11.25 7.72483 11.25 7.72303 11.25C7.72122 11.25 7.71941 11.25 7.7176 11.25C7.7158 11.25 7.71399 11.25 7.71217 11.25C7.71036 11.25 7.70855 11.25 7.70673 11.25C7.70492 11.25 7.7031 11.25 7.70128 11.25C7.69947 11.25 7.69765 11.25 7.69583 11.25C7.694 11.25 7.69218 11.25 7.69036 11.25C7.68853 11.25 7.68671 11.25 7.68488 11.25C7.68306 11.25 7.68123 11.25 7.6794 11.25C7.67757 11.25 7.67574 11.25 7.67391 11.25C7.67207 11.25 7.67024 11.25 7.6684 11.25C7.66657 11.25 7.66473 11.25 7.6629 11.25C7.66106 11.25 7.65922 11.25 7.65738 11.25C7.65554 11.25 7.65369 11.25 7.65185 11.25C7.65001 11.25 7.64816 11.25 7.64632 11.25C7.64447 11.25 7.64262 11.25 7.64077 11.25C7.63893 11.25 7.63708 11.25 7.63522 11.25C7.63337 11.25 7.63152 11.25 7.62967 11.25C7.62781 11.25 7.62596 11.25 7.6241 11.25C7.62224 11.25 7.62039 11.25 7.61853 11.25C7.61667 11.25 7.61481 11.25 7.61295 11.25C7.61108 11.25 7.60922 11.25 7.60736 11.25C7.60549 11.25 7.60363 11.25 7.60176 11.25C7.59989 11.25 7.59803 11.25 7.59616 11.25C7.59429 11.25 7.59242 11.25 7.59055 11.25C7.58867 11.25 7.5868 11.25 7.58493 11.25C7.58305 11.25 7.58118 11.25 7.5793 11.25C7.57743 11.25 7.57555 11.25 7.57367 11.25C7.57179 11.25 7.56991 11.25 7.56803 11.25C7.56615 11.25 7.56427 11.25 7.56238 11.25C7.5605 11.25 7.55862 11.25 7.55673 11.25C7.55484 11.25 7.55296 11.25 7.55107 11.25C7.54918 11.25 7.54729 11.25 7.5454 11.25C7.54351 11.25 7.54162 11.25 7.53973 11.25C7.53784 11.25 7.53594 11.25 7.53405 11.25C7.53215 11.25 7.53026 11.25 7.52836 11.25C7.52646 11.25 7.52457 11.25 7.52267 11.25C7.52077 11.25 7.51887 11.25 7.51697 11.25C7.51507 11.25 7.51317 11.25 7.51126 11.25C7.50936 11.25 7.50746 11.25 7.50555 11.25C7.50365 11.25 7.50174 11.25 7.49983 11.25C7.49793 11.25 7.49602 11.25 7.49411 11.25C7.4922 11.25 7.49029 11.25 7.48838 11.25C7.48647 11.25 7.48456 11.25 7.48264 11.25C7.48073 11.25 7.47882 11.25 7.4769 11.25C7.47499 11.25 7.47307 11.25 7.47115 11.25C7.46924 11.25 7.46732 11.25 7.4654 11.25C7.46348 11.25 7.46156 11.25 7.45964 11.25C7.45772 11.25 7.4558 11.25 7.45388 11.25C7.45196 11.25 7.45003 11.25 7.44811 11.25C7.44619 11.25 7.44426 11.25 7.44233 11.25C7.44041 11.25 7.43848 11.25 7.43655 11.25C7.43463 11.25 7.4327 11.25 7.43077 11.25C7.42884 11.25 7.42691 11.25 7.42498 11.25C7.42305 11.25 7.42112 11.25 7.41918 11.25C7.41725 11.25 7.41532 11.25 7.41338 11.25C7.41145 11.25 7.40952 11.25 7.40758 11.25C7.40564 11.25 7.40371 11.25 7.40177 11.25C7.39983 11.25 7.39789 11.25 7.39596 11.25C7.39402 11.25 7.39208 11.25 7.39014 11.25C7.3882 11.25 7.38626 11.25 7.38431 11.25C7.38237 11.25 7.38043 11.25 7.37849 11.25C7.37654 11.25 7.3746 11.25 7.37265 11.25C7.37071 11.25 7.36876 11.25 7.36682 11.25C7.36487 11.25 7.36292 11.25 7.36098 11.25C7.35903 11.25 7.35708 11.25 7.35513 11.25C7.35318 11.25 7.35123 11.25 7.34928 11.25C7.34733 11.25 7.34538 11.25 7.34343 11.25C7.34148 11.25 7.33952 11.25 7.33757 11.25C7.33562 11.25 7.33367 11.25 7.33171 11.25C7.32976 11.25 7.3278 11.25 7.32585 11.25C7.32389 11.25 7.32194 11.25 7.31998 11.25C7.31802 11.25 7.31606 11.25 7.31411 11.25C7.31215 11.25 7.31019 11.25 7.30823 11.25C7.30627 11.25 7.30431 11.25 7.30235 11.25C7.30039 11.25 7.29843 11.25 7.29647 11.25C7.29451 11.25 7.29255 11.25 7.29059 11.25C7.28862 11.25 7.28666 11.25 7.2847 11.25C7.28273 11.25 7.28077 11.25 7.27881 11.25C7.27684 11.25 7.27488 11.25 7.27291 11.25C7.27095 11.25 7.26898 11.25 7.26701 11.25C7.26505 11.25 7.26308 11.25 7.26111 11.25C7.25915 11.25 7.25718 11.25 7.25521 11.25C7.25324 11.25 7.25127 11.25 7.2493 11.25C7.24733 11.25 7.24536 11.25 7.24339 11.25C7.24142 11.25 7.23945 11.25 7.23748 11.25C7.23551 11.25 7.23354 11.25 7.23157 11.25C7.2296 11.25 7.22763 11.25 7.22565 11.25C7.22368 11.25 7.22171 11.25 7.21973 11.25C7.21776 11.25 7.21579 11.25 7.21381 11.25C7.21184 11.25 7.20987 11.25 7.20789 11.25C7.20592 11.25 7.20394 11.25 7.20197 11.25C7.19999 11.25 7.19801 11.25 7.19604 11.25C7.19406 11.25 7.19209 11.25 7.19011 11.25C7.18813 11.25 7.18616 11.25 7.18418 11.25C7.1822 11.25 7.18022 11.25 7.17825 11.25C7.17627 11.25 7.17429 11.25 7.17231 11.25C7.17033 11.25 7.16835 11.25 7.16637 11.25C7.1644 11.25 7.16242 11.25 7.16044 11.25C7.15846 11.25 7.15648 11.25 7.1545 11.25C7.15252 11.25 7.15054 11.25 7.14856 11.25C7.14658 11.25 7.1446 11.25 7.14262 11.25C7.14063 11.25 7.13865 11.25 7.13667 11.25C7.13469 11.25 7.13271 11.25 7.13073 11.25C7.12875 11.25 7.12677 11.25 7.12478 11.25C7.1228 11.25 7.12082 11.25 7.11884 11.25C7.11685 11.25 7.11487 11.25 7.11289 11.25C7.11091 11.25 7.10892 11.25 7.10694 11.25C7.10496 11.25 7.10298 11.25 7.10099 11.25C7.09901 11.25 7.09703 11.25 7.09504 11.25C7.09306 11.25 7.09108 11.25 7.08909 11.25C7.08711 11.25 7.08513 11.25 7.08314 11.25C7.08116 11.25 7.07917 11.25 7.07719 11.25C7.07521 11.25 7.07322 11.25 7.07124 11.25C7.06925 11.25 7.06727 11.25 7.06529 11.25C7.0633 11.25 7.06132 11.25 7.05933 11.25C7.05735 11.25 7.05537 11.25 7.05338 11.25C7.0514 11.25 7.04941 11.25 7.04743 11.25C7.04545 11.25 7.04346 11.25 7.04148 11.25C7.03949 11.25 7.03751 11.25 7.03553 11.25C7.03354 11.25 7.03156 11.25 7.02957 11.25C7.02759 11.25 7.02561 11.25 7.02362 11.25C7.02164 11.25 7.01965 11.25 7.01767 11.25C7.01569 11.25 7.0137 11.25 7.01172 11.25C7.00974 11.25 7.00775 11.25 7.00577 11.25C7.00378 11.25 7.0018 11.25 6.99982 11.25C6.99783 11.25 6.99585 11.25 6.99387 11.25C6.99189 11.25 6.9899 11.25 6.98792 11.25C6.98594 11.25 6.98395 11.25 6.98197 11.25C6.97999 11.25 6.97801 11.25 6.97602 11.25C6.97404 11.25 6.97206 11.25 6.97008 11.25C6.9681 11.25 6.96611 11.25 6.96413 11.25C6.96215 11.25 6.96017 11.25 6.95819 11.25C6.95621 11.25 6.95423 11.25 6.95225 11.25C6.95027 11.25 6.94829 11.25 6.9463 11.25C6.94432 11.25 6.94234 11.25 6.94036 11.25C6.93838 11.25 6.9364 11.25 6.93443 11.25C6.93245 11.25 6.93047 11.25 6.92849 11.25C6.92651 11.25 6.92453 11.25 6.92255 11.25C6.92057 11.25 6.9186 11.25 6.91662 11.25C6.91464 11.25 6.91266 11.25 6.91069 11.25C6.90871 11.25 6.90673 11.25 6.90476 11.25C6.90278 11.25 6.9008 11.25 6.89883 11.25C6.89685 11.25 6.89488 11.25 6.8929 11.25C6.89092 11.25 6.88895 11.25 6.88698 11.25C6.885 11.25 6.88303 11.25 6.88105 11.25C6.87908 11.25 6.87711 11.25 6.87513 11.25C6.87316 11.25 6.87119 11.25 6.86921 11.25C6.86724 11.25 6.86527 11.25 6.8633 11.25C6.86133 11.25 6.85936 11.25 6.85738 11.25C6.85541 11.25 6.85344 11.25 6.85147 11.25C6.8495 11.25 6.84753 11.25 6.84557 11.25C6.8436 11.25 6.84163 11.25 6.83966 11.25C6.83769 11.25 6.83572 11.25 6.83376 11.25C6.83179 11.25 6.82982 11.25 6.82786 11.25C6.82589 11.25 6.82393 11.25 6.82196 11.25C6.82 11.25 6.81803 11.25 6.81607 11.25C6.8141 11.25 6.81214 11.25 6.81018 11.25C6.80821 11.25 6.80625 11.25 6.80429 11.25C6.80233 11.25 6.80036 11.25 6.7984 11.25C6.79644 11.25 6.79448 11.25 6.79252 11.25C6.79056 11.25 6.7886 11.25 6.78664 11.25C6.78468 11.25 6.78273 11.25 6.78077 11.25C6.77881 11.25 6.77685 11.25 6.7749 11.25C6.77294 11.25 6.77099 11.25 6.76903 11.25C6.76707 11.25 6.76512 11.25 6.76317 11.25C6.76121 11.25 6.75926 11.25 6.75731 11.25C6.75535 11.25 6.7534 11.25 6.75145 11.25C6.7495 11.25 6.74755 11.25 6.7456 11.25C6.74365 11.25 6.7417 11.25 6.73975 11.25C6.7378 11.25 6.73585 11.25 6.73391 11.25C6.73196 11.25 6.73001 11.25 6.72807 11.25C6.72612 11.25 6.72417 11.25 6.72223 11.25C6.72029 11.25 6.71834 11.25 6.7164 11.25C6.71446 11.25 6.71251 11.25 6.71057 11.25C6.70863 11.25 6.70669 11.25 6.70475 11.25C6.70281 11.25 6.70087 11.25 6.69893 11.25C6.69699 11.25 6.69505 11.25 6.69312 11.25C6.69118 11.25 6.68924 11.25 6.68731 11.25C6.68537 11.25 6.68344 11.25 6.6815 11.25C6.67957 11.25 6.67764 11.25 6.67571 11.25C6.67377 11.25 6.67184 11.25 6.66991 11.25C6.66798 11.25 6.66605 11.25 6.66412 11.25C6.66219 11.25 6.66026 11.25 6.65834 11.25C6.65641 11.25 6.65448 11.25 6.65256 11.25C6.65063 11.25 6.64871 11.25 6.64679 11.25C6.64486 11.25 6.64294 11.25 6.64102 11.25C6.63909 11.25 6.63717 11.25 6.63525 11.25C6.63333 11.25 6.63141 11.25 6.6295 11.25C6.62758 11.25 6.62566 11.25 6.62374 11.25C6.62183 11.25 6.61991 11.25 6.618 11.25C6.61608 11.25 6.61417 11.25 6.61226 11.25C6.61035 11.25 6.60843 11.25 6.60652 11.25C6.60461 11.25 6.6027 11.25 6.60079 11.25C6.59889 11.25 6.59698 11.25 6.59507 11.25C6.59316 11.25 6.59126 11.25 6.58935 11.25C6.58745 11.25 6.58555 11.25 6.58364 11.25C6.58174 11.25 6.57984 11.25 6.57794 11.25C6.57604 11.25 6.57414 11.25 6.57224 11.25C6.57034 11.25 6.56845 11.25 6.56655 11.25C6.56465 11.25 6.56276 11.25 6.56086 11.25C6.55897 11.25 6.55708 11.25 6.55518 11.25C6.55329 11.25 6.5514 11.25 6.54951 11.25C6.54762 11.25 6.54573 11.25 6.54385 11.25C6.54196 11.25 6.54007 11.25 6.53819 11.25C6.5363 11.25 6.53442 11.25 6.53253 11.25C6.53065 11.25 6.52877 11.25 6.52689 11.25C6.52501 11.25 6.52313 11.25 6.52125 11.25C6.51937 11.25 6.5175 11.25 6.51562 11.25C6.51374 11.25 6.51187 11.25 6.51 11.25C6.50812 11.25 6.50625 11.25 6.50438 11.25C6.50251 11.25 6.50064 11.25 6.49877 11.25C6.4969 11.25 6.49503 11.25 6.49317 11.25C6.4913 11.25 6.48944 11.25 6.48757 11.25C6.48571 11.25 6.48385 11.25 6.48198 11.25C6.48012 11.25 6.47826 11.25 6.4764 11.25C6.47455 11.25 6.47269 11.25 6.47083 11.25C6.46898 11.25 6.46712 11.25 6.46527 11.25C6.46341 11.25 6.46156 11.25 6.45971 11.25C6.45786 11.25 6.45601 11.25 6.45416 11.25C6.45231 11.25 6.45047 11.25 6.44862 11.25C6.44678 11.25 6.44493 11.25 6.44309 11.25C6.44125 11.25 6.43941 11.25 6.43756 11.25C6.43572 11.25 6.43389 11.25 6.43205 11.25C6.43021 11.25 6.42838 11.25 6.42654 11.25C6.42471 11.25 6.42287 11.25 6.42104 11.25C6.41921 11.25 6.41738 11.25 6.41555 11.25C6.41372 11.25 6.41189 11.25 6.41007 11.25C6.40824 11.25 6.40642 11.25 6.40459 11.25C6.40277 11.25 6.40095 11.25 6.39913 11.25C6.39731 11.25 6.39549 11.25 6.39367 11.25C6.39185 11.25 6.39004 11.25 6.38822 11.25C6.38641 11.25 6.3846 11.25 6.38279 11.25C6.38097 11.25 6.37916 11.25 6.37736 11.25C6.37555 11.25 6.37374 11.25 6.37194 11.25C6.37013 11.25 6.36833 11.25 6.36652 11.25C6.36472 11.25 6.36292 11.25 6.36112 11.25C6.35932 11.25 6.35752 11.25 6.35573 11.25C6.35393 11.25 6.35214 11.25 6.35035 11.25C6.34855 11.25 6.34676 11.25 6.34497 11.25C6.34318 11.25 6.34139 11.25 6.33961 11.25C6.33782 11.25 6.33604 11.25 6.33425 11.25C6.33247 11.25 6.33069 11.25 6.32891 11.25C6.32713 11.25 6.32535 11.25 6.32357 11.25C6.32179 11.25 6.32002 11.25 6.31825 11.25C6.31647 11.25 6.3147 11.25 6.31293 11.25C6.31116 11.25 6.30939 11.25 6.30762 11.25C6.30586 11.25 6.30409 11.25 6.30233 11.25C6.30057 11.25 6.2988 11.25 6.29704 11.25C6.29528 11.25 6.29353 11.25 6.29177 11.25C6.29001 11.25 6.28826 11.25 6.2865 11.25C6.28475 11.25 6.283 11.25 6.28125 11.25C6.2795 11.25 6.27775 11.25 6.27601 11.25C6.27426 11.25 6.27252 11.25 6.27077 11.25C6.26903 11.25 6.26729 11.25 6.26555 11.25C6.26381 11.25 6.26207 11.25 6.26034 11.25C6.2586 11.25 6.25687 11.25 6.25514 11.25C6.25341 11.25 6.25168 11.25 6.24995 11.25C6.24822 11.25 6.24649 11.25 6.24477 11.25C6.24304 11.25 6.24132 11.25 6.2396 11.25C6.23788 11.25 6.23616 11.25 6.23444 11.25C6.23273 11.25 6.23101 11.25 6.2293 11.25C6.22758 11.25 6.22587 11.25 6.22416 11.25C6.22245 11.25 6.22075 11.25 6.21904 11.25C6.21733 11.25 6.21563 11.25 6.21393 11.25C6.21223 11.25 6.21053 11.25 6.20883 11.25C6.20713 11.25 6.20543 11.25 6.20374 11.25C6.20204 11.25 6.20035 11.25 6.19866 11.25C6.19697 11.25 6.19528 11.25 6.1936 11.25C6.19191 11.25 6.19023 11.25 6.18854 11.25C6.18686 11.25 6.18518 11.25 6.1835 11.25C6.18182 11.25 6.18015 11.25 6.17847 11.25C6.1768 11.25 6.17512 11.25 6.17345 11.25C6.17178 11.25 6.17012 11.25 6.16845 11.25C6.16678 11.25 6.16512 11.25 6.16346 11.25C6.16179 11.25 6.16013 11.25 6.15847 11.25C6.15682 11.25 6.15516 11.25 6.15351 11.25C6.15185 11.25 6.1502 11.25 6.14855 11.25C6.1469 11.25 6.14525 11.25 6.14361 11.25C6.14196 11.25 6.14032 11.25 6.13868 11.25C6.13703 11.25 6.13539 11.25 6.13376 11.25C6.13212 11.25 6.13049 11.25 6.12885 11.25C6.12722 11.25 6.12559 11.25 6.12396 11.25C6.12233 11.25 6.1207 11.25 6.11908 11.25C6.11746 11.25 6.11583 11.25 6.11421 11.25C6.11259 11.25 6.11097 11.25 6.10936 11.25C6.10774 11.25 6.10613 11.25 6.10452 11.25C6.10291 11.25 6.1013 11.25 6.09969 11.25C6.09808 11.25 6.09648 11.25 6.09488 11.25C6.09327 11.25 6.09167 11.25 6.09008 11.25C6.08848 11.25 6.08688 11.25 6.08529 11.25C6.0837 11.25 6.0821 11.25 6.08052 11.25C6.07893 11.25 6.07734 11.25 6.07576 11.25C6.07417 11.25 6.07259 11.25 6.07101 11.25C6.06943 11.25 6.06785 11.25 6.06628 11.25C6.0647 11.25 6.06313 11.25 6.06156 11.25C6.05999 11.25 6.05842 11.25 6.05685 11.25C6.05529 11.25 6.05372 11.25 6.05216 11.25C6.0506 11.25 6.04904 11.25 6.04749 11.25C6.04593 11.25 6.04438 11.25 6.04282 11.25C6.04127 11.25 6.03972 11.25 6.03818 11.25C6.03663 11.25 6.03508 11.25 6.03354 11.25C6.032 11.25 6.03046 11.25 6.02892 11.25C6.02738 11.25 6.02585 11.25 6.02432 11.25C6.02278 11.25 6.02125 11.25 6.01973 11.25C6.0182 11.25 6.01667 11.25 6.01515 11.25C6.01363 11.25 6.01211 11.25 6.01059 11.25C6.00907 11.25 6.00756 11.25 6.00604 11.25C6.00453 11.25 6.00302 11.25 6.00151 11.25C6 11.25 5.9985 11.25 5.997 11.25C5.99549 11.25 5.99399 11.25 5.99249 11.25C5.991 11.25 5.9895 11.25 5.98801 11.25C5.98651 11.25 5.98502 11.25 5.98354 11.25C5.98205 11.25 5.98056 11.25 5.97908 11.25C5.9776 11.25 5.97612 11.25 5.97464 11.25C5.97316 11.25 5.97169 11.25 5.97021 11.25C5.96874 11.25 5.96727 11.25 5.96581 11.25C5.96434 11.25 5.96287 11.25 5.96141 11.25C5.95995 11.25 5.95849 11.25 5.95703 11.25C5.95558 11.25 5.95412 11.25 5.95267 11.25C5.95122 11.25 5.94977 11.25 5.94832 11.25C5.94688 11.25 5.94543 11.25 5.94399 11.25C5.94255 11.25 5.94111 11.25 5.93968 11.25C5.93824 11.25 5.93681 11.25 5.93538 11.25C5.93395 11.25 5.93252 11.25 5.9311 11.25C5.92967 11.25 5.92825 11.25 5.92683 11.25C5.92541 11.25 5.92399 11.25 5.92258 11.25C5.92116 11.25 5.91975 11.25 5.91834 11.25C5.91694 11.25 5.91553 11.25 5.91413 11.25C5.91272 11.25 5.91132 11.25 5.90993 11.25C5.90853 11.25 5.90713 11.25 5.90574 11.25C5.90435 11.25 5.90296 11.25 5.90157 11.25C5.90019 11.25 5.8988 11.25 5.89742 11.25C5.89604 11.25 5.89466 11.25 5.89329 11.25C5.89191 11.25 5.89054 11.25 5.88917 11.25C5.8878 11.25 5.88643 11.25 5.88507 11.25C5.88371 11.25 5.88235 11.25 5.88099 11.25C5.87963 11.25 5.87827 11.25 5.87692 11.25C5.87557 11.25 5.87422 11.25 5.87287 11.25C5.87153 11.25 5.87018 11.25 5.86884 11.25C5.8675 11.25 5.86616 11.25 5.86483 11.25C5.86349 11.25 5.86216 11.25 5.86083 11.25C5.8595 11.25 5.85817 11.25 5.85685 11.25C5.85553 11.25 5.85421 11.25 5.85289 11.25C5.85157 11.25 5.85026 11.25 5.84894 11.25C5.84763 11.25 5.84632 11.25 5.84502 11.25C5.84371 11.25 5.84241 11.25 5.84111 11.25C5.83981 11.25 5.83851 11.25 5.83722 11.25C5.83593 11.25 5.83463 11.25 5.83335 11.25C5.83206 11.25 5.83077 11.25 5.82949 11.25C5.82821 11.25 5.82693 11.25 5.82566 11.25C5.82438 11.25 5.82311 11.25 5.82184 11.25C5.82057 11.25 5.8193 11.25 5.81804 11.25C5.81678 11.25 5.81551 11.25 5.81426 11.25C5.813 11.25 5.81175 11.25 5.81049 11.25C5.80924 11.25 5.808 11.25 5.80675 11.25C5.80551 11.25 5.80426 11.25 5.80302 11.25C5.80179 11.25 5.80055 11.25 5.79932 11.25C5.79809 11.25 5.79686 11.25 5.79563 11.25C5.7944 11.25 5.79318 11.25 5.79196 11.25C5.79074 11.25 5.78952 11.25 5.78831 11.25C5.7871 11.25 5.78589 11.25 5.78468 11.25C5.78347 11.25 5.78227 11.25 5.78107 11.25C5.77987 11.25 5.77867 11.25 5.77747 11.25C5.77628 11.25 5.77509 11.25 5.7739 11.25C5.77271 11.25 5.77153 11.25 5.77035 11.25C5.76916 11.25 5.76799 11.25 5.76681 11.25C5.76564 11.25 5.76446 11.25 5.76329 11.25C5.76213 11.25 5.76096 11.25 5.7598 11.25C5.75864 11.25 5.75748 11.25 5.75632 11.25C5.75517 11.25 5.75401 11.25 5.75287 11.25C5.75172 11.25 5.75057 11.25 5.74943 11.25C5.74829 11.25 5.74715 11.25 5.74601 11.25C5.74488 11.25 5.74374 11.25 5.74261 11.25C5.74149 11.25 5.74036 11.25 5.73924 11.25C5.73812 11.25 5.737 11.25 5.73588 11.25C5.73477 11.25 5.73365 11.25 5.73254 11.25C5.73144 11.25 5.73033 11.25 5.72923 11.25C5.72813 11.25 5.72703 11.25 5.72593 11.25C5.72484 11.25 5.72374 11.25 5.72266 11.25C5.72157 11.25 5.72048 11.25 5.7194 11.25C5.71832 11.25 5.71724 11.25 5.71617 11.25C5.71509 11.25 5.71402 11.25 5.71295 11.25C5.71188 11.25 5.71082 11.25 5.70976 11.25C5.7087 11.25 5.70764 11.25 5.70659 11.25C5.70553 11.25 5.70448 11.25 5.70344 11.25C5.70239 11.25 5.70135 11.25 5.70031 11.25C5.69927 11.25 5.69823 11.25 5.6972 11.25C5.69616 11.25 5.69513 11.25 5.69411 11.25C5.69308 11.25 5.69206 11.25 5.69104 11.25C5.69002 11.25 5.68901 11.25 5.68799 11.25C5.68698 11.25 5.68598 11.25 5.68497 11.25C5.68397 11.25 5.68296 11.25 5.68197 11.25C5.68097 11.25 5.67998 11.25 5.67899 11.25C5.678 11.25 5.67701 11.25 5.67603 11.25C5.67504 11.25 5.67406 11.25 5.67309 11.25C5.67211 11.25 5.67114 11.25 5.67017 11.25C5.6692 11.25 5.66824 11.25 5.66728 11.25C5.66632 11.25 5.66536 11.25 5.6644 11.25C5.66345 11.25 5.6625 11.25 5.66155 11.25C5.66061 11.25 5.65966 11.25 5.65873 11.25C5.65779 11.25 5.65685 11.25 5.65592 11.25C5.65499 11.25 5.65406 11.25 5.65313 11.25C5.65221 11.25 5.65129 11.25 5.65037 11.25C5.64946 11.25 5.64854 11.25 5.64763 11.25C5.64672 11.25 5.64582 11.25 5.64492 11.25C5.64401 11.25 5.64312 11.25 5.64222 11.25C5.64133 11.25 5.64044 11.25 5.63955 11.25C5.63866 11.25 5.63778 11.25 5.6369 11.25C5.63602 11.25 5.63515 11.25 5.63427 11.25C5.6334 11.25 5.63253 11.25 5.63167 11.25C5.63081 11.25 5.62995 11.25 5.62909 11.25C5.62823 11.25 5.62738 11.25 5.62653 11.25C5.62568 11.25 5.62484 11.25 5.624 11.25C5.62316 11.25 5.62232 11.25 5.62149 11.25C5.62065 11.25 5.61982 11.25 5.619 11.25C5.61817 11.25 5.61735 11.25 5.61653 11.25C5.61571 11.25 5.6149 11.25 5.61409 11.25C5.61328 11.25 5.61248 11.25 5.61167 11.25C5.61087 11.25 5.61007 11.25 5.60928 11.25C5.60848 11.25 5.60769 11.25 5.60691 11.25C5.60612 11.25 5.60534 11.25 5.60456 11.25C5.60378 11.25 5.60301 11.25 5.60224 11.25C5.60147 11.25 5.6007 11.25 5.59994 11.25C5.59918 11.25 5.59842 11.25 5.59766 11.25C5.59691 11.25 5.59616 11.25 5.59541 11.25C5.59466 11.25 5.59392 11.25 5.59318 11.25C5.59245 11.25 5.59171 11.25 5.59098 11.25C5.59025 11.25 5.58952 11.25 5.5888 11.25C5.58808 11.25 5.58736 11.25 5.58665 11.25C5.58593 11.25 5.58522 11.25 5.58452 11.25C5.58381 11.25 5.58311 11.25 5.58241 11.25C5.58171 11.25 5.58102 11.25 5.58033 11.25C5.57964 11.25 5.57895 11.25 5.57827 11.25C5.57759 11.25 5.57691 11.25 5.57624 11.25C5.57557 11.25 5.5749 11.25 5.57423 11.25C5.57357 11.25 5.57291 11.25 5.57225 11.25C5.5716 11.25 5.57094 11.25 5.5703 11.25C5.56965 11.25 5.569 11.25 5.56836 11.25C5.56772 11.25 5.56709 11.25 5.56646 11.25C5.56583 11.25 5.5652 11.25 5.56458 11.25C5.56395 11.25 5.56333 11.25 5.56272 11.25C5.5621 11.25 5.56149 11.25 5.56089 11.25C5.56028 11.25 5.55968 11.25 5.55908 11.25C5.55848 11.25 5.55789 11.25 5.5573 11.25C5.55671 11.25 5.55613 11.25 5.55555 11.25C5.55497 11.25 5.55439 11.25 5.55382 11.25C5.55325 11.25 5.55268 11.25 5.55212 11.25C5.55155 11.25 5.55099 11.25 5.55044 11.25C5.54988 11.25 5.54933 11.25 5.54879 11.25C5.54824 11.25 5.5477 11.25 5.54716 11.25C5.54662 11.25 5.54609 11.25 5.54556 11.25C5.54503 11.25 5.54451 11.25 5.54399 11.25C5.54347 11.25 5.54295 11.25 5.54244 11.25C5.54193 11.25 5.54142 11.25 5.54092 11.25C5.54042 11.25 5.53992 11.25 5.53943 11.25C5.53893 11.25 5.53844 11.25 5.53796 11.25C5.53747 11.25 5.53699 11.25 5.53652 11.25C5.53604 11.25 5.53557 11.25 5.5351 11.25C5.53464 11.25 5.53417 11.25 5.53371 11.25C5.53326 11.25 5.5328 11.25 5.53235 11.25C5.5319 11.25 5.53146 11.25 5.53102 11.25C5.53058 11.25 5.53014 11.25 5.52971 11.25C5.52928 11.25 5.52885 11.25 5.52843 11.25C5.52801 11.25 5.52759 11.25 5.52718 11.25C5.52676 11.25 5.52635 11.25 5.52595 11.25C5.52555 11.25 5.52515 11.25 5.52475 11.25C5.52436 11.25 5.52397 11.25 5.52358 11.25C5.52319 11.25 5.52281 11.25 5.52244 11.25C5.52206 11.25 5.52169 11.25 5.52132 11.25C5.52095 11.25 5.52059 11.25 5.52023 11.25C5.51987 11.25 5.51952 11.25 5.51917 11.25C5.51882 11.25 5.51847 11.25 5.51813 11.25C5.51779 11.25 5.51746 11.25 5.51713 11.25C5.5168 11.25 5.51647 11.25 5.51615 11.25C5.51583 11.25 5.51551 11.25 5.5152 11.25C5.51489 11.25 5.51458 11.25 5.51428 11.25C5.51397 11.25 5.51367 11.25 5.51338 11.25C5.51309 11.25 5.5128 11.25 5.51251 11.25C5.51223 11.25 5.51195 11.25 5.51168 11.25C5.5114 11.25 5.51113 11.25 5.51087 11.25C5.5106 11.25 5.51034 11.25 5.51009 11.25C5.50983 11.25 5.50958 11.25 5.50933 11.25C5.50909 11.25 5.50885 11.25 5.50861 11.25C5.50837 11.25 5.50814 11.25 5.50791 11.25C5.50769 11.25 5.50746 11.25 5.50725 11.25C5.50703 11.25 5.50682 11.25 5.50661 11.25C5.5064 11.25 5.5062 11.25 5.506 11.25C5.5058 11.25 5.50561 11.25 5.50542 11.25C5.50523 11.25 5.50505 11.25 5.50487 11.25C5.50469 11.25 5.50451 11.25 5.50435 11.25C5.50418 11.25 5.50401 11.25 5.50385 11.25C5.50369 11.25 5.50354 11.25 5.50339 11.25C5.50324 11.25 5.50309 11.25 5.50295 11.25C5.50282 11.25 5.50268 11.25 5.50255 11.25C5.50242 11.25 5.50229 11.25 5.50217 11.25C5.50205 11.25 5.50194 11.25 5.50183 11.25C5.50172 11.25 5.50161 11.25 5.50151 11.25C5.50141 11.25 5.50132 11.25 5.50123 11.25C5.50114 11.25 5.50105 11.25 5.50097 11.25C5.50089 11.25 5.50081 11.25 5.50074 11.25C5.50067 11.25 5.50061 11.25 5.50055 11.25C5.50049 11.25 5.50043 11.25 5.50038 11.25C5.50033 11.25 5.50028 11.25 5.50024 11.25C5.5002 11.25 5.50017 11.25 5.50014 11.25C5.50011 11.25 5.50008 11.25 5.50006 11.25C5.50004 11.25 5.50003 11.25 5.50002 11.25C5.50001 11.25 5.5 11.25 5.5 12C5.5 12.75 5.50001 12.75 5.50002 12.75C5.50003 12.75 5.50004 12.75 5.50006 12.75C5.50008 12.75 5.50011 12.75 5.50014 12.75C5.50017 12.75 5.5002 12.75 5.50024 12.75C5.50028 12.75 5.50033 12.75 5.50038 12.75C5.50043 12.75 5.50049 12.75 5.50055 12.75C5.50061 12.75 5.50067 12.75 5.50074 12.75C5.50081 12.75 5.50089 12.75 5.50097 12.75C5.50105 12.75 5.50114 12.75 5.50123 12.75C5.50132 12.75 5.50141 12.75 5.50151 12.75C5.50161 12.75 5.50172 12.75 5.50183 12.75C5.50194 12.75 5.50205 12.75 5.50217 12.75C5.50229 12.75 5.50242 12.75 5.50255 12.75C5.50268 12.75 5.50282 12.75 5.50295 12.75C5.50309 12.75 5.50324 12.75 5.50339 12.75C5.50354 12.75 5.50369 12.75 5.50385 12.75C5.50401 12.75 5.50418 12.75 5.50435 12.75C5.50451 12.75 5.50469 12.75 5.50487 12.75C5.50505 12.75 5.50523 12.75 5.50542 12.75C5.50561 12.75 5.5058 12.75 5.506 12.75C5.5062 12.75 5.5064 12.75 5.50661 12.75C5.50682 12.75 5.50703 12.75 5.50725 12.75C5.50746 12.75 5.50769 12.75 5.50791 12.75C5.50814 12.75 5.50837 12.75 5.50861 12.75C5.50885 12.75 5.50909 12.75 5.50933 12.75C5.50958 12.75 5.50983 12.75 5.51009 12.75C5.51034 12.75 5.5106 12.75 5.51087 12.75C5.51113 12.75 5.5114 12.75 5.51168 12.75C5.51195 12.75 5.51223 12.75 5.51251 12.75C5.5128 12.75 5.51309 12.75 5.51338 12.75C5.51367 12.75 5.51397 12.75 5.51428 12.75C5.51458 12.75 5.51489 12.75 5.5152 12.75C5.51551 12.75 5.51583 12.75 5.51615 12.75C5.51647 12.75 5.5168 12.75 5.51713 12.75C5.51746 12.75 5.51779 12.75 5.51813 12.75C5.51847 12.75 5.51882 12.75 5.51917 12.75C5.51952 12.75 5.51987 12.75 5.52023 12.75C5.52059 12.75 5.52095 12.75 5.52132 12.75C5.52169 12.75 5.52206 12.75 5.52244 12.75C5.52281 12.75 5.52319 12.75 5.52358 12.75C5.52397 12.75 5.52436 12.75 5.52475 12.75C5.52515 12.75 5.52555 12.75 5.52595 12.75C5.52635 12.75 5.52676 12.75 5.52718 12.75C5.52759 12.75 5.52801 12.75 5.52843 12.75C5.52885 12.75 5.52928 12.75 5.52971 12.75C5.53014 12.75 5.53058 12.75 5.53102 12.75C5.53146 12.75 5.5319 12.75 5.53235 12.75C5.5328 12.75 5.53326 12.75 5.53371 12.75C5.53417 12.75 5.53464 12.75 5.5351 12.75C5.53557 12.75 5.53604 12.75 5.53652 12.75C5.53699 12.75 5.53747 12.75 5.53796 12.75C5.53844 12.75 5.53893 12.75 5.53943 12.75C5.53992 12.75 5.54042 12.75 5.54092 12.75C5.54142 12.75 5.54193 12.75 5.54244 12.75C5.54295 12.75 5.54347 12.75 5.54399 12.75C5.54451 12.75 5.54503 12.75 5.54556 12.75C5.54609 12.75 5.54662 12.75 5.54716 12.75C5.5477 12.75 5.54824 12.75 5.54879 12.75C5.54933 12.75 5.54988 12.75 5.55044 12.75C5.55099 12.75 5.55155 12.75 5.55212 12.75C5.55268 12.75 5.55325 12.75 5.55382 12.75C5.55439 12.75 5.55497 12.75 5.55555 12.75C5.55613 12.75 5.55671 12.75 5.5573 12.75C5.55789 12.75 5.55848 12.75 5.55908 12.75C5.55968 12.75 5.56028 12.75 5.56089 12.75C5.56149 12.75 5.5621 12.75 5.56272 12.75C5.56333 12.75 5.56395 12.75 5.56458 12.75C5.5652 12.75 5.56583 12.75 5.56646 12.75C5.56709 12.75 5.56772 12.75 5.56836 12.75C5.569 12.75 5.56965 12.75 5.5703 12.75C5.57094 12.75 5.5716 12.75 5.57225 12.75C5.57291 12.75 5.57357 12.75 5.57423 12.75C5.5749 12.75 5.57557 12.75 5.57624 12.75C5.57691 12.75 5.57759 12.75 5.57827 12.75C5.57895 12.75 5.57964 12.75 5.58033 12.75C5.58102 12.75 5.58171 12.75 5.58241 12.75C5.58311 12.75 5.58381 12.75 5.58452 12.75C5.58522 12.75 5.58593 12.75 5.58665 12.75C5.58736 12.75 5.58808 12.75 5.5888 12.75C5.58952 12.75 5.59025 12.75 5.59098 12.75C5.59171 12.75 5.59245 12.75 5.59318 12.75C5.59392 12.75 5.59466 12.75 5.59541 12.75C5.59616 12.75 5.59691 12.75 5.59766 12.75C5.59842 12.75 5.59918 12.75 5.59994 12.75C5.6007 12.75 5.60147 12.75 5.60224 12.75C5.60301 12.75 5.60378 12.75 5.60456 12.75C5.60534 12.75 5.60612 12.75 5.60691 12.75C5.60769 12.75 5.60848 12.75 5.60928 12.75C5.61007 12.75 5.61087 12.75 5.61167 12.75C5.61248 12.75 5.61328 12.75 5.61409 12.75C5.6149 12.75 5.61571 12.75 5.61653 12.75C5.61735 12.75 5.61817 12.75 5.619 12.75C5.61982 12.75 5.62065 12.75 5.62149 12.75C5.62232 12.75 5.62316 12.75 5.624 12.75C5.62484 12.75 5.62568 12.75 5.62653 12.75C5.62738 12.75 5.62823 12.75 5.62909 12.75C5.62995 12.75 5.63081 12.75 5.63167 12.75C5.63253 12.75 5.6334 12.75 5.63427 12.75C5.63515 12.75 5.63602 12.75 5.6369 12.75C5.63778 12.75 5.63866 12.75 5.63955 12.75C5.64044 12.75 5.64133 12.75 5.64222 12.75C5.64312 12.75 5.64401 12.75 5.64492 12.75C5.64582 12.75 5.64672 12.75 5.64763 12.75C5.64854 12.75 5.64946 12.75 5.65037 12.75C5.65129 12.75 5.65221 12.75 5.65313 12.75C5.65406 12.75 5.65499 12.75 5.65592 12.75C5.65685 12.75 5.65779 12.75 5.65873 12.75C5.65966 12.75 5.66061 12.75 5.66155 12.75C5.6625 12.75 5.66345 12.75 5.6644 12.75C5.66536 12.75 5.66632 12.75 5.66728 12.75C5.66824 12.75 5.6692 12.75 5.67017 12.75C5.67114 12.75 5.67211 12.75 5.67309 12.75C5.67406 12.75 5.67504 12.75 5.67603 12.75C5.67701 12.75 5.678 12.75 5.67899 12.75C5.67998 12.75 5.68097 12.75 5.68197 12.75C5.68296 12.75 5.68397 12.75 5.68497 12.75C5.68598 12.75 5.68698 12.75 5.68799 12.75C5.68901 12.75 5.69002 12.75 5.69104 12.75C5.69206 12.75 5.69308 12.75 5.69411 12.75C5.69513 12.75 5.69616 12.75 5.6972 12.75C5.69823 12.75 5.69927 12.75 5.70031 12.75C5.70135 12.75 5.70239 12.75 5.70344 12.75C5.70448 12.75 5.70553 12.75 5.70659 12.75C5.70764 12.75 5.7087 12.75 5.70976 12.75C5.71082 12.75 5.71188 12.75 5.71295 12.75C5.71402 12.75 5.71509 12.75 5.71617 12.75C5.71724 12.75 5.71832 12.75 5.7194 12.75C5.72048 12.75 5.72157 12.75 5.72266 12.75C5.72374 12.75 5.72484 12.75 5.72593 12.75C5.72703 12.75 5.72813 12.75 5.72923 12.75C5.73033 12.75 5.73144 12.75 5.73254 12.75C5.73365 12.75 5.73477 12.75 5.73588 12.75C5.737 12.75 5.73812 12.75 5.73924 12.75C5.74036 12.75 5.74149 12.75 5.74261 12.75C5.74374 12.75 5.74488 12.75 5.74601 12.75C5.74715 12.75 5.74829 12.75 5.74943 12.75C5.75057 12.75 5.75172 12.75 5.75287 12.75C5.75401 12.75 5.75517 12.75 5.75632 12.75C5.75748 12.75 5.75864 12.75 5.7598 12.75C5.76096 12.75 5.76213 12.75 5.76329 12.75C5.76446 12.75 5.76564 12.75 5.76681 12.75C5.76799 12.75 5.76916 12.75 5.77035 12.75C5.77153 12.75 5.77271 12.75 5.7739 12.75C5.77509 12.75 5.77628 12.75 5.77747 12.75C5.77867 12.75 5.77987 12.75 5.78107 12.75C5.78227 12.75 5.78347 12.75 5.78468 12.75C5.78589 12.75 5.7871 12.75 5.78831 12.75C5.78952 12.75 5.79074 12.75 5.79196 12.75C5.79318 12.75 5.7944 12.75 5.79563 12.75C5.79686 12.75 5.79809 12.75 5.79932 12.75C5.80055 12.75 5.80179 12.75 5.80302 12.75C5.80426 12.75 5.80551 12.75 5.80675 12.75C5.808 12.75 5.80924 12.75 5.81049 12.75C5.81175 12.75 5.813 12.75 5.81426 12.75C5.81551 12.75 5.81678 12.75 5.81804 12.75C5.8193 12.75 5.82057 12.75 5.82184 12.75C5.82311 12.75 5.82438 12.75 5.82566 12.75C5.82693 12.75 5.82821 12.75 5.82949 12.75C5.83077 12.75 5.83206 12.75 5.83335 12.75C5.83463 12.75 5.83593 12.75 5.83722 12.75C5.83851 12.75 5.83981 12.75 5.84111 12.75C5.84241 12.75 5.84371 12.75 5.84502 12.75C5.84632 12.75 5.84763 12.75 5.84894 12.75C5.85026 12.75 5.85157 12.75 5.85289 12.75C5.85421 12.75 5.85553 12.75 5.85685 12.75C5.85817 12.75 5.8595 12.75 5.86083 12.75C5.86216 12.75 5.86349 12.75 5.86483 12.75C5.86616 12.75 5.8675 12.75 5.86884 12.75C5.87018 12.75 5.87153 12.75 5.87287 12.75C5.87422 12.75 5.87557 12.75 5.87692 12.75C5.87827 12.75 5.87963 12.75 5.88099 12.75C5.88235 12.75 5.88371 12.75 5.88507 12.75C5.88643 12.75 5.8878 12.75 5.88917 12.75C5.89054 12.75 5.89191 12.75 5.89329 12.75C5.89466 12.75 5.89604 12.75 5.89742 12.75C5.8988 12.75 5.90019 12.75 5.90157 12.75C5.90296 12.75 5.90435 12.75 5.90574 12.75C5.90713 12.75 5.90853 12.75 5.90993 12.75C5.91132 12.75 5.91272 12.75 5.91413 12.75C5.91553 12.75 5.91694 12.75 5.91834 12.75C5.91975 12.75 5.92116 12.75 5.92258 12.75C5.92399 12.75 5.92541 12.75 5.92683 12.75C5.92825 12.75 5.92967 12.75 5.9311 12.75C5.93252 12.75 5.93395 12.75 5.93538 12.75C5.93681 12.75 5.93824 12.75 5.93968 12.75C5.94111 12.75 5.94255 12.75 5.94399 12.75C5.94543 12.75 5.94688 12.75 5.94832 12.75C5.94977 12.75 5.95122 12.75 5.95267 12.75C5.95412 12.75 5.95558 12.75 5.95703 12.75C5.95849 12.75 5.95995 12.75 5.96141 12.75C5.96287 12.75 5.96434 12.75 5.96581 12.75C5.96727 12.75 5.96874 12.75 5.97021 12.75C5.97169 12.75 5.97316 12.75 5.97464 12.75C5.97612 12.75 5.9776 12.75 5.97908 12.75C5.98056 12.75 5.98205 12.75 5.98354 12.75C5.98502 12.75 5.98651 12.75 5.98801 12.75C5.9895 12.75 5.991 12.75 5.99249 12.75C5.99399 12.75 5.99549 12.75 5.997 12.75C5.9985 12.75 6 12.75 6.00151 12.75C6.00302 12.75 6.00453 12.75 6.00604 12.75C6.00756 12.75 6.00907 12.75 6.01059 12.75C6.01211 12.75 6.01363 12.75 6.01515 12.75C6.01667 12.75 6.0182 12.75 6.01973 12.75C6.02125 12.75 6.02278 12.75 6.02432 12.75C6.02585 12.75 6.02738 12.75 6.02892 12.75C6.03046 12.75 6.032 12.75 6.03354 12.75C6.03508 12.75 6.03663 12.75 6.03818 12.75C6.03972 12.75 6.04127 12.75 6.04282 12.75C6.04438 12.75 6.04593 12.75 6.04749 12.75C6.04904 12.75 6.0506 12.75 6.05216 12.75C6.05372 12.75 6.05529 12.75 6.05685 12.75C6.05842 12.75 6.05999 12.75 6.06156 12.75C6.06313 12.75 6.0647 12.75 6.06628 12.75C6.06785 12.75 6.06943 12.75 6.07101 12.75C6.07259 12.75 6.07417 12.75 6.07576 12.75C6.07734 12.75 6.07893 12.75 6.08052 12.75C6.0821 12.75 6.0837 12.75 6.08529 12.75C6.08688 12.75 6.08848 12.75 6.09008 12.75C6.09167 12.75 6.09327 12.75 6.09488 12.75C6.09648 12.75 6.09808 12.75 6.09969 12.75C6.1013 12.75 6.10291 12.75 6.10452 12.75C6.10613 12.75 6.10774 12.75 6.10936 12.75C6.11097 12.75 6.11259 12.75 6.11421 12.75C6.11583 12.75 6.11746 12.75 6.11908 12.75C6.1207 12.75 6.12233 12.75 6.12396 12.75C6.12559 12.75 6.12722 12.75 6.12885 12.75C6.13049 12.75 6.13212 12.75 6.13376 12.75C6.13539 12.75 6.13703 12.75 6.13868 12.75C6.14032 12.75 6.14196 12.75 6.14361 12.75C6.14525 12.75 6.1469 12.75 6.14855 12.75C6.1502 12.75 6.15185 12.75 6.15351 12.75C6.15516 12.75 6.15682 12.75 6.15847 12.75C6.16013 12.75 6.16179 12.75 6.16346 12.75C6.16512 12.75 6.16678 12.75 6.16845 12.75C6.17012 12.75 6.17178 12.75 6.17345 12.75C6.17512 12.75 6.1768 12.75 6.17847 12.75C6.18015 12.75 6.18182 12.75 6.1835 12.75C6.18518 12.75 6.18686 12.75 6.18854 12.75C6.19023 12.75 6.19191 12.75 6.1936 12.75C6.19528 12.75 6.19697 12.75 6.19866 12.75C6.20035 12.75 6.20204 12.75 6.20374 12.75C6.20543 12.75 6.20713 12.75 6.20883 12.75C6.21053 12.75 6.21223 12.75 6.21393 12.75C6.21563 12.75 6.21733 12.75 6.21904 12.75C6.22075 12.75 6.22245 12.75 6.22416 12.75C6.22587 12.75 6.22758 12.75 6.2293 12.75C6.23101 12.75 6.23273 12.75 6.23444 12.75C6.23616 12.75 6.23788 12.75 6.2396 12.75C6.24132 12.75 6.24304 12.75 6.24477 12.75C6.24649 12.75 6.24822 12.75 6.24995 12.75C6.25168 12.75 6.25341 12.75 6.25514 12.75C6.25687 12.75 6.2586 12.75 6.26034 12.75C6.26207 12.75 6.26381 12.75 6.26555 12.75C6.26729 12.75 6.26903 12.75 6.27077 12.75C6.27252 12.75 6.27426 12.75 6.27601 12.75C6.27775 12.75 6.2795 12.75 6.28125 12.75C6.283 12.75 6.28475 12.75 6.2865 12.75C6.28826 12.75 6.29001 12.75 6.29177 12.75C6.29353 12.75 6.29528 12.75 6.29704 12.75C6.2988 12.75 6.30057 12.75 6.30233 12.75C6.30409 12.75 6.30586 12.75 6.30762 12.75C6.30939 12.75 6.31116 12.75 6.31293 12.75C6.3147 12.75 6.31647 12.75 6.31825 12.75C6.32002 12.75 6.32179 12.75 6.32357 12.75C6.32535 12.75 6.32713 12.75 6.32891 12.75C6.33069 12.75 6.33247 12.75 6.33425 12.75C6.33604 12.75 6.33782 12.75 6.33961 12.75C6.34139 12.75 6.34318 12.75 6.34497 12.75C6.34676 12.75 6.34855 12.75 6.35035 12.75C6.35214 12.75 6.35393 12.75 6.35573 12.75C6.35752 12.75 6.35932 12.75 6.36112 12.75C6.36292 12.75 6.36472 12.75 6.36652 12.75C6.36833 12.75 6.37013 12.75 6.37194 12.75C6.37374 12.75 6.37555 12.75 6.37736 12.75C6.37916 12.75 6.38097 12.75 6.38279 12.75C6.3846 12.75 6.38641 12.75 6.38822 12.75C6.39004 12.75 6.39185 12.75 6.39367 12.75C6.39549 12.75 6.39731 12.75 6.39913 12.75C6.40095 12.75 6.40277 12.75 6.40459 12.75C6.40642 12.75 6.40824 12.75 6.41007 12.75C6.41189 12.75 6.41372 12.75 6.41555 12.75C6.41738 12.75 6.41921 12.75 6.42104 12.75C6.42287 12.75 6.42471 12.75 6.42654 12.75C6.42838 12.75 6.43021 12.75 6.43205 12.75C6.43389 12.75 6.43572 12.75 6.43756 12.75C6.43941 12.75 6.44125 12.75 6.44309 12.75C6.44493 12.75 6.44678 12.75 6.44862 12.75C6.45047 12.75 6.45231 12.75 6.45416 12.75C6.45601 12.75 6.45786 12.75 6.45971 12.75C6.46156 12.75 6.46341 12.75 6.46527 12.75C6.46712 12.75 6.46898 12.75 6.47083 12.75C6.47269 12.75 6.47455 12.75 6.4764 12.75C6.47826 12.75 6.48012 12.75 6.48198 12.75C6.48385 12.75 6.48571 12.75 6.48757 12.75C6.48944 12.75 6.4913 12.75 6.49317 12.75C6.49503 12.75 6.4969 12.75 6.49877 12.75C6.50064 12.75 6.50251 12.75 6.50438 12.75C6.50625 12.75 6.50812 12.75 6.51 12.75C6.51187 12.75 6.51374 12.75 6.51562 12.75C6.5175 12.75 6.51937 12.75 6.52125 12.75C6.52313 12.75 6.52501 12.75 6.52689 12.75C6.52877 12.75 6.53065 12.75 6.53253 12.75C6.53442 12.75 6.5363 12.75 6.53819 12.75C6.54007 12.75 6.54196 12.75 6.54385 12.75C6.54573 12.75 6.54762 12.75 6.54951 12.75C6.5514 12.75 6.55329 12.75 6.55518 12.75C6.55708 12.75 6.55897 12.75 6.56086 12.75C6.56276 12.75 6.56465 12.75 6.56655 12.75C6.56845 12.75 6.57034 12.75 6.57224 12.75C6.57414 12.75 6.57604 12.75 6.57794 12.75C6.57984 12.75 6.58174 12.75 6.58364 12.75C6.58555 12.75 6.58745 12.75 6.58935 12.75C6.59126 12.75 6.59316 12.75 6.59507 12.75C6.59698 12.75 6.59889 12.75 6.60079 12.75C6.6027 12.75 6.60461 12.75 6.60652 12.75C6.60843 12.75 6.61035 12.75 6.61226 12.75C6.61417 12.75 6.61608 12.75 6.618 12.75C6.61991 12.75 6.62183 12.75 6.62374 12.75C6.62566 12.75 6.62758 12.75 6.6295 12.75C6.63141 12.75 6.63333 12.75 6.63525 12.75C6.63717 12.75 6.63909 12.75 6.64102 12.75C6.64294 12.75 6.64486 12.75 6.64679 12.75C6.64871 12.75 6.65063 12.75 6.65256 12.75C6.65448 12.75 6.65641 12.75 6.65834 12.75C6.66026 12.75 6.66219 12.75 6.66412 12.75C6.66605 12.75 6.66798 12.75 6.66991 12.75C6.67184 12.75 6.67377 12.75 6.67571 12.75C6.67764 12.75 6.67957 12.75 6.6815 12.75C6.68344 12.75 6.68537 12.75 6.68731 12.75C6.68924 12.75 6.69118 12.75 6.69312 12.75C6.69505 12.75 6.69699 12.75 6.69893 12.75C6.70087 12.75 6.70281 12.75 6.70475 12.75C6.70669 12.75 6.70863 12.75 6.71057 12.75C6.71251 12.75 6.71446 12.75 6.7164 12.75C6.71834 12.75 6.72029 12.75 6.72223 12.75C6.72417 12.75 6.72612 12.75 6.72807 12.75C6.73001 12.75 6.73196 12.75 6.73391 12.75C6.73585 12.75 6.7378 12.75 6.73975 12.75C6.7417 12.75 6.74365 12.75 6.7456 12.75C6.74755 12.75 6.7495 12.75 6.75145 12.75C6.7534 12.75 6.75535 12.75 6.75731 12.75C6.75926 12.75 6.76121 12.75 6.76317 12.75C6.76512 12.75 6.76707 12.75 6.76903 12.75C6.77099 12.75 6.77294 12.75 6.7749 12.75C6.77685 12.75 6.77881 12.75 6.78077 12.75C6.78273 12.75 6.78468 12.75 6.78664 12.75C6.7886 12.75 6.79056 12.75 6.79252 12.75C6.79448 12.75 6.79644 12.75 6.7984 12.75C6.80036 12.75 6.80233 12.75 6.80429 12.75C6.80625 12.75 6.80821 12.75 6.81018 12.75C6.81214 12.75 6.8141 12.75 6.81607 12.75C6.81803 12.75 6.82 12.75 6.82196 12.75C6.82393 12.75 6.82589 12.75 6.82786 12.75C6.82982 12.75 6.83179 12.75 6.83376 12.75C6.83572 12.75 6.83769 12.75 6.83966 12.75C6.84163 12.75 6.8436 12.75 6.84557 12.75C6.84753 12.75 6.8495 12.75 6.85147 12.75C6.85344 12.75 6.85541 12.75 6.85738 12.75C6.85936 12.75 6.86133 12.75 6.8633 12.75C6.86527 12.75 6.86724 12.75 6.86921 12.75C6.87119 12.75 6.87316 12.75 6.87513 12.75C6.87711 12.75 6.87908 12.75 6.88105 12.75C6.88303 12.75 6.885 12.75 6.88698 12.75C6.88895 12.75 6.89092 12.75 6.8929 12.75C6.89488 12.75 6.89685 12.75 6.89883 12.75C6.9008 12.75 6.90278 12.75 6.90476 12.75C6.90673 12.75 6.90871 12.75 6.91069 12.75C6.91266 12.75 6.91464 12.75 6.91662 12.75C6.9186 12.75 6.92057 12.75 6.92255 12.75C6.92453 12.75 6.92651 12.75 6.92849 12.75C6.93047 12.75 6.93245 12.75 6.93443 12.75C6.9364 12.75 6.93838 12.75 6.94036 12.75C6.94234 12.75 6.94432 12.75 6.9463 12.75C6.94829 12.75 6.95027 12.75 6.95225 12.75C6.95423 12.75 6.95621 12.75 6.95819 12.75C6.96017 12.75 6.96215 12.75 6.96413 12.75C6.96611 12.75 6.9681 12.75 6.97008 12.75C6.97206 12.75 6.97404 12.75 6.97602 12.75C6.97801 12.75 6.97999 12.75 6.98197 12.75C6.98395 12.75 6.98594 12.75 6.98792 12.75C6.9899 12.75 6.99189 12.75 6.99387 12.75C6.99585 12.75 6.99783 12.75 6.99982 12.75C7.0018 12.75 7.00378 12.75 7.00577 12.75C7.00775 12.75 7.00974 12.75 7.01172 12.75C7.0137 12.75 7.01569 12.75 7.01767 12.75C7.01965 12.75 7.02164 12.75 7.02362 12.75C7.02561 12.75 7.02759 12.75 7.02957 12.75C7.03156 12.75 7.03354 12.75 7.03553 12.75C7.03751 12.75 7.03949 12.75 7.04148 12.75C7.04346 12.75 7.04545 12.75 7.04743 12.75C7.04941 12.75 7.0514 12.75 7.05338 12.75C7.05537 12.75 7.05735 12.75 7.05933 12.75C7.06132 12.75 7.0633 12.75 7.06529 12.75C7.06727 12.75 7.06925 12.75 7.07124 12.75C7.07322 12.75 7.07521 12.75 7.07719 12.75C7.07917 12.75 7.08116 12.75 7.08314 12.75C7.08513 12.75 7.08711 12.75 7.08909 12.75C7.09108 12.75 7.09306 12.75 7.09504 12.75C7.09703 12.75 7.09901 12.75 7.10099 12.75C7.10298 12.75 7.10496 12.75 7.10694 12.75C7.10892 12.75 7.11091 12.75 7.11289 12.75C7.11487 12.75 7.11685 12.75 7.11884 12.75C7.12082 12.75 7.1228 12.75 7.12478 12.75C7.12677 12.75 7.12875 12.75 7.13073 12.75C7.13271 12.75 7.13469 12.75 7.13667 12.75C7.13865 12.75 7.14063 12.75 7.14262 12.75C7.1446 12.75 7.14658 12.75 7.14856 12.75C7.15054 12.75 7.15252 12.75 7.1545 12.75C7.15648 12.75 7.15846 12.75 7.16044 12.75C7.16242 12.75 7.1644 12.75 7.16637 12.75C7.16835 12.75 7.17033 12.75 7.17231 12.75C7.17429 12.75 7.17627 12.75 7.17825 12.75C7.18022 12.75 7.1822 12.75 7.18418 12.75C7.18616 12.75 7.18813 12.75 7.19011 12.75C7.19209 12.75 7.19406 12.75 7.19604 12.75C7.19801 12.75 7.19999 12.75 7.20197 12.75C7.20394 12.75 7.20592 12.75 7.20789 12.75C7.20987 12.75 7.21184 12.75 7.21381 12.75C7.21579 12.75 7.21776 12.75 7.21973 12.75C7.22171 12.75 7.22368 12.75 7.22565 12.75C7.22763 12.75 7.2296 12.75 7.23157 12.75C7.23354 12.75 7.23551 12.75 7.23748 12.75C7.23945 12.75 7.24142 12.75 7.24339 12.75C7.24536 12.75 7.24733 12.75 7.2493 12.75C7.25127 12.75 7.25324 12.75 7.25521 12.75C7.25718 12.75 7.25915 12.75 7.26111 12.75C7.26308 12.75 7.26505 12.75 7.26701 12.75C7.26898 12.75 7.27095 12.75 7.27291 12.75C7.27488 12.75 7.27684 12.75 7.27881 12.75C7.28077 12.75 7.28273 12.75 7.2847 12.75C7.28666 12.75 7.28862 12.75 7.29059 12.75C7.29255 12.75 7.29451 12.75 7.29647 12.75C7.29843 12.75 7.30039 12.75 7.30235 12.75C7.30431 12.75 7.30627 12.75 7.30823 12.75C7.31019 12.75 7.31215 12.75 7.31411 12.75C7.31606 12.75 7.31802 12.75 7.31998 12.75C7.32194 12.75 7.32389 12.75 7.32585 12.75C7.3278 12.75 7.32976 12.75 7.33171 12.75C7.33367 12.75 7.33562 12.75 7.33757 12.75C7.33952 12.75 7.34148 12.75 7.34343 12.75C7.34538 12.75 7.34733 12.75 7.34928 12.75C7.35123 12.75 7.35318 12.75 7.35513 12.75C7.35708 12.75 7.35903 12.75 7.36098 12.75C7.36292 12.75 7.36487 12.75 7.36682 12.75C7.36876 12.75 7.37071 12.75 7.37265 12.75C7.3746 12.75 7.37654 12.75 7.37849 12.75C7.38043 12.75 7.38237 12.75 7.38431 12.75C7.38626 12.75 7.3882 12.75 7.39014 12.75C7.39208 12.75 7.39402 12.75 7.39596 12.75C7.39789 12.75 7.39983 12.75 7.40177 12.75C7.40371 12.75 7.40564 12.75 7.40758 12.75C7.40952 12.75 7.41145 12.75 7.41338 12.75C7.41532 12.75 7.41725 12.75 7.41918 12.75C7.42112 12.75 7.42305 12.75 7.42498 12.75C7.42691 12.75 7.42884 12.75 7.43077 12.75C7.4327 12.75 7.43463 12.75 7.43655 12.75C7.43848 12.75 7.44041 12.75 7.44233 12.75C7.44426 12.75 7.44619 12.75 7.44811 12.75C7.45003 12.75 7.45196 12.75 7.45388 12.75C7.4558 12.75 7.45772 12.75 7.45964 12.75C7.46156 12.75 7.46348 12.75 7.4654 12.75C7.46732 12.75 7.46924 12.75 7.47115 12.75C7.47307 12.75 7.47499 12.75 7.4769 12.75C7.47882 12.75 7.48073 12.75 7.48264 12.75C7.48456 12.75 7.48647 12.75 7.48838 12.75C7.49029 12.75 7.4922 12.75 7.49411 12.75C7.49602 12.75 7.49793 12.75 7.49983 12.75C7.50174 12.75 7.50365 12.75 7.50555 12.75C7.50746 12.75 7.50936 12.75 7.51126 12.75C7.51317 12.75 7.51507 12.75 7.51697 12.75C7.51887 12.75 7.52077 12.75 7.52267 12.75C7.52457 12.75 7.52646 12.75 7.52836 12.75C7.53026 12.75 7.53215 12.75 7.53405 12.75C7.53594 12.75 7.53784 12.75 7.53973 12.75C7.54162 12.75 7.54351 12.75 7.5454 12.75C7.54729 12.75 7.54918 12.75 7.55107 12.75C7.55296 12.75 7.55484 12.75 7.55673 12.75C7.55862 12.75 7.5605 12.75 7.56238 12.75C7.56427 12.75 7.56615 12.75 7.56803 12.75C7.56991 12.75 7.57179 12.75 7.57367 12.75C7.57555 12.75 7.57743 12.75 7.5793 12.75C7.58118 12.75 7.58305 12.75 7.58493 12.75C7.5868 12.75 7.58867 12.75 7.59055 12.75C7.59242 12.75 7.59429 12.75 7.59616 12.75C7.59803 12.75 7.59989 12.75 7.60176 12.75C7.60363 12.75 7.60549 12.75 7.60736 12.75C7.60922 12.75 7.61108 12.75 7.61295 12.75C7.61481 12.75 7.61667 12.75 7.61853 12.75C7.62039 12.75 7.62224 12.75 7.6241 12.75C7.62596 12.75 7.62781 12.75 7.62967 12.75C7.63152 12.75 7.63337 12.75 7.63522 12.75C7.63708 12.75 7.63893 12.75 7.64077 12.75C7.64262 12.75 7.64447 12.75 7.64632 12.75C7.64816 12.75 7.65001 12.75 7.65185 12.75C7.65369 12.75 7.65554 12.75 7.65738 12.75C7.65922 12.75 7.66106 12.75 7.6629 12.75C7.66473 12.75 7.66657 12.75 7.6684 12.75C7.67024 12.75 7.67207 12.75 7.67391 12.75C7.67574 12.75 7.67757 12.75 7.6794 12.75C7.68123 12.75 7.68306 12.75 7.68488 12.75C7.68671 12.75 7.68853 12.75 7.69036 12.75C7.69218 12.75 7.694 12.75 7.69583 12.75C7.69765 12.75 7.69947 12.75 7.70128 12.75C7.7031 12.75 7.70492 12.75 7.70673 12.75C7.70855 12.75 7.71036 12.75 7.71217 12.75C7.71399 12.75 7.7158 12.75 7.7176 12.75C7.71941 12.75 7.72122 12.75 7.72303 12.75C7.72483 12.75 7.72664 12.75 7.72844 12.75C7.73024 12.75 7.73204 12.75 7.73384 12.75C7.73564 12.75 7.73744 12.75 7.73924 12.75C7.74104 12.75 7.74283 12.75 7.74462 12.75C7.74642 12.75 7.74821 12.75 7.75 12.75V11.25Z" fill="#23282E"/>
</g>
</svg>
