<svg width="24" height="24" viewBox="0 0 24 24" fill="none" xmlns="http://www.w3.org/2000/svg">
<g id="&#236;&#185;&#180;&#235;&#147;&#156;&#236;&#185;&#180;&#237;&#133;&#140;&#234;&#179;&#160;&#235;&#166;&#172;=&#237;&#142;&#184;&#236;&#157;&#152;&#236;&#160;&#144;">
<rect id="Rectangle 43236" x="4" y="9" width="16" height="12" rx="2" stroke="#23282E" stroke-width="1.5"/>
<path id="Rectangle 43237" d="M9.5 18.5C9.5 17.1193 10.6193 16 12 16V16C13.3807 16 14.5 17.1193 14.5 18.5V21H9.5V18.5Z" stroke="#23282E" stroke-width="1.5"/>
<g id="Union">
<path fill-rule="evenodd" clip-rule="evenodd" d="M4.82028 4.20331C5.13758 3.47268 5.8582 3 6.65476 3H9.00001H15H17.3453C18.1418 3 18.8624 3.47268 19.1797 4.20331L21.0756 8.56876C21.9844 10.6615 20.4505 13 18.1689 13C16.4188 13 15 11.5812 15 9.83108V10C15 11.6569 13.6569 13 12 13C10.3432 13 9.00001 11.6569 9.00001 10V9.83283C8.99906 11.5822 7.58065 13 5.83108 13C3.5495 13 2.01558 10.6615 2.92443 8.56876L4.82028 4.20331Z" fill="white"/>
<path d="M21.0756 8.56876L20.3877 8.86752V8.86752L21.0756 8.56876ZM15.75 9.83108C15.75 9.41686 15.4142 9.08108 15 9.08108C14.5858 9.08108 14.25 9.41686 14.25 9.83108H15.75ZM9.00001 9.83283H9.75001C9.75001 9.4187 9.41434 9.08295 9.00021 9.08283C8.58608 9.08272 8.25023 9.41829 8.25001 9.83243L9.00001 9.83283ZM2.92443 8.56876L3.61236 8.86752L2.92443 8.56876ZM19.1797 4.20331L18.4918 4.50207L19.1797 4.20331ZM9.00001 2.25H6.65476V3.75H9.00001V2.25ZM15 2.25H9.00001V3.75H15V2.25ZM15 3.75H17.3453V2.25H15V3.75ZM18.4918 4.50207L20.3877 8.86752L21.7635 8.27L19.8677 3.90456L18.4918 4.50207ZM20.3877 8.86752C21.0814 10.465 19.9105 12.25 18.1689 12.25V13.75C20.9905 13.75 22.8875 10.8581 21.7635 8.27L20.3877 8.86752ZM18.1689 12.25C16.833 12.25 15.75 11.167 15.75 9.83108H14.25C14.25 11.9954 16.0046 13.75 18.1689 13.75V12.25ZM15.75 10V9.83108H14.25V10H15.75ZM12 13.75C14.0711 13.75 15.75 12.0711 15.75 10H14.25C14.25 11.2426 13.2426 12.25 12 12.25V13.75ZM8.25001 10C8.25001 12.0711 9.92894 13.75 12 13.75V12.25C10.7574 12.25 9.75001 11.2426 9.75001 10H8.25001ZM8.25001 9.83283V10H9.75001V9.83283H8.25001ZM5.83108 13.75C7.99472 13.75 9.74883 11.9966 9.75001 9.83324L8.25001 9.83243C8.24928 11.1677 7.16657 12.25 5.83108 12.25V13.75ZM2.2365 8.27C1.11255 10.8581 3.00951 13.75 5.83108 13.75V12.25C4.08949 12.25 2.91861 10.465 3.61236 8.86752L2.2365 8.27ZM4.13235 3.90456L2.2365 8.27L3.61236 8.86752L5.50821 4.50207L4.13235 3.90456ZM17.3453 3.75C17.8431 3.75 18.2935 4.04543 18.4918 4.50207L19.8677 3.90456C19.4314 2.89994 18.4405 2.25 17.3453 2.25V3.75ZM6.65476 2.25C5.55949 2.25 4.56865 2.89994 4.13235 3.90456L5.50821 4.50207C5.70652 4.04543 6.15691 3.75 6.65476 3.75V2.25Z" fill="#23282E"/>
</g>
</g>
</svg>
