<svg width="24" height="24" viewBox="0 0 24 24" fill="none" xmlns="http://www.w3.org/2000/svg">
<g id="&#236;&#185;&#180;&#235;&#147;&#156;&#236;&#185;&#180;&#237;&#133;&#140;&#234;&#179;&#160;&#235;&#166;&#172;=&#237;&#131;&#157;&#236;&#139;&#156;">
<path id="Rectangle 43234" d="M3.6001 18H7.2001V20.2C7.2001 20.6418 6.84193 21 6.4001 21H4.4001C3.95827 21 3.6001 20.6418 3.6001 20.2V18Z" fill="#23282E"/>
<path id="Rectangle 43235" d="M16.8 18H20.4V20.2C20.4 20.6418 20.0419 21 19.6 21H17.6C17.1582 21 16.8 20.6418 16.8 20.2V18Z" fill="#23282E"/>
<rect id="Rectangle 43231" x="9.49976" y="3" width="5" height="2" rx="1" fill="#23282E"/>
<path id="Vector" d="M17.5756 6.00772L16.9244 6.37983V6.37983L17.5756 6.00772ZM19.2899 9.00772L18.6387 9.37983L18.6577 9.41301L18.6799 9.4441L19.2899 9.00772ZM4.70963 9.00772L5.31961 9.4441L5.34185 9.41301L5.36081 9.37983L4.70963 9.00772ZM6.42391 6.00772L5.77273 5.63562L6.42391 6.00772ZM22.4728 9.0001C22.8316 8.793 22.9545 8.33431 22.7474 7.97559C22.5402 7.61687 22.0816 7.49396 21.7228 7.70107L22.4728 9.0001ZM2.37482 7.70107C2.0161 7.49396 1.55741 7.61687 1.35031 7.97559C1.1432 8.33431 1.2661 8.793 1.62482 9.0001L2.37482 7.70107ZM14.9998 18V18.75H15.7498V18H14.9998ZM8.99976 18H8.24976V18.75H8.99976V18ZM8.1604 5.75H15.8391V4.25H8.1604V5.75ZM16.9244 6.37983L18.6387 9.37983L19.9411 8.63562L18.2268 5.63562L16.9244 6.37983ZM5.36081 9.37983L7.0751 6.37983L5.77273 5.63562L4.05845 8.63562L5.36081 9.37983ZM6.44612 10.75H17.5534V9.25H6.44612V10.75ZM4.09965 8.57134C3.90947 8.83718 3.68849 9.2119 3.71728 9.63258C3.75544 10.1903 4.17215 10.4656 4.47256 10.5782C4.75333 10.6835 5.08816 10.7175 5.38711 10.7334C5.70158 10.7502 6.06858 10.75 6.44612 10.75V9.25C6.05583 9.25 5.73312 9.24977 5.46712 9.23556C5.18559 9.22052 5.04918 9.19247 4.99905 9.17368C4.98023 9.16663 5.02842 9.18017 5.08783 9.24317C5.1604 9.32012 5.20661 9.42541 5.21378 9.53018C5.21965 9.61597 5.19629 9.65568 5.20854 9.62661C5.21982 9.59986 5.25031 9.54097 5.31961 9.4441L4.09965 8.57134ZM18.6799 9.4441C18.7492 9.54097 18.7797 9.59986 18.791 9.62661C18.8032 9.65568 18.7799 9.61597 18.7857 9.53018C18.7929 9.42541 18.8391 9.32012 18.9117 9.24317C18.9711 9.18017 19.0193 9.16663 19.0005 9.17368C18.9503 9.19247 18.8139 9.22052 18.5324 9.23556C18.2664 9.24977 17.9437 9.25 17.5534 9.25V10.75C17.9309 10.75 18.2979 10.7502 18.6124 10.7334C18.9114 10.7175 19.2462 10.6835 19.527 10.5782C19.8274 10.4656 20.2441 10.1903 20.2822 9.63258C20.311 9.2119 20.09 8.83718 19.8999 8.57135L18.6799 9.4441ZM15.8391 5.75C16.2877 5.75 16.7019 5.99036 16.9244 6.37983L18.2268 5.63562C17.7372 4.77879 16.826 4.25 15.8391 4.25V5.75ZM8.1604 4.25C7.17355 4.25 6.26235 4.77879 5.77273 5.63562L7.0751 6.37983C7.29765 5.99036 7.71183 5.75 8.1604 5.75V4.25ZM3.99976 10.75H19.9998V9.25H3.99976V10.75ZM21.2498 12V16H22.7498V12H21.2498ZM2.74976 16V12H1.24976V16H2.74976ZM3.99976 18.75H19.9998V17.25H3.99976V18.75ZM1.24976 16C1.24976 17.5188 2.48097 18.75 3.99976 18.75V17.25C3.3094 17.25 2.74976 16.6904 2.74976 16H1.24976ZM21.2498 16C21.2498 16.6904 20.6901 17.25 19.9998 17.25V18.75C21.5185 18.75 22.7498 17.5188 22.7498 16H21.2498ZM19.9998 10.75C20.6901 10.75 21.2498 11.3096 21.2498 12H22.7498C22.7498 10.4812 21.5185 9.25 19.9998 9.25V10.75ZM3.99976 9.25C2.48097 9.25 1.24976 10.4812 1.24976 12H2.74976C2.74976 11.3096 3.3094 10.75 3.99976 10.75V9.25ZM19.8748 10.5001L22.4728 9.0001L21.7228 7.70107L19.1248 9.20107L19.8748 10.5001ZM4.9729 9.20107L2.37482 7.70107L1.62482 9.0001L4.2229 10.5001L4.9729 9.20107ZM9.99976 15.75H13.9998V14.25H9.99976V15.75ZM14.2498 16V18H15.7498V16H14.2498ZM14.9998 17.25H8.99976V18.75H14.9998V17.25ZM9.74976 18V16H8.24976V18H9.74976ZM13.9998 15.75C14.1378 15.75 14.2498 15.8619 14.2498 16H15.7498C15.7498 15.0335 14.9663 14.25 13.9998 14.25V15.75ZM9.99976 14.25C9.03326 14.25 8.24976 15.0335 8.24976 16H9.74976C9.74976 15.8619 9.86169 15.75 9.99976 15.75V14.25Z" fill="#23282E"/>
</g>
</svg>
