<svg width="24" height="24" viewBox="0 0 24 24" fill="none" xmlns="http://www.w3.org/2000/svg">
<g id="&#236;&#185;&#180;&#235;&#147;&#156;&#236;&#185;&#180;&#237;&#133;&#140;&#234;&#179;&#160;&#235;&#166;&#172;=&#236;&#138;&#164;&#237;&#138;&#184;&#235;&#166;&#172;&#235;&#176;&#141;">
<path id="Polygon 30" d="M14.0573 15.7794C14.6668 16.1313 14.6668 17.011 14.0573 17.3629L11.6573 18.7486C11.0478 19.1005 10.2859 18.6606 10.2859 17.9568L10.2859 15.1855C10.2859 14.4817 11.0478 14.0418 11.6573 14.3937L14.0573 15.7794Z" fill="#23282E"/>
<path id="Vector" d="M6.28571 7.42815C6.28571 4.27224 8.84409 1.71387 12 1.71387C15.1559 1.71387 17.7143 4.27224 17.7143 7.42815M9.71429 7.42815C9.71429 6.16579 10.7376 5.14244 12 5.14244C13.2624 5.14244 14.2857 6.16579 14.2857 7.42815M6.28571 10.8567H17.7143C18.9767 10.8567 20 11.8801 20 13.1424V19.9996C20 21.2619 18.9767 22.2853 17.7143 22.2853H6.28571C5.02335 22.2853 4 21.2619 4 19.9996V13.1424C4 11.8801 5.02335 10.8567 6.28571 10.8567Z" stroke="#23282E" stroke-width="1.71429" stroke-linecap="round"/>
</g>
</svg>
