<svg width="21" height="20" viewBox="0 0 21 20" fill="none" xmlns="http://www.w3.org/2000/svg">
<path d="M15.0048 2.00781H6.89788C5.81733 2.00781 4.94138 2.88377 4.94138 3.96431V16.1047C4.94138 17.1852 5.81733 18.0612 6.89788 18.0612H15.0048C16.0854 18.0612 16.9613 17.1852 16.9613 16.1047V3.96431C16.9613 2.88377 16.0854 2.00781 15.0048 2.00781Z" stroke="#8E939A" stroke-width="1.2"/>
<mask id="path-2-inside-1_3573_40474" fill="white">
<path d="M12.4664 4.01367H9.45638C9.17932 4.01367 8.95471 4.23828 8.95471 4.51534C8.95471 4.7924 9.17932 5.01701 9.45638 5.01701H12.4664C12.7434 5.01701 12.968 4.7924 12.968 4.51534C12.968 4.23828 12.7434 4.01367 12.4664 4.01367Z"/>
</mask>
<path d="M12.4664 4.01367H9.45638C9.17932 4.01367 8.95471 4.23828 8.95471 4.51534C8.95471 4.7924 9.17932 5.01701 9.45638 5.01701H12.4664C12.7434 5.01701 12.968 4.7924 12.968 4.51534C12.968 4.23828 12.7434 4.01367 12.4664 4.01367Z" fill="#8E939A"/>
<path d="M9.45638 5.01701H12.4664V3.01034H9.45638V5.01701ZM12.4664 5.01701C12.1893 5.01701 11.9647 4.7924 11.9647 4.51534H13.9714C13.9714 3.68415 13.2976 3.01034 12.4664 3.01034V5.01701ZM11.9647 4.51534C11.9647 4.23828 12.1893 4.01367 12.4664 4.01367V6.02034C13.2976 6.02034 13.9714 5.34653 13.9714 4.51534H11.9647ZM12.4664 4.01367H9.45638V6.02034H12.4664V4.01367ZM9.45638 4.01367C9.73344 4.01367 9.95805 4.23828 9.95805 4.51534H7.95138C7.95138 5.34653 8.62519 6.02034 9.45638 6.02034V4.01367ZM9.95805 4.51534C9.95805 4.7924 9.73344 5.01701 9.45638 5.01701V3.01034C8.62519 3.01034 7.95138 3.68415 7.95138 4.51534H9.95805Z" fill="#8E939A" mask="url(#path-2-inside-1_3573_40474)"/>
<path d="M14.3025 14.0488H13.6403C13.269 14.0488 12.9681 14.3498 12.9681 14.7211V15.3833C12.9681 15.7545 13.269 16.0555 13.6403 16.0555H14.3025C14.6738 16.0555 14.9747 15.7545 14.9747 15.3833V14.7211C14.9747 14.3498 14.6738 14.0488 14.3025 14.0488Z" fill="#8E939A"/>
<path d="M11.2926 14.0488H10.6304C10.2591 14.0488 9.95813 14.3498 9.95813 14.7211V15.3833C9.95813 15.7545 10.2591 16.0555 10.6304 16.0555H11.2926C11.6638 16.0555 11.9648 15.7545 11.9648 15.3833V14.7211C11.9648 14.3498 11.6638 14.0488 11.2926 14.0488Z" fill="#8E939A"/>
<path d="M7.62032 14.5505H8.28252C8.37673 14.5505 8.45309 14.6269 8.45309 14.7211V15.3833C8.45309 15.4775 8.37673 15.5538 8.28252 15.5538H7.62032C7.52612 15.5538 7.44976 15.4775 7.44976 15.3833V14.7211C7.44976 14.6269 7.52612 14.5505 7.62032 14.5505Z" fill="#8E939A" stroke="#8E939A" stroke-width="1.00333"/>
</svg>
