<svg width="21" height="20" viewBox="0 0 21 20" fill="none" xmlns="http://www.w3.org/2000/svg">
<rect x="3.87875" y="7.5" width="13.3333" height="10" rx="1.66667" stroke="#8E939A" stroke-width="1.2"/>
<path d="M8.46207 15.4173C8.46207 14.2667 9.39481 13.334 10.5454 13.334V13.334C11.696 13.334 12.6287 14.2667 12.6287 15.4173V17.5007H8.46207V15.4173Z" stroke="#8E939A" stroke-width="1.2"/>
<path fill-rule="evenodd" clip-rule="evenodd" d="M4.56231 3.50276C4.82673 2.8939 5.42724 2.5 6.09104 2.5H8.04542H13.0454H14.9998C15.6636 2.5 16.2641 2.8939 16.5285 3.50276L18.1084 7.14063C18.8658 8.8846 17.5875 10.8333 15.6862 10.8333C14.2277 10.8333 13.0454 9.65102 13.0454 8.19256V8.33333C13.0454 9.71404 11.9261 10.8333 10.5454 10.8333C9.1647 10.8333 8.04542 9.71405 8.04542 8.33333V8.19256C8.04542 9.65102 6.8631 10.8333 5.40465 10.8333C3.50332 10.8333 2.22506 8.88459 2.98244 7.14063L4.56231 3.50276Z" fill="white"/>
<path d="M18.1084 7.14063L18.6587 6.90163L18.1084 7.14063ZM13.6454 8.19256C13.6454 7.86119 13.3768 7.59256 13.0454 7.59256C12.714 7.59256 12.4454 7.86119 12.4454 8.19256H13.6454ZM8.64542 8.19256C8.64542 7.86119 8.37679 7.59256 8.04542 7.59256C7.71405 7.59256 7.44542 7.86119 7.44542 8.19256H8.64542ZM2.98244 7.14063L2.43209 6.90163L2.98244 7.14063ZM16.5285 3.50276L15.9782 3.74177L16.5285 3.50276ZM8.04542 1.9H6.09104V3.1H8.04542V1.9ZM13.0454 1.9H8.04542V3.1H13.0454V1.9ZM13.0454 3.1H14.9998V1.9H13.0454V3.1ZM15.9782 3.74177L17.5581 7.37964L18.6587 6.90163L17.0789 3.26376L15.9782 3.74177ZM17.5581 7.37964C18.1434 8.72736 17.1555 10.2333 15.6862 10.2333V11.4333C18.0195 11.4333 19.5882 9.04183 18.6587 6.90163L17.5581 7.37964ZM15.6862 10.2333C14.5591 10.2333 13.6454 9.31965 13.6454 8.19256H12.4454C12.4454 9.98239 13.8964 11.4333 15.6862 11.4333V10.2333ZM13.6454 8.33333V8.19256H12.4454V8.33333H13.6454ZM10.5454 11.4333C12.2575 11.4333 13.6454 10.0454 13.6454 8.33333H12.4454C12.4454 9.38267 11.5948 10.2333 10.5454 10.2333V11.4333ZM7.44542 8.33333C7.44542 10.0454 8.83333 11.4333 10.5454 11.4333V10.2333C9.49607 10.2333 8.64542 9.38267 8.64542 8.33333H7.44542ZM7.44542 8.19256V8.33333H8.64542V8.19256H7.44542ZM5.40465 11.4333C7.19448 11.4333 8.64542 9.98239 8.64542 8.19256H7.44542C7.44542 9.31965 6.53173 10.2333 5.40465 10.2333V11.4333ZM2.43209 6.90163C1.50264 9.04183 3.07133 11.4333 5.40465 11.4333V10.2333C3.93532 10.2333 2.94748 8.72736 3.53278 7.37964L2.43209 6.90163ZM4.01197 3.26376L2.43209 6.90163L3.53278 7.37964L5.11265 3.74177L4.01197 3.26376ZM14.9998 3.1C15.4246 3.1 15.809 3.3521 15.9782 3.74177L17.0789 3.26376C16.7193 2.43571 15.9026 1.9 14.9998 1.9V3.1ZM6.09104 1.9C5.18827 1.9 4.37158 2.43571 4.01197 3.26376L5.11265 3.74177C5.28188 3.3521 5.66621 3.1 6.09104 3.1V1.9Z" fill="#8E939A"/>
</svg>
