<svg width="21" height="20" viewBox="0 0 21 20" fill="none" xmlns="http://www.w3.org/2000/svg">
<path d="M8.01849 3.3418H5.7699C5.14896 3.3418 4.6456 3.84516 4.6456 4.46608C4.6456 5.08701 5.14896 5.59037 5.7699 5.59037H8.01849C8.63942 5.59037 9.14279 5.08701 9.14279 4.46608C9.14279 3.84516 8.63942 3.3418 8.01849 3.3418Z" fill="#8E939A"/>
<path d="M14.7643 3.3418H12.5157C11.8948 3.3418 11.3914 3.84516 11.3914 4.46608C11.3914 5.08701 11.8948 5.59037 12.5157 5.59037H14.7643C15.3852 5.59037 15.8886 5.08701 15.8886 4.46608C15.8886 3.84516 15.3852 3.3418 14.7643 3.3418Z" fill="#8E939A"/>
<path d="M5.4533 15.5193C5.38648 15.7587 5.15892 15.9289 4.91543 15.9289H3.5213C3.2134 15.9289 2.95915 15.6747 2.95915 15.3668V9.74538C2.95915 9.43749 3.2134 9.18324 3.5213 9.18324H6.52317C6.89144 9.18324 7.16183 9.54503 7.06198 9.8945L5.45428 15.5158L5.45427 15.5158L5.4533 15.5193Z" stroke="#8E939A" stroke-width="1.12429"/>
<path d="M15.0811 15.5193L15.0811 15.5193L15.0801 15.5158L13.4724 9.8945C13.4724 9.89445 13.4724 9.89441 13.4724 9.89436C13.3727 9.54493 13.643 9.18324 14.0112 9.18324H17.0131C17.321 9.18324 17.5753 9.43749 17.5753 9.74538V15.3668C17.5753 15.6747 17.321 15.9289 17.0131 15.9289H15.619C15.3755 15.9289 15.1479 15.7587 15.0811 15.5193Z" stroke="#8E939A" stroke-width="1.12429"/>
<path d="M14.2652 5H6.27021C4.06159 5 2.27271 6.79 2.27271 9C2.27271 11.21 4.06159 13 6.27021 13C7.74928 13 9.01849 12.19 9.71805 11H10.8274C11.5169 12.19 12.7961 13 14.2752 13C16.4838 13 18.2727 11.21 18.2727 9C18.2727 6.79 16.4838 5 14.2752 5H14.2652Z" fill="white" stroke="#8E939A" stroke-width="1.2"/>
<path d="M14.9874 7.54466C14.9874 7.18453 14.6955 6.89258 14.3353 6.89258C13.9752 6.89258 13.6832 7.18453 13.6832 7.54466V10.1642C13.6832 10.5244 13.9752 10.8163 14.3353 10.8163C14.6955 10.8163 14.9874 10.5244 14.9874 10.1642V7.54466Z" fill="#8E939A"/>
<path d="M13.0255 8.20169C12.6654 8.20169 12.3734 8.49364 12.3734 8.85377C12.3734 9.21391 12.6654 9.50586 13.0255 9.50586H15.6451C16.0053 9.50586 16.2972 9.21391 16.2972 8.85377C16.2972 8.49364 16.0053 8.20169 15.6451 8.20169H13.0255Z" fill="#8E939A"/>
<path d="M6.14806 8.34714C6.5082 8.34714 6.80016 8.05519 6.80016 7.69505C6.80016 7.33492 6.5082 7.04297 6.14806 7.04297C5.78792 7.04297 5.49597 7.33492 5.49597 7.69505C5.49597 8.05519 5.78792 8.34714 6.14806 8.34714Z" fill="#8E939A"/>
<path d="M6.14806 10.9546C6.5082 10.9546 6.80016 10.6626 6.80016 10.3025C6.80016 9.94234 6.5082 9.65039 6.14806 9.65039C5.78792 9.65039 5.49597 9.94234 5.49597 10.3025C5.49597 10.6626 5.78792 10.9546 6.14806 10.9546Z" fill="#8E939A"/>
<path d="M4.84515 9.64987C5.20529 9.64987 5.49724 9.35792 5.49724 8.99779C5.49724 8.63765 5.20529 8.3457 4.84515 8.3457C4.48501 8.3457 4.19305 8.63765 4.19305 8.99779C4.19305 9.35792 4.48501 9.64987 4.84515 9.64987Z" fill="#8E939A"/>
<path d="M7.45162 9.64987C7.81176 9.64987 8.10371 9.35792 8.10371 8.99779C8.10371 8.63765 7.81176 8.3457 7.45162 8.3457C7.09148 8.3457 6.79953 8.63765 6.79953 8.99779C6.79953 9.35792 7.09148 9.64987 7.45162 9.64987Z" fill="#8E939A"/>
</svg>
