<svg width="21" height="20" viewBox="0 0 21 20" fill="none" xmlns="http://www.w3.org/2000/svg">
<path d="M10.3941 19.0009C6.95181 19.0009 4.15433 16.2035 4.15433 12.7612C4.15433 9.31896 6.95181 6.52148 10.3941 6.52148C13.8363 6.52148 16.6338 9.31896 16.6338 12.7612C16.6338 16.2035 13.8363 19.0009 10.3941 19.0009ZM10.3941 8.09182C7.81497 8.09182 5.71426 10.1925 5.71426 12.7716C5.71426 15.3507 7.81497 17.4514 10.3941 17.4514C12.9732 17.4514 15.0739 15.3507 15.0739 12.7716C15.0739 10.1925 12.9732 8.09182 10.3941 8.09182Z" fill="#8E939A"/>
<path d="M13.6727 3.41172L10.3864 6.52119L7.12097 3.39092L8.37932 1.5918L12.4351 1.6126L13.6727 3.41172Z" stroke="#8E939A" stroke-width="1.2" stroke-linejoin="round"/>
<path d="M11.4372 5.74219H9.35728C8.78293 5.74219 8.31732 6.20779 8.31732 6.78214C8.31732 7.35649 8.78293 7.8221 9.35728 7.8221H11.4372C12.0115 7.8221 12.4771 7.35649 12.4771 6.78214C12.4771 6.20779 12.0115 5.74219 11.4372 5.74219Z" fill="#8E939A"/>
</svg>
