<svg width="20" height="20" viewBox="0 0 20 20" fill="none" xmlns="http://www.w3.org/2000/svg">
<path d="M5.99753 17.967C6.82547 17.967 7.49665 17.2958 7.49665 16.4679C7.49665 15.6399 6.82547 14.9688 5.99753 14.9688C5.16959 14.9688 4.49841 15.6399 4.49841 16.4679C4.49841 17.2958 5.16959 17.967 5.99753 17.967Z" fill="#8E939A"/>
<path d="M14.9925 17.967C15.8205 17.967 16.4916 17.2958 16.4916 16.4679C16.4916 15.6399 15.8205 14.9688 14.9925 14.9688C14.1646 14.9688 13.4934 15.6399 13.4934 16.4679C13.4934 17.2958 14.1646 17.967 14.9925 17.967Z" fill="#8E939A"/>
<path d="M1.49963 1.97656H3.49846L4.47751 5.4717" stroke="#8E939A" stroke-width="0.999412" stroke-linecap="round" stroke-linejoin="round"/>
<path d="M4.73478 12.2728L4.73478 12.2728L4.73421 12.2702L3.62486 7.27315L3.62461 7.27203C3.42921 6.39967 4.09101 5.57461 4.98798 5.57461H15.9915C16.8885 5.57461 17.5503 6.39967 17.3549 7.27203L17.3546 7.27315L16.2453 12.2702L16.2447 12.2728C16.105 12.9154 15.5404 13.3693 14.8822 13.3693H6.09732C5.43912 13.3693 4.87449 12.9154 4.73478 12.2728Z" stroke="#8E939A" stroke-width="1.2"/>
<path d="M6.90942 8.05664L7.28404 11.0738" stroke="#8E939A" stroke-width="1.1087" stroke-linecap="round"/>
<path d="M14.3007 8.05664L13.9261 11.0738" stroke="#8E939A" stroke-width="1.1087" stroke-linecap="round"/>
<path d="M10.6051 8.05664L10.6051 11.0132" stroke="#8E939A" stroke-width="1.1087" stroke-linecap="round"/>
</svg>
