<svg width="21" height="20" viewBox="0 0 21 20" fill="none" xmlns="http://www.w3.org/2000/svg">
<path d="M13.2063 6.6H16.2063C16.9769 6.6 17.6063 7.22332 17.6063 8V16C17.6063 16.7686 16.9749 17.4 16.2063 17.4H4.2063C3.43767 17.4 2.8063 16.7686 2.8063 16V4C2.8063 3.22332 3.43571 2.6 4.2063 2.6H9.2063C9.97688 2.6 10.6063 3.22332 10.6063 4C10.6063 4.71044 10.8904 5.36273 11.372 5.83431C11.8436 6.31586 12.4959 6.6 13.2063 6.6Z" stroke="#8E939A" stroke-width="1.2"/>
<path d="M16.2063 4H13.2063C12.654 4 12.2063 4.44772 12.2063 5C12.2063 5.55228 12.654 6 13.2063 6H16.2063C16.7586 6 17.2063 5.55228 17.2063 5C17.2063 4.44772 16.7586 4 16.2063 4Z" fill="#8E939A"/>
<path d="M10.1967 8.42969C10.1967 8.42969 7.5567 10.1897 7.5567 12.8897C7.5567 14.9497 8.7667 15.6897 10.1467 15.6897H10.2367C11.6267 15.6897 12.8267 14.9497 12.8267 12.8897C12.8267 10.1897 10.1867 8.42969 10.1867 8.42969H10.1967Z" fill="#8E939A"/>
</svg>
