<svg width="20" height="20" viewBox="0 0 20 20" fill="none" xmlns="http://www.w3.org/2000/svg">
<path d="M4 16.1699H7V17.5033C7 17.9635 6.6269 18.3366 6.16667 18.3366H4.83333C4.3731 18.3366 4 17.9635 4 17.5033V16.1699Z" fill="#8E939A"/>
<path d="M13 16.1699H16V17.5033C16 17.9635 15.6269 18.3366 15.1667 18.3366H13.8333C13.3731 18.3366 13 17.9635 13 17.5033V16.1699Z" fill="#8E939A"/>
<path d="M7.2915 2.49935C7.2915 2.38429 7.38478 2.29102 7.49984 2.29102H12.4998C12.6149 2.29102 12.7082 2.38429 12.7082 2.49935V2.54102H7.2915V2.49935Z" stroke="#8E939A" stroke-width="1.25"/>
<path d="M2.5 6.48203L17.5 6.48203M2.5 11.482L17.5 11.482M5.83333 16.6654H14.1667C16.0076 16.6654 17.5 15.173 17.5 13.332V6.66536C17.5 4.82442 16.0076 3.33203 14.1667 3.33203H5.83333C3.99238 3.33203 2.5 4.82441 2.5 6.66536V13.332C2.5 15.173 3.99238 16.6654 5.83333 16.6654Z" stroke="#8E939A" stroke-width="1.2"/>
<circle cx="6.04167" cy="13.9577" r="1.04167" fill="#8E939A"/>
<circle cx="13.9582" cy="13.9577" r="1.04167" fill="#8E939A"/>
</svg>
