<svg width="21" height="20" viewBox="0 0 21 20" fill="none" xmlns="http://www.w3.org/2000/svg">
<path d="M15.0547 18H5.13044C3.95868 18 3.02127 17.03 3.09259 15.88L3.85679 3.88C3.92811 2.82 4.81457 2 5.89463 2H14.2906C15.3706 2 16.2571 2.82 16.3284 3.88L17.0926 15.88C17.1639 17.03 16.2367 18 15.0547 18Z" stroke="#8E939A" stroke-width="1.2"/>
<path d="M10.0924 9.52148C8.12586 9.52148 6.52615 7.95148 6.52615 6.02148V5.02148C6.52615 4.74148 6.75032 4.52148 7.03562 4.52148C7.32091 4.52148 7.54508 4.74148 7.54508 5.02148V6.02148C7.54508 7.40148 8.68627 8.52148 10.0924 8.52148C11.4985 8.52148 12.6397 7.40148 12.6397 6.02148V5.02148C12.6397 4.74148 12.8639 4.52148 13.1492 4.52148C13.4345 4.52148 13.6586 4.74148 13.6586 5.02148V6.02148C13.6586 7.95148 12.0589 9.52148 10.0924 9.52148Z" fill="#8E939A"/>
</svg>
