<svg width="21" height="20" viewBox="0 0 21 20" fill="none" xmlns="http://www.w3.org/2000/svg">
<path d="M12.2867 12.8654C12.7486 13.1321 12.7486 13.7988 12.2867 14.0654L10.468 15.1155C10.006 15.3822 9.42867 15.0488 9.42867 14.5155L9.42867 12.4153C9.42867 11.882 10.006 11.5486 10.468 11.8153L12.2867 12.8654Z" fill="#8E939A"/>
<path d="M6.39694 6.53544C6.39694 4.14384 8.3357 2.20508 10.7273 2.20508C13.1189 2.20508 15.0577 4.14384 15.0577 6.53544M8.99515 6.53544C8.99515 5.5788 9.77066 4.80329 10.7273 4.80329C11.6839 4.80329 12.4594 5.5788 12.4594 6.53544M6.39694 9.13365H15.0576C16.0143 9.13365 16.7898 9.90916 16.7898 10.8658V16.0622C16.7898 17.0189 16.0143 17.7944 15.0576 17.7944H6.39694C5.4403 17.7944 4.66479 17.0189 4.66479 16.0622V10.8658C4.66479 9.90916 5.4403 9.13365 6.39694 9.13365Z" stroke="#8E939A" stroke-width="1.2" stroke-linecap="round"/>
</svg>
