<svg width="21" height="20" viewBox="0 0 21 20" fill="none" xmlns="http://www.w3.org/2000/svg">
<path d="M16.8312 13.683L12.1771 11.3436C11.7659 11.1371 11.5998 10.6371 11.8067 10.2268L12.9995 7.86295C13.2392 7.38745 13.8628 7.25703 14.274 7.59667L18.3944 10.9931C18.694 11.2403 18.7838 11.6615 18.6068 12.0093L17.9478 13.3162C17.7408 13.7265 17.2397 13.8922 16.8285 13.6857L16.8312 13.683Z" stroke="#8E939A" stroke-width="1.2"/>
<path fill-rule="evenodd" clip-rule="evenodd" d="M4.13293 11.5571C3.53947 11.4318 2.98739 11.7768 2.7366 12.2681L2.17712 13.3763L2.17632 13.3779C1.8899 13.9495 2.00925 14.7536 2.67819 15.088L2.6791 15.0884L6.11709 16.8158L6.11862 16.8165C6.23303 16.8736 6.349 16.9097 6.46407 16.9273C6.54943 17.0133 6.65159 17.0882 6.77137 17.1481L6.77227 17.1486L10.2103 18.8759L10.211 18.8749C10.8742 19.209 11.5923 18.827 11.8793 18.2553L12.4368 17.1511C12.6841 16.6617 12.6361 16.005 12.176 15.6027L9.18989 12.9818C9.00598 12.8202 8.80473 12.7321 8.60259 12.7027C8.45783 12.5552 8.26576 12.444 8.02474 12.3919L4.13486 11.5575L4.13293 11.5571ZM7.73754 16.2905C7.75567 16.2606 7.77262 16.2302 7.7883 16.1991L8.78425 14.2225L11.381 16.5016C11.382 16.5042 11.3833 16.5087 11.3843 16.5156C11.3875 16.538 11.3844 16.5731 11.3656 16.6103L10.8065 17.7177C10.7829 17.7648 10.7508 17.7868 10.7328 17.7941L10.7313 17.7947L7.73754 16.2905ZM7.26776 13.4568L3.88971 12.7322C3.88698 12.7328 3.88166 12.7345 3.87369 12.7387C3.85383 12.7494 3.82655 12.7727 3.80585 12.8128L3.24887 13.9161C3.22465 13.9648 3.22635 14.0043 3.2311 14.0227L6.22826 15.5287C6.2409 15.4979 6.25465 15.4677 6.26949 15.438L6.27008 15.4369L7.26776 13.4568ZM10.749 17.8036L10.7389 17.7985C10.7426 17.7996 10.7465 17.801 10.7505 17.803L10.7466 17.8084L10.749 17.8036Z" fill="#8E939A"/>
<path d="M2.91872 6.69426L7.57284 9.0337C7.98405 9.2402 8.48514 9.07446 8.69211 8.66417L9.88491 6.30027C10.1246 5.82478 9.8604 5.24603 9.34025 5.11833L4.15237 3.83856C3.77384 3.74618 3.38168 3.92551 3.20739 4.27058L2.54835 5.57752C2.34138 5.9878 2.5075 6.48776 2.91872 6.69426Z" stroke="#8E939A" stroke-width="1.2"/>
<path d="M6.72412 16.4547C5.43328 15.8053 5.4006 14.6315 6.12499 13.1969L10.5149 3.10547C11.2393 1.67354 12.8869 1.02958 14.1778 1.67898C15.4686 2.32837 15.9343 4.03201 15.2126 5.46393L9.70341 14.9929C8.97902 16.4248 8.01497 17.1014 6.72412 16.452V16.4547Z" fill="white"/>
<path fill-rule="evenodd" clip-rule="evenodd" d="M11.0579 3.3604L6.67521 13.4351C6.67064 13.4456 6.66578 13.4559 6.66061 13.4661C6.32132 14.1381 6.20917 14.6578 6.26286 15.0344C6.30832 15.3533 6.4832 15.6481 6.94993 15.8949C6.96474 15.9009 6.97938 15.9076 6.99379 15.9148C7.49268 16.1658 7.84671 16.1333 8.14047 15.9742C8.47673 15.7921 8.82869 15.3917 9.16805 14.7209C9.17309 14.7109 9.17841 14.7011 9.184 14.6914L14.6842 5.1781C15.273 3.99216 14.8477 2.68648 13.9082 2.21381C12.9694 1.74154 11.6643 2.17934 11.0579 3.3604ZM6.50896 17.0136C6.49053 17.0065 6.47235 16.9985 6.4545 16.9895C5.66338 16.5915 5.18597 15.983 5.07487 15.2038C4.97133 14.4775 5.20114 13.6987 5.58154 12.9409L9.96478 2.86496C9.96941 2.85432 9.97435 2.84381 9.97958 2.83346C10.8253 1.16178 12.8084 0.317273 14.4475 1.14182C16.0857 1.96599 16.5922 4.05878 15.7485 5.73281C15.7433 5.74305 15.7378 5.75315 15.7321 5.76308L10.2311 15.2778C9.84719 16.0324 9.35718 16.6799 8.71195 17.0294C8.03574 17.3956 7.28189 17.3859 6.50896 17.0136Z" fill="#8E939A"/>
<rect x="8.05475" y="12.6992" width="1.2" height="4.46282" rx="0.6" transform="rotate(28.1819 8.05475 12.6992)" fill="#8E939A"/>
</svg>
