<svg width="16" height="16" viewBox="0 0 16 16" fill="none" xmlns="http://www.w3.org/2000/svg">
<g id="Group">
<path id="Vector" d="M8 15.5C12.1421 15.5 15.5 12.1421 15.5 8C15.5 3.85786 12.1421 0.5 8 0.5C3.85786 0.5 0.5 3.85786 0.5 8C0.5 12.1421 3.85786 15.5 8 15.5Z" fill="white"/>
<path id="Vector_2" d="M11.0156 8C11.5679 8 12.0156 7.55228 12.0156 7C12.0156 6.44772 11.5679 6 11.0156 6C10.4633 6 10.0156 6.44772 10.0156 7C10.0156 7.55228 10.4633 8 11.0156 8Z" fill="#FF7822"/>
<path id="Vector_3" d="M5.01562 8C5.56791 8 6.01562 7.55228 6.01562 7C6.01562 6.44772 5.56791 6 5.01562 6C4.46334 6 4.01562 6.44772 4.01562 7C4.01562 7.55228 4.46334 8 5.01562 8Z" fill="#FF7822"/>
<path id="Vector_4" d="M6.01484 9.00148C6.01484 9.00148 6.10484 9.00149 6.15484 9.02149C7.36484 9.38149 8.66485 9.38149 9.86485 9.02149C10.1348 8.94149 10.4048 9.09148 10.4848 9.36148C10.5648 9.63148 10.4148 9.90149 10.1448 9.98149C8.74485 10.3915 7.25484 10.3915 5.85484 9.98149C5.59484 9.90149 5.43484 9.62148 5.51484 9.36148C5.57484 9.14148 5.77484 9.00148 5.99484 9.00148H6.01484Z" fill="#FF7822"/>
</g>
</svg>
