<svg width="61" height="60" viewBox="0 0 61 60" fill="none" xmlns="http://www.w3.org/2000/svg">
<rect x="1" y="0.5" width="59" height="59" rx="29.5" stroke="#E8E8E8"/>
<g clip-path="url(#clip0_3075_57603)">
<path d="M45.5 30C45.5 21.7157 38.7843 15 30.5 15C22.2157 15 15.5 21.7157 15.5 30C15.5 37.4868 20.9853 43.6925 28.1562 44.8178V34.3359H24.3477V30H28.1562V26.6953C28.1562 22.9359 30.3957 20.8594 33.822 20.8594C35.4632 20.8594 37.1797 21.1523 37.1797 21.1523V24.8438H35.2883C33.425 24.8438 32.8438 26.0001 32.8438 27.1863V30H37.0039L36.3389 34.3359H32.8438V44.8178C40.0147 43.6925 45.5 37.4871 45.5 30Z" fill="#23282E"/>
<path d="M36.3389 34.3359L37.0039 30H32.8438V27.1863C32.8438 26.0001 33.425 24.8438 35.2883 24.8438H37.1797V21.1523C37.1797 21.1523 35.4632 20.8594 33.822 20.8594C30.3957 20.8594 28.1562 22.9359 28.1562 26.6953V30H24.3477V34.3359H28.1562V44.8178C28.92 44.9376 29.7025 45 30.5 45C31.2975 45 32.08 44.9376 32.8438 44.8178V34.3359H36.3389Z" fill="white"/>
</g>
<defs>
<clipPath id="clip0_3075_57603">
<rect width="30" height="30" fill="white" transform="translate(15.5 15)"/>
</clipPath>
</defs>
</svg>
