<svg width="61" height="60" viewBox="0 0 61 60" fill="none" xmlns="http://www.w3.org/2000/svg">
<rect x="1" y="0.5" width="59" height="59" rx="29.5" stroke="#E8E8E8"/>
<g clip-path="url(#clip0_3214_35695)">
<path d="M22.7913 39.1542L23.0087 38.3537L22.2622 37.9921C17.8054 35.8336 15 32.0636 15 27.9096C15 21.545 21.6968 16 30.5 16C39.303 16 46 21.5479 46 27.9096C46 34.2709 39.3034 39.816 30.5 39.816C29.5024 39.816 28.5287 39.7426 27.5817 39.6045L27.1996 39.5488L26.8793 39.7643C26.3949 40.0901 25.7429 40.5288 25.0405 41.0014C23.884 41.7796 22.591 42.6496 21.6852 43.2587C22.0328 41.9563 22.5479 40.0504 22.7913 39.1542Z" stroke="#23282E" stroke-width="2"/>
<path d="M21.6019 26.2726H22.9538C22.9538 26.2726 22.9612 29.9152 22.9538 30.7645C22.9538 31.3849 24.3603 31.3922 24.3578 30.7742L24.3628 26.3213C24.3628 26.3213 24.8168 26.3237 25.7073 26.3237C26.5482 26.3237 26.5482 25.0268 25.7073 25.0268C24.7597 25.0268 21.5944 25 21.5944 25C20.8006 25 20.8031 26.2726 21.5944 26.2726" fill="#23282E"/>
<mask id="mask0_3214_35695" style="mask-type:luminance" maskUnits="userSpaceOnUse" x="21" y="25" width="6" height="7">
<path d="M21.6019 26.2726H22.9538C22.9538 26.2726 22.9612 29.9152 22.9538 30.7645C22.9538 31.3849 24.3603 31.3922 24.3578 30.7742L24.3628 26.3213C24.3628 26.3213 24.8168 26.3237 25.7073 26.3237C26.5482 26.3237 26.5482 25.0268 25.7073 25.0268C24.7597 25.0268 21.5944 25 21.5944 25C20.8006 25 20.8031 26.2726 21.5944 26.2726" fill="white"/>
</mask>
<g mask="url(#mask0_3214_35695)">
<path d="M26.5508 25H20.8057V31.3922H26.5508V25Z" fill="#23282E"/>
</g>
<path d="M28.0741 26.5092L28.8257 28.8208H27.258L28.0741 26.5092ZM27.2307 25.4264C26.8983 26.1442 25.6952 29.5387 25.2983 30.439C25.0105 31.0887 26.2533 31.6191 26.5411 30.9694L26.8115 30.0423H29.2847C29.2847 30.0423 29.2003 30.0813 29.5278 30.9305C29.7932 31.6191 31.0782 31.1422 30.8127 30.4536C30.4332 29.4705 29.1185 25.9277 28.8778 25.4264C28.7687 25.1952 28.3718 25.0273 27.9873 25.0273C27.6698 25.0273 27.3597 25.1417 27.2282 25.4264" fill="#23282E"/>
<mask id="mask1_3214_35695" style="mask-type:luminance" maskUnits="userSpaceOnUse" x="25" y="25" width="6" height="7">
<path d="M28.0741 26.5092L28.8257 28.8208H27.258L28.0741 26.5092ZM27.2307 25.4264C26.8983 26.1442 25.6952 29.5387 25.2983 30.439C25.0105 31.0887 26.2533 31.6191 26.5411 30.9694L26.8115 30.0423H29.2847C29.2847 30.0423 29.2003 30.0813 29.5278 30.9305C29.7932 31.6191 31.0782 31.1422 30.8127 30.4536C30.4332 29.4705 29.1185 25.9277 28.8778 25.4264C28.7687 25.1952 28.3718 25.0273 27.9873 25.0273C27.6698 25.0273 27.3597 25.1417 27.2282 25.4264" fill="white"/>
</mask>
<g mask="url(#mask1_3214_35695)">
<path d="M31.0804 25.0273H25.0078V31.6215H31.0804V25.0273Z" fill="#23282E"/>
</g>
<path d="M31.2861 25.6381C31.2861 26.7915 31.2936 30.5095 31.2936 30.5095C31.2936 30.5095 31.1844 31.2493 31.8319 31.2493C32.4793 31.2493 33.9107 31.242 34.5457 31.242C35.1807 31.242 35.1783 29.9158 34.5432 29.9158C33.9082 29.9158 32.7472 29.9085 32.7472 29.9085C32.7472 29.9085 32.7522 26.4703 32.7497 25.6332C32.7497 25.2293 32.3826 25.0273 32.0179 25.0273C31.6533 25.0273 31.2837 25.2317 31.2861 25.6357" fill="#23282E"/>
<mask id="mask2_3214_35695" style="mask-type:luminance" maskUnits="userSpaceOnUse" x="31" y="25" width="5" height="7">
<path d="M31.2861 25.6381C31.2861 26.7915 31.2936 30.5095 31.2936 30.5095C31.2936 30.5095 31.1844 31.2493 31.8319 31.2493C32.4793 31.2493 33.9107 31.242 34.5457 31.242C35.1807 31.242 35.1783 29.9158 34.5432 29.9158C33.9082 29.9158 32.7472 29.9085 32.7472 29.9085C32.7472 29.9085 32.7522 26.4703 32.7497 25.6332C32.7497 25.2293 32.3826 25.0273 32.0179 25.0273C31.6533 25.0273 31.2837 25.2317 31.2861 25.6357" fill="white"/>
</mask>
<g mask="url(#mask2_3214_35695)">
<path d="M35.1809 25.0273H31.1846V31.2468H35.1809V25.0273Z" fill="#23282E"/>
</g>
<path d="M35.3494 25.4546C35.3643 25.9608 35.332 30.5353 35.332 30.8736C35.332 31.4089 36.7212 31.4065 36.7212 30.8736C36.7212 30.2531 36.7212 29.0729 36.7212 29.0729L37.128 28.7517L38.9116 31.1364C39.2713 31.6035 40.4049 30.7592 40.0452 30.2944L38.1525 27.849C38.1525 27.849 39.4375 26.4864 39.9435 25.9924C40.2387 25.7053 39.3234 24.8001 39.0282 25.0896C38.7429 25.367 36.7286 27.3453 36.7286 27.3453C36.7286 27.3453 36.746 26.1043 36.7286 25.4181C36.7212 25.1578 36.3962 25.0312 36.0613 25.0312C35.7041 25.0312 35.3395 25.1748 35.3469 25.4546" fill="#23282E"/>
<mask id="mask3_3214_35695" style="mask-type:luminance" maskUnits="userSpaceOnUse" x="35" y="25" width="6" height="7">
<path d="M35.3494 25.4546C35.3643 25.9608 35.332 30.5353 35.332 30.8736C35.332 31.4089 36.7212 31.4065 36.7212 30.8736C36.7212 30.2531 36.7212 29.0729 36.7212 29.0729L37.128 28.7517L38.9116 31.1364C39.2713 31.6035 40.4049 30.7592 40.0452 30.2944L38.1525 27.849C38.1525 27.849 39.4375 26.4864 39.9435 25.9924C40.2387 25.7053 39.3234 24.8001 39.0282 25.0896C38.7429 25.367 36.7286 27.3453 36.7286 27.3453C36.7286 27.3453 36.746 26.1043 36.7286 25.4181C36.7212 25.1578 36.3962 25.0312 36.0613 25.0312C35.7041 25.0312 35.3395 25.1748 35.3469 25.4546" fill="white"/>
</mask>
<g mask="url(#mask3_3214_35695)">
<path d="M40.4074 24.8008H35.3345V31.6042H40.4074V24.8008Z" fill="#23282E"/>
</g>
</g>
<defs>
<clipPath id="clip0_3214_35695">
<rect width="33" height="30" fill="white" transform="translate(14 15)"/>
</clipPath>
</defs>
</svg>
