<svg width="61" height="60" viewBox="0 0 61 60" fill="none" xmlns="http://www.w3.org/2000/svg">
<rect x="1" y="0.5" width="59" height="59" rx="29.5" stroke="#E8E8E8"/>
<path fill-rule="evenodd" clip-rule="evenodd" d="M30.9662 32.1711C30.6168 31.9465 30.3156 31.656 30.0797 31.3162C29.8439 30.9764 29.678 30.594 29.5915 30.1908C29.505 29.7876 29.4997 29.3714 29.5758 28.9662C29.6519 28.5609 29.808 28.1745 30.035 27.8289L33.4948 22.5671C33.7182 22.2137 34.0105 21.9078 34.3547 21.6674C34.6989 21.427 35.0881 21.2568 35.4995 21.1667C35.9109 21.0767 36.3363 21.0686 36.7509 21.143C37.1655 21.2173 37.5609 21.3726 37.9142 21.5999C38.2674 21.8271 38.5714 22.1216 38.8083 22.4663C39.0453 22.811 39.2104 23.1989 39.2942 23.6074C39.3779 24.0159 39.3786 24.4368 39.2961 24.8456C39.2136 25.2543 39.0496 25.6427 38.8138 25.9881L35.3556 31.2515C34.8968 31.9492 34.1766 32.4381 33.3534 32.6105C32.5303 32.783 31.6716 32.6249 30.9662 32.1711ZM27.0924 32.4881C26.5599 31.4979 26.3053 30.3846 26.3553 29.2641C26.4052 28.1436 26.7578 27.0568 27.3764 26.1168L30.8345 20.855C31.7521 19.4593 33.1926 18.4814 34.8391 18.1363C35.6543 17.9654 36.4956 17.9551 37.3149 18.1059C38.1342 18.2567 38.9155 18.5656 39.6141 19.0151C40.3127 19.4645 40.9149 20.0457 41.3865 20.7254C41.858 21.4051 42.1896 22.1701 42.3623 22.9766C42.535 23.7831 42.5455 24.6153 42.3931 25.4258C42.2407 26.2363 41.9284 27.0091 41.474 27.7002L38.0158 32.962C37.4141 33.878 36.5811 34.6228 35.5992 35.1228C34.6173 35.6228 33.5205 35.8606 32.4172 35.8127C31.314 35.7649 30.2424 35.433 29.3085 34.8499C28.3747 34.2668 27.6108 33.4527 27.0924 32.4881Z" fill="#23282E"/>
<path fill-rule="evenodd" clip-rule="evenodd" d="M23.1171 38.3534C22.7677 38.1288 22.4665 37.8383 22.2306 37.4986C21.9947 37.1588 21.8288 36.7764 21.7424 36.3732C21.6559 35.9699 21.6506 35.5538 21.7267 35.1486C21.8028 34.7433 21.9588 34.3569 22.1859 34.0113L25.6457 28.7495C25.8691 28.3961 26.1614 28.0902 26.5056 27.8498C26.8498 27.6093 27.2389 27.4391 27.6503 27.3491C28.0617 27.2591 28.4872 27.251 28.9018 27.3253C29.3163 27.3997 29.7118 27.555 30.0651 27.7822C30.4183 28.0094 30.7223 28.304 30.9592 28.6487C31.1962 28.9933 31.3613 29.3813 31.4451 29.7898C31.5288 30.1983 31.5295 30.6192 31.447 31.028C31.3645 31.4367 31.2005 31.8251 30.9646 32.1705L27.5065 37.4339C27.0476 38.1316 26.3274 38.6205 25.5043 38.7929C24.6811 38.9654 23.8224 38.8073 23.1171 38.3534ZM19.2433 38.6704C18.7108 37.6803 18.4562 36.567 18.5062 35.4465C18.5561 34.326 18.9087 33.2392 19.5272 32.2992L22.9854 27.039C23.4397 26.3479 24.0271 25.7521 24.7141 25.2856C25.4011 24.819 26.1742 24.491 26.9894 24.32C27.8046 24.1491 28.6458 24.1387 29.4651 24.2894C30.2843 24.44 31.0655 24.7489 31.7641 25.1982C32.4627 25.6476 33.065 26.2287 33.5366 26.9083C34.0082 27.5879 34.3399 28.3528 34.5127 29.1592C34.6854 29.9656 34.696 30.7978 34.5437 31.6082C34.3913 32.4187 34.0791 33.1915 33.6249 33.8826L30.1667 39.1444C29.565 40.0604 28.732 40.8052 27.7501 41.3052C26.7682 41.8052 25.6714 42.043 24.5681 41.9951C23.4648 41.9472 22.3933 41.6154 21.4594 41.0323C20.5255 40.4492 19.7616 39.6351 19.2433 38.6704Z" fill="#23282E"/>
</svg>
