<svg width="30" height="30" viewBox="0 0 30 30" fill="none" xmlns="http://www.w3.org/2000/svg">
<g id="Frame 1707484451">
<rect width="30" height="30" fill="white"/>
<g id="Group 1000011735">
<path id="Vector" d="M22.31 26.9902H20.75C20.16 26.9902 19.68 26.5013 19.68 25.9003V21.907H23.39V25.9003C23.39 26.5013 22.91 26.9902 22.32 26.9902H22.31Z" fill="#D7E4FF"/>
<path id="Vector_2" d="M4.12 7.83887H6.02V12.7794H4.12C3.5 12.7794 3 12.2701 3 11.6385V8.97978C3 8.3482 3.5 7.83887 4.12 7.83887Z" fill="#1564FF"/>
<path id="Vector_3" d="M25.93 12.7891H23.98V7.84848H25.93C26.52 7.84848 27 8.33745 27 8.93847V11.6889C27 12.2899 26.52 12.7789 25.93 12.7789V12.7891Z" fill="#1564FF"/>
<path id="Vector_4" d="M6.72998 21.917H10.44V25.9102C10.44 26.5112 9.95998 27.0002 9.36998 27.0002H7.80998C7.21998 27.0002 6.73998 26.5112 6.73998 25.9102V21.917H6.72998Z" fill="#D7E4FF"/>
<path id="Vector_5" d="M24.0999 4.88477H6.00993C5.40993 4.88477 4.92993 5.37373 4.92993 5.98494V23.659C4.92993 24.26 5.40993 24.7591 6.00993 24.7591H24.0999C24.6899 24.7591 25.1799 24.2702 25.1799 23.659V5.98494C25.1799 5.37373 24.6999 4.88477 24.0999 4.88477Z" fill="#1564FF"/>
<path id="Vector_6" d="M21.1099 4.55857L20.8999 3.61121C20.8199 3.25467 20.5099 3 20.1399 3H9.85995C9.48995 3 9.17995 3.25467 9.09995 3.61121L8.88995 4.55857C8.77995 5.04754 9.15995 5.51613 9.64995 5.50594L14.9999 5.48557L20.3499 5.50594C20.8499 5.50594 21.2199 5.04754 21.1099 4.55857Z" fill="#1564FF"/>
<path id="Vector_7" d="M22.27 6.78906H7.84998C7.23142 6.78906 6.72998 7.29987 6.72998 7.92998V15.9266C6.72998 16.5567 7.23142 17.0675 7.84998 17.0675H22.27C22.8885 17.0675 23.39 16.5567 23.39 15.9266V7.92998C23.39 7.29987 22.8885 6.78906 22.27 6.78906Z" fill="#D7E4FF"/>
<path id="Vector_8" d="M8.15998 22.2122C8.94975 22.2122 9.58998 21.5601 9.58998 20.7555C9.58998 19.951 8.94975 19.2988 8.15998 19.2988C7.37021 19.2988 6.72998 19.951 6.72998 20.7555C6.72998 21.5601 7.37021 22.2122 8.15998 22.2122Z" fill="#D7E4FF"/>
<path id="Vector_9" d="M21.95 22.2122C22.7398 22.2122 23.38 21.5601 23.38 20.7555C23.38 19.951 22.7398 19.2988 21.95 19.2988C21.1603 19.2988 20.52 19.951 20.52 20.7555C20.52 21.5601 21.1603 22.2122 21.95 22.2122Z" fill="#D7E4FF"/>
</g>
</g>
</svg>
