<svg width="24" height="24" viewBox="0 0 24 24" fill="none" xmlns="http://www.w3.org/2000/svg">
<g id="_&#236;&#155;&#148;&#236;&#132;&#184;" clip-path="url(#clip0_1466_31505)">
<path id="Vector" d="M12 3.20996L2 9.21996V20.95C2 22.2 3.01 23.21 4.25 23.21H19.74C20.98 23.21 21.99 22.2 21.99 20.95V9.21996L12 3.20996Z" fill="#F1E3FF"/>
<path id="Vector_2" d="M20.07 1.71973H18.75C18.2861 1.71973 17.91 2.09581 17.91 2.55973V6.87973C17.91 7.34365 18.2861 7.71973 18.75 7.71973H20.07C20.534 7.71973 20.91 7.34365 20.91 6.87973V2.55973C20.91 2.09581 20.534 1.71973 20.07 1.71973Z" fill="#F1E3FF"/>
<path id="Vector_3" d="M12.6601 3.89012L22.0501 10.7701C22.2501 10.9201 22.4801 10.9901 22.7101 10.9901C24.0101 10.9901 24.4901 8.89012 23.3701 8.07012L12.6601 0.220117C12.2501 -0.0798828 11.7401 -0.0798828 11.3401 0.220117L0.630057 8.08012C-0.489943 8.90012 -0.00994253 11.0001 1.29006 11.0001C1.52006 11.0001 1.75006 10.9201 1.95006 10.7801L11.3401 3.89012C11.7501 3.59012 12.2601 3.59012 12.6601 3.89012Z" fill="#9327FE"/>
<g id="Group">
<path id="Vector_4" d="M10.15 8.33008H7.8C7.35817 8.33008 7 8.68825 7 9.13008V11.4301C7 11.8719 7.35817 12.2301 7.8 12.2301H10.15C10.5918 12.2301 10.95 11.8719 10.95 11.4301V9.13008C10.95 8.68825 10.5918 8.33008 10.15 8.33008Z" fill="#9327FE"/>
<path id="Vector_5" d="M16.1002 8.33008H13.7502C13.3084 8.33008 12.9502 8.68825 12.9502 9.13008V11.4301C12.9502 11.8719 13.3084 12.2301 13.7502 12.2301H16.1002C16.542 12.2301 16.9002 11.8719 16.9002 11.4301V9.13008C16.9002 8.68825 16.542 8.33008 16.1002 8.33008Z" fill="#9327FE"/>
<path id="Vector_6" d="M10.15 14.2305H7.8C7.35817 14.2305 7 14.5886 7 15.0305V17.3305C7 17.7723 7.35817 18.1305 7.8 18.1305H10.15C10.5918 18.1305 10.95 17.7723 10.95 17.3305V15.0305C10.95 14.5886 10.5918 14.2305 10.15 14.2305Z" fill="#9327FE"/>
<path id="Vector_7" d="M16.1002 14.2305H13.7502C13.3084 14.2305 12.9502 14.5886 12.9502 15.0305V17.3305C12.9502 17.7723 13.3084 18.1305 13.7502 18.1305H16.1002C16.542 18.1305 16.9002 17.7723 16.9002 17.3305V15.0305C16.9002 14.5886 16.542 14.2305 16.1002 14.2305Z" fill="#9327FE"/>
</g>
</g>
<defs>
<clipPath id="clip0_1466_31505">
<rect width="24" height="23.21" fill="white"/>
</clipPath>
</defs>
</svg>
